<?xml version="1.0" encoding="UTF-8" standalone="no"?>
<!DOCTYPE svg PUBLIC "-//W3C//DTD SVG 1.1//EN"
 "http://www.w3.org/Graphics/SVG/1.1/DTD/svg11.dtd">
<!-- Generated by graphviz version 12.2.0 (20241103.1931)
 -->
<!-- Title: ast_AxiomBlock Pages: 1 -->
<svg width="829pt" height="582pt"
 viewBox="0.00 0.00 829.00 582.00" xmlns="http://www.w3.org/2000/svg" xmlns:xlink="http://www.w3.org/1999/xlink">
<g id="graph0" class="graph" transform="scale(1 1) rotate(0) translate(4 578)">
<title>ast_AxiomBlock</title>
<polygon fill="white" stroke="none" points="-4,4 -4,-578 825,-578 825,4 -4,4"/>
<!-- 1 -->
<g id="node1" class="node">
<title>1</title>
<polygon fill="none" stroke="black" points="434.88,-574 319.12,-574 319.12,-533 434.88,-533 434.88,-574"/>
<text text-anchor="middle" x="377" y="-556.7" font-family="Times New Roman,serif" font-size="14.00">NONTERMINAL</text>
<text text-anchor="middle" x="377" y="-540.2" font-family="Times New Roman,serif" font-size="14.00">type: Rule</text>
</g>
<!-- 2 -->
<g id="node2" class="node">
<title>2</title>
<polygon fill="none" stroke="black" points="124,-497 0,-439.5 124,-382 248,-439.5 124,-497"/>
<text text-anchor="middle" x="124" y="-450.95" font-family="Times New Roman,serif" font-size="14.00">TERMINAL</text>
<text text-anchor="middle" x="124" y="-434.45" font-family="Times New Roman,serif" font-size="14.00">type: name</text>
<text text-anchor="middle" x="124" y="-417.95" font-family="Times New Roman,serif" font-size="14.00">string: AxiomBlock</text>
</g>
<!-- 1&#45;&gt;2 -->
<g id="edge1" class="edge">
<title>1&#45;&gt;2</title>
<path fill="none" stroke="black" d="M332.06,-532.61C294.59,-516.02 240.49,-492.07 196.85,-472.75"/>
<polygon fill="black" stroke="black" points="198.51,-469.66 187.95,-468.81 195.68,-476.06 198.51,-469.66"/>
</g>
<!-- 3 -->
<g id="node3" class="node">
<title>3</title>
<ellipse fill="none" stroke="black" cx="315" cy="-439.5" rx="49.5" ry="28.99"/>
<text text-anchor="middle" x="315" y="-442.7" font-family="Times New Roman,serif" font-size="14.00">KEY</text>
<text text-anchor="middle" x="315" y="-426.2" font-family="Times New Roman,serif" font-size="14.00">string: ::=</text>
</g>
<!-- 1&#45;&gt;3 -->
<g id="edge2" class="edge">
<title>1&#45;&gt;3</title>
<path fill="none" stroke="black" d="M366.06,-532.73C357.55,-517.37 345.51,-495.62 335.26,-477.11"/>
<polygon fill="black" stroke="black" points="338.43,-475.59 330.52,-468.54 332.3,-478.98 338.43,-475.59"/>
</g>
<!-- 4 -->
<g id="node4" class="node">
<title>4</title>
<polygon fill="none" stroke="black" points="497.88,-460 382.12,-460 382.12,-419 497.88,-419 497.88,-460"/>
<text text-anchor="middle" x="440" y="-442.7" font-family="Times New Roman,serif" font-size="14.00">NONTERMINAL</text>
<text text-anchor="middle" x="440" y="-426.2" font-family="Times New Roman,serif" font-size="14.00">type: Alternative</text>
</g>
<!-- 1&#45;&gt;4 -->
<g id="edge3" class="edge">
<title>1&#45;&gt;4</title>
<path fill="none" stroke="black" d="M388.12,-532.73C397.82,-515.49 412.04,-490.2 423.14,-470.47"/>
<polygon fill="black" stroke="black" points="426.19,-472.2 428.04,-461.76 420.09,-468.76 426.19,-472.2"/>
</g>
<!-- 5 -->
<g id="node5" class="node">
<title>5</title>
<ellipse fill="none" stroke="black" cx="557" cy="-439.5" rx="41.01" ry="28.99"/>
<text text-anchor="middle" x="557" y="-442.7" font-family="Times New Roman,serif" font-size="14.00">KEY</text>
<text text-anchor="middle" x="557" y="-426.2" font-family="Times New Roman,serif" font-size="14.00">string: ;</text>
</g>
<!-- 1&#45;&gt;5 -->
<g id="edge4" class="edge">
<title>1&#45;&gt;5</title>
<path fill="none" stroke="black" d="M435.23,-533.97C458.76,-524.92 485.41,-512.58 507,-497 515.74,-490.7 524.02,-482.61 531.24,-474.54"/>
<polygon fill="black" stroke="black" points="533.83,-476.91 537.65,-467.02 528.5,-472.36 533.83,-476.91"/>
</g>
<!-- 6 -->
<g id="node6" class="node">
<title>6</title>
<polygon fill="none" stroke="black" points="497.88,-346 382.12,-346 382.12,-305 497.88,-305 497.88,-346"/>
<text text-anchor="middle" x="440" y="-328.7" font-family="Times New Roman,serif" font-size="14.00">NONTERMINAL</text>
<text text-anchor="middle" x="440" y="-312.2" font-family="Times New Roman,serif" font-size="14.00">type: Sequence</text>
</g>
<!-- 4&#45;&gt;6 -->
<g id="edge5" class="edge">
<title>4&#45;&gt;6</title>
<path fill="none" stroke="black" d="M440,-418.73C440,-401.88 440,-377.37 440,-357.84"/>
<polygon fill="black" stroke="black" points="443.5,-357.96 440,-347.96 436.5,-357.96 443.5,-357.96"/>
</g>
<!-- 7 -->
<g id="node7" class="node">
<title>7</title>
<polygon fill="none" stroke="black" points="273,-269 155,-269 155,-228 273,-228 273,-269"/>
<text text-anchor="middle" x="214" y="-251.7" font-family="Times New Roman,serif" font-size="14.00">NONTERMINAL</text>
<text text-anchor="middle" x="214" y="-235.2" font-family="Times New Roman,serif" font-size="14.00">type: RuleElement</text>
</g>
<!-- 6&#45;&gt;7 -->
<g id="edge6" class="edge">
<title>6&#45;&gt;7</title>
<path fill="none" stroke="black" d="M381.8,-305.19C351.97,-295.29 315.41,-283.15 284.04,-272.74"/>
<polygon fill="black" stroke="black" points="285.21,-269.44 274.62,-269.62 283.01,-276.09 285.21,-269.44"/>
</g>
<!-- 8 -->
<g id="node8" class="node">
<title>8</title>
<polygon fill="none" stroke="black" points="431,-269 313,-269 313,-228 431,-228 431,-269"/>
<text text-anchor="middle" x="372" y="-251.7" font-family="Times New Roman,serif" font-size="14.00">NONTERMINAL</text>
<text text-anchor="middle" x="372" y="-235.2" font-family="Times New Roman,serif" font-size="14.00">type: RuleElement</text>
</g>
<!-- 6&#45;&gt;8 -->
<g id="edge7" class="edge">
<title>6&#45;&gt;8</title>
<path fill="none" stroke="black" d="M422.13,-304.79C414.62,-296.51 405.74,-286.71 397.55,-277.68"/>
<polygon fill="black" stroke="black" points="400.31,-275.51 391,-270.46 395.12,-280.21 400.31,-275.51"/>
</g>
<!-- 9 -->
<g id="node9" class="node">
<title>9</title>
<polygon fill="none" stroke="black" points="589,-269 471,-269 471,-228 589,-228 589,-269"/>
<text text-anchor="middle" x="530" y="-251.7" font-family="Times New Roman,serif" font-size="14.00">NONTERMINAL</text>
<text text-anchor="middle" x="530" y="-235.2" font-family="Times New Roman,serif" font-size="14.00">type: RuleElement</text>
</g>
<!-- 6&#45;&gt;9 -->
<g id="edge8" class="edge">
<title>6&#45;&gt;9</title>
<path fill="none" stroke="black" d="M463.65,-304.79C474,-296.16 486.32,-285.9 497.52,-276.57"/>
<polygon fill="black" stroke="black" points="499.59,-279.39 505.04,-270.3 495.11,-274.02 499.59,-279.39"/>
</g>
<!-- 10 -->
<g id="node10" class="node">
<title>10</title>
<polygon fill="none" stroke="black" points="758,-269 640,-269 640,-228 758,-228 758,-269"/>
<text text-anchor="middle" x="699" y="-251.7" font-family="Times New Roman,serif" font-size="14.00">NONTERMINAL</text>
<text text-anchor="middle" x="699" y="-235.2" font-family="Times New Roman,serif" font-size="14.00">type: RuleElement</text>
</g>
<!-- 6&#45;&gt;10 -->
<g id="edge9" class="edge">
<title>6&#45;&gt;10</title>
<path fill="none" stroke="black" d="M498.12,-307.67C536.79,-296.47 587.79,-281.7 628.73,-269.85"/>
<polygon fill="black" stroke="black" points="629.64,-273.23 638.27,-267.09 627.69,-266.51 629.64,-273.23"/>
</g>
<!-- 11 -->
<g id="node11" class="node">
<title>11</title>
<polygon fill="none" stroke="black" points="226.88,-192 111.12,-192 111.12,-151 226.88,-151 226.88,-192"/>
<text text-anchor="middle" x="169" y="-174.7" font-family="Times New Roman,serif" font-size="14.00">NONTERMINAL</text>
<text text-anchor="middle" x="169" y="-158.2" font-family="Times New Roman,serif" font-size="14.00">type: Element</text>
</g>
<!-- 7&#45;&gt;11 -->
<g id="edge10" class="edge">
<title>7&#45;&gt;11</title>
<path fill="none" stroke="black" d="M202.18,-227.79C197.46,-219.93 191.93,-210.71 186.75,-202.08"/>
<polygon fill="black" stroke="black" points="189.83,-200.41 181.68,-193.63 183.82,-204.01 189.83,-200.41"/>
</g>
<!-- 12 -->
<g id="node12" class="node">
<title>12</title>
<polygon fill="none" stroke="black" points="418.88,-192 303.12,-192 303.12,-151 418.88,-151 418.88,-192"/>
<text text-anchor="middle" x="361" y="-174.7" font-family="Times New Roman,serif" font-size="14.00">NONTERMINAL</text>
<text text-anchor="middle" x="361" y="-158.2" font-family="Times New Roman,serif" font-size="14.00">type: Element</text>
</g>
<!-- 8&#45;&gt;12 -->
<g id="edge11" class="edge">
<title>8&#45;&gt;12</title>
<path fill="none" stroke="black" d="M369.11,-227.79C368.02,-220.36 366.75,-211.71 365.55,-203.49"/>
<polygon fill="black" stroke="black" points="369.04,-203.22 364.13,-193.83 362.12,-204.23 369.04,-203.22"/>
</g>
<!-- 13 -->
<g id="node13" class="node">
<title>13</title>
<polygon fill="none" stroke="black" points="592.88,-192 477.12,-192 477.12,-151 592.88,-151 592.88,-192"/>
<text text-anchor="middle" x="535" y="-174.7" font-family="Times New Roman,serif" font-size="14.00">NONTERMINAL</text>
<text text-anchor="middle" x="535" y="-158.2" font-family="Times New Roman,serif" font-size="14.00">type: Element</text>
</g>
<!-- 9&#45;&gt;13 -->
<g id="edge12" class="edge">
<title>9&#45;&gt;13</title>
<path fill="none" stroke="black" d="M531.31,-227.79C531.8,-220.45 532.37,-211.91 532.91,-203.78"/>
<polygon fill="black" stroke="black" points="536.4,-204.06 533.58,-193.84 529.42,-203.59 536.4,-204.06"/>
</g>
<!-- 14 -->
<g id="node14" class="node">
<title>14</title>
<polygon fill="none" stroke="black" points="767.88,-192 652.12,-192 652.12,-151 767.88,-151 767.88,-192"/>
<text text-anchor="middle" x="710" y="-174.7" font-family="Times New Roman,serif" font-size="14.00">NONTERMINAL</text>
<text text-anchor="middle" x="710" y="-158.2" font-family="Times New Roman,serif" font-size="14.00">type: Element</text>
</g>
<!-- 10&#45;&gt;14 -->
<g id="edge13" class="edge">
<title>10&#45;&gt;14</title>
<path fill="none" stroke="black" d="M701.89,-227.79C702.98,-220.36 704.25,-211.71 705.45,-203.49"/>
<polygon fill="black" stroke="black" points="708.88,-204.23 706.87,-193.83 701.96,-203.22 708.88,-204.23"/>
</g>
<!-- 15 -->
<g id="node15" class="node">
<title>15</title>
<polygon fill="none" stroke="black" points="132,-115 26.75,-57.5 132,0 237.25,-57.5 132,-115"/>
<text text-anchor="middle" x="132" y="-68.95" font-family="Times New Roman,serif" font-size="14.00">TERMINAL</text>
<text text-anchor="middle" x="132" y="-52.45" font-family="Times New Roman,serif" font-size="14.00">type: key_name</text>
<text text-anchor="middle" x="132" y="-35.95" font-family="Times New Roman,serif" font-size="14.00">string: &#39;AXIOM&#39;</text>
</g>
<!-- 11&#45;&gt;15 -->
<g id="edge14" class="edge">
<title>11&#45;&gt;15</title>
<path fill="none" stroke="black" d="M162.47,-150.73C159.33,-141.21 155.37,-129.25 151.36,-117.11"/>
<polygon fill="black" stroke="black" points="154.78,-116.3 148.32,-107.9 148.13,-118.5 154.78,-116.3"/>
</g>
<!-- 16 -->
<g id="node16" class="node">
<title>16</title>
<polygon fill="none" stroke="black" points="358,-115 255,-57.5 358,0 461,-57.5 358,-115"/>
<text text-anchor="middle" x="358" y="-68.95" font-family="Times New Roman,serif" font-size="14.00">TERMINAL</text>
<text text-anchor="middle" x="358" y="-52.45" font-family="Times New Roman,serif" font-size="14.00">type: key_name</text>
<text text-anchor="middle" x="358" y="-35.95" font-family="Times New Roman,serif" font-size="14.00">string: &#39;:&#39;</text>
</g>
<!-- 12&#45;&gt;16 -->
<g id="edge15" class="edge">
<title>12&#45;&gt;16</title>
<path fill="none" stroke="black" d="M360.47,-150.73C360.28,-143.58 360.05,-135.05 359.81,-126.1"/>
<polygon fill="black" stroke="black" points="363.31,-126.03 359.54,-116.13 356.31,-126.22 363.31,-126.03"/>
</g>
<!-- 17 -->
<g id="node17" class="node">
<title>17</title>
<ellipse fill="none" stroke="black" cx="538" cy="-57.5" rx="59.04" ry="28.99"/>
<text text-anchor="middle" x="538" y="-60.7" font-family="Times New Roman,serif" font-size="14.00">KEY</text>
<text text-anchor="middle" x="538" y="-44.2" font-family="Times New Roman,serif" font-size="14.00">string: None</text>
</g>
<!-- 13&#45;&gt;17 -->
<g id="edge16" class="edge">
<title>13&#45;&gt;17</title>
<path fill="none" stroke="black" d="M535.53,-150.73C535.92,-136.21 536.46,-115.98 536.94,-98.17"/>
<polygon fill="black" stroke="black" points="540.43,-98.5 537.2,-88.41 533.43,-98.31 540.43,-98.5"/>
</g>
<!-- 18 -->
<g id="node18" class="node">
<title>18</title>
<polygon fill="none" stroke="black" points="718,-115 615,-57.5 718,0 821,-57.5 718,-115"/>
<text text-anchor="middle" x="718" y="-68.95" font-family="Times New Roman,serif" font-size="14.00">TERMINAL</text>
<text text-anchor="middle" x="718" y="-52.45" font-family="Times New Roman,serif" font-size="14.00">type: key_name</text>
<text text-anchor="middle" x="718" y="-35.95" font-family="Times New Roman,serif" font-size="14.00">string: &#39;.&#39;</text>
</g>
<!-- 14&#45;&gt;18 -->
<g id="edge17" class="edge">
<title>14&#45;&gt;18</title>
<path fill="none" stroke="black" d="M711.41,-150.73C711.95,-143.15 712.61,-134.02 713.29,-124.48"/>
<polygon fill="black" stroke="black" points="716.77,-124.91 713.99,-114.68 709.78,-124.41 716.77,-124.91"/>
</g>
</g>
</svg>
