<?xml version="1.0" encoding="UTF-8" standalone="no"?>
<!DOCTYPE svg PUBLIC "-//W3C//DTD SVG 1.1//EN"
 "http://www.w3.org/Graphics/SVG/1.1/DTD/svg11.dtd">
<!-- Generated by graphviz version 12.2.0 (20241103.1931)
 -->
<!-- Title: ast_FunctionCall Pages: 1 -->
<svg width="1024pt" height="964pt"
 viewBox="0.00 0.00 1023.75 964.00" xmlns="http://www.w3.org/2000/svg" xmlns:xlink="http://www.w3.org/1999/xlink">
<g id="graph0" class="graph" transform="scale(1 1) rotate(0) translate(4 960)">
<title>ast_FunctionCall</title>
<polygon fill="white" stroke="none" points="-4,4 -4,-960 1019.75,-960 1019.75,4 -4,4"/>
<!-- 1 -->
<g id="node1" class="node">
<title>1</title>
<polygon fill="none" stroke="black" points="436.62,-956 320.88,-956 320.88,-915 436.62,-915 436.62,-956"/>
<text text-anchor="middle" x="378.75" y="-938.7" font-family="Times New Roman,serif" font-size="14.00">NONTERMINAL</text>
<text text-anchor="middle" x="378.75" y="-922.2" font-family="Times New Roman,serif" font-size="14.00">type: Rule</text>
</g>
<!-- 2 -->
<g id="node2" class="node">
<title>2</title>
<polygon fill="none" stroke="black" points="124.75,-879 0,-821.5 124.75,-764 249.5,-821.5 124.75,-879"/>
<text text-anchor="middle" x="124.75" y="-832.95" font-family="Times New Roman,serif" font-size="14.00">TERMINAL</text>
<text text-anchor="middle" x="124.75" y="-816.45" font-family="Times New Roman,serif" font-size="14.00">type: name</text>
<text text-anchor="middle" x="124.75" y="-799.95" font-family="Times New Roman,serif" font-size="14.00">string: FunctionCall</text>
</g>
<!-- 1&#45;&gt;2 -->
<g id="edge1" class="edge">
<title>1&#45;&gt;2</title>
<path fill="none" stroke="black" d="M333.63,-914.61C296.02,-898.02 241.7,-874.07 197.88,-854.75"/>
<polygon fill="black" stroke="black" points="199.51,-851.64 188.95,-850.81 196.68,-858.04 199.51,-851.64"/>
</g>
<!-- 3 -->
<g id="node3" class="node">
<title>3</title>
<ellipse fill="none" stroke="black" cx="316.75" cy="-821.5" rx="49.5" ry="28.99"/>
<text text-anchor="middle" x="316.75" y="-824.7" font-family="Times New Roman,serif" font-size="14.00">KEY</text>
<text text-anchor="middle" x="316.75" y="-808.2" font-family="Times New Roman,serif" font-size="14.00">string: ::=</text>
</g>
<!-- 1&#45;&gt;3 -->
<g id="edge2" class="edge">
<title>1&#45;&gt;3</title>
<path fill="none" stroke="black" d="M367.81,-914.73C359.3,-899.37 347.26,-877.62 337.01,-859.11"/>
<polygon fill="black" stroke="black" points="340.18,-857.59 332.27,-850.54 334.05,-860.98 340.18,-857.59"/>
</g>
<!-- 4 -->
<g id="node4" class="node">
<title>4</title>
<polygon fill="none" stroke="black" points="499.62,-842 383.88,-842 383.88,-801 499.62,-801 499.62,-842"/>
<text text-anchor="middle" x="441.75" y="-824.7" font-family="Times New Roman,serif" font-size="14.00">NONTERMINAL</text>
<text text-anchor="middle" x="441.75" y="-808.2" font-family="Times New Roman,serif" font-size="14.00">type: Alternative</text>
</g>
<!-- 1&#45;&gt;4 -->
<g id="edge3" class="edge">
<title>1&#45;&gt;4</title>
<path fill="none" stroke="black" d="M389.87,-914.73C399.57,-897.49 413.79,-872.2 424.89,-852.47"/>
<polygon fill="black" stroke="black" points="427.94,-854.2 429.79,-843.76 421.84,-850.76 427.94,-854.2"/>
</g>
<!-- 5 -->
<g id="node5" class="node">
<title>5</title>
<ellipse fill="none" stroke="black" cx="558.75" cy="-821.5" rx="41.01" ry="28.99"/>
<text text-anchor="middle" x="558.75" y="-824.7" font-family="Times New Roman,serif" font-size="14.00">KEY</text>
<text text-anchor="middle" x="558.75" y="-808.2" font-family="Times New Roman,serif" font-size="14.00">string: ;</text>
</g>
<!-- 1&#45;&gt;5 -->
<g id="edge4" class="edge">
<title>1&#45;&gt;5</title>
<path fill="none" stroke="black" d="M436.98,-915.97C460.51,-906.92 487.16,-894.58 508.75,-879 517.49,-872.7 525.77,-864.61 532.99,-856.54"/>
<polygon fill="black" stroke="black" points="535.58,-858.91 539.4,-849.02 530.25,-854.36 535.58,-858.91"/>
</g>
<!-- 6 -->
<g id="node6" class="node">
<title>6</title>
<polygon fill="none" stroke="black" points="499.62,-728 383.88,-728 383.88,-687 499.62,-687 499.62,-728"/>
<text text-anchor="middle" x="441.75" y="-710.7" font-family="Times New Roman,serif" font-size="14.00">NONTERMINAL</text>
<text text-anchor="middle" x="441.75" y="-694.2" font-family="Times New Roman,serif" font-size="14.00">type: Sequence</text>
</g>
<!-- 4&#45;&gt;6 -->
<g id="edge5" class="edge">
<title>4&#45;&gt;6</title>
<path fill="none" stroke="black" d="M441.75,-800.73C441.75,-783.88 441.75,-759.37 441.75,-739.84"/>
<polygon fill="black" stroke="black" points="445.25,-739.96 441.75,-729.96 438.25,-739.96 445.25,-739.96"/>
</g>
<!-- 7 -->
<g id="node7" class="node">
<title>7</title>
<polygon fill="none" stroke="black" points="262.75,-651 144.75,-651 144.75,-610 262.75,-610 262.75,-651"/>
<text text-anchor="middle" x="203.75" y="-633.7" font-family="Times New Roman,serif" font-size="14.00">NONTERMINAL</text>
<text text-anchor="middle" x="203.75" y="-617.2" font-family="Times New Roman,serif" font-size="14.00">type: RuleElement</text>
</g>
<!-- 6&#45;&gt;7 -->
<g id="edge6" class="edge">
<title>6&#45;&gt;7</title>
<path fill="none" stroke="black" d="M383.53,-688.15C350.35,-677.7 308.57,-664.53 273.63,-653.52"/>
<polygon fill="black" stroke="black" points="275.06,-650.3 264.47,-650.63 272.95,-656.98 275.06,-650.3"/>
</g>
<!-- 8 -->
<g id="node8" class="node">
<title>8</title>
<polygon fill="none" stroke="black" points="420.75,-651 302.75,-651 302.75,-610 420.75,-610 420.75,-651"/>
<text text-anchor="middle" x="361.75" y="-633.7" font-family="Times New Roman,serif" font-size="14.00">NONTERMINAL</text>
<text text-anchor="middle" x="361.75" y="-617.2" font-family="Times New Roman,serif" font-size="14.00">type: RuleElement</text>
</g>
<!-- 6&#45;&gt;8 -->
<g id="edge7" class="edge">
<title>6&#45;&gt;8</title>
<path fill="none" stroke="black" d="M420.73,-686.79C411.71,-678.34 401.01,-668.3 391.21,-659.12"/>
<polygon fill="black" stroke="black" points="393.7,-656.66 384.01,-652.37 388.91,-661.76 393.7,-656.66"/>
</g>
<!-- 9 -->
<g id="node9" class="node">
<title>9</title>
<polygon fill="none" stroke="black" points="618.75,-651 500.75,-651 500.75,-610 618.75,-610 618.75,-651"/>
<text text-anchor="middle" x="559.75" y="-633.7" font-family="Times New Roman,serif" font-size="14.00">NONTERMINAL</text>
<text text-anchor="middle" x="559.75" y="-617.2" font-family="Times New Roman,serif" font-size="14.00">type: RuleElement</text>
</g>
<!-- 6&#45;&gt;9 -->
<g id="edge8" class="edge">
<title>6&#45;&gt;9</title>
<path fill="none" stroke="black" d="M473.06,-686.6C487.06,-677.7 503.76,-667.09 518.74,-657.57"/>
<polygon fill="black" stroke="black" points="520.45,-660.62 527.01,-652.31 516.7,-654.72 520.45,-660.62"/>
</g>
<!-- 10 -->
<g id="node10" class="node">
<title>10</title>
<polygon fill="none" stroke="black" points="766.75,-651 648.75,-651 648.75,-610 766.75,-610 766.75,-651"/>
<text text-anchor="middle" x="707.75" y="-633.7" font-family="Times New Roman,serif" font-size="14.00">NONTERMINAL</text>
<text text-anchor="middle" x="707.75" y="-617.2" font-family="Times New Roman,serif" font-size="14.00">type: RuleElement</text>
</g>
<!-- 6&#45;&gt;10 -->
<g id="edge9" class="edge">
<title>6&#45;&gt;10</title>
<path fill="none" stroke="black" d="M500.12,-690.04C540.64,-678.62 594.82,-663.34 637.68,-651.26"/>
<polygon fill="black" stroke="black" points="638.46,-654.67 647.14,-648.59 636.56,-647.94 638.46,-654.67"/>
</g>
<!-- 11 -->
<g id="node11" class="node">
<title>11</title>
<polygon fill="none" stroke="black" points="216.62,-574 100.88,-574 100.88,-533 216.62,-533 216.62,-574"/>
<text text-anchor="middle" x="158.75" y="-556.7" font-family="Times New Roman,serif" font-size="14.00">NONTERMINAL</text>
<text text-anchor="middle" x="158.75" y="-540.2" font-family="Times New Roman,serif" font-size="14.00">type: Element</text>
</g>
<!-- 7&#45;&gt;11 -->
<g id="edge10" class="edge">
<title>7&#45;&gt;11</title>
<path fill="none" stroke="black" d="M191.93,-609.79C187.21,-601.93 181.68,-592.71 176.5,-584.08"/>
<polygon fill="black" stroke="black" points="179.58,-582.41 171.43,-575.63 173.57,-586.01 179.58,-582.41"/>
</g>
<!-- 12 -->
<g id="node12" class="node">
<title>12</title>
<polygon fill="none" stroke="black" points="413.62,-574 297.88,-574 297.88,-533 413.62,-533 413.62,-574"/>
<text text-anchor="middle" x="355.75" y="-556.7" font-family="Times New Roman,serif" font-size="14.00">NONTERMINAL</text>
<text text-anchor="middle" x="355.75" y="-540.2" font-family="Times New Roman,serif" font-size="14.00">type: Element</text>
</g>
<!-- 8&#45;&gt;12 -->
<g id="edge11" class="edge">
<title>8&#45;&gt;12</title>
<path fill="none" stroke="black" d="M360.17,-609.79C359.59,-602.45 358.9,-593.91 358.25,-585.78"/>
<polygon fill="black" stroke="black" points="361.74,-585.53 357.46,-575.84 354.77,-586.09 361.74,-585.53"/>
</g>
<!-- 13 -->
<g id="node13" class="node">
<title>13</title>
<polygon fill="none" stroke="black" points="631.62,-574 515.88,-574 515.88,-533 631.62,-533 631.62,-574"/>
<text text-anchor="middle" x="573.75" y="-556.7" font-family="Times New Roman,serif" font-size="14.00">NONTERMINAL</text>
<text text-anchor="middle" x="573.75" y="-540.2" font-family="Times New Roman,serif" font-size="14.00">type: Optional</text>
</g>
<!-- 9&#45;&gt;13 -->
<g id="edge12" class="edge">
<title>9&#45;&gt;13</title>
<path fill="none" stroke="black" d="M563.43,-609.79C564.82,-602.36 566.43,-593.71 567.96,-585.49"/>
<polygon fill="black" stroke="black" points="571.38,-586.29 569.77,-575.82 564.49,-585.01 571.38,-586.29"/>
</g>
<!-- 14 -->
<g id="node14" class="node">
<title>14</title>
<polygon fill="none" stroke="black" points="772.62,-574 656.88,-574 656.88,-533 772.62,-533 772.62,-574"/>
<text text-anchor="middle" x="714.75" y="-556.7" font-family="Times New Roman,serif" font-size="14.00">NONTERMINAL</text>
<text text-anchor="middle" x="714.75" y="-540.2" font-family="Times New Roman,serif" font-size="14.00">type: Element</text>
</g>
<!-- 10&#45;&gt;14 -->
<g id="edge13" class="edge">
<title>10&#45;&gt;14</title>
<path fill="none" stroke="black" d="M709.59,-609.79C710.28,-602.45 711.07,-593.91 711.83,-585.78"/>
<polygon fill="black" stroke="black" points="715.31,-586.12 712.76,-575.84 708.34,-585.47 715.31,-586.12"/>
</g>
<!-- 15 -->
<g id="node15" class="node">
<title>15</title>
<polygon fill="none" stroke="black" points="126.75,-497 22.25,-439.5 126.75,-382 231.25,-439.5 126.75,-497"/>
<text text-anchor="middle" x="126.75" y="-450.95" font-family="Times New Roman,serif" font-size="14.00">TERMINAL</text>
<text text-anchor="middle" x="126.75" y="-434.45" font-family="Times New Roman,serif" font-size="14.00">type: name</text>
<text text-anchor="middle" x="126.75" y="-417.95" font-family="Times New Roman,serif" font-size="14.00">string: Identifier</text>
</g>
<!-- 11&#45;&gt;15 -->
<g id="edge14" class="edge">
<title>11&#45;&gt;15</title>
<path fill="none" stroke="black" d="M153.1,-532.73C150.47,-523.5 147.17,-511.97 143.81,-500.22"/>
<polygon fill="black" stroke="black" points="147.26,-499.53 141.14,-490.88 140.53,-501.45 147.26,-499.53"/>
</g>
<!-- 16 -->
<g id="node16" class="node">
<title>16</title>
<polygon fill="none" stroke="black" points="352.75,-497 249.75,-439.5 352.75,-382 455.75,-439.5 352.75,-497"/>
<text text-anchor="middle" x="352.75" y="-450.95" font-family="Times New Roman,serif" font-size="14.00">TERMINAL</text>
<text text-anchor="middle" x="352.75" y="-434.45" font-family="Times New Roman,serif" font-size="14.00">type: key_name</text>
<text text-anchor="middle" x="352.75" y="-417.95" font-family="Times New Roman,serif" font-size="14.00">string: &#39;(&#39;</text>
</g>
<!-- 12&#45;&gt;16 -->
<g id="edge15" class="edge">
<title>12&#45;&gt;16</title>
<path fill="none" stroke="black" d="M355.22,-532.73C355.03,-525.58 354.8,-517.05 354.56,-508.1"/>
<polygon fill="black" stroke="black" points="358.06,-508.03 354.29,-498.13 351.06,-508.22 358.06,-508.03"/>
</g>
<!-- 17 -->
<g id="node17" class="node">
<title>17</title>
<ellipse fill="none" stroke="black" cx="515.75" cy="-439.5" rx="41.54" ry="28.99"/>
<text text-anchor="middle" x="515.75" y="-442.7" font-family="Times New Roman,serif" font-size="14.00">KEY</text>
<text text-anchor="middle" x="515.75" y="-426.2" font-family="Times New Roman,serif" font-size="14.00">string: [</text>
</g>
<!-- 13&#45;&gt;17 -->
<g id="edge16" class="edge">
<title>13&#45;&gt;17</title>
<path fill="none" stroke="black" d="M563.51,-532.73C555.59,-517.44 544.4,-495.82 534.84,-477.36"/>
<polygon fill="black" stroke="black" points="537.99,-475.83 530.28,-468.56 531.77,-479.05 537.99,-475.83"/>
</g>
<!-- 18 -->
<g id="node18" class="node">
<title>18</title>
<polygon fill="none" stroke="black" points="690.62,-460 574.88,-460 574.88,-419 690.62,-419 690.62,-460"/>
<text text-anchor="middle" x="632.75" y="-442.7" font-family="Times New Roman,serif" font-size="14.00">NONTERMINAL</text>
<text text-anchor="middle" x="632.75" y="-426.2" font-family="Times New Roman,serif" font-size="14.00">type: Alternative</text>
</g>
<!-- 13&#45;&gt;18 -->
<g id="edge17" class="edge">
<title>13&#45;&gt;18</title>
<path fill="none" stroke="black" d="M584.16,-532.73C593.25,-515.49 606.57,-490.2 616.96,-470.47"/>
<polygon fill="black" stroke="black" points="619.97,-472.26 621.54,-461.78 613.78,-469 619.97,-472.26"/>
</g>
<!-- 19 -->
<g id="node19" class="node">
<title>19</title>
<ellipse fill="none" stroke="black" cx="749.75" cy="-439.5" rx="41.54" ry="28.99"/>
<text text-anchor="middle" x="749.75" y="-442.7" font-family="Times New Roman,serif" font-size="14.00">KEY</text>
<text text-anchor="middle" x="749.75" y="-426.2" font-family="Times New Roman,serif" font-size="14.00">string: ]</text>
</g>
<!-- 13&#45;&gt;19 -->
<g id="edge18" class="edge">
<title>13&#45;&gt;19</title>
<path fill="none" stroke="black" d="M632.07,-532.93C654.4,-523.91 679.38,-511.87 699.75,-497 708.45,-490.65 716.72,-482.54 723.94,-474.47"/>
<polygon fill="black" stroke="black" points="726.52,-476.84 730.35,-466.96 721.2,-472.3 726.52,-476.84"/>
</g>
<!-- 20 -->
<g id="node20" class="node">
<title>20</title>
<polygon fill="none" stroke="black" points="912.75,-497 809.75,-439.5 912.75,-382 1015.75,-439.5 912.75,-497"/>
<text text-anchor="middle" x="912.75" y="-450.95" font-family="Times New Roman,serif" font-size="14.00">TERMINAL</text>
<text text-anchor="middle" x="912.75" y="-434.45" font-family="Times New Roman,serif" font-size="14.00">type: key_name</text>
<text text-anchor="middle" x="912.75" y="-417.95" font-family="Times New Roman,serif" font-size="14.00">string: &#39;)&#39;</text>
</g>
<!-- 14&#45;&gt;20 -->
<g id="edge19" class="edge">
<title>14&#45;&gt;20</title>
<path fill="none" stroke="black" d="M749.69,-532.73C778.09,-516.67 818.8,-493.64 852.44,-474.61"/>
<polygon fill="black" stroke="black" points="853.88,-477.82 860.86,-469.85 850.43,-471.73 853.88,-477.82"/>
</g>
<!-- 21 -->
<g id="node21" class="node">
<title>21</title>
<polygon fill="none" stroke="black" points="690.62,-346 574.88,-346 574.88,-305 690.62,-305 690.62,-346"/>
<text text-anchor="middle" x="632.75" y="-328.7" font-family="Times New Roman,serif" font-size="14.00">NONTERMINAL</text>
<text text-anchor="middle" x="632.75" y="-312.2" font-family="Times New Roman,serif" font-size="14.00">type: Sequence</text>
</g>
<!-- 18&#45;&gt;21 -->
<g id="edge20" class="edge">
<title>18&#45;&gt;21</title>
<path fill="none" stroke="black" d="M632.75,-418.73C632.75,-401.88 632.75,-377.37 632.75,-357.84"/>
<polygon fill="black" stroke="black" points="636.25,-357.96 632.75,-347.96 629.25,-357.96 636.25,-357.96"/>
</g>
<!-- 22 -->
<g id="node22" class="node">
<title>22</title>
<polygon fill="none" stroke="black" points="691.75,-269 573.75,-269 573.75,-228 691.75,-228 691.75,-269"/>
<text text-anchor="middle" x="632.75" y="-251.7" font-family="Times New Roman,serif" font-size="14.00">NONTERMINAL</text>
<text text-anchor="middle" x="632.75" y="-235.2" font-family="Times New Roman,serif" font-size="14.00">type: RuleElement</text>
</g>
<!-- 21&#45;&gt;22 -->
<g id="edge21" class="edge">
<title>21&#45;&gt;22</title>
<path fill="none" stroke="black" d="M632.75,-304.79C632.75,-297.45 632.75,-288.91 632.75,-280.78"/>
<polygon fill="black" stroke="black" points="636.25,-280.85 632.75,-270.85 629.25,-280.85 636.25,-280.85"/>
</g>
<!-- 23 -->
<g id="node23" class="node">
<title>23</title>
<polygon fill="none" stroke="black" points="690.62,-192 574.88,-192 574.88,-151 690.62,-151 690.62,-192"/>
<text text-anchor="middle" x="632.75" y="-174.7" font-family="Times New Roman,serif" font-size="14.00">NONTERMINAL</text>
<text text-anchor="middle" x="632.75" y="-158.2" font-family="Times New Roman,serif" font-size="14.00">type: Element</text>
</g>
<!-- 22&#45;&gt;23 -->
<g id="edge22" class="edge">
<title>22&#45;&gt;23</title>
<path fill="none" stroke="black" d="M632.75,-227.79C632.75,-220.45 632.75,-211.91 632.75,-203.78"/>
<polygon fill="black" stroke="black" points="636.25,-203.85 632.75,-193.85 629.25,-203.85 636.25,-203.85"/>
</g>
<!-- 24 -->
<g id="node24" class="node">
<title>24</title>
<polygon fill="none" stroke="black" points="632.75,-115 518.5,-57.5 632.75,0 747,-57.5 632.75,-115"/>
<text text-anchor="middle" x="632.75" y="-68.95" font-family="Times New Roman,serif" font-size="14.00">TERMINAL</text>
<text text-anchor="middle" x="632.75" y="-52.45" font-family="Times New Roman,serif" font-size="14.00">type: name</text>
<text text-anchor="middle" x="632.75" y="-35.95" font-family="Times New Roman,serif" font-size="14.00">string: Arguments</text>
</g>
<!-- 23&#45;&gt;24 -->
<g id="edge23" class="edge">
<title>23&#45;&gt;24</title>
<path fill="none" stroke="black" d="M632.75,-150.73C632.75,-143.67 632.75,-135.26 632.75,-126.43"/>
<polygon fill="black" stroke="black" points="636.25,-126.61 632.75,-116.61 629.25,-126.61 636.25,-126.61"/>
</g>
</g>
</svg>
