<?xml version="1.0" encoding="UTF-8" standalone="no"?>
<!DOCTYPE svg PUBLIC "-//W3C//DTD SVG 1.1//EN"
 "http://www.w3.org/Graphics/SVG/1.1/DTD/svg11.dtd">
<!-- Generated by graphviz version 12.2.0 (20241103.1931)
 -->
<!-- Title: ast_StructDecl Pages: 1 -->
<svg width="1247pt" height="964pt"
 viewBox="0.00 0.00 1246.50 964.00" xmlns="http://www.w3.org/2000/svg" xmlns:xlink="http://www.w3.org/1999/xlink">
<g id="graph0" class="graph" transform="scale(1 1) rotate(0) translate(4 960)">
<title>ast_StructDecl</title>
<polygon fill="white" stroke="none" points="-4,4 -4,-960 1242.5,-960 1242.5,4 -4,4"/>
<!-- 1 -->
<g id="node1" class="node">
<title>1</title>
<polygon fill="none" stroke="black" points="564.38,-956 448.62,-956 448.62,-915 564.38,-915 564.38,-956"/>
<text text-anchor="middle" x="506.5" y="-938.7" font-family="Times New Roman,serif" font-size="14.00">NONTERMINAL</text>
<text text-anchor="middle" x="506.5" y="-922.2" font-family="Times New Roman,serif" font-size="14.00">type: Rule</text>
</g>
<!-- 2 -->
<g id="node2" class="node">
<title>2</title>
<polygon fill="none" stroke="black" points="265.5,-879 153.5,-821.5 265.5,-764 377.5,-821.5 265.5,-879"/>
<text text-anchor="middle" x="265.5" y="-832.95" font-family="Times New Roman,serif" font-size="14.00">TERMINAL</text>
<text text-anchor="middle" x="265.5" y="-816.45" font-family="Times New Roman,serif" font-size="14.00">type: name</text>
<text text-anchor="middle" x="265.5" y="-799.95" font-family="Times New Roman,serif" font-size="14.00">string: StructDecl</text>
</g>
<!-- 1&#45;&gt;2 -->
<g id="edge1" class="edge">
<title>1&#45;&gt;2</title>
<path fill="none" stroke="black" d="M463.16,-914.5C440.34,-903.96 411.9,-890.8 386.5,-879 369.36,-871.04 350.87,-862.42 333.63,-854.37"/>
<polygon fill="black" stroke="black" points="335.55,-851.4 325.01,-850.34 332.59,-857.74 335.55,-851.4"/>
</g>
<!-- 3 -->
<g id="node3" class="node">
<title>3</title>
<ellipse fill="none" stroke="black" cx="444.5" cy="-821.5" rx="49.5" ry="28.99"/>
<text text-anchor="middle" x="444.5" y="-824.7" font-family="Times New Roman,serif" font-size="14.00">KEY</text>
<text text-anchor="middle" x="444.5" y="-808.2" font-family="Times New Roman,serif" font-size="14.00">string: ::=</text>
</g>
<!-- 1&#45;&gt;3 -->
<g id="edge2" class="edge">
<title>1&#45;&gt;3</title>
<path fill="none" stroke="black" d="M495.56,-914.73C487.05,-899.37 475.01,-877.62 464.76,-859.11"/>
<polygon fill="black" stroke="black" points="467.93,-857.59 460.02,-850.54 461.8,-860.98 467.93,-857.59"/>
</g>
<!-- 4 -->
<g id="node4" class="node">
<title>4</title>
<polygon fill="none" stroke="black" points="627.38,-842 511.62,-842 511.62,-801 627.38,-801 627.38,-842"/>
<text text-anchor="middle" x="569.5" y="-824.7" font-family="Times New Roman,serif" font-size="14.00">NONTERMINAL</text>
<text text-anchor="middle" x="569.5" y="-808.2" font-family="Times New Roman,serif" font-size="14.00">type: Alternative</text>
</g>
<!-- 1&#45;&gt;4 -->
<g id="edge3" class="edge">
<title>1&#45;&gt;4</title>
<path fill="none" stroke="black" d="M517.62,-914.73C527.32,-897.49 541.54,-872.2 552.64,-852.47"/>
<polygon fill="black" stroke="black" points="555.69,-854.2 557.54,-843.76 549.59,-850.76 555.69,-854.2"/>
</g>
<!-- 5 -->
<g id="node5" class="node">
<title>5</title>
<ellipse fill="none" stroke="black" cx="686.5" cy="-821.5" rx="41.01" ry="28.99"/>
<text text-anchor="middle" x="686.5" y="-824.7" font-family="Times New Roman,serif" font-size="14.00">KEY</text>
<text text-anchor="middle" x="686.5" y="-808.2" font-family="Times New Roman,serif" font-size="14.00">string: ;</text>
</g>
<!-- 1&#45;&gt;5 -->
<g id="edge4" class="edge">
<title>1&#45;&gt;5</title>
<path fill="none" stroke="black" d="M564.73,-915.97C588.26,-906.92 614.91,-894.58 636.5,-879 645.24,-872.7 653.52,-864.61 660.74,-856.54"/>
<polygon fill="black" stroke="black" points="663.33,-858.91 667.15,-849.02 658,-854.36 663.33,-858.91"/>
</g>
<!-- 6 -->
<g id="node6" class="node">
<title>6</title>
<polygon fill="none" stroke="black" points="627.38,-728 511.62,-728 511.62,-687 627.38,-687 627.38,-728"/>
<text text-anchor="middle" x="569.5" y="-710.7" font-family="Times New Roman,serif" font-size="14.00">NONTERMINAL</text>
<text text-anchor="middle" x="569.5" y="-694.2" font-family="Times New Roman,serif" font-size="14.00">type: Sequence</text>
</g>
<!-- 4&#45;&gt;6 -->
<g id="edge5" class="edge">
<title>4&#45;&gt;6</title>
<path fill="none" stroke="black" d="M569.5,-800.73C569.5,-783.88 569.5,-759.37 569.5,-739.84"/>
<polygon fill="black" stroke="black" points="573,-739.96 569.5,-729.96 566,-739.96 573,-739.96"/>
</g>
<!-- 7 -->
<g id="node7" class="node">
<title>7</title>
<polygon fill="none" stroke="black" points="290.5,-651 172.5,-651 172.5,-610 290.5,-610 290.5,-651"/>
<text text-anchor="middle" x="231.5" y="-633.7" font-family="Times New Roman,serif" font-size="14.00">NONTERMINAL</text>
<text text-anchor="middle" x="231.5" y="-617.2" font-family="Times New Roman,serif" font-size="14.00">type: RuleElement</text>
</g>
<!-- 6&#45;&gt;7 -->
<g id="edge6" class="edge">
<title>6&#45;&gt;7</title>
<path fill="none" stroke="black" d="M511.4,-693.61C453.26,-680.71 363.78,-660.85 301.7,-647.08"/>
<polygon fill="black" stroke="black" points="302.83,-643.74 292.31,-644.99 301.31,-650.58 302.83,-643.74"/>
</g>
<!-- 8 -->
<g id="node8" class="node">
<title>8</title>
<polygon fill="none" stroke="black" points="470.5,-651 352.5,-651 352.5,-610 470.5,-610 470.5,-651"/>
<text text-anchor="middle" x="411.5" y="-633.7" font-family="Times New Roman,serif" font-size="14.00">NONTERMINAL</text>
<text text-anchor="middle" x="411.5" y="-617.2" font-family="Times New Roman,serif" font-size="14.00">type: RuleElement</text>
</g>
<!-- 6&#45;&gt;8 -->
<g id="edge7" class="edge">
<title>6&#45;&gt;8</title>
<path fill="none" stroke="black" d="M527.57,-686.6C508.02,-677.32 484.55,-666.18 463.85,-656.35"/>
<polygon fill="black" stroke="black" points="465.52,-653.27 454.99,-652.14 462.52,-659.59 465.52,-653.27"/>
</g>
<!-- 9 -->
<g id="node9" class="node">
<title>9</title>
<polygon fill="none" stroke="black" points="628.5,-651 510.5,-651 510.5,-610 628.5,-610 628.5,-651"/>
<text text-anchor="middle" x="569.5" y="-633.7" font-family="Times New Roman,serif" font-size="14.00">NONTERMINAL</text>
<text text-anchor="middle" x="569.5" y="-617.2" font-family="Times New Roman,serif" font-size="14.00">type: RuleElement</text>
</g>
<!-- 6&#45;&gt;9 -->
<g id="edge8" class="edge">
<title>6&#45;&gt;9</title>
<path fill="none" stroke="black" d="M569.5,-686.79C569.5,-679.45 569.5,-670.91 569.5,-662.78"/>
<polygon fill="black" stroke="black" points="573,-662.85 569.5,-652.85 566,-662.85 573,-662.85"/>
</g>
<!-- 10 -->
<g id="node10" class="node">
<title>10</title>
<polygon fill="none" stroke="black" points="833.5,-651 715.5,-651 715.5,-610 833.5,-610 833.5,-651"/>
<text text-anchor="middle" x="774.5" y="-633.7" font-family="Times New Roman,serif" font-size="14.00">NONTERMINAL</text>
<text text-anchor="middle" x="774.5" y="-617.2" font-family="Times New Roman,serif" font-size="14.00">type: RuleElement</text>
</g>
<!-- 6&#45;&gt;10 -->
<g id="edge9" class="edge">
<title>6&#45;&gt;10</title>
<path fill="none" stroke="black" d="M623.9,-686.6C650.08,-677.02 681.67,-665.46 709.15,-655.41"/>
<polygon fill="black" stroke="black" points="710.24,-658.74 718.43,-652.01 707.83,-652.16 710.24,-658.74"/>
</g>
<!-- 11 -->
<g id="node11" class="node">
<title>11</title>
<polygon fill="none" stroke="black" points="982.5,-651 864.5,-651 864.5,-610 982.5,-610 982.5,-651"/>
<text text-anchor="middle" x="923.5" y="-633.7" font-family="Times New Roman,serif" font-size="14.00">NONTERMINAL</text>
<text text-anchor="middle" x="923.5" y="-617.2" font-family="Times New Roman,serif" font-size="14.00">type: RuleElement</text>
</g>
<!-- 6&#45;&gt;11 -->
<g id="edge10" class="edge">
<title>6&#45;&gt;11</title>
<path fill="none" stroke="black" d="M627.68,-695.3C683.03,-684.49 768.61,-667.4 842.5,-651 846.03,-650.22 849.64,-649.4 853.29,-648.56"/>
<polygon fill="black" stroke="black" points="853.85,-652.03 862.8,-646.36 852.27,-645.21 853.85,-652.03"/>
</g>
<!-- 12 -->
<g id="node12" class="node">
<title>12</title>
<polygon fill="none" stroke="black" points="252.38,-574 136.62,-574 136.62,-533 252.38,-533 252.38,-574"/>
<text text-anchor="middle" x="194.5" y="-556.7" font-family="Times New Roman,serif" font-size="14.00">NONTERMINAL</text>
<text text-anchor="middle" x="194.5" y="-540.2" font-family="Times New Roman,serif" font-size="14.00">type: Element</text>
</g>
<!-- 7&#45;&gt;12 -->
<g id="edge11" class="edge">
<title>7&#45;&gt;12</title>
<path fill="none" stroke="black" d="M221.78,-609.79C217.98,-602.1 213.55,-593.11 209.37,-584.65"/>
<polygon fill="black" stroke="black" points="212.52,-583.11 204.95,-575.69 206.24,-586.21 212.52,-583.11"/>
</g>
<!-- 13 -->
<g id="node13" class="node">
<title>13</title>
<polygon fill="none" stroke="black" points="435.38,-574 319.62,-574 319.62,-533 435.38,-533 435.38,-574"/>
<text text-anchor="middle" x="377.5" y="-556.7" font-family="Times New Roman,serif" font-size="14.00">NONTERMINAL</text>
<text text-anchor="middle" x="377.5" y="-540.2" font-family="Times New Roman,serif" font-size="14.00">type: Element</text>
</g>
<!-- 8&#45;&gt;13 -->
<g id="edge12" class="edge">
<title>8&#45;&gt;13</title>
<path fill="none" stroke="black" d="M402.57,-609.79C399.08,-602.1 395.01,-593.11 391.17,-584.65"/>
<polygon fill="black" stroke="black" points="394.43,-583.38 387.12,-575.71 388.06,-586.27 394.43,-583.38"/>
</g>
<!-- 14 -->
<g id="node14" class="node">
<title>14</title>
<polygon fill="none" stroke="black" points="627.38,-574 511.62,-574 511.62,-533 627.38,-533 627.38,-574"/>
<text text-anchor="middle" x="569.5" y="-556.7" font-family="Times New Roman,serif" font-size="14.00">NONTERMINAL</text>
<text text-anchor="middle" x="569.5" y="-540.2" font-family="Times New Roman,serif" font-size="14.00">type: Element</text>
</g>
<!-- 9&#45;&gt;14 -->
<g id="edge13" class="edge">
<title>9&#45;&gt;14</title>
<path fill="none" stroke="black" d="M569.5,-609.79C569.5,-602.45 569.5,-593.91 569.5,-585.78"/>
<polygon fill="black" stroke="black" points="573,-585.85 569.5,-575.85 566,-585.85 573,-585.85"/>
</g>
<!-- 15 -->
<g id="node15" class="node">
<title>15</title>
<polygon fill="none" stroke="black" points="850.38,-574 734.62,-574 734.62,-533 850.38,-533 850.38,-574"/>
<text text-anchor="middle" x="792.5" y="-556.7" font-family="Times New Roman,serif" font-size="14.00">NONTERMINAL</text>
<text text-anchor="middle" x="792.5" y="-540.2" font-family="Times New Roman,serif" font-size="14.00">type: Iteration</text>
</g>
<!-- 10&#45;&gt;15 -->
<g id="edge14" class="edge">
<title>10&#45;&gt;15</title>
<path fill="none" stroke="black" d="M779.23,-609.79C781.01,-602.36 783.09,-593.71 785.06,-585.49"/>
<polygon fill="black" stroke="black" points="788.46,-586.35 787.39,-575.81 781.65,-584.71 788.46,-586.35"/>
</g>
<!-- 16 -->
<g id="node16" class="node">
<title>16</title>
<polygon fill="none" stroke="black" points="991.38,-574 875.62,-574 875.62,-533 991.38,-533 991.38,-574"/>
<text text-anchor="middle" x="933.5" y="-556.7" font-family="Times New Roman,serif" font-size="14.00">NONTERMINAL</text>
<text text-anchor="middle" x="933.5" y="-540.2" font-family="Times New Roman,serif" font-size="14.00">type: Element</text>
</g>
<!-- 11&#45;&gt;16 -->
<g id="edge15" class="edge">
<title>11&#45;&gt;16</title>
<path fill="none" stroke="black" d="M926.13,-609.79C927.12,-602.36 928.27,-593.71 929.37,-585.49"/>
<polygon fill="black" stroke="black" points="932.8,-586.21 930.66,-575.83 925.86,-585.28 932.8,-586.21"/>
</g>
<!-- 17 -->
<g id="node17" class="node">
<title>17</title>
<polygon fill="none" stroke="black" points="110.5,-497 0,-439.5 110.5,-382 221,-439.5 110.5,-497"/>
<text text-anchor="middle" x="110.5" y="-450.95" font-family="Times New Roman,serif" font-size="14.00">TERMINAL</text>
<text text-anchor="middle" x="110.5" y="-434.45" font-family="Times New Roman,serif" font-size="14.00">type: key_name</text>
<text text-anchor="middle" x="110.5" y="-417.95" font-family="Times New Roman,serif" font-size="14.00">string: &#39;STRUCT&#39;</text>
</g>
<!-- 12&#45;&gt;17 -->
<g id="edge16" class="edge">
<title>12&#45;&gt;17</title>
<path fill="none" stroke="black" d="M179.68,-532.73C170.86,-520.98 159.25,-505.5 148.06,-490.58"/>
<polygon fill="black" stroke="black" points="150.88,-488.51 142.08,-482.61 145.28,-492.71 150.88,-488.51"/>
</g>
<!-- 18 -->
<g id="node18" class="node">
<title>18</title>
<polygon fill="none" stroke="black" points="343.5,-497 239,-439.5 343.5,-382 448,-439.5 343.5,-497"/>
<text text-anchor="middle" x="343.5" y="-450.95" font-family="Times New Roman,serif" font-size="14.00">TERMINAL</text>
<text text-anchor="middle" x="343.5" y="-434.45" font-family="Times New Roman,serif" font-size="14.00">type: name</text>
<text text-anchor="middle" x="343.5" y="-417.95" font-family="Times New Roman,serif" font-size="14.00">string: Identifier</text>
</g>
<!-- 13&#45;&gt;18 -->
<g id="edge17" class="edge">
<title>13&#45;&gt;18</title>
<path fill="none" stroke="black" d="M371.5,-532.73C368.67,-523.41 365.12,-511.73 361.52,-499.85"/>
<polygon fill="black" stroke="black" points="364.9,-498.94 358.65,-490.39 358.2,-500.98 364.9,-498.94"/>
</g>
<!-- 19 -->
<g id="node19" class="node">
<title>19</title>
<polygon fill="none" stroke="black" points="569.5,-497 466.5,-439.5 569.5,-382 672.5,-439.5 569.5,-497"/>
<text text-anchor="middle" x="569.5" y="-450.95" font-family="Times New Roman,serif" font-size="14.00">TERMINAL</text>
<text text-anchor="middle" x="569.5" y="-434.45" font-family="Times New Roman,serif" font-size="14.00">type: key_name</text>
<text text-anchor="middle" x="569.5" y="-417.95" font-family="Times New Roman,serif" font-size="14.00">string: &#39;{&#39;</text>
</g>
<!-- 14&#45;&gt;19 -->
<g id="edge18" class="edge">
<title>14&#45;&gt;19</title>
<path fill="none" stroke="black" d="M569.5,-532.73C569.5,-525.67 569.5,-517.26 569.5,-508.43"/>
<polygon fill="black" stroke="black" points="573,-508.61 569.5,-498.61 566,-508.61 573,-508.61"/>
</g>
<!-- 20 -->
<g id="node20" class="node">
<title>20</title>
<ellipse fill="none" stroke="black" cx="733.5" cy="-439.5" rx="43.13" ry="28.99"/>
<text text-anchor="middle" x="733.5" y="-442.7" font-family="Times New Roman,serif" font-size="14.00">KEY</text>
<text text-anchor="middle" x="733.5" y="-426.2" font-family="Times New Roman,serif" font-size="14.00">string: {</text>
</g>
<!-- 15&#45;&gt;20 -->
<g id="edge19" class="edge">
<title>15&#45;&gt;20</title>
<path fill="none" stroke="black" d="M782.09,-532.73C774.03,-517.44 762.64,-495.82 752.92,-477.36"/>
<polygon fill="black" stroke="black" points="756.03,-475.77 748.28,-468.55 749.84,-479.03 756.03,-475.77"/>
</g>
<!-- 21 -->
<g id="node21" class="node">
<title>21</title>
<polygon fill="none" stroke="black" points="910.38,-460 794.62,-460 794.62,-419 910.38,-419 910.38,-460"/>
<text text-anchor="middle" x="852.5" y="-442.7" font-family="Times New Roman,serif" font-size="14.00">NONTERMINAL</text>
<text text-anchor="middle" x="852.5" y="-426.2" font-family="Times New Roman,serif" font-size="14.00">type: Alternative</text>
</g>
<!-- 15&#45;&gt;21 -->
<g id="edge20" class="edge">
<title>15&#45;&gt;21</title>
<path fill="none" stroke="black" d="M803.09,-532.73C812.33,-515.49 825.87,-490.2 836.45,-470.47"/>
<polygon fill="black" stroke="black" points="839.46,-472.25 841.1,-461.78 833.29,-468.94 839.46,-472.25"/>
</g>
<!-- 22 -->
<g id="node22" class="node">
<title>22</title>
<ellipse fill="none" stroke="black" cx="971.5" cy="-439.5" rx="43.13" ry="28.99"/>
<text text-anchor="middle" x="971.5" y="-442.7" font-family="Times New Roman,serif" font-size="14.00">KEY</text>
<text text-anchor="middle" x="971.5" y="-426.2" font-family="Times New Roman,serif" font-size="14.00">string: }</text>
</g>
<!-- 15&#45;&gt;22 -->
<g id="edge21" class="edge">
<title>15&#45;&gt;22</title>
<path fill="none" stroke="black" d="M850.82,-532.92C873.39,-523.87 898.73,-511.81 919.5,-497 928.52,-490.57 937.17,-482.35 944.73,-474.2"/>
<polygon fill="black" stroke="black" points="947.17,-476.73 951.19,-466.92 941.93,-472.08 947.17,-476.73"/>
</g>
<!-- 23 -->
<g id="node23" class="node">
<title>23</title>
<polygon fill="none" stroke="black" points="1135.5,-497 1032.5,-439.5 1135.5,-382 1238.5,-439.5 1135.5,-497"/>
<text text-anchor="middle" x="1135.5" y="-450.95" font-family="Times New Roman,serif" font-size="14.00">TERMINAL</text>
<text text-anchor="middle" x="1135.5" y="-434.45" font-family="Times New Roman,serif" font-size="14.00">type: key_name</text>
<text text-anchor="middle" x="1135.5" y="-417.95" font-family="Times New Roman,serif" font-size="14.00">string: &#39;}&#39;</text>
</g>
<!-- 16&#45;&gt;23 -->
<g id="edge22" class="edge">
<title>16&#45;&gt;23</title>
<path fill="none" stroke="black" d="M969.15,-532.73C998.22,-516.62 1039.95,-493.48 1074.34,-474.41"/>
<polygon fill="black" stroke="black" points="1075.92,-477.54 1082.96,-469.63 1072.52,-471.42 1075.92,-477.54"/>
</g>
<!-- 24 -->
<g id="node24" class="node">
<title>24</title>
<polygon fill="none" stroke="black" points="910.38,-346 794.62,-346 794.62,-305 910.38,-305 910.38,-346"/>
<text text-anchor="middle" x="852.5" y="-328.7" font-family="Times New Roman,serif" font-size="14.00">NONTERMINAL</text>
<text text-anchor="middle" x="852.5" y="-312.2" font-family="Times New Roman,serif" font-size="14.00">type: Sequence</text>
</g>
<!-- 21&#45;&gt;24 -->
<g id="edge23" class="edge">
<title>21&#45;&gt;24</title>
<path fill="none" stroke="black" d="M852.5,-418.73C852.5,-401.88 852.5,-377.37 852.5,-357.84"/>
<polygon fill="black" stroke="black" points="856,-357.96 852.5,-347.96 849,-357.96 856,-357.96"/>
</g>
<!-- 25 -->
<g id="node25" class="node">
<title>25</title>
<polygon fill="none" stroke="black" points="911.5,-269 793.5,-269 793.5,-228 911.5,-228 911.5,-269"/>
<text text-anchor="middle" x="852.5" y="-251.7" font-family="Times New Roman,serif" font-size="14.00">NONTERMINAL</text>
<text text-anchor="middle" x="852.5" y="-235.2" font-family="Times New Roman,serif" font-size="14.00">type: RuleElement</text>
</g>
<!-- 24&#45;&gt;25 -->
<g id="edge24" class="edge">
<title>24&#45;&gt;25</title>
<path fill="none" stroke="black" d="M852.5,-304.79C852.5,-297.45 852.5,-288.91 852.5,-280.78"/>
<polygon fill="black" stroke="black" points="856,-280.85 852.5,-270.85 849,-280.85 856,-280.85"/>
</g>
<!-- 26 -->
<g id="node26" class="node">
<title>26</title>
<polygon fill="none" stroke="black" points="910.38,-192 794.62,-192 794.62,-151 910.38,-151 910.38,-192"/>
<text text-anchor="middle" x="852.5" y="-174.7" font-family="Times New Roman,serif" font-size="14.00">NONTERMINAL</text>
<text text-anchor="middle" x="852.5" y="-158.2" font-family="Times New Roman,serif" font-size="14.00">type: Element</text>
</g>
<!-- 25&#45;&gt;26 -->
<g id="edge25" class="edge">
<title>25&#45;&gt;26</title>
<path fill="none" stroke="black" d="M852.5,-227.79C852.5,-220.45 852.5,-211.91 852.5,-203.78"/>
<polygon fill="black" stroke="black" points="856,-203.85 852.5,-193.85 849,-203.85 856,-203.85"/>
</g>
<!-- 27 -->
<g id="node27" class="node">
<title>27</title>
<polygon fill="none" stroke="black" points="852.5,-115 745,-57.5 852.5,0 960,-57.5 852.5,-115"/>
<text text-anchor="middle" x="852.5" y="-68.95" font-family="Times New Roman,serif" font-size="14.00">TERMINAL</text>
<text text-anchor="middle" x="852.5" y="-52.45" font-family="Times New Roman,serif" font-size="14.00">type: name</text>
<text text-anchor="middle" x="852.5" y="-35.95" font-family="Times New Roman,serif" font-size="14.00">string: FieldDecl</text>
</g>
<!-- 26&#45;&gt;27 -->
<g id="edge26" class="edge">
<title>26&#45;&gt;27</title>
<path fill="none" stroke="black" d="M852.5,-150.73C852.5,-143.67 852.5,-135.26 852.5,-126.43"/>
<polygon fill="black" stroke="black" points="856,-126.61 852.5,-116.61 849,-126.61 856,-126.61"/>
</g>
</g>
</svg>
