<?xml version="1.0" encoding="UTF-8" standalone="no"?>
<!DOCTYPE svg PUBLIC "-//W3C//DTD SVG 1.1//EN"
 "http://www.w3.org/Graphics/SVG/1.1/DTD/svg11.dtd">
<!-- Generated by graphviz version 12.2.0 (20241103.1931)
 -->
<!-- Title: ast_Assignment Pages: 1 -->
<svg width="787pt" height="582pt"
 viewBox="0.00 0.00 787.00 582.00" xmlns="http://www.w3.org/2000/svg" xmlns:xlink="http://www.w3.org/1999/xlink">
<g id="graph0" class="graph" transform="scale(1 1) rotate(0) translate(4 578)">
<title>ast_Assignment</title>
<polygon fill="white" stroke="none" points="-4,4 -4,-578 783,-578 783,4 -4,4"/>
<!-- 1 -->
<g id="node1" class="node">
<title>1</title>
<polygon fill="none" stroke="black" points="424.62,-574 308.88,-574 308.88,-533 424.62,-533 424.62,-574"/>
<text text-anchor="middle" x="366.75" y="-556.7" font-family="Times New Roman,serif" font-size="14.00">NONTERMINAL</text>
<text text-anchor="middle" x="366.75" y="-540.2" font-family="Times New Roman,serif" font-size="14.00">type: Rule</text>
</g>
<!-- 2 -->
<g id="node2" class="node">
<title>2</title>
<polygon fill="none" stroke="black" points="118.75,-497 0,-439.5 118.75,-382 237.5,-439.5 118.75,-497"/>
<text text-anchor="middle" x="118.75" y="-450.95" font-family="Times New Roman,serif" font-size="14.00">TERMINAL</text>
<text text-anchor="middle" x="118.75" y="-434.45" font-family="Times New Roman,serif" font-size="14.00">type: name</text>
<text text-anchor="middle" x="118.75" y="-417.95" font-family="Times New Roman,serif" font-size="14.00">string: Assignment</text>
</g>
<!-- 1&#45;&gt;2 -->
<g id="edge1" class="edge">
<title>1&#45;&gt;2</title>
<path fill="none" stroke="black" d="M322.7,-532.61C285.92,-516 232.79,-492 189.98,-472.67"/>
<polygon fill="black" stroke="black" points="191.55,-469.54 180.99,-468.61 188.66,-475.91 191.55,-469.54"/>
</g>
<!-- 3 -->
<g id="node3" class="node">
<title>3</title>
<ellipse fill="none" stroke="black" cx="304.75" cy="-439.5" rx="49.5" ry="28.99"/>
<text text-anchor="middle" x="304.75" y="-442.7" font-family="Times New Roman,serif" font-size="14.00">KEY</text>
<text text-anchor="middle" x="304.75" y="-426.2" font-family="Times New Roman,serif" font-size="14.00">string: ::=</text>
</g>
<!-- 1&#45;&gt;3 -->
<g id="edge2" class="edge">
<title>1&#45;&gt;3</title>
<path fill="none" stroke="black" d="M355.81,-532.73C347.3,-517.37 335.26,-495.62 325.01,-477.11"/>
<polygon fill="black" stroke="black" points="328.18,-475.59 320.27,-468.54 322.05,-478.98 328.18,-475.59"/>
</g>
<!-- 4 -->
<g id="node4" class="node">
<title>4</title>
<polygon fill="none" stroke="black" points="487.62,-460 371.88,-460 371.88,-419 487.62,-419 487.62,-460"/>
<text text-anchor="middle" x="429.75" y="-442.7" font-family="Times New Roman,serif" font-size="14.00">NONTERMINAL</text>
<text text-anchor="middle" x="429.75" y="-426.2" font-family="Times New Roman,serif" font-size="14.00">type: Alternative</text>
</g>
<!-- 1&#45;&gt;4 -->
<g id="edge3" class="edge">
<title>1&#45;&gt;4</title>
<path fill="none" stroke="black" d="M377.87,-532.73C387.57,-515.49 401.79,-490.2 412.89,-470.47"/>
<polygon fill="black" stroke="black" points="415.94,-472.2 417.79,-461.76 409.84,-468.76 415.94,-472.2"/>
</g>
<!-- 5 -->
<g id="node5" class="node">
<title>5</title>
<ellipse fill="none" stroke="black" cx="546.75" cy="-439.5" rx="41.01" ry="28.99"/>
<text text-anchor="middle" x="546.75" y="-442.7" font-family="Times New Roman,serif" font-size="14.00">KEY</text>
<text text-anchor="middle" x="546.75" y="-426.2" font-family="Times New Roman,serif" font-size="14.00">string: ;</text>
</g>
<!-- 1&#45;&gt;5 -->
<g id="edge4" class="edge">
<title>1&#45;&gt;5</title>
<path fill="none" stroke="black" d="M424.98,-533.97C448.51,-524.92 475.16,-512.58 496.75,-497 505.49,-490.7 513.77,-482.61 520.99,-474.54"/>
<polygon fill="black" stroke="black" points="523.58,-476.91 527.4,-467.02 518.25,-472.36 523.58,-476.91"/>
</g>
<!-- 6 -->
<g id="node6" class="node">
<title>6</title>
<polygon fill="none" stroke="black" points="487.62,-346 371.88,-346 371.88,-305 487.62,-305 487.62,-346"/>
<text text-anchor="middle" x="429.75" y="-328.7" font-family="Times New Roman,serif" font-size="14.00">NONTERMINAL</text>
<text text-anchor="middle" x="429.75" y="-312.2" font-family="Times New Roman,serif" font-size="14.00">type: Sequence</text>
</g>
<!-- 4&#45;&gt;6 -->
<g id="edge5" class="edge">
<title>4&#45;&gt;6</title>
<path fill="none" stroke="black" d="M429.75,-418.73C429.75,-401.88 429.75,-377.37 429.75,-357.84"/>
<polygon fill="black" stroke="black" points="433.25,-357.96 429.75,-347.96 426.25,-357.96 433.25,-357.96"/>
</g>
<!-- 7 -->
<g id="node7" class="node">
<title>7</title>
<polygon fill="none" stroke="black" points="331.75,-269 213.75,-269 213.75,-228 331.75,-228 331.75,-269"/>
<text text-anchor="middle" x="272.75" y="-251.7" font-family="Times New Roman,serif" font-size="14.00">NONTERMINAL</text>
<text text-anchor="middle" x="272.75" y="-235.2" font-family="Times New Roman,serif" font-size="14.00">type: RuleElement</text>
</g>
<!-- 6&#45;&gt;7 -->
<g id="edge6" class="edge">
<title>6&#45;&gt;7</title>
<path fill="none" stroke="black" d="M388.09,-304.6C368.66,-295.32 345.34,-284.18 324.77,-274.35"/>
<polygon fill="black" stroke="black" points="326.5,-271.3 315.97,-270.15 323.49,-277.62 326.5,-271.3"/>
</g>
<!-- 8 -->
<g id="node8" class="node">
<title>8</title>
<polygon fill="none" stroke="black" points="488.75,-269 370.75,-269 370.75,-228 488.75,-228 488.75,-269"/>
<text text-anchor="middle" x="429.75" y="-251.7" font-family="Times New Roman,serif" font-size="14.00">NONTERMINAL</text>
<text text-anchor="middle" x="429.75" y="-235.2" font-family="Times New Roman,serif" font-size="14.00">type: RuleElement</text>
</g>
<!-- 6&#45;&gt;8 -->
<g id="edge7" class="edge">
<title>6&#45;&gt;8</title>
<path fill="none" stroke="black" d="M429.75,-304.79C429.75,-297.45 429.75,-288.91 429.75,-280.78"/>
<polygon fill="black" stroke="black" points="433.25,-280.85 429.75,-270.85 426.25,-280.85 433.25,-280.85"/>
</g>
<!-- 9 -->
<g id="node9" class="node">
<title>9</title>
<polygon fill="none" stroke="black" points="673.75,-269 555.75,-269 555.75,-228 673.75,-228 673.75,-269"/>
<text text-anchor="middle" x="614.75" y="-251.7" font-family="Times New Roman,serif" font-size="14.00">NONTERMINAL</text>
<text text-anchor="middle" x="614.75" y="-235.2" font-family="Times New Roman,serif" font-size="14.00">type: RuleElement</text>
</g>
<!-- 6&#45;&gt;9 -->
<g id="edge8" class="edge">
<title>6&#45;&gt;9</title>
<path fill="none" stroke="black" d="M478.84,-304.6C502.15,-295.15 530.22,-283.77 554.78,-273.81"/>
<polygon fill="black" stroke="black" points="556.07,-277.06 564.03,-270.06 553.44,-270.58 556.07,-277.06"/>
</g>
<!-- 10 -->
<g id="node10" class="node">
<title>10</title>
<polygon fill="none" stroke="black" points="288.62,-192 172.88,-192 172.88,-151 288.62,-151 288.62,-192"/>
<text text-anchor="middle" x="230.75" y="-174.7" font-family="Times New Roman,serif" font-size="14.00">NONTERMINAL</text>
<text text-anchor="middle" x="230.75" y="-158.2" font-family="Times New Roman,serif" font-size="14.00">type: Element</text>
</g>
<!-- 7&#45;&gt;10 -->
<g id="edge9" class="edge">
<title>7&#45;&gt;10</title>
<path fill="none" stroke="black" d="M261.71,-227.79C257.36,-220.02 252.26,-210.91 247.47,-202.36"/>
<polygon fill="black" stroke="black" points="250.54,-200.67 242.6,-193.65 244.43,-204.09 250.54,-200.67"/>
</g>
<!-- 11 -->
<g id="node11" class="node">
<title>11</title>
<polygon fill="none" stroke="black" points="487.62,-192 371.88,-192 371.88,-151 487.62,-151 487.62,-192"/>
<text text-anchor="middle" x="429.75" y="-174.7" font-family="Times New Roman,serif" font-size="14.00">NONTERMINAL</text>
<text text-anchor="middle" x="429.75" y="-158.2" font-family="Times New Roman,serif" font-size="14.00">type: Element</text>
</g>
<!-- 8&#45;&gt;11 -->
<g id="edge10" class="edge">
<title>8&#45;&gt;11</title>
<path fill="none" stroke="black" d="M429.75,-227.79C429.75,-220.45 429.75,-211.91 429.75,-203.78"/>
<polygon fill="black" stroke="black" points="433.25,-203.85 429.75,-193.85 426.25,-203.85 433.25,-203.85"/>
</g>
<!-- 12 -->
<g id="node12" class="node">
<title>12</title>
<polygon fill="none" stroke="black" points="697.62,-192 581.88,-192 581.88,-151 697.62,-151 697.62,-192"/>
<text text-anchor="middle" x="639.75" y="-174.7" font-family="Times New Roman,serif" font-size="14.00">NONTERMINAL</text>
<text text-anchor="middle" x="639.75" y="-158.2" font-family="Times New Roman,serif" font-size="14.00">type: Element</text>
</g>
<!-- 9&#45;&gt;12 -->
<g id="edge11" class="edge">
<title>9&#45;&gt;12</title>
<path fill="none" stroke="black" d="M621.32,-227.79C623.82,-220.28 626.75,-211.51 629.51,-203.21"/>
<polygon fill="black" stroke="black" points="632.82,-204.36 632.66,-193.77 626.18,-202.15 632.82,-204.36"/>
</g>
<!-- 13 -->
<g id="node13" class="node">
<title>13</title>
<polygon fill="none" stroke="black" points="209.75,-115 111.25,-57.5 209.75,0 308.25,-57.5 209.75,-115"/>
<text text-anchor="middle" x="209.75" y="-68.95" font-family="Times New Roman,serif" font-size="14.00">TERMINAL</text>
<text text-anchor="middle" x="209.75" y="-52.45" font-family="Times New Roman,serif" font-size="14.00">type: name</text>
<text text-anchor="middle" x="209.75" y="-35.95" font-family="Times New Roman,serif" font-size="14.00">string: Variable</text>
</g>
<!-- 10&#45;&gt;13 -->
<g id="edge12" class="edge">
<title>10&#45;&gt;13</title>
<path fill="none" stroke="black" d="M227.04,-150.73C225.45,-142.25 223.5,-131.83 221.48,-121.07"/>
<polygon fill="black" stroke="black" points="224.93,-120.48 219.65,-111.3 218.05,-121.77 224.93,-120.48"/>
</g>
<!-- 14 -->
<g id="node14" class="node">
<title>14</title>
<polygon fill="none" stroke="black" points="429.75,-115 326.75,-57.5 429.75,0 532.75,-57.5 429.75,-115"/>
<text text-anchor="middle" x="429.75" y="-68.95" font-family="Times New Roman,serif" font-size="14.00">TERMINAL</text>
<text text-anchor="middle" x="429.75" y="-52.45" font-family="Times New Roman,serif" font-size="14.00">type: key_name</text>
<text text-anchor="middle" x="429.75" y="-35.95" font-family="Times New Roman,serif" font-size="14.00">string: &#39;:&#39;</text>
</g>
<!-- 11&#45;&gt;14 -->
<g id="edge13" class="edge">
<title>11&#45;&gt;14</title>
<path fill="none" stroke="black" d="M429.75,-150.73C429.75,-143.67 429.75,-135.26 429.75,-126.43"/>
<polygon fill="black" stroke="black" points="433.25,-126.61 429.75,-116.61 426.25,-126.61 433.25,-126.61"/>
</g>
<!-- 15 -->
<g id="node15" class="node">
<title>15</title>
<polygon fill="none" stroke="black" points="664.75,-115 550.5,-57.5 664.75,0 779,-57.5 664.75,-115"/>
<text text-anchor="middle" x="664.75" y="-68.95" font-family="Times New Roman,serif" font-size="14.00">TERMINAL</text>
<text text-anchor="middle" x="664.75" y="-52.45" font-family="Times New Roman,serif" font-size="14.00">type: name</text>
<text text-anchor="middle" x="664.75" y="-35.95" font-family="Times New Roman,serif" font-size="14.00">string: Expression</text>
</g>
<!-- 12&#45;&gt;15 -->
<g id="edge14" class="edge">
<title>12&#45;&gt;15</title>
<path fill="none" stroke="black" d="M644.16,-150.73C646.1,-142.07 648.48,-131.37 650.94,-120.37"/>
<polygon fill="black" stroke="black" points="654.31,-121.33 653.07,-110.81 647.48,-119.81 654.31,-121.33"/>
</g>
</g>
</svg>
