<?xml version="1.0" encoding="UTF-8" standalone="no"?>
<!DOCTYPE svg PUBLIC "-//W3C//DTD SVG 1.1//EN"
 "http://www.w3.org/Graphics/SVG/1.1/DTD/svg11.dtd">
<!-- Generated by graphviz version 12.2.0 (20241103.1931)
 -->
<!-- Title: ast_FieldDecl Pages: 1 -->
<svg width="1357pt" height="599pt"
 viewBox="0.00 0.00 1356.50 598.98" xmlns="http://www.w3.org/2000/svg" xmlns:xlink="http://www.w3.org/1999/xlink">
<g id="graph0" class="graph" transform="scale(1 1) rotate(0) translate(4 594.98)">
<title>ast_FieldDecl</title>
<polygon fill="white" stroke="none" points="-4,4 -4,-594.98 1352.5,-594.98 1352.5,4 -4,4"/>
<!-- 1 -->
<g id="node1" class="node">
<title>1</title>
<polygon fill="none" stroke="black" points="683.38,-590.98 567.62,-590.98 567.62,-549.98 683.38,-549.98 683.38,-590.98"/>
<text text-anchor="middle" x="625.5" y="-573.68" font-family="Times New Roman,serif" font-size="14.00">NONTERMINAL</text>
<text text-anchor="middle" x="625.5" y="-557.18" font-family="Times New Roman,serif" font-size="14.00">type: Rule</text>
</g>
<!-- 2 -->
<g id="node2" class="node">
<title>2</title>
<polygon fill="none" stroke="black" points="388.5,-513.98 281,-456.48 388.5,-398.98 496,-456.48 388.5,-513.98"/>
<text text-anchor="middle" x="388.5" y="-467.93" font-family="Times New Roman,serif" font-size="14.00">TERMINAL</text>
<text text-anchor="middle" x="388.5" y="-451.43" font-family="Times New Roman,serif" font-size="14.00">type: name</text>
<text text-anchor="middle" x="388.5" y="-434.93" font-family="Times New Roman,serif" font-size="14.00">string: FieldDecl</text>
</g>
<!-- 1&#45;&gt;2 -->
<g id="edge1" class="edge">
<title>1&#45;&gt;2</title>
<path fill="none" stroke="black" d="M581.81,-549.49C559.02,-539.01 530.71,-525.9 505.5,-513.98 488.86,-506.12 470.95,-497.53 454.26,-489.48"/>
<polygon fill="black" stroke="black" points="455.94,-486.4 445.42,-485.2 452.9,-492.71 455.94,-486.4"/>
</g>
<!-- 3 -->
<g id="node3" class="node">
<title>3</title>
<ellipse fill="none" stroke="black" cx="563.5" cy="-456.48" rx="49.5" ry="28.99"/>
<text text-anchor="middle" x="563.5" y="-459.68" font-family="Times New Roman,serif" font-size="14.00">KEY</text>
<text text-anchor="middle" x="563.5" y="-443.18" font-family="Times New Roman,serif" font-size="14.00">string: ::=</text>
</g>
<!-- 1&#45;&gt;3 -->
<g id="edge2" class="edge">
<title>1&#45;&gt;3</title>
<path fill="none" stroke="black" d="M614.56,-549.72C606.05,-534.35 594.01,-512.61 583.76,-494.09"/>
<polygon fill="black" stroke="black" points="586.93,-492.57 579.02,-485.52 580.8,-495.96 586.93,-492.57"/>
</g>
<!-- 4 -->
<g id="node4" class="node">
<title>4</title>
<polygon fill="none" stroke="black" points="746.38,-476.98 630.62,-476.98 630.62,-435.98 746.38,-435.98 746.38,-476.98"/>
<text text-anchor="middle" x="688.5" y="-459.68" font-family="Times New Roman,serif" font-size="14.00">NONTERMINAL</text>
<text text-anchor="middle" x="688.5" y="-443.18" font-family="Times New Roman,serif" font-size="14.00">type: Alternative</text>
</g>
<!-- 1&#45;&gt;4 -->
<g id="edge3" class="edge">
<title>1&#45;&gt;4</title>
<path fill="none" stroke="black" d="M636.62,-549.72C646.32,-532.47 660.54,-507.19 671.64,-487.45"/>
<polygon fill="black" stroke="black" points="674.69,-489.18 676.54,-478.75 668.59,-485.75 674.69,-489.18"/>
</g>
<!-- 5 -->
<g id="node5" class="node">
<title>5</title>
<ellipse fill="none" stroke="black" cx="805.5" cy="-456.48" rx="41.01" ry="28.99"/>
<text text-anchor="middle" x="805.5" y="-459.68" font-family="Times New Roman,serif" font-size="14.00">KEY</text>
<text text-anchor="middle" x="805.5" y="-443.18" font-family="Times New Roman,serif" font-size="14.00">string: ;</text>
</g>
<!-- 1&#45;&gt;5 -->
<g id="edge4" class="edge">
<title>1&#45;&gt;5</title>
<path fill="none" stroke="black" d="M683.73,-550.95C707.26,-541.9 733.91,-529.56 755.5,-513.98 764.24,-507.68 772.52,-499.59 779.74,-491.52"/>
<polygon fill="black" stroke="black" points="782.33,-493.89 786.15,-484.01 777,-489.35 782.33,-493.89"/>
</g>
<!-- 6 -->
<g id="node6" class="node">
<title>6</title>
<polygon fill="none" stroke="black" points="520.38,-354.49 404.62,-354.49 404.62,-313.49 520.38,-313.49 520.38,-354.49"/>
<text text-anchor="middle" x="462.5" y="-337.19" font-family="Times New Roman,serif" font-size="14.00">NONTERMINAL</text>
<text text-anchor="middle" x="462.5" y="-320.69" font-family="Times New Roman,serif" font-size="14.00">type: Sequence</text>
</g>
<!-- 4&#45;&gt;6 -->
<g id="edge5" class="edge">
<title>4&#45;&gt;6</title>
<path fill="none" stroke="black" d="M668.39,-435.58C655.72,-423.81 638.58,-409.26 621.5,-398.98 593.46,-382.12 560.18,-367.93 531.33,-357.24"/>
<polygon fill="black" stroke="black" points="532.52,-353.95 521.93,-353.83 530.14,-360.53 532.52,-353.95"/>
</g>
<!-- 7 -->
<g id="node7" class="node">
<title>7</title>
<ellipse fill="none" stroke="black" cx="688.5" cy="-333.99" rx="40.48" ry="28.99"/>
<text text-anchor="middle" x="688.5" y="-337.19" font-family="Times New Roman,serif" font-size="14.00">KEY</text>
<text text-anchor="middle" x="688.5" y="-320.69" font-family="Times New Roman,serif" font-size="14.00">string: |</text>
</g>
<!-- 4&#45;&gt;7 -->
<g id="edge6" class="edge">
<title>4&#45;&gt;7</title>
<path fill="none" stroke="black" d="M688.5,-435.59C688.5,-418.97 688.5,-394.77 688.5,-374.28"/>
<polygon fill="black" stroke="black" points="692,-374.55 688.5,-364.55 685,-374.55 692,-374.55"/>
</g>
<!-- 8 -->
<g id="node8" class="node">
<title>8</title>
<polygon fill="none" stroke="black" points="917.38,-354.49 801.62,-354.49 801.62,-313.49 917.38,-313.49 917.38,-354.49"/>
<text text-anchor="middle" x="859.5" y="-337.19" font-family="Times New Roman,serif" font-size="14.00">NONTERMINAL</text>
<text text-anchor="middle" x="859.5" y="-320.69" font-family="Times New Roman,serif" font-size="14.00">type: Sequence</text>
</g>
<!-- 4&#45;&gt;8 -->
<g id="edge7" class="edge">
<title>4&#45;&gt;8</title>
<path fill="none" stroke="black" d="M710.46,-435.53C723.23,-424.3 739.84,-410.31 755.5,-398.98 774.28,-385.4 796,-371.74 814.71,-360.56"/>
<polygon fill="black" stroke="black" points="816.34,-363.66 823.17,-355.55 812.78,-357.63 816.34,-363.66"/>
</g>
<!-- 9 -->
<g id="node9" class="node">
<title>9</title>
<polygon fill="none" stroke="black" points="264.5,-269 146.5,-269 146.5,-228 264.5,-228 264.5,-269"/>
<text text-anchor="middle" x="205.5" y="-251.7" font-family="Times New Roman,serif" font-size="14.00">NONTERMINAL</text>
<text text-anchor="middle" x="205.5" y="-235.2" font-family="Times New Roman,serif" font-size="14.00">type: RuleElement</text>
</g>
<!-- 6&#45;&gt;9 -->
<g id="edge8" class="edge">
<title>6&#45;&gt;9</title>
<path fill="none" stroke="black" d="M404.18,-314.05C366.06,-301.66 316.06,-285.42 275.75,-272.32"/>
<polygon fill="black" stroke="black" points="276.95,-269.03 266.36,-269.27 274.79,-275.69 276.95,-269.03"/>
</g>
<!-- 10 -->
<g id="node10" class="node">
<title>10</title>
<polygon fill="none" stroke="black" points="422.5,-269 304.5,-269 304.5,-228 422.5,-228 422.5,-269"/>
<text text-anchor="middle" x="363.5" y="-251.7" font-family="Times New Roman,serif" font-size="14.00">NONTERMINAL</text>
<text text-anchor="middle" x="363.5" y="-235.2" font-family="Times New Roman,serif" font-size="14.00">type: RuleElement</text>
</g>
<!-- 6&#45;&gt;10 -->
<g id="edge9" class="edge">
<title>6&#45;&gt;10</title>
<path fill="none" stroke="black" d="M438.79,-312.99C425.81,-302.05 409.55,-288.33 395.46,-276.45"/>
<polygon fill="black" stroke="black" points="398.08,-274.08 388.18,-270.31 393.56,-279.43 398.08,-274.08"/>
</g>
<!-- 11 -->
<g id="node11" class="node">
<title>11</title>
<polygon fill="none" stroke="black" points="564.5,-269 446.5,-269 446.5,-228 564.5,-228 564.5,-269"/>
<text text-anchor="middle" x="505.5" y="-251.7" font-family="Times New Roman,serif" font-size="14.00">NONTERMINAL</text>
<text text-anchor="middle" x="505.5" y="-235.2" font-family="Times New Roman,serif" font-size="14.00">type: RuleElement</text>
</g>
<!-- 6&#45;&gt;11 -->
<g id="edge10" class="edge">
<title>6&#45;&gt;11</title>
<path fill="none" stroke="black" d="M472.69,-313.21C477.85,-303.19 484.22,-290.82 489.97,-279.66"/>
<polygon fill="black" stroke="black" points="493.07,-281.27 494.54,-270.78 486.85,-278.07 493.07,-281.27"/>
</g>
<!-- 12 -->
<g id="node12" class="node">
<title>12</title>
<polygon fill="none" stroke="black" points="870.5,-269 752.5,-269 752.5,-228 870.5,-228 870.5,-269"/>
<text text-anchor="middle" x="811.5" y="-251.7" font-family="Times New Roman,serif" font-size="14.00">NONTERMINAL</text>
<text text-anchor="middle" x="811.5" y="-235.2" font-family="Times New Roman,serif" font-size="14.00">type: RuleElement</text>
</g>
<!-- 8&#45;&gt;12 -->
<g id="edge11" class="edge">
<title>8&#45;&gt;12</title>
<path fill="none" stroke="black" d="M848.12,-313.21C842.31,-303.09 835.11,-290.57 828.64,-279.31"/>
<polygon fill="black" stroke="black" points="831.73,-277.67 823.71,-270.75 825.66,-281.16 831.73,-277.67"/>
</g>
<!-- 13 -->
<g id="node13" class="node">
<title>13</title>
<polygon fill="none" stroke="black" points="1051.5,-269 933.5,-269 933.5,-228 1051.5,-228 1051.5,-269"/>
<text text-anchor="middle" x="992.5" y="-251.7" font-family="Times New Roman,serif" font-size="14.00">NONTERMINAL</text>
<text text-anchor="middle" x="992.5" y="-235.2" font-family="Times New Roman,serif" font-size="14.00">type: RuleElement</text>
</g>
<!-- 8&#45;&gt;13 -->
<g id="edge12" class="edge">
<title>8&#45;&gt;13</title>
<path fill="none" stroke="black" d="M891.36,-312.99C909.29,-301.74 931.88,-287.55 951.16,-275.45"/>
<polygon fill="black" stroke="black" points="953.01,-278.42 959.62,-270.14 949.29,-272.49 953.01,-278.42"/>
</g>
<!-- 14 -->
<g id="node14" class="node">
<title>14</title>
<polygon fill="none" stroke="black" points="1256.5,-269 1138.5,-269 1138.5,-228 1256.5,-228 1256.5,-269"/>
<text text-anchor="middle" x="1197.5" y="-251.7" font-family="Times New Roman,serif" font-size="14.00">NONTERMINAL</text>
<text text-anchor="middle" x="1197.5" y="-235.2" font-family="Times New Roman,serif" font-size="14.00">type: RuleElement</text>
</g>
<!-- 8&#45;&gt;14 -->
<g id="edge13" class="edge">
<title>8&#45;&gt;14</title>
<path fill="none" stroke="black" d="M917.6,-318.64C975.74,-304.28 1065.22,-282.17 1127.3,-266.84"/>
<polygon fill="black" stroke="black" points="1127.83,-270.31 1136.7,-264.52 1126.15,-263.52 1127.83,-270.31"/>
</g>
<!-- 15 -->
<g id="node15" class="node">
<title>15</title>
<polygon fill="none" stroke="black" points="218.38,-192 102.62,-192 102.62,-151 218.38,-151 218.38,-192"/>
<text text-anchor="middle" x="160.5" y="-174.7" font-family="Times New Roman,serif" font-size="14.00">NONTERMINAL</text>
<text text-anchor="middle" x="160.5" y="-158.2" font-family="Times New Roman,serif" font-size="14.00">type: Element</text>
</g>
<!-- 9&#45;&gt;15 -->
<g id="edge14" class="edge">
<title>9&#45;&gt;15</title>
<path fill="none" stroke="black" d="M193.68,-227.79C188.96,-219.93 183.43,-210.71 178.25,-202.08"/>
<polygon fill="black" stroke="black" points="181.33,-200.41 173.18,-193.63 175.32,-204.01 181.33,-200.41"/>
</g>
<!-- 16 -->
<g id="node16" class="node">
<title>16</title>
<polygon fill="none" stroke="black" points="399.38,-192 283.62,-192 283.62,-151 399.38,-151 399.38,-192"/>
<text text-anchor="middle" x="341.5" y="-174.7" font-family="Times New Roman,serif" font-size="14.00">NONTERMINAL</text>
<text text-anchor="middle" x="341.5" y="-158.2" font-family="Times New Roman,serif" font-size="14.00">type: Element</text>
</g>
<!-- 10&#45;&gt;16 -->
<g id="edge15" class="edge">
<title>10&#45;&gt;16</title>
<path fill="none" stroke="black" d="M357.72,-227.79C355.51,-220.28 352.94,-211.51 350.51,-203.21"/>
<polygon fill="black" stroke="black" points="353.92,-202.4 347.74,-193.79 347.2,-204.37 353.92,-202.4"/>
</g>
<!-- 17 -->
<g id="node17" class="node">
<title>17</title>
<polygon fill="none" stroke="black" points="569.38,-192 453.62,-192 453.62,-151 569.38,-151 569.38,-192"/>
<text text-anchor="middle" x="511.5" y="-174.7" font-family="Times New Roman,serif" font-size="14.00">NONTERMINAL</text>
<text text-anchor="middle" x="511.5" y="-158.2" font-family="Times New Roman,serif" font-size="14.00">type: Element</text>
</g>
<!-- 11&#45;&gt;17 -->
<g id="edge16" class="edge">
<title>11&#45;&gt;17</title>
<path fill="none" stroke="black" d="M507.08,-227.79C507.66,-220.45 508.35,-211.91 509,-203.78"/>
<polygon fill="black" stroke="black" points="512.48,-204.09 509.79,-193.84 505.51,-203.53 512.48,-204.09"/>
</g>
<!-- 18 -->
<g id="node18" class="node">
<title>18</title>
<polygon fill="none" stroke="black" points="847.38,-192 731.62,-192 731.62,-151 847.38,-151 847.38,-192"/>
<text text-anchor="middle" x="789.5" y="-174.7" font-family="Times New Roman,serif" font-size="14.00">NONTERMINAL</text>
<text text-anchor="middle" x="789.5" y="-158.2" font-family="Times New Roman,serif" font-size="14.00">type: Element</text>
</g>
<!-- 12&#45;&gt;18 -->
<g id="edge17" class="edge">
<title>12&#45;&gt;18</title>
<path fill="none" stroke="black" d="M805.72,-227.79C803.51,-220.28 800.94,-211.51 798.51,-203.21"/>
<polygon fill="black" stroke="black" points="801.92,-202.4 795.74,-193.79 795.2,-204.37 801.92,-202.4"/>
</g>
<!-- 19 -->
<g id="node19" class="node">
<title>19</title>
<polygon fill="none" stroke="black" points="1061.38,-192 945.62,-192 945.62,-151 1061.38,-151 1061.38,-192"/>
<text text-anchor="middle" x="1003.5" y="-174.7" font-family="Times New Roman,serif" font-size="14.00">NONTERMINAL</text>
<text text-anchor="middle" x="1003.5" y="-158.2" font-family="Times New Roman,serif" font-size="14.00">type: Element</text>
</g>
<!-- 13&#45;&gt;19 -->
<g id="edge18" class="edge">
<title>13&#45;&gt;19</title>
<path fill="none" stroke="black" d="M995.39,-227.79C996.48,-220.36 997.75,-211.71 998.95,-203.49"/>
<polygon fill="black" stroke="black" points="1002.38,-204.23 1000.37,-193.83 995.46,-203.22 1002.38,-204.23"/>
</g>
<!-- 20 -->
<g id="node20" class="node">
<title>20</title>
<polygon fill="none" stroke="black" points="1279.38,-192 1163.62,-192 1163.62,-151 1279.38,-151 1279.38,-192"/>
<text text-anchor="middle" x="1221.5" y="-174.7" font-family="Times New Roman,serif" font-size="14.00">NONTERMINAL</text>
<text text-anchor="middle" x="1221.5" y="-158.2" font-family="Times New Roman,serif" font-size="14.00">type: Element</text>
</g>
<!-- 14&#45;&gt;20 -->
<g id="edge19" class="edge">
<title>14&#45;&gt;20</title>
<path fill="none" stroke="black" d="M1203.81,-227.79C1206.21,-220.28 1209.02,-211.51 1211.67,-203.21"/>
<polygon fill="black" stroke="black" points="1214.98,-204.37 1214.69,-193.78 1208.31,-202.23 1214.98,-204.37"/>
</g>
<!-- 21 -->
<g id="node21" class="node">
<title>21</title>
<polygon fill="none" stroke="black" points="104.5,-115 0,-57.5 104.5,0 209,-57.5 104.5,-115"/>
<text text-anchor="middle" x="104.5" y="-68.95" font-family="Times New Roman,serif" font-size="14.00">TERMINAL</text>
<text text-anchor="middle" x="104.5" y="-52.45" font-family="Times New Roman,serif" font-size="14.00">type: name</text>
<text text-anchor="middle" x="104.5" y="-35.95" font-family="Times New Roman,serif" font-size="14.00">string: Identifier</text>
</g>
<!-- 15&#45;&gt;21 -->
<g id="edge20" class="edge">
<title>15&#45;&gt;21</title>
<path fill="none" stroke="black" d="M150.62,-150.73C145.36,-140.23 138.62,-126.73 131.91,-113.33"/>
<polygon fill="black" stroke="black" points="135.1,-111.88 127.5,-104.5 128.84,-115.01 135.1,-111.88"/>
</g>
<!-- 22 -->
<g id="node22" class="node">
<title>22</title>
<polygon fill="none" stroke="black" points="330.5,-115 227.5,-57.5 330.5,0 433.5,-57.5 330.5,-115"/>
<text text-anchor="middle" x="330.5" y="-68.95" font-family="Times New Roman,serif" font-size="14.00">TERMINAL</text>
<text text-anchor="middle" x="330.5" y="-52.45" font-family="Times New Roman,serif" font-size="14.00">type: key_name</text>
<text text-anchor="middle" x="330.5" y="-35.95" font-family="Times New Roman,serif" font-size="14.00">string: &#39;:&#39;</text>
</g>
<!-- 16&#45;&gt;22 -->
<g id="edge21" class="edge">
<title>16&#45;&gt;22</title>
<path fill="none" stroke="black" d="M339.56,-150.73C338.79,-142.89 337.85,-133.37 336.88,-123.48"/>
<polygon fill="black" stroke="black" points="340.38,-123.33 335.92,-113.72 333.42,-124.01 340.38,-123.33"/>
</g>
<!-- 23 -->
<g id="node23" class="node">
<title>23</title>
<polygon fill="none" stroke="black" points="556.5,-115 452,-57.5 556.5,0 661,-57.5 556.5,-115"/>
<text text-anchor="middle" x="556.5" y="-68.95" font-family="Times New Roman,serif" font-size="14.00">TERMINAL</text>
<text text-anchor="middle" x="556.5" y="-52.45" font-family="Times New Roman,serif" font-size="14.00">type: name</text>
<text text-anchor="middle" x="556.5" y="-35.95" font-family="Times New Roman,serif" font-size="14.00">string: Identifier</text>
</g>
<!-- 17&#45;&gt;23 -->
<g id="edge22" class="edge">
<title>17&#45;&gt;23</title>
<path fill="none" stroke="black" d="M519.44,-150.73C523.42,-140.82 528.47,-128.26 533.55,-115.62"/>
<polygon fill="black" stroke="black" points="536.76,-117.03 537.24,-106.45 530.26,-114.42 536.76,-117.03"/>
</g>
<!-- 24 -->
<g id="node24" class="node">
<title>24</title>
<polygon fill="none" stroke="black" points="783.5,-115 679,-57.5 783.5,0 888,-57.5 783.5,-115"/>
<text text-anchor="middle" x="783.5" y="-68.95" font-family="Times New Roman,serif" font-size="14.00">TERMINAL</text>
<text text-anchor="middle" x="783.5" y="-52.45" font-family="Times New Roman,serif" font-size="14.00">type: name</text>
<text text-anchor="middle" x="783.5" y="-35.95" font-family="Times New Roman,serif" font-size="14.00">string: Identifier</text>
</g>
<!-- 18&#45;&gt;24 -->
<g id="edge23" class="edge">
<title>18&#45;&gt;24</title>
<path fill="none" stroke="black" d="M788.44,-150.73C788.04,-143.32 787.57,-134.43 787.07,-125.13"/>
<polygon fill="black" stroke="black" points="790.57,-124.96 786.54,-115.16 783.58,-125.34 790.57,-124.96"/>
</g>
<!-- 25 -->
<g id="node25" class="node">
<title>25</title>
<polygon fill="none" stroke="black" points="1009.5,-115 906.5,-57.5 1009.5,0 1112.5,-57.5 1009.5,-115"/>
<text text-anchor="middle" x="1009.5" y="-68.95" font-family="Times New Roman,serif" font-size="14.00">TERMINAL</text>
<text text-anchor="middle" x="1009.5" y="-52.45" font-family="Times New Roman,serif" font-size="14.00">type: key_name</text>
<text text-anchor="middle" x="1009.5" y="-35.95" font-family="Times New Roman,serif" font-size="14.00">string: &#39;:&#39;</text>
</g>
<!-- 19&#45;&gt;25 -->
<g id="edge24" class="edge">
<title>19&#45;&gt;25</title>
<path fill="none" stroke="black" d="M1004.56,-150.73C1004.96,-143.32 1005.43,-134.43 1005.93,-125.13"/>
<polygon fill="black" stroke="black" points="1009.42,-125.34 1006.46,-115.16 1002.43,-124.96 1009.42,-125.34"/>
</g>
<!-- 26 -->
<g id="node26" class="node">
<title>26</title>
<polygon fill="none" stroke="black" points="1239.5,-115 1130.5,-57.5 1239.5,0 1348.5,-57.5 1239.5,-115"/>
<text text-anchor="middle" x="1239.5" y="-68.95" font-family="Times New Roman,serif" font-size="14.00">TERMINAL</text>
<text text-anchor="middle" x="1239.5" y="-52.45" font-family="Times New Roman,serif" font-size="14.00">type: name</text>
<text text-anchor="middle" x="1239.5" y="-35.95" font-family="Times New Roman,serif" font-size="14.00">string: Statement</text>
</g>
<!-- 20&#45;&gt;26 -->
<g id="edge25" class="edge">
<title>20&#45;&gt;26</title>
<path fill="none" stroke="black" d="M1224.68,-150.73C1226,-142.53 1227.61,-132.5 1229.28,-122.11"/>
<polygon fill="black" stroke="black" points="1232.73,-122.69 1230.86,-112.27 1225.82,-121.58 1232.73,-122.69"/>
</g>
</g>
</svg>
