<?xml version="1.0" encoding="UTF-8" standalone="no"?>
<!DOCTYPE svg PUBLIC "-//W3C//DTD SVG 1.1//EN"
 "http://www.w3.org/Graphics/SVG/1.1/DTD/svg11.dtd">
<!-- Generated by graphviz version 12.2.0 (20241103.1931)
 -->
<!-- Title: ast_Set Pages: 1 -->
<svg width="578pt" height="599pt"
 viewBox="0.00 0.00 578.25 598.98" xmlns="http://www.w3.org/2000/svg" xmlns:xlink="http://www.w3.org/1999/xlink">
<g id="graph0" class="graph" transform="scale(1 1) rotate(0) translate(4 594.98)">
<title>ast_Set</title>
<polygon fill="white" stroke="none" points="-4,4 -4,-594.98 574.25,-594.98 574.25,4 -4,4"/>
<!-- 1 -->
<g id="node1" class="node">
<title>1</title>
<polygon fill="none" stroke="black" points="360.38,-590.98 244.62,-590.98 244.62,-549.98 360.38,-549.98 360.38,-590.98"/>
<text text-anchor="middle" x="302.5" y="-573.68" font-family="Times New Roman,serif" font-size="14.00">NONTERMINAL</text>
<text text-anchor="middle" x="302.5" y="-557.18" font-family="Times New Roman,serif" font-size="14.00">type: Rule</text>
</g>
<!-- 2 -->
<g id="node2" class="node">
<title>2</title>
<polygon fill="none" stroke="black" points="86.5,-513.98 0,-456.48 86.5,-398.98 173,-456.48 86.5,-513.98"/>
<text text-anchor="middle" x="86.5" y="-467.93" font-family="Times New Roman,serif" font-size="14.00">TERMINAL</text>
<text text-anchor="middle" x="86.5" y="-451.43" font-family="Times New Roman,serif" font-size="14.00">type: name</text>
<text text-anchor="middle" x="86.5" y="-434.93" font-family="Times New Roman,serif" font-size="14.00">string: Set</text>
</g>
<!-- 1&#45;&gt;2 -->
<g id="edge1" class="edge">
<title>1&#45;&gt;2</title>
<path fill="none" stroke="black" d="M256.68,-549.57C234.09,-539.43 206.59,-526.61 182.5,-513.98 168.72,-506.76 154.11,-498.5 140.57,-490.56"/>
<polygon fill="black" stroke="black" points="142.61,-487.7 132.22,-485.63 139.05,-493.73 142.61,-487.7"/>
</g>
<!-- 3 -->
<g id="node3" class="node">
<title>3</title>
<ellipse fill="none" stroke="black" cx="240.5" cy="-456.48" rx="49.5" ry="28.99"/>
<text text-anchor="middle" x="240.5" y="-459.68" font-family="Times New Roman,serif" font-size="14.00">KEY</text>
<text text-anchor="middle" x="240.5" y="-443.18" font-family="Times New Roman,serif" font-size="14.00">string: ::=</text>
</g>
<!-- 1&#45;&gt;3 -->
<g id="edge2" class="edge">
<title>1&#45;&gt;3</title>
<path fill="none" stroke="black" d="M291.56,-549.72C283.05,-534.35 271.01,-512.61 260.76,-494.09"/>
<polygon fill="black" stroke="black" points="263.93,-492.57 256.02,-485.52 257.8,-495.96 263.93,-492.57"/>
</g>
<!-- 4 -->
<g id="node4" class="node">
<title>4</title>
<polygon fill="none" stroke="black" points="423.38,-476.98 307.62,-476.98 307.62,-435.98 423.38,-435.98 423.38,-476.98"/>
<text text-anchor="middle" x="365.5" y="-459.68" font-family="Times New Roman,serif" font-size="14.00">NONTERMINAL</text>
<text text-anchor="middle" x="365.5" y="-443.18" font-family="Times New Roman,serif" font-size="14.00">type: Alternative</text>
</g>
<!-- 1&#45;&gt;4 -->
<g id="edge3" class="edge">
<title>1&#45;&gt;4</title>
<path fill="none" stroke="black" d="M313.62,-549.72C323.32,-532.47 337.54,-507.19 348.64,-487.45"/>
<polygon fill="black" stroke="black" points="351.69,-489.18 353.54,-478.75 345.59,-485.75 351.69,-489.18"/>
</g>
<!-- 5 -->
<g id="node5" class="node">
<title>5</title>
<ellipse fill="none" stroke="black" cx="482.5" cy="-456.48" rx="41.01" ry="28.99"/>
<text text-anchor="middle" x="482.5" y="-459.68" font-family="Times New Roman,serif" font-size="14.00">KEY</text>
<text text-anchor="middle" x="482.5" y="-443.18" font-family="Times New Roman,serif" font-size="14.00">string: ;</text>
</g>
<!-- 1&#45;&gt;5 -->
<g id="edge4" class="edge">
<title>1&#45;&gt;5</title>
<path fill="none" stroke="black" d="M360.73,-550.95C384.26,-541.9 410.91,-529.56 432.5,-513.98 441.24,-507.68 449.52,-499.59 456.74,-491.52"/>
<polygon fill="black" stroke="black" points="459.33,-493.89 463.15,-484.01 454,-489.35 459.33,-493.89"/>
</g>
<!-- 6 -->
<g id="node6" class="node">
<title>6</title>
<polygon fill="none" stroke="black" points="307.38,-354.49 191.62,-354.49 191.62,-313.49 307.38,-313.49 307.38,-354.49"/>
<text text-anchor="middle" x="249.5" y="-337.19" font-family="Times New Roman,serif" font-size="14.00">NONTERMINAL</text>
<text text-anchor="middle" x="249.5" y="-320.69" font-family="Times New Roman,serif" font-size="14.00">type: Sequence</text>
</g>
<!-- 4&#45;&gt;6 -->
<g id="edge5" class="edge">
<title>4&#45;&gt;6</title>
<path fill="none" stroke="black" d="M346.34,-435.59C327.29,-415.79 297.87,-385.24 276.46,-363"/>
<polygon fill="black" stroke="black" points="279.19,-360.78 269.73,-356.01 274.15,-365.64 279.19,-360.78"/>
</g>
<!-- 7 -->
<g id="node7" class="node">
<title>7</title>
<ellipse fill="none" stroke="black" cx="365.5" cy="-333.99" rx="40.48" ry="28.99"/>
<text text-anchor="middle" x="365.5" y="-337.19" font-family="Times New Roman,serif" font-size="14.00">KEY</text>
<text text-anchor="middle" x="365.5" y="-320.69" font-family="Times New Roman,serif" font-size="14.00">string: |</text>
</g>
<!-- 4&#45;&gt;7 -->
<g id="edge6" class="edge">
<title>4&#45;&gt;7</title>
<path fill="none" stroke="black" d="M365.5,-435.59C365.5,-418.97 365.5,-394.77 365.5,-374.28"/>
<polygon fill="black" stroke="black" points="369,-374.55 365.5,-364.55 362,-374.55 369,-374.55"/>
</g>
<!-- 8 -->
<g id="node8" class="node">
<title>8</title>
<polygon fill="none" stroke="black" points="539.38,-354.49 423.62,-354.49 423.62,-313.49 539.38,-313.49 539.38,-354.49"/>
<text text-anchor="middle" x="481.5" y="-337.19" font-family="Times New Roman,serif" font-size="14.00">NONTERMINAL</text>
<text text-anchor="middle" x="481.5" y="-320.69" font-family="Times New Roman,serif" font-size="14.00">type: Sequence</text>
</g>
<!-- 4&#45;&gt;8 -->
<g id="edge7" class="edge">
<title>4&#45;&gt;8</title>
<path fill="none" stroke="black" d="M384.66,-435.59C403.71,-415.79 433.13,-385.24 454.54,-363"/>
<polygon fill="black" stroke="black" points="456.85,-365.64 461.27,-356.01 451.81,-360.78 456.85,-365.64"/>
</g>
<!-- 9 -->
<g id="node9" class="node">
<title>9</title>
<polygon fill="none" stroke="black" points="308.5,-269 190.5,-269 190.5,-228 308.5,-228 308.5,-269"/>
<text text-anchor="middle" x="249.5" y="-251.7" font-family="Times New Roman,serif" font-size="14.00">NONTERMINAL</text>
<text text-anchor="middle" x="249.5" y="-235.2" font-family="Times New Roman,serif" font-size="14.00">type: RuleElement</text>
</g>
<!-- 6&#45;&gt;9 -->
<g id="edge8" class="edge">
<title>6&#45;&gt;9</title>
<path fill="none" stroke="black" d="M249.5,-313.21C249.5,-303.5 249.5,-291.59 249.5,-280.7"/>
<polygon fill="black" stroke="black" points="253,-280.95 249.5,-270.95 246,-280.95 253,-280.95"/>
</g>
<!-- 10 -->
<g id="node10" class="node">
<title>10</title>
<polygon fill="none" stroke="black" points="540.5,-269 422.5,-269 422.5,-228 540.5,-228 540.5,-269"/>
<text text-anchor="middle" x="481.5" y="-251.7" font-family="Times New Roman,serif" font-size="14.00">NONTERMINAL</text>
<text text-anchor="middle" x="481.5" y="-235.2" font-family="Times New Roman,serif" font-size="14.00">type: RuleElement</text>
</g>
<!-- 8&#45;&gt;10 -->
<g id="edge9" class="edge">
<title>8&#45;&gt;10</title>
<path fill="none" stroke="black" d="M481.5,-313.21C481.5,-303.5 481.5,-291.59 481.5,-280.7"/>
<polygon fill="black" stroke="black" points="485,-280.95 481.5,-270.95 478,-280.95 485,-280.95"/>
</g>
<!-- 11 -->
<g id="node11" class="node">
<title>11</title>
<polygon fill="none" stroke="black" points="307.38,-192 191.62,-192 191.62,-151 307.38,-151 307.38,-192"/>
<text text-anchor="middle" x="249.5" y="-174.7" font-family="Times New Roman,serif" font-size="14.00">NONTERMINAL</text>
<text text-anchor="middle" x="249.5" y="-158.2" font-family="Times New Roman,serif" font-size="14.00">type: Element</text>
</g>
<!-- 9&#45;&gt;11 -->
<g id="edge10" class="edge">
<title>9&#45;&gt;11</title>
<path fill="none" stroke="black" d="M249.5,-227.79C249.5,-220.45 249.5,-211.91 249.5,-203.78"/>
<polygon fill="black" stroke="black" points="253,-203.85 249.5,-193.85 246,-203.85 253,-203.85"/>
</g>
<!-- 12 -->
<g id="node12" class="node">
<title>12</title>
<polygon fill="none" stroke="black" points="539.38,-192 423.62,-192 423.62,-151 539.38,-151 539.38,-192"/>
<text text-anchor="middle" x="481.5" y="-174.7" font-family="Times New Roman,serif" font-size="14.00">NONTERMINAL</text>
<text text-anchor="middle" x="481.5" y="-158.2" font-family="Times New Roman,serif" font-size="14.00">type: Element</text>
</g>
<!-- 10&#45;&gt;12 -->
<g id="edge11" class="edge">
<title>10&#45;&gt;12</title>
<path fill="none" stroke="black" d="M481.5,-227.79C481.5,-220.45 481.5,-211.91 481.5,-203.78"/>
<polygon fill="black" stroke="black" points="485,-203.85 481.5,-193.85 478,-203.85 485,-203.85"/>
</g>
<!-- 13 -->
<g id="node13" class="node">
<title>13</title>
<polygon fill="none" stroke="black" points="249.5,-115 145,-57.5 249.5,0 354,-57.5 249.5,-115"/>
<text text-anchor="middle" x="249.5" y="-68.95" font-family="Times New Roman,serif" font-size="14.00">TERMINAL</text>
<text text-anchor="middle" x="249.5" y="-52.45" font-family="Times New Roman,serif" font-size="14.00">type: name</text>
<text text-anchor="middle" x="249.5" y="-35.95" font-family="Times New Roman,serif" font-size="14.00">string: Identifier</text>
</g>
<!-- 11&#45;&gt;13 -->
<g id="edge12" class="edge">
<title>11&#45;&gt;13</title>
<path fill="none" stroke="black" d="M249.5,-150.73C249.5,-143.67 249.5,-135.26 249.5,-126.43"/>
<polygon fill="black" stroke="black" points="253,-126.61 249.5,-116.61 246,-126.61 253,-126.61"/>
</g>
<!-- 14 -->
<g id="node14" class="node">
<title>14</title>
<polygon fill="none" stroke="black" points="481.5,-115 392.75,-57.5 481.5,0 570.25,-57.5 481.5,-115"/>
<text text-anchor="middle" x="481.5" y="-68.95" font-family="Times New Roman,serif" font-size="14.00">TERMINAL</text>
<text text-anchor="middle" x="481.5" y="-52.45" font-family="Times New Roman,serif" font-size="14.00">type: name</text>
<text text-anchor="middle" x="481.5" y="-35.95" font-family="Times New Roman,serif" font-size="14.00">string: Range</text>
</g>
<!-- 12&#45;&gt;14 -->
<g id="edge13" class="edge">
<title>12&#45;&gt;14</title>
<path fill="none" stroke="black" d="M481.5,-150.73C481.5,-143.84 481.5,-135.65 481.5,-127.05"/>
<polygon fill="black" stroke="black" points="485,-127.09 481.5,-117.09 478,-127.09 485,-127.09"/>
</g>
</g>
</svg>
