<?xml version="1.0" encoding="UTF-8" standalone="no"?>
<!DOCTYPE svg PUBLIC "-//W3C//DTD SVG 1.1//EN"
 "http://www.w3.org/Graphics/SVG/1.1/DTD/svg11.dtd">
<!-- Generated by graphviz version 12.2.0 (20241103.1931)
 -->
<!-- Title: ast_Group Pages: 1 -->
<svg width="716pt" height="582pt"
 viewBox="0.00 0.00 715.75 582.00" xmlns="http://www.w3.org/2000/svg" xmlns:xlink="http://www.w3.org/1999/xlink">
<g id="graph0" class="graph" transform="scale(1 1) rotate(0) translate(4 578)">
<title>ast_Group</title>
<polygon fill="white" stroke="none" points="-4,4 -4,-578 711.75,-578 711.75,4 -4,4"/>
<!-- 1 -->
<g id="node1" class="node">
<title>1</title>
<polygon fill="none" stroke="black" points="364.62,-574 248.88,-574 248.88,-533 364.62,-533 364.62,-574"/>
<text text-anchor="middle" x="306.75" y="-556.7" font-family="Times New Roman,serif" font-size="14.00">NONTERMINAL</text>
<text text-anchor="middle" x="306.75" y="-540.2" font-family="Times New Roman,serif" font-size="14.00">type: Rule</text>
</g>
<!-- 2 -->
<g id="node2" class="node">
<title>2</title>
<polygon fill="none" stroke="black" points="88.75,-497 0,-439.5 88.75,-382 177.5,-439.5 88.75,-497"/>
<text text-anchor="middle" x="88.75" y="-450.95" font-family="Times New Roman,serif" font-size="14.00">TERMINAL</text>
<text text-anchor="middle" x="88.75" y="-434.45" font-family="Times New Roman,serif" font-size="14.00">type: name</text>
<text text-anchor="middle" x="88.75" y="-417.95" font-family="Times New Roman,serif" font-size="14.00">string: Group</text>
</g>
<!-- 1&#45;&gt;2 -->
<g id="edge1" class="edge">
<title>1&#45;&gt;2</title>
<path fill="none" stroke="black" d="M261.27,-532.63C238.64,-522.44 211,-509.57 186.75,-497 172.72,-489.73 157.83,-481.45 144,-473.51"/>
<polygon fill="black" stroke="black" points="145.86,-470.54 135.46,-468.56 142.36,-476.6 145.86,-470.54"/>
</g>
<!-- 3 -->
<g id="node3" class="node">
<title>3</title>
<ellipse fill="none" stroke="black" cx="244.75" cy="-439.5" rx="49.5" ry="28.99"/>
<text text-anchor="middle" x="244.75" y="-442.7" font-family="Times New Roman,serif" font-size="14.00">KEY</text>
<text text-anchor="middle" x="244.75" y="-426.2" font-family="Times New Roman,serif" font-size="14.00">string: ::=</text>
</g>
<!-- 1&#45;&gt;3 -->
<g id="edge2" class="edge">
<title>1&#45;&gt;3</title>
<path fill="none" stroke="black" d="M295.81,-532.73C287.3,-517.37 275.26,-495.62 265.01,-477.11"/>
<polygon fill="black" stroke="black" points="268.18,-475.59 260.27,-468.54 262.05,-478.98 268.18,-475.59"/>
</g>
<!-- 4 -->
<g id="node4" class="node">
<title>4</title>
<polygon fill="none" stroke="black" points="427.62,-460 311.88,-460 311.88,-419 427.62,-419 427.62,-460"/>
<text text-anchor="middle" x="369.75" y="-442.7" font-family="Times New Roman,serif" font-size="14.00">NONTERMINAL</text>
<text text-anchor="middle" x="369.75" y="-426.2" font-family="Times New Roman,serif" font-size="14.00">type: Alternative</text>
</g>
<!-- 1&#45;&gt;4 -->
<g id="edge3" class="edge">
<title>1&#45;&gt;4</title>
<path fill="none" stroke="black" d="M317.87,-532.73C327.57,-515.49 341.79,-490.2 352.89,-470.47"/>
<polygon fill="black" stroke="black" points="355.94,-472.2 357.79,-461.76 349.84,-468.76 355.94,-472.2"/>
</g>
<!-- 5 -->
<g id="node5" class="node">
<title>5</title>
<ellipse fill="none" stroke="black" cx="486.75" cy="-439.5" rx="41.01" ry="28.99"/>
<text text-anchor="middle" x="486.75" y="-442.7" font-family="Times New Roman,serif" font-size="14.00">KEY</text>
<text text-anchor="middle" x="486.75" y="-426.2" font-family="Times New Roman,serif" font-size="14.00">string: ;</text>
</g>
<!-- 1&#45;&gt;5 -->
<g id="edge4" class="edge">
<title>1&#45;&gt;5</title>
<path fill="none" stroke="black" d="M364.98,-533.97C388.51,-524.92 415.16,-512.58 436.75,-497 445.49,-490.7 453.77,-482.61 460.99,-474.54"/>
<polygon fill="black" stroke="black" points="463.58,-476.91 467.4,-467.02 458.25,-472.36 463.58,-476.91"/>
</g>
<!-- 6 -->
<g id="node6" class="node">
<title>6</title>
<polygon fill="none" stroke="black" points="427.62,-346 311.88,-346 311.88,-305 427.62,-305 427.62,-346"/>
<text text-anchor="middle" x="369.75" y="-328.7" font-family="Times New Roman,serif" font-size="14.00">NONTERMINAL</text>
<text text-anchor="middle" x="369.75" y="-312.2" font-family="Times New Roman,serif" font-size="14.00">type: Sequence</text>
</g>
<!-- 4&#45;&gt;6 -->
<g id="edge5" class="edge">
<title>4&#45;&gt;6</title>
<path fill="none" stroke="black" d="M369.75,-418.73C369.75,-401.88 369.75,-377.37 369.75,-357.84"/>
<polygon fill="black" stroke="black" points="373.25,-357.96 369.75,-347.96 366.25,-357.96 373.25,-357.96"/>
</g>
<!-- 7 -->
<g id="node7" class="node">
<title>7</title>
<polygon fill="none" stroke="black" points="267.75,-269 149.75,-269 149.75,-228 267.75,-228 267.75,-269"/>
<text text-anchor="middle" x="208.75" y="-251.7" font-family="Times New Roman,serif" font-size="14.00">NONTERMINAL</text>
<text text-anchor="middle" x="208.75" y="-235.2" font-family="Times New Roman,serif" font-size="14.00">type: RuleElement</text>
</g>
<!-- 6&#45;&gt;7 -->
<g id="edge6" class="edge">
<title>6&#45;&gt;7</title>
<path fill="none" stroke="black" d="M327.03,-304.6C307.1,-295.32 283.19,-284.18 262.09,-274.35"/>
<polygon fill="black" stroke="black" points="263.59,-271.18 253.04,-270.13 260.63,-277.53 263.59,-271.18"/>
</g>
<!-- 8 -->
<g id="node8" class="node">
<title>8</title>
<polygon fill="none" stroke="black" points="428.75,-269 310.75,-269 310.75,-228 428.75,-228 428.75,-269"/>
<text text-anchor="middle" x="369.75" y="-251.7" font-family="Times New Roman,serif" font-size="14.00">NONTERMINAL</text>
<text text-anchor="middle" x="369.75" y="-235.2" font-family="Times New Roman,serif" font-size="14.00">type: RuleElement</text>
</g>
<!-- 6&#45;&gt;8 -->
<g id="edge7" class="edge">
<title>6&#45;&gt;8</title>
<path fill="none" stroke="black" d="M369.75,-304.79C369.75,-297.45 369.75,-288.91 369.75,-280.78"/>
<polygon fill="black" stroke="black" points="373.25,-280.85 369.75,-270.85 366.25,-280.85 373.25,-280.85"/>
</g>
<!-- 9 -->
<g id="node9" class="node">
<title>9</title>
<polygon fill="none" stroke="black" points="613.75,-269 495.75,-269 495.75,-228 613.75,-228 613.75,-269"/>
<text text-anchor="middle" x="554.75" y="-251.7" font-family="Times New Roman,serif" font-size="14.00">NONTERMINAL</text>
<text text-anchor="middle" x="554.75" y="-235.2" font-family="Times New Roman,serif" font-size="14.00">type: RuleElement</text>
</g>
<!-- 6&#45;&gt;9 -->
<g id="edge8" class="edge">
<title>6&#45;&gt;9</title>
<path fill="none" stroke="black" d="M418.84,-304.6C442.15,-295.15 470.22,-283.77 494.78,-273.81"/>
<polygon fill="black" stroke="black" points="496.07,-277.06 504.03,-270.06 493.44,-270.58 496.07,-277.06"/>
</g>
<!-- 10 -->
<g id="node10" class="node">
<title>10</title>
<polygon fill="none" stroke="black" points="217.62,-192 101.88,-192 101.88,-151 217.62,-151 217.62,-192"/>
<text text-anchor="middle" x="159.75" y="-174.7" font-family="Times New Roman,serif" font-size="14.00">NONTERMINAL</text>
<text text-anchor="middle" x="159.75" y="-158.2" font-family="Times New Roman,serif" font-size="14.00">type: Element</text>
</g>
<!-- 7&#45;&gt;10 -->
<g id="edge9" class="edge">
<title>7&#45;&gt;10</title>
<path fill="none" stroke="black" d="M195.88,-227.79C190.68,-219.85 184.59,-210.51 178.89,-201.8"/>
<polygon fill="black" stroke="black" points="181.94,-200.06 173.54,-193.6 176.08,-203.89 181.94,-200.06"/>
</g>
<!-- 11 -->
<g id="node11" class="node">
<title>11</title>
<polygon fill="none" stroke="black" points="427.62,-192 311.88,-192 311.88,-151 427.62,-151 427.62,-192"/>
<text text-anchor="middle" x="369.75" y="-174.7" font-family="Times New Roman,serif" font-size="14.00">NONTERMINAL</text>
<text text-anchor="middle" x="369.75" y="-158.2" font-family="Times New Roman,serif" font-size="14.00">type: Element</text>
</g>
<!-- 8&#45;&gt;11 -->
<g id="edge10" class="edge">
<title>8&#45;&gt;11</title>
<path fill="none" stroke="black" d="M369.75,-227.79C369.75,-220.45 369.75,-211.91 369.75,-203.78"/>
<polygon fill="black" stroke="black" points="373.25,-203.85 369.75,-193.85 366.25,-203.85 373.25,-203.85"/>
</g>
<!-- 12 -->
<g id="node12" class="node">
<title>12</title>
<polygon fill="none" stroke="black" points="637.62,-192 521.88,-192 521.88,-151 637.62,-151 637.62,-192"/>
<text text-anchor="middle" x="579.75" y="-174.7" font-family="Times New Roman,serif" font-size="14.00">NONTERMINAL</text>
<text text-anchor="middle" x="579.75" y="-158.2" font-family="Times New Roman,serif" font-size="14.00">type: Element</text>
</g>
<!-- 9&#45;&gt;12 -->
<g id="edge11" class="edge">
<title>9&#45;&gt;12</title>
<path fill="none" stroke="black" d="M561.32,-227.79C563.82,-220.28 566.75,-211.51 569.51,-203.21"/>
<polygon fill="black" stroke="black" points="572.82,-204.36 572.66,-193.77 566.18,-202.15 572.82,-204.36"/>
</g>
<!-- 13 -->
<g id="node13" class="node">
<title>13</title>
<polygon fill="none" stroke="black" points="134.75,-115 31.75,-57.5 134.75,0 237.75,-57.5 134.75,-115"/>
<text text-anchor="middle" x="134.75" y="-68.95" font-family="Times New Roman,serif" font-size="14.00">TERMINAL</text>
<text text-anchor="middle" x="134.75" y="-52.45" font-family="Times New Roman,serif" font-size="14.00">type: key_name</text>
<text text-anchor="middle" x="134.75" y="-35.95" font-family="Times New Roman,serif" font-size="14.00">string: &#39;(&#39;</text>
</g>
<!-- 10&#45;&gt;13 -->
<g id="edge12" class="edge">
<title>10&#45;&gt;13</title>
<path fill="none" stroke="black" d="M155.34,-150.73C153.38,-141.97 150.96,-131.14 148.48,-120.01"/>
<polygon fill="black" stroke="black" points="151.91,-119.33 146.32,-110.33 145.08,-120.85 151.91,-119.33"/>
</g>
<!-- 14 -->
<g id="node14" class="node">
<title>14</title>
<polygon fill="none" stroke="black" points="369.75,-115 255.5,-57.5 369.75,0 484,-57.5 369.75,-115"/>
<text text-anchor="middle" x="369.75" y="-68.95" font-family="Times New Roman,serif" font-size="14.00">TERMINAL</text>
<text text-anchor="middle" x="369.75" y="-52.45" font-family="Times New Roman,serif" font-size="14.00">type: name</text>
<text text-anchor="middle" x="369.75" y="-35.95" font-family="Times New Roman,serif" font-size="14.00">string: Alternative</text>
</g>
<!-- 11&#45;&gt;14 -->
<g id="edge13" class="edge">
<title>11&#45;&gt;14</title>
<path fill="none" stroke="black" d="M369.75,-150.73C369.75,-143.67 369.75,-135.26 369.75,-126.43"/>
<polygon fill="black" stroke="black" points="373.25,-126.61 369.75,-116.61 366.25,-126.61 373.25,-126.61"/>
</g>
<!-- 15 -->
<g id="node15" class="node">
<title>15</title>
<polygon fill="none" stroke="black" points="604.75,-115 501.75,-57.5 604.75,0 707.75,-57.5 604.75,-115"/>
<text text-anchor="middle" x="604.75" y="-68.95" font-family="Times New Roman,serif" font-size="14.00">TERMINAL</text>
<text text-anchor="middle" x="604.75" y="-52.45" font-family="Times New Roman,serif" font-size="14.00">type: key_name</text>
<text text-anchor="middle" x="604.75" y="-35.95" font-family="Times New Roman,serif" font-size="14.00">string: &#39;)&#39;</text>
</g>
<!-- 12&#45;&gt;15 -->
<g id="edge14" class="edge">
<title>12&#45;&gt;15</title>
<path fill="none" stroke="black" d="M584.16,-150.73C586.12,-141.97 588.54,-131.14 591.02,-120.01"/>
<polygon fill="black" stroke="black" points="594.42,-120.85 593.18,-110.33 587.59,-119.33 594.42,-120.85"/>
</g>
</g>
</svg>
