<?xml version="1.0" encoding="UTF-8" standalone="no"?>
<!DOCTYPE svg PUBLIC "-//W3C//DTD SVG 1.1//EN"
 "http://www.w3.org/Graphics/SVG/1.1/DTD/svg11.dtd">
<!-- Generated by graphviz version 12.2.0 (20241103.1931)
 -->
<!-- Title: ast_Text Pages: 1 -->
<svg width="532pt" height="582pt"
 viewBox="0.00 0.00 531.51 582.00" xmlns="http://www.w3.org/2000/svg" xmlns:xlink="http://www.w3.org/1999/xlink">
<g id="graph0" class="graph" transform="scale(1 1) rotate(0) translate(4 578)">
<title>ast_Text</title>
<polygon fill="white" stroke="none" points="-4,4 -4,-578 527.51,-578 527.51,4 -4,4"/>
<!-- 1 -->
<g id="node1" class="node">
<title>1</title>
<polygon fill="none" stroke="black" points="360.38,-574 244.62,-574 244.62,-533 360.38,-533 360.38,-574"/>
<text text-anchor="middle" x="302.5" y="-556.7" font-family="Times New Roman,serif" font-size="14.00">NONTERMINAL</text>
<text text-anchor="middle" x="302.5" y="-540.2" font-family="Times New Roman,serif" font-size="14.00">type: Rule</text>
</g>
<!-- 2 -->
<g id="node2" class="node">
<title>2</title>
<polygon fill="none" stroke="black" points="86.5,-497 0,-439.5 86.5,-382 173,-439.5 86.5,-497"/>
<text text-anchor="middle" x="86.5" y="-450.95" font-family="Times New Roman,serif" font-size="14.00">TERMINAL</text>
<text text-anchor="middle" x="86.5" y="-434.45" font-family="Times New Roman,serif" font-size="14.00">type: name</text>
<text text-anchor="middle" x="86.5" y="-417.95" font-family="Times New Roman,serif" font-size="14.00">string: Text</text>
</g>
<!-- 1&#45;&gt;2 -->
<g id="edge1" class="edge">
<title>1&#45;&gt;2</title>
<path fill="none" stroke="black" d="M256.68,-532.59C234.09,-522.45 206.59,-509.62 182.5,-497 168.72,-489.78 154.11,-481.51 140.57,-473.58"/>
<polygon fill="black" stroke="black" points="142.61,-470.72 132.22,-468.64 139.05,-476.74 142.61,-470.72"/>
</g>
<!-- 3 -->
<g id="node3" class="node">
<title>3</title>
<ellipse fill="none" stroke="black" cx="240.5" cy="-439.5" rx="49.5" ry="28.99"/>
<text text-anchor="middle" x="240.5" y="-442.7" font-family="Times New Roman,serif" font-size="14.00">KEY</text>
<text text-anchor="middle" x="240.5" y="-426.2" font-family="Times New Roman,serif" font-size="14.00">string: ::=</text>
</g>
<!-- 1&#45;&gt;3 -->
<g id="edge2" class="edge">
<title>1&#45;&gt;3</title>
<path fill="none" stroke="black" d="M291.56,-532.73C283.05,-517.37 271.01,-495.62 260.76,-477.11"/>
<polygon fill="black" stroke="black" points="263.93,-475.59 256.02,-468.54 257.8,-478.98 263.93,-475.59"/>
</g>
<!-- 4 -->
<g id="node4" class="node">
<title>4</title>
<polygon fill="none" stroke="black" points="423.38,-460 307.62,-460 307.62,-419 423.38,-419 423.38,-460"/>
<text text-anchor="middle" x="365.5" y="-442.7" font-family="Times New Roman,serif" font-size="14.00">NONTERMINAL</text>
<text text-anchor="middle" x="365.5" y="-426.2" font-family="Times New Roman,serif" font-size="14.00">type: Alternative</text>
</g>
<!-- 1&#45;&gt;4 -->
<g id="edge3" class="edge">
<title>1&#45;&gt;4</title>
<path fill="none" stroke="black" d="M313.62,-532.73C323.32,-515.49 337.54,-490.2 348.64,-470.47"/>
<polygon fill="black" stroke="black" points="351.69,-472.2 353.54,-461.76 345.59,-468.76 351.69,-472.2"/>
</g>
<!-- 5 -->
<g id="node5" class="node">
<title>5</title>
<ellipse fill="none" stroke="black" cx="482.5" cy="-439.5" rx="41.01" ry="28.99"/>
<text text-anchor="middle" x="482.5" y="-442.7" font-family="Times New Roman,serif" font-size="14.00">KEY</text>
<text text-anchor="middle" x="482.5" y="-426.2" font-family="Times New Roman,serif" font-size="14.00">string: ;</text>
</g>
<!-- 1&#45;&gt;5 -->
<g id="edge4" class="edge">
<title>1&#45;&gt;5</title>
<path fill="none" stroke="black" d="M360.73,-533.97C384.26,-524.92 410.91,-512.58 432.5,-497 441.24,-490.7 449.52,-482.61 456.74,-474.54"/>
<polygon fill="black" stroke="black" points="459.33,-476.91 463.15,-467.02 454,-472.36 459.33,-476.91"/>
</g>
<!-- 6 -->
<g id="node6" class="node">
<title>6</title>
<polygon fill="none" stroke="black" points="423.38,-346 307.62,-346 307.62,-305 423.38,-305 423.38,-346"/>
<text text-anchor="middle" x="365.5" y="-328.7" font-family="Times New Roman,serif" font-size="14.00">NONTERMINAL</text>
<text text-anchor="middle" x="365.5" y="-312.2" font-family="Times New Roman,serif" font-size="14.00">type: Sequence</text>
</g>
<!-- 4&#45;&gt;6 -->
<g id="edge5" class="edge">
<title>4&#45;&gt;6</title>
<path fill="none" stroke="black" d="M365.5,-418.73C365.5,-401.88 365.5,-377.37 365.5,-357.84"/>
<polygon fill="black" stroke="black" points="369,-357.96 365.5,-347.96 362,-357.96 369,-357.96"/>
</g>
<!-- 7 -->
<g id="node7" class="node">
<title>7</title>
<polygon fill="none" stroke="black" points="424.5,-269 306.5,-269 306.5,-228 424.5,-228 424.5,-269"/>
<text text-anchor="middle" x="365.5" y="-251.7" font-family="Times New Roman,serif" font-size="14.00">NONTERMINAL</text>
<text text-anchor="middle" x="365.5" y="-235.2" font-family="Times New Roman,serif" font-size="14.00">type: RuleElement</text>
</g>
<!-- 6&#45;&gt;7 -->
<g id="edge6" class="edge">
<title>6&#45;&gt;7</title>
<path fill="none" stroke="black" d="M365.5,-304.79C365.5,-297.45 365.5,-288.91 365.5,-280.78"/>
<polygon fill="black" stroke="black" points="369,-280.85 365.5,-270.85 362,-280.85 369,-280.85"/>
</g>
<!-- 8 -->
<g id="node8" class="node">
<title>8</title>
<polygon fill="none" stroke="black" points="423.38,-192 307.62,-192 307.62,-151 423.38,-151 423.38,-192"/>
<text text-anchor="middle" x="365.5" y="-174.7" font-family="Times New Roman,serif" font-size="14.00">NONTERMINAL</text>
<text text-anchor="middle" x="365.5" y="-158.2" font-family="Times New Roman,serif" font-size="14.00">type: Element</text>
</g>
<!-- 7&#45;&gt;8 -->
<g id="edge7" class="edge">
<title>7&#45;&gt;8</title>
<path fill="none" stroke="black" d="M365.5,-227.79C365.5,-220.45 365.5,-211.91 365.5,-203.78"/>
<polygon fill="black" stroke="black" points="369,-203.85 365.5,-193.85 362,-203.85 369,-203.85"/>
</g>
<!-- 9 -->
<g id="node9" class="node">
<title>9</title>
<polygon fill="none" stroke="black" points="365.5,-115 279,-57.5 365.5,0 452,-57.5 365.5,-115"/>
<text text-anchor="middle" x="365.5" y="-68.95" font-family="Times New Roman,serif" font-size="14.00">TERMINAL</text>
<text text-anchor="middle" x="365.5" y="-52.45" font-family="Times New Roman,serif" font-size="14.00">type: name</text>
<text text-anchor="middle" x="365.5" y="-35.95" font-family="Times New Roman,serif" font-size="14.00">string: text</text>
</g>
<!-- 8&#45;&gt;9 -->
<g id="edge8" class="edge">
<title>8&#45;&gt;9</title>
<path fill="none" stroke="black" d="M365.5,-150.73C365.5,-143.84 365.5,-135.65 365.5,-127.05"/>
<polygon fill="black" stroke="black" points="369,-127.09 365.5,-117.09 362,-127.09 369,-127.09"/>
</g>
</g>
</svg>
