<?xml version="1.0" encoding="UTF-8" standalone="no"?>
<!DOCTYPE svg PUBLIC "-//W3C//DTD SVG 1.1//EN"
 "http://www.w3.org/Graphics/SVG/1.1/DTD/svg11.dtd">
<!-- Generated by graphviz version 12.2.0 (20241103.1931)
 -->
<!-- Title: ast_NonterminalsBlock Pages: 1 -->
<svg width="1368pt" height="964pt"
 viewBox="0.00 0.00 1368.00 964.00" xmlns="http://www.w3.org/2000/svg" xmlns:xlink="http://www.w3.org/1999/xlink">
<g id="graph0" class="graph" transform="scale(1 1) rotate(0) translate(4 960)">
<title>ast_NonterminalsBlock</title>
<polygon fill="white" stroke="none" points="-4,4 -4,-960 1364,-960 1364,4 -4,4"/>
<!-- 1 -->
<g id="node1" class="node">
<title>1</title>
<polygon fill="none" stroke="black" points="669.88,-956 554.12,-956 554.12,-915 669.88,-915 669.88,-956"/>
<text text-anchor="middle" x="612" y="-938.7" font-family="Times New Roman,serif" font-size="14.00">NONTERMINAL</text>
<text text-anchor="middle" x="612" y="-922.2" font-family="Times New Roman,serif" font-size="14.00">type: Rule</text>
</g>
<!-- 2 -->
<g id="node2" class="node">
<title>2</title>
<polygon fill="none" stroke="black" points="322,-879 161.25,-821.5 322,-764 482.75,-821.5 322,-879"/>
<text text-anchor="middle" x="322" y="-832.95" font-family="Times New Roman,serif" font-size="14.00">TERMINAL</text>
<text text-anchor="middle" x="322" y="-816.45" font-family="Times New Roman,serif" font-size="14.00">type: name</text>
<text text-anchor="middle" x="322" y="-799.95" font-family="Times New Roman,serif" font-size="14.00">string: NonterminalsBlock</text>
</g>
<!-- 1&#45;&gt;2 -->
<g id="edge1" class="edge">
<title>1&#45;&gt;2</title>
<path fill="none" stroke="black" d="M560.49,-914.61C518.56,-898.41 458.45,-875.2 409.07,-856.13"/>
<polygon fill="black" stroke="black" points="410.39,-852.88 399.8,-852.55 407.87,-859.41 410.39,-852.88"/>
</g>
<!-- 3 -->
<g id="node3" class="node">
<title>3</title>
<ellipse fill="none" stroke="black" cx="550" cy="-821.5" rx="49.5" ry="28.99"/>
<text text-anchor="middle" x="550" y="-824.7" font-family="Times New Roman,serif" font-size="14.00">KEY</text>
<text text-anchor="middle" x="550" y="-808.2" font-family="Times New Roman,serif" font-size="14.00">string: ::=</text>
</g>
<!-- 1&#45;&gt;3 -->
<g id="edge2" class="edge">
<title>1&#45;&gt;3</title>
<path fill="none" stroke="black" d="M601.06,-914.73C592.55,-899.37 580.51,-877.62 570.26,-859.11"/>
<polygon fill="black" stroke="black" points="573.43,-857.59 565.52,-850.54 567.3,-860.98 573.43,-857.59"/>
</g>
<!-- 4 -->
<g id="node4" class="node">
<title>4</title>
<polygon fill="none" stroke="black" points="732.88,-842 617.12,-842 617.12,-801 732.88,-801 732.88,-842"/>
<text text-anchor="middle" x="675" y="-824.7" font-family="Times New Roman,serif" font-size="14.00">NONTERMINAL</text>
<text text-anchor="middle" x="675" y="-808.2" font-family="Times New Roman,serif" font-size="14.00">type: Alternative</text>
</g>
<!-- 1&#45;&gt;4 -->
<g id="edge3" class="edge">
<title>1&#45;&gt;4</title>
<path fill="none" stroke="black" d="M623.12,-914.73C632.82,-897.49 647.04,-872.2 658.14,-852.47"/>
<polygon fill="black" stroke="black" points="661.19,-854.2 663.04,-843.76 655.09,-850.76 661.19,-854.2"/>
</g>
<!-- 5 -->
<g id="node5" class="node">
<title>5</title>
<ellipse fill="none" stroke="black" cx="792" cy="-821.5" rx="41.01" ry="28.99"/>
<text text-anchor="middle" x="792" y="-824.7" font-family="Times New Roman,serif" font-size="14.00">KEY</text>
<text text-anchor="middle" x="792" y="-808.2" font-family="Times New Roman,serif" font-size="14.00">string: ;</text>
</g>
<!-- 1&#45;&gt;5 -->
<g id="edge4" class="edge">
<title>1&#45;&gt;5</title>
<path fill="none" stroke="black" d="M670.23,-915.97C693.76,-906.92 720.41,-894.58 742,-879 750.74,-872.7 759.02,-864.61 766.24,-856.54"/>
<polygon fill="black" stroke="black" points="768.83,-858.91 772.65,-849.02 763.5,-854.36 768.83,-858.91"/>
</g>
<!-- 6 -->
<g id="node6" class="node">
<title>6</title>
<polygon fill="none" stroke="black" points="732.88,-728 617.12,-728 617.12,-687 732.88,-687 732.88,-728"/>
<text text-anchor="middle" x="675" y="-710.7" font-family="Times New Roman,serif" font-size="14.00">NONTERMINAL</text>
<text text-anchor="middle" x="675" y="-694.2" font-family="Times New Roman,serif" font-size="14.00">type: Sequence</text>
</g>
<!-- 4&#45;&gt;6 -->
<g id="edge5" class="edge">
<title>4&#45;&gt;6</title>
<path fill="none" stroke="black" d="M675,-800.73C675,-783.88 675,-759.37 675,-739.84"/>
<polygon fill="black" stroke="black" points="678.5,-739.96 675,-729.96 671.5,-739.96 678.5,-739.96"/>
</g>
<!-- 7 -->
<g id="node7" class="node">
<title>7</title>
<polygon fill="none" stroke="black" points="420,-651 302,-651 302,-610 420,-610 420,-651"/>
<text text-anchor="middle" x="361" y="-633.7" font-family="Times New Roman,serif" font-size="14.00">NONTERMINAL</text>
<text text-anchor="middle" x="361" y="-617.2" font-family="Times New Roman,serif" font-size="14.00">type: RuleElement</text>
</g>
<!-- 6&#45;&gt;7 -->
<g id="edge6" class="edge">
<title>6&#45;&gt;7</title>
<path fill="none" stroke="black" d="M616.67,-692.57C564.22,-680.04 487.04,-661.61 431.21,-648.27"/>
<polygon fill="black" stroke="black" points="432.36,-644.95 421.82,-646.03 430.73,-651.75 432.36,-644.95"/>
</g>
<!-- 8 -->
<g id="node8" class="node">
<title>8</title>
<polygon fill="none" stroke="black" points="594,-651 476,-651 476,-610 594,-610 594,-651"/>
<text text-anchor="middle" x="535" y="-633.7" font-family="Times New Roman,serif" font-size="14.00">NONTERMINAL</text>
<text text-anchor="middle" x="535" y="-617.2" font-family="Times New Roman,serif" font-size="14.00">type: RuleElement</text>
</g>
<!-- 6&#45;&gt;8 -->
<g id="edge7" class="edge">
<title>6&#45;&gt;8</title>
<path fill="none" stroke="black" d="M637.85,-686.6C620.84,-677.49 600.49,-666.58 582.39,-656.89"/>
<polygon fill="black" stroke="black" points="584.13,-653.85 573.66,-652.21 580.82,-660.02 584.13,-653.85"/>
</g>
<!-- 9 -->
<g id="node9" class="node">
<title>9</title>
<polygon fill="none" stroke="black" points="782,-651 664,-651 664,-610 782,-610 782,-651"/>
<text text-anchor="middle" x="723" y="-633.7" font-family="Times New Roman,serif" font-size="14.00">NONTERMINAL</text>
<text text-anchor="middle" x="723" y="-617.2" font-family="Times New Roman,serif" font-size="14.00">type: RuleElement</text>
</g>
<!-- 6&#45;&gt;9 -->
<g id="edge8" class="edge">
<title>6&#45;&gt;9</title>
<path fill="none" stroke="black" d="M687.61,-686.79C692.7,-678.85 698.67,-669.51 704.25,-660.8"/>
<polygon fill="black" stroke="black" points="707.05,-662.92 709.49,-652.61 701.15,-659.14 707.05,-662.92"/>
</g>
<!-- 10 -->
<g id="node10" class="node">
<title>10</title>
<polygon fill="none" stroke="black" points="988,-651 870,-651 870,-610 988,-610 988,-651"/>
<text text-anchor="middle" x="929" y="-633.7" font-family="Times New Roman,serif" font-size="14.00">NONTERMINAL</text>
<text text-anchor="middle" x="929" y="-617.2" font-family="Times New Roman,serif" font-size="14.00">type: RuleElement</text>
</g>
<!-- 6&#45;&gt;10 -->
<g id="edge9" class="edge">
<title>6&#45;&gt;10</title>
<path fill="none" stroke="black" d="M733.27,-689.29C770.62,-678.26 819.33,-663.88 858.8,-652.23"/>
<polygon fill="black" stroke="black" points="859.63,-655.63 868.23,-649.45 857.64,-648.92 859.63,-655.63"/>
</g>
<!-- 11 -->
<g id="node11" class="node">
<title>11</title>
<polygon fill="none" stroke="black" points="343.88,-574 228.12,-574 228.12,-533 343.88,-533 343.88,-574"/>
<text text-anchor="middle" x="286" y="-556.7" font-family="Times New Roman,serif" font-size="14.00">NONTERMINAL</text>
<text text-anchor="middle" x="286" y="-540.2" font-family="Times New Roman,serif" font-size="14.00">type: Element</text>
</g>
<!-- 7&#45;&gt;11 -->
<g id="edge10" class="edge">
<title>7&#45;&gt;11</title>
<path fill="none" stroke="black" d="M341.29,-609.79C332.92,-601.42 323.01,-591.51 313.9,-582.4"/>
<polygon fill="black" stroke="black" points="316.45,-580 306.9,-575.4 311.5,-584.95 316.45,-580"/>
</g>
<!-- 12 -->
<g id="node12" class="node">
<title>12</title>
<polygon fill="none" stroke="black" points="557.88,-574 442.12,-574 442.12,-533 557.88,-533 557.88,-574"/>
<text text-anchor="middle" x="500" y="-556.7" font-family="Times New Roman,serif" font-size="14.00">NONTERMINAL</text>
<text text-anchor="middle" x="500" y="-540.2" font-family="Times New Roman,serif" font-size="14.00">type: Element</text>
</g>
<!-- 8&#45;&gt;12 -->
<g id="edge11" class="edge">
<title>8&#45;&gt;12</title>
<path fill="none" stroke="black" d="M525.8,-609.79C522.22,-602.1 518.02,-593.11 514.07,-584.65"/>
<polygon fill="black" stroke="black" points="517.3,-583.29 509.9,-575.71 510.95,-586.25 517.3,-583.29"/>
</g>
<!-- 13 -->
<g id="node13" class="node">
<title>13</title>
<polygon fill="none" stroke="black" points="852.88,-574 737.12,-574 737.12,-533 852.88,-533 852.88,-574"/>
<text text-anchor="middle" x="795" y="-556.7" font-family="Times New Roman,serif" font-size="14.00">NONTERMINAL</text>
<text text-anchor="middle" x="795" y="-540.2" font-family="Times New Roman,serif" font-size="14.00">type: Iteration</text>
</g>
<!-- 9&#45;&gt;13 -->
<g id="edge12" class="edge">
<title>9&#45;&gt;13</title>
<path fill="none" stroke="black" d="M741.92,-609.79C749.96,-601.42 759.47,-591.51 768.21,-582.4"/>
<polygon fill="black" stroke="black" points="770.51,-585.06 774.91,-575.43 765.46,-580.22 770.51,-585.06"/>
</g>
<!-- 14 -->
<g id="node14" class="node">
<title>14</title>
<polygon fill="none" stroke="black" points="1022.88,-574 907.12,-574 907.12,-533 1022.88,-533 1022.88,-574"/>
<text text-anchor="middle" x="965" y="-556.7" font-family="Times New Roman,serif" font-size="14.00">NONTERMINAL</text>
<text text-anchor="middle" x="965" y="-540.2" font-family="Times New Roman,serif" font-size="14.00">type: Element</text>
</g>
<!-- 10&#45;&gt;14 -->
<g id="edge13" class="edge">
<title>10&#45;&gt;14</title>
<path fill="none" stroke="black" d="M938.46,-609.79C942.15,-602.1 946.46,-593.11 950.53,-584.65"/>
<polygon fill="black" stroke="black" points="953.65,-586.23 954.82,-575.7 947.34,-583.2 953.65,-586.23"/>
</g>
<!-- 15 -->
<g id="node15" class="node">
<title>15</title>
<polygon fill="none" stroke="black" points="166,-497 0,-439.5 166,-382 332,-439.5 166,-497"/>
<text text-anchor="middle" x="166" y="-450.95" font-family="Times New Roman,serif" font-size="14.00">TERMINAL</text>
<text text-anchor="middle" x="166" y="-434.45" font-family="Times New Roman,serif" font-size="14.00">type: key_name</text>
<text text-anchor="middle" x="166" y="-417.95" font-family="Times New Roman,serif" font-size="14.00">string: &#39;NONTERMINALS&#39;</text>
</g>
<!-- 11&#45;&gt;15 -->
<g id="edge14" class="edge">
<title>11&#45;&gt;15</title>
<path fill="none" stroke="black" d="M264.82,-532.73C251.99,-520.76 235,-504.9 218.74,-489.72"/>
<polygon fill="black" stroke="black" points="221.13,-487.16 211.43,-482.9 216.35,-492.28 221.13,-487.16"/>
</g>
<!-- 16 -->
<g id="node16" class="node">
<title>16</title>
<polygon fill="none" stroke="black" points="453,-497 350,-439.5 453,-382 556,-439.5 453,-497"/>
<text text-anchor="middle" x="453" y="-450.95" font-family="Times New Roman,serif" font-size="14.00">TERMINAL</text>
<text text-anchor="middle" x="453" y="-434.45" font-family="Times New Roman,serif" font-size="14.00">type: key_name</text>
<text text-anchor="middle" x="453" y="-417.95" font-family="Times New Roman,serif" font-size="14.00">string: &#39;:&#39;</text>
</g>
<!-- 12&#45;&gt;16 -->
<g id="edge15" class="edge">
<title>12&#45;&gt;16</title>
<path fill="none" stroke="black" d="M491.71,-532.73C487.46,-522.63 482.06,-509.76 476.65,-496.86"/>
<polygon fill="black" stroke="black" points="480.01,-495.83 472.92,-487.96 473.56,-498.54 480.01,-495.83"/>
</g>
<!-- 17 -->
<g id="node17" class="node">
<title>17</title>
<ellipse fill="none" stroke="black" cx="617" cy="-439.5" rx="43.13" ry="28.99"/>
<text text-anchor="middle" x="617" y="-442.7" font-family="Times New Roman,serif" font-size="14.00">KEY</text>
<text text-anchor="middle" x="617" y="-426.2" font-family="Times New Roman,serif" font-size="14.00">string: {</text>
</g>
<!-- 13&#45;&gt;17 -->
<g id="edge16" class="edge">
<title>13&#45;&gt;17</title>
<path fill="none" stroke="black" d="M736.83,-532.72C714.52,-523.67 689.51,-511.67 669,-497 659.99,-490.55 651.34,-482.34 643.78,-474.18"/>
<polygon fill="black" stroke="black" points="646.58,-472.06 637.33,-466.91 641.35,-476.71 646.58,-472.06"/>
</g>
<!-- 18 -->
<g id="node18" class="node">
<title>18</title>
<polygon fill="none" stroke="black" points="793.88,-460 678.12,-460 678.12,-419 793.88,-419 793.88,-460"/>
<text text-anchor="middle" x="736" y="-442.7" font-family="Times New Roman,serif" font-size="14.00">NONTERMINAL</text>
<text text-anchor="middle" x="736" y="-426.2" font-family="Times New Roman,serif" font-size="14.00">type: Alternative</text>
</g>
<!-- 13&#45;&gt;18 -->
<g id="edge17" class="edge">
<title>13&#45;&gt;18</title>
<path fill="none" stroke="black" d="M784.59,-532.73C775.5,-515.49 762.18,-490.2 751.79,-470.47"/>
<polygon fill="black" stroke="black" points="754.97,-469 747.21,-461.78 748.78,-472.26 754.97,-469"/>
</g>
<!-- 19 -->
<g id="node19" class="node">
<title>19</title>
<ellipse fill="none" stroke="black" cx="855" cy="-439.5" rx="43.13" ry="28.99"/>
<text text-anchor="middle" x="855" y="-442.7" font-family="Times New Roman,serif" font-size="14.00">KEY</text>
<text text-anchor="middle" x="855" y="-426.2" font-family="Times New Roman,serif" font-size="14.00">string: #</text>
</g>
<!-- 13&#45;&gt;19 -->
<g id="edge18" class="edge">
<title>13&#45;&gt;19</title>
<path fill="none" stroke="black" d="M805.59,-532.73C813.82,-517.37 825.47,-495.62 835.39,-477.11"/>
<polygon fill="black" stroke="black" points="838.34,-479.01 839.98,-468.55 832.17,-475.71 838.34,-479.01"/>
</g>
<!-- 20 -->
<g id="node20" class="node">
<title>20</title>
<polygon fill="none" stroke="black" points="1031.88,-460 916.12,-460 916.12,-419 1031.88,-419 1031.88,-460"/>
<text text-anchor="middle" x="974" y="-442.7" font-family="Times New Roman,serif" font-size="14.00">NONTERMINAL</text>
<text text-anchor="middle" x="974" y="-426.2" font-family="Times New Roman,serif" font-size="14.00">type: Alternative</text>
</g>
<!-- 13&#45;&gt;20 -->
<g id="edge19" class="edge">
<title>13&#45;&gt;20</title>
<path fill="none" stroke="black" d="M841.33,-532.61C862.05,-522.94 886.4,-510.5 907,-497 919.95,-488.51 933.2,-477.84 944.45,-468.06"/>
<polygon fill="black" stroke="black" points="946.72,-470.73 951.88,-461.48 942.08,-465.49 946.72,-470.73"/>
</g>
<!-- 21 -->
<g id="node21" class="node">
<title>21</title>
<ellipse fill="none" stroke="black" cx="1093" cy="-439.5" rx="43.13" ry="28.99"/>
<text text-anchor="middle" x="1093" y="-442.7" font-family="Times New Roman,serif" font-size="14.00">KEY</text>
<text text-anchor="middle" x="1093" y="-426.2" font-family="Times New Roman,serif" font-size="14.00">string: }</text>
</g>
<!-- 13&#45;&gt;21 -->
<g id="edge20" class="edge">
<title>13&#45;&gt;21</title>
<path fill="none" stroke="black" d="M853.29,-541.25C920.78,-527.92 1024.82,-506.36 1041,-497 1050.85,-491.3 1059.91,-483.12 1067.62,-474.75"/>
<polygon fill="black" stroke="black" points="1070.25,-477.05 1074.14,-467.2 1064.96,-472.48 1070.25,-477.05"/>
</g>
<!-- 22 -->
<g id="node22" class="node">
<title>22</title>
<polygon fill="none" stroke="black" points="1257,-497 1154,-439.5 1257,-382 1360,-439.5 1257,-497"/>
<text text-anchor="middle" x="1257" y="-450.95" font-family="Times New Roman,serif" font-size="14.00">TERMINAL</text>
<text text-anchor="middle" x="1257" y="-434.45" font-family="Times New Roman,serif" font-size="14.00">type: key_name</text>
<text text-anchor="middle" x="1257" y="-417.95" font-family="Times New Roman,serif" font-size="14.00">string: &#39;.&#39;</text>
</g>
<!-- 14&#45;&gt;22 -->
<g id="edge21" class="edge">
<title>14&#45;&gt;22</title>
<path fill="none" stroke="black" d="M1023.01,-537.29C1058.71,-527.28 1105.12,-513.08 1145,-497 1161.81,-490.22 1179.53,-481.88 1195.79,-473.71"/>
<polygon fill="black" stroke="black" points="1197.03,-477 1204.35,-469.34 1193.85,-470.77 1197.03,-477"/>
</g>
<!-- 23 -->
<g id="node23" class="node">
<title>23</title>
<polygon fill="none" stroke="black" points="793.88,-346 678.12,-346 678.12,-305 793.88,-305 793.88,-346"/>
<text text-anchor="middle" x="736" y="-328.7" font-family="Times New Roman,serif" font-size="14.00">NONTERMINAL</text>
<text text-anchor="middle" x="736" y="-312.2" font-family="Times New Roman,serif" font-size="14.00">type: Sequence</text>
</g>
<!-- 18&#45;&gt;23 -->
<g id="edge22" class="edge">
<title>18&#45;&gt;23</title>
<path fill="none" stroke="black" d="M736,-418.73C736,-401.88 736,-377.37 736,-357.84"/>
<polygon fill="black" stroke="black" points="739.5,-357.96 736,-347.96 732.5,-357.96 739.5,-357.96"/>
</g>
<!-- 24 -->
<g id="node24" class="node">
<title>24</title>
<polygon fill="none" stroke="black" points="1031.88,-346 916.12,-346 916.12,-305 1031.88,-305 1031.88,-346"/>
<text text-anchor="middle" x="974" y="-328.7" font-family="Times New Roman,serif" font-size="14.00">NONTERMINAL</text>
<text text-anchor="middle" x="974" y="-312.2" font-family="Times New Roman,serif" font-size="14.00">type: Sequence</text>
</g>
<!-- 20&#45;&gt;24 -->
<g id="edge23" class="edge">
<title>20&#45;&gt;24</title>
<path fill="none" stroke="black" d="M974,-418.73C974,-401.88 974,-377.37 974,-357.84"/>
<polygon fill="black" stroke="black" points="977.5,-357.96 974,-347.96 970.5,-357.96 977.5,-357.96"/>
</g>
<!-- 25 -->
<g id="node25" class="node">
<title>25</title>
<polygon fill="none" stroke="black" points="795,-269 677,-269 677,-228 795,-228 795,-269"/>
<text text-anchor="middle" x="736" y="-251.7" font-family="Times New Roman,serif" font-size="14.00">NONTERMINAL</text>
<text text-anchor="middle" x="736" y="-235.2" font-family="Times New Roman,serif" font-size="14.00">type: RuleElement</text>
</g>
<!-- 23&#45;&gt;25 -->
<g id="edge24" class="edge">
<title>23&#45;&gt;25</title>
<path fill="none" stroke="black" d="M736,-304.79C736,-297.45 736,-288.91 736,-280.78"/>
<polygon fill="black" stroke="black" points="739.5,-280.85 736,-270.85 732.5,-280.85 739.5,-280.85"/>
</g>
<!-- 26 -->
<g id="node26" class="node">
<title>26</title>
<polygon fill="none" stroke="black" points="1033,-269 915,-269 915,-228 1033,-228 1033,-269"/>
<text text-anchor="middle" x="974" y="-251.7" font-family="Times New Roman,serif" font-size="14.00">NONTERMINAL</text>
<text text-anchor="middle" x="974" y="-235.2" font-family="Times New Roman,serif" font-size="14.00">type: RuleElement</text>
</g>
<!-- 24&#45;&gt;26 -->
<g id="edge25" class="edge">
<title>24&#45;&gt;26</title>
<path fill="none" stroke="black" d="M974,-304.79C974,-297.45 974,-288.91 974,-280.78"/>
<polygon fill="black" stroke="black" points="977.5,-280.85 974,-270.85 970.5,-280.85 977.5,-280.85"/>
</g>
<!-- 27 -->
<g id="node27" class="node">
<title>27</title>
<polygon fill="none" stroke="black" points="793.88,-192 678.12,-192 678.12,-151 793.88,-151 793.88,-192"/>
<text text-anchor="middle" x="736" y="-174.7" font-family="Times New Roman,serif" font-size="14.00">NONTERMINAL</text>
<text text-anchor="middle" x="736" y="-158.2" font-family="Times New Roman,serif" font-size="14.00">type: Element</text>
</g>
<!-- 25&#45;&gt;27 -->
<g id="edge26" class="edge">
<title>25&#45;&gt;27</title>
<path fill="none" stroke="black" d="M736,-227.79C736,-220.45 736,-211.91 736,-203.78"/>
<polygon fill="black" stroke="black" points="739.5,-203.85 736,-193.85 732.5,-203.85 739.5,-203.85"/>
</g>
<!-- 28 -->
<g id="node28" class="node">
<title>28</title>
<polygon fill="none" stroke="black" points="1031.88,-192 916.12,-192 916.12,-151 1031.88,-151 1031.88,-192"/>
<text text-anchor="middle" x="974" y="-174.7" font-family="Times New Roman,serif" font-size="14.00">NONTERMINAL</text>
<text text-anchor="middle" x="974" y="-158.2" font-family="Times New Roman,serif" font-size="14.00">type: Element</text>
</g>
<!-- 26&#45;&gt;28 -->
<g id="edge27" class="edge">
<title>26&#45;&gt;28</title>
<path fill="none" stroke="black" d="M974,-227.79C974,-220.45 974,-211.91 974,-203.78"/>
<polygon fill="black" stroke="black" points="977.5,-203.85 974,-193.85 970.5,-203.85 977.5,-203.85"/>
</g>
<!-- 29 -->
<g id="node29" class="node">
<title>29</title>
<ellipse fill="none" stroke="black" cx="736" cy="-57.5" rx="59.04" ry="28.99"/>
<text text-anchor="middle" x="736" y="-60.7" font-family="Times New Roman,serif" font-size="14.00">KEY</text>
<text text-anchor="middle" x="736" y="-44.2" font-family="Times New Roman,serif" font-size="14.00">string: None</text>
</g>
<!-- 27&#45;&gt;29 -->
<g id="edge28" class="edge">
<title>27&#45;&gt;29</title>
<path fill="none" stroke="black" d="M736,-150.73C736,-136.21 736,-115.98 736,-98.17"/>
<polygon fill="black" stroke="black" points="739.5,-98.41 736,-88.41 732.5,-98.41 739.5,-98.41"/>
</g>
<!-- 30 -->
<g id="node30" class="node">
<title>30</title>
<polygon fill="none" stroke="black" points="974,-115 871,-57.5 974,0 1077,-57.5 974,-115"/>
<text text-anchor="middle" x="974" y="-68.95" font-family="Times New Roman,serif" font-size="14.00">TERMINAL</text>
<text text-anchor="middle" x="974" y="-52.45" font-family="Times New Roman,serif" font-size="14.00">type: key_name</text>
<text text-anchor="middle" x="974" y="-35.95" font-family="Times New Roman,serif" font-size="14.00">string: &#39;;&#39;</text>
</g>
<!-- 28&#45;&gt;30 -->
<g id="edge29" class="edge">
<title>28&#45;&gt;30</title>
<path fill="none" stroke="black" d="M974,-150.73C974,-143.67 974,-135.26 974,-126.43"/>
<polygon fill="black" stroke="black" points="977.5,-126.61 974,-116.61 970.5,-126.61 977.5,-126.61"/>
</g>
</g>
</svg>
