<?xml version="1.0" encoding="UTF-8" standalone="no"?>
<!DOCTYPE svg PUBLIC "-//W3C//DTD SVG 1.1//EN"
 "http://www.w3.org/Graphics/SVG/1.1/DTD/svg11.dtd">
<!-- Generated by graphviz version 12.2.0 (20241103.1931)
 -->
<!-- Title: ast_Rule Pages: 1 -->
<svg width="992pt" height="981pt"
 viewBox="0.00 0.00 992.04 980.98" xmlns="http://www.w3.org/2000/svg" xmlns:xlink="http://www.w3.org/1999/xlink">
<g id="graph0" class="graph" transform="scale(1 1) rotate(0) translate(4 976.98)">
<title>ast_Rule</title>
<polygon fill="white" stroke="none" points="-4,4 -4,-976.98 988.04,-976.98 988.04,4 -4,4"/>
<!-- 1 -->
<g id="node1" class="node">
<title>1</title>
<polygon fill="none" stroke="black" points="383.92,-972.98 268.17,-972.98 268.17,-931.98 383.92,-931.98 383.92,-972.98"/>
<text text-anchor="middle" x="326.04" y="-955.68" font-family="Times New Roman,serif" font-size="14.00">NONTERMINAL</text>
<text text-anchor="middle" x="326.04" y="-939.18" font-family="Times New Roman,serif" font-size="14.00">type: Rule</text>
</g>
<!-- 2 -->
<g id="node2" class="node">
<title>2</title>
<polygon fill="none" stroke="black" points="110.04,-895.98 23.54,-838.48 110.04,-780.98 196.54,-838.48 110.04,-895.98"/>
<text text-anchor="middle" x="110.04" y="-849.93" font-family="Times New Roman,serif" font-size="14.00">TERMINAL</text>
<text text-anchor="middle" x="110.04" y="-833.43" font-family="Times New Roman,serif" font-size="14.00">type: name</text>
<text text-anchor="middle" x="110.04" y="-816.93" font-family="Times New Roman,serif" font-size="14.00">string: Rule</text>
</g>
<!-- 1&#45;&gt;2 -->
<g id="edge1" class="edge">
<title>1&#45;&gt;2</title>
<path fill="none" stroke="black" d="M280.23,-931.57C257.64,-921.43 230.14,-908.61 206.04,-895.98 192.26,-888.76 177.65,-880.5 164.11,-872.56"/>
<polygon fill="black" stroke="black" points="166.15,-869.7 155.76,-867.63 162.59,-875.73 166.15,-869.7"/>
</g>
<!-- 3 -->
<g id="node3" class="node">
<title>3</title>
<ellipse fill="none" stroke="black" cx="264.04" cy="-838.48" rx="49.5" ry="28.99"/>
<text text-anchor="middle" x="264.04" y="-841.68" font-family="Times New Roman,serif" font-size="14.00">KEY</text>
<text text-anchor="middle" x="264.04" y="-825.18" font-family="Times New Roman,serif" font-size="14.00">string: ::=</text>
</g>
<!-- 1&#45;&gt;3 -->
<g id="edge2" class="edge">
<title>1&#45;&gt;3</title>
<path fill="none" stroke="black" d="M315.1,-931.72C306.6,-916.35 294.56,-894.61 284.31,-876.09"/>
<polygon fill="black" stroke="black" points="287.47,-874.57 279.56,-867.52 281.34,-877.96 287.47,-874.57"/>
</g>
<!-- 4 -->
<g id="node4" class="node">
<title>4</title>
<polygon fill="none" stroke="black" points="446.92,-858.98 331.17,-858.98 331.17,-817.98 446.92,-817.98 446.92,-858.98"/>
<text text-anchor="middle" x="389.04" y="-841.68" font-family="Times New Roman,serif" font-size="14.00">NONTERMINAL</text>
<text text-anchor="middle" x="389.04" y="-825.18" font-family="Times New Roman,serif" font-size="14.00">type: Alternative</text>
</g>
<!-- 1&#45;&gt;4 -->
<g id="edge3" class="edge">
<title>1&#45;&gt;4</title>
<path fill="none" stroke="black" d="M337.16,-931.72C346.86,-914.47 361.08,-889.19 372.19,-869.45"/>
<polygon fill="black" stroke="black" points="375.23,-871.18 377.08,-860.75 369.13,-867.75 375.23,-871.18"/>
</g>
<!-- 5 -->
<g id="node5" class="node">
<title>5</title>
<ellipse fill="none" stroke="black" cx="506.04" cy="-838.48" rx="41.01" ry="28.99"/>
<text text-anchor="middle" x="506.04" y="-841.68" font-family="Times New Roman,serif" font-size="14.00">KEY</text>
<text text-anchor="middle" x="506.04" y="-825.18" font-family="Times New Roman,serif" font-size="14.00">string: ;</text>
</g>
<!-- 1&#45;&gt;5 -->
<g id="edge4" class="edge">
<title>1&#45;&gt;5</title>
<path fill="none" stroke="black" d="M384.28,-932.95C407.81,-923.9 434.45,-911.56 456.04,-895.98 464.78,-889.68 473.07,-881.59 480.29,-873.52"/>
<polygon fill="black" stroke="black" points="482.87,-875.89 486.69,-866.01 477.54,-871.35 482.87,-875.89"/>
</g>
<!-- 6 -->
<g id="node6" class="node">
<title>6</title>
<polygon fill="none" stroke="black" points="446.92,-744.98 331.17,-744.98 331.17,-703.98 446.92,-703.98 446.92,-744.98"/>
<text text-anchor="middle" x="389.04" y="-727.68" font-family="Times New Roman,serif" font-size="14.00">NONTERMINAL</text>
<text text-anchor="middle" x="389.04" y="-711.18" font-family="Times New Roman,serif" font-size="14.00">type: Sequence</text>
</g>
<!-- 4&#45;&gt;6 -->
<g id="edge5" class="edge">
<title>4&#45;&gt;6</title>
<path fill="none" stroke="black" d="M389.04,-817.72C389.04,-800.87 389.04,-776.35 389.04,-756.82"/>
<polygon fill="black" stroke="black" points="392.54,-756.94 389.04,-746.94 385.54,-756.94 392.54,-756.94"/>
</g>
<!-- 7 -->
<g id="node7" class="node">
<title>7</title>
<polygon fill="none" stroke="black" points="184.04,-667.98 66.04,-667.98 66.04,-626.98 184.04,-626.98 184.04,-667.98"/>
<text text-anchor="middle" x="125.04" y="-650.68" font-family="Times New Roman,serif" font-size="14.00">NONTERMINAL</text>
<text text-anchor="middle" x="125.04" y="-634.18" font-family="Times New Roman,serif" font-size="14.00">type: RuleElement</text>
</g>
<!-- 6&#45;&gt;7 -->
<g id="edge6" class="edge">
<title>6&#45;&gt;7</title>
<path fill="none" stroke="black" d="M330.78,-706.93C290.92,-695.61 237.84,-680.53 195.58,-668.52"/>
<polygon fill="black" stroke="black" points="196.56,-665.16 185.98,-665.8 194.65,-671.9 196.56,-665.16"/>
</g>
<!-- 8 -->
<g id="node8" class="node">
<title>8</title>
<polygon fill="none" stroke="black" points="331.04,-667.98 213.04,-667.98 213.04,-626.98 331.04,-626.98 331.04,-667.98"/>
<text text-anchor="middle" x="272.04" y="-650.68" font-family="Times New Roman,serif" font-size="14.00">NONTERMINAL</text>
<text text-anchor="middle" x="272.04" y="-634.18" font-family="Times New Roman,serif" font-size="14.00">type: RuleElement</text>
</g>
<!-- 6&#45;&gt;8 -->
<g id="edge7" class="edge">
<title>6&#45;&gt;8</title>
<path fill="none" stroke="black" d="M358,-703.58C344.11,-694.68 327.56,-684.07 312.71,-674.55"/>
<polygon fill="black" stroke="black" points="314.82,-671.74 304.51,-669.29 311.04,-677.64 314.82,-671.74"/>
</g>
<!-- 9 -->
<g id="node9" class="node">
<title>9</title>
<polygon fill="none" stroke="black" points="476.04,-667.98 358.04,-667.98 358.04,-626.98 476.04,-626.98 476.04,-667.98"/>
<text text-anchor="middle" x="417.04" y="-650.68" font-family="Times New Roman,serif" font-size="14.00">NONTERMINAL</text>
<text text-anchor="middle" x="417.04" y="-634.18" font-family="Times New Roman,serif" font-size="14.00">type: RuleElement</text>
</g>
<!-- 6&#45;&gt;9 -->
<g id="edge8" class="edge">
<title>6&#45;&gt;9</title>
<path fill="none" stroke="black" d="M396.4,-703.78C399.24,-696.17 402.55,-687.3 405.68,-678.91"/>
<polygon fill="black" stroke="black" points="408.89,-680.33 409.11,-669.73 402.33,-677.88 408.89,-680.33"/>
</g>
<!-- 10 -->
<g id="node10" class="node">
<title>10</title>
<polygon fill="none" stroke="black" points="718.04,-667.98 600.04,-667.98 600.04,-626.98 718.04,-626.98 718.04,-667.98"/>
<text text-anchor="middle" x="659.04" y="-650.68" font-family="Times New Roman,serif" font-size="14.00">NONTERMINAL</text>
<text text-anchor="middle" x="659.04" y="-634.18" font-family="Times New Roman,serif" font-size="14.00">type: RuleElement</text>
</g>
<!-- 6&#45;&gt;10 -->
<g id="edge9" class="edge">
<title>6&#45;&gt;10</title>
<path fill="none" stroke="black" d="M447.3,-707.3C488.88,-695.75 545.02,-680.16 589.05,-667.93"/>
<polygon fill="black" stroke="black" points="589.81,-671.35 598.5,-665.3 587.93,-664.6 589.81,-671.35"/>
</g>
<!-- 11 -->
<g id="node11" class="node">
<title>11</title>
<polygon fill="none" stroke="black" points="160.92,-590.98 45.17,-590.98 45.17,-549.98 160.92,-549.98 160.92,-590.98"/>
<text text-anchor="middle" x="103.04" y="-573.68" font-family="Times New Roman,serif" font-size="14.00">NONTERMINAL</text>
<text text-anchor="middle" x="103.04" y="-557.18" font-family="Times New Roman,serif" font-size="14.00">type: Element</text>
</g>
<!-- 7&#45;&gt;11 -->
<g id="edge10" class="edge">
<title>7&#45;&gt;11</title>
<path fill="none" stroke="black" d="M119.26,-626.78C117.06,-619.26 114.49,-610.5 112.05,-602.19"/>
<polygon fill="black" stroke="black" points="115.46,-601.38 109.29,-592.77 108.74,-603.35 115.46,-601.38"/>
</g>
<!-- 12 -->
<g id="node12" class="node">
<title>12</title>
<polygon fill="none" stroke="black" points="312.92,-590.98 197.17,-590.98 197.17,-549.98 312.92,-549.98 312.92,-590.98"/>
<text text-anchor="middle" x="255.04" y="-573.68" font-family="Times New Roman,serif" font-size="14.00">NONTERMINAL</text>
<text text-anchor="middle" x="255.04" y="-557.18" font-family="Times New Roman,serif" font-size="14.00">type: Element</text>
</g>
<!-- 8&#45;&gt;12 -->
<g id="edge11" class="edge">
<title>8&#45;&gt;12</title>
<path fill="none" stroke="black" d="M267.58,-626.78C265.89,-619.34 263.93,-610.7 262.07,-602.48"/>
<polygon fill="black" stroke="black" points="265.5,-601.77 259.87,-592.79 258.67,-603.32 265.5,-601.77"/>
</g>
<!-- 13 -->
<g id="node13" class="node">
<title>13</title>
<polygon fill="none" stroke="black" points="482.92,-590.98 367.17,-590.98 367.17,-549.98 482.92,-549.98 482.92,-590.98"/>
<text text-anchor="middle" x="425.04" y="-573.68" font-family="Times New Roman,serif" font-size="14.00">NONTERMINAL</text>
<text text-anchor="middle" x="425.04" y="-557.18" font-family="Times New Roman,serif" font-size="14.00">type: Element</text>
</g>
<!-- 9&#45;&gt;13 -->
<g id="edge12" class="edge">
<title>9&#45;&gt;13</title>
<path fill="none" stroke="black" d="M419.15,-626.78C419.93,-619.43 420.84,-610.89 421.71,-602.76"/>
<polygon fill="black" stroke="black" points="425.19,-603.14 422.77,-592.82 418.23,-602.39 425.19,-603.14"/>
</g>
<!-- 14 -->
<g id="node14" class="node">
<title>14</title>
<polygon fill="none" stroke="black" points="763.92,-590.98 648.17,-590.98 648.17,-549.98 763.92,-549.98 763.92,-590.98"/>
<text text-anchor="middle" x="706.04" y="-573.68" font-family="Times New Roman,serif" font-size="14.00">NONTERMINAL</text>
<text text-anchor="middle" x="706.04" y="-557.18" font-family="Times New Roman,serif" font-size="14.00">type: Group</text>
</g>
<!-- 10&#45;&gt;14 -->
<g id="edge13" class="edge">
<title>10&#45;&gt;14</title>
<path fill="none" stroke="black" d="M671.39,-626.78C676.32,-618.92 682.1,-609.7 687.51,-601.06"/>
<polygon fill="black" stroke="black" points="690.47,-602.93 692.81,-592.6 684.53,-599.21 690.47,-602.93"/>
</g>
<!-- 15 -->
<g id="node15" class="node">
<title>15</title>
<ellipse fill="none" stroke="black" cx="59.04" cy="-456.48" rx="59.04" ry="28.99"/>
<text text-anchor="middle" x="59.04" y="-459.68" font-family="Times New Roman,serif" font-size="14.00">KEY</text>
<text text-anchor="middle" x="59.04" y="-443.18" font-family="Times New Roman,serif" font-size="14.00">string: None</text>
</g>
<!-- 11&#45;&gt;15 -->
<g id="edge14" class="edge">
<title>11&#45;&gt;15</title>
<path fill="none" stroke="black" d="M95.28,-549.72C89.45,-534.88 81.28,-514.09 74.18,-496.01"/>
<polygon fill="black" stroke="black" points="77.5,-494.89 70.59,-486.86 70.98,-497.45 77.5,-494.89"/>
</g>
<!-- 16 -->
<g id="node16" class="node">
<title>16</title>
<polygon fill="none" stroke="black" points="239.04,-513.98 136.04,-456.48 239.04,-398.98 342.04,-456.48 239.04,-513.98"/>
<text text-anchor="middle" x="239.04" y="-467.93" font-family="Times New Roman,serif" font-size="14.00">TERMINAL</text>
<text text-anchor="middle" x="239.04" y="-451.43" font-family="Times New Roman,serif" font-size="14.00">type: key_name</text>
<text text-anchor="middle" x="239.04" y="-434.93" font-family="Times New Roman,serif" font-size="14.00">string: &#39;::=&#39;</text>
</g>
<!-- 12&#45;&gt;16 -->
<g id="edge15" class="edge">
<title>12&#45;&gt;16</title>
<path fill="none" stroke="black" d="M252.22,-549.72C251.06,-541.6 249.65,-531.7 248.18,-521.44"/>
<polygon fill="black" stroke="black" points="251.67,-521.14 246.79,-511.73 244.74,-522.13 251.67,-521.14"/>
</g>
<!-- 17 -->
<g id="node17" class="node">
<title>17</title>
<polygon fill="none" stroke="black" points="474.04,-513.98 359.79,-456.48 474.04,-398.98 588.29,-456.48 474.04,-513.98"/>
<text text-anchor="middle" x="474.04" y="-467.93" font-family="Times New Roman,serif" font-size="14.00">TERMINAL</text>
<text text-anchor="middle" x="474.04" y="-451.43" font-family="Times New Roman,serif" font-size="14.00">type: name</text>
<text text-anchor="middle" x="474.04" y="-434.93" font-family="Times New Roman,serif" font-size="14.00">string: Alternative</text>
</g>
<!-- 13&#45;&gt;17 -->
<g id="edge16" class="edge">
<title>13&#45;&gt;17</title>
<path fill="none" stroke="black" d="M433.69,-549.72C438.07,-539.71 443.63,-526.99 449.22,-514.22"/>
<polygon fill="black" stroke="black" points="452.27,-515.98 453.07,-505.41 445.86,-513.17 452.27,-515.98"/>
</g>
<!-- 18 -->
<g id="node18" class="node">
<title>18</title>
<ellipse fill="none" stroke="black" cx="648.04" cy="-456.48" rx="41.54" ry="28.99"/>
<text text-anchor="middle" x="648.04" y="-459.68" font-family="Times New Roman,serif" font-size="14.00">KEY</text>
<text text-anchor="middle" x="648.04" y="-443.18" font-family="Times New Roman,serif" font-size="14.00">string: (</text>
</g>
<!-- 14&#45;&gt;18 -->
<g id="edge17" class="edge">
<title>14&#45;&gt;18</title>
<path fill="none" stroke="black" d="M695.81,-549.72C687.89,-534.42 676.69,-512.81 667.13,-494.35"/>
<polygon fill="black" stroke="black" points="670.28,-492.81 662.57,-485.54 664.06,-496.03 670.28,-492.81"/>
</g>
<!-- 19 -->
<g id="node19" class="node">
<title>19</title>
<polygon fill="none" stroke="black" points="822.92,-476.98 707.17,-476.98 707.17,-435.98 822.92,-435.98 822.92,-476.98"/>
<text text-anchor="middle" x="765.04" y="-459.68" font-family="Times New Roman,serif" font-size="14.00">NONTERMINAL</text>
<text text-anchor="middle" x="765.04" y="-443.18" font-family="Times New Roman,serif" font-size="14.00">type: Alternative</text>
</g>
<!-- 14&#45;&gt;19 -->
<g id="edge18" class="edge">
<title>14&#45;&gt;19</title>
<path fill="none" stroke="black" d="M716.46,-549.72C725.54,-532.47 738.86,-507.19 749.26,-487.45"/>
<polygon fill="black" stroke="black" points="752.27,-489.25 753.83,-478.77 746.07,-485.98 752.27,-489.25"/>
</g>
<!-- 20 -->
<g id="node20" class="node">
<title>20</title>
<ellipse fill="none" stroke="black" cx="882.04" cy="-456.48" rx="41.54" ry="28.99"/>
<text text-anchor="middle" x="882.04" y="-459.68" font-family="Times New Roman,serif" font-size="14.00">KEY</text>
<text text-anchor="middle" x="882.04" y="-443.18" font-family="Times New Roman,serif" font-size="14.00">string: )</text>
</g>
<!-- 14&#45;&gt;20 -->
<g id="edge19" class="edge">
<title>14&#45;&gt;20</title>
<path fill="none" stroke="black" d="M764.37,-549.91C786.7,-540.89 811.68,-528.85 832.04,-513.98 840.74,-507.63 849.02,-499.53 856.24,-491.45"/>
<polygon fill="black" stroke="black" points="858.82,-493.82 862.64,-483.94 853.49,-489.28 858.82,-493.82"/>
</g>
<!-- 21 -->
<g id="node21" class="node">
<title>21</title>
<polygon fill="none" stroke="black" points="706.92,-354.49 591.17,-354.49 591.17,-313.49 706.92,-313.49 706.92,-354.49"/>
<text text-anchor="middle" x="649.04" y="-337.19" font-family="Times New Roman,serif" font-size="14.00">NONTERMINAL</text>
<text text-anchor="middle" x="649.04" y="-320.69" font-family="Times New Roman,serif" font-size="14.00">type: Sequence</text>
</g>
<!-- 19&#45;&gt;21 -->
<g id="edge20" class="edge">
<title>19&#45;&gt;21</title>
<path fill="none" stroke="black" d="M745.89,-435.59C726.83,-415.79 697.42,-385.24 676,-363"/>
<polygon fill="black" stroke="black" points="678.73,-360.78 669.28,-356.01 673.69,-365.64 678.73,-360.78"/>
</g>
<!-- 22 -->
<g id="node22" class="node">
<title>22</title>
<ellipse fill="none" stroke="black" cx="765.04" cy="-333.99" rx="40.48" ry="28.99"/>
<text text-anchor="middle" x="765.04" y="-337.19" font-family="Times New Roman,serif" font-size="14.00">KEY</text>
<text text-anchor="middle" x="765.04" y="-320.69" font-family="Times New Roman,serif" font-size="14.00">string: |</text>
</g>
<!-- 19&#45;&gt;22 -->
<g id="edge21" class="edge">
<title>19&#45;&gt;22</title>
<path fill="none" stroke="black" d="M765.04,-435.59C765.04,-418.97 765.04,-394.77 765.04,-374.28"/>
<polygon fill="black" stroke="black" points="768.54,-374.55 765.04,-364.55 761.54,-374.55 768.54,-374.55"/>
</g>
<!-- 23 -->
<g id="node23" class="node">
<title>23</title>
<polygon fill="none" stroke="black" points="938.92,-354.49 823.17,-354.49 823.17,-313.49 938.92,-313.49 938.92,-354.49"/>
<text text-anchor="middle" x="881.04" y="-337.19" font-family="Times New Roman,serif" font-size="14.00">NONTERMINAL</text>
<text text-anchor="middle" x="881.04" y="-320.69" font-family="Times New Roman,serif" font-size="14.00">type: Sequence</text>
</g>
<!-- 19&#45;&gt;23 -->
<g id="edge22" class="edge">
<title>19&#45;&gt;23</title>
<path fill="none" stroke="black" d="M784.2,-435.59C803.26,-415.79 832.67,-385.24 854.08,-363"/>
<polygon fill="black" stroke="black" points="856.4,-365.64 860.81,-356.01 851.35,-360.78 856.4,-365.64"/>
</g>
<!-- 24 -->
<g id="node24" class="node">
<title>24</title>
<polygon fill="none" stroke="black" points="708.04,-269 590.04,-269 590.04,-228 708.04,-228 708.04,-269"/>
<text text-anchor="middle" x="649.04" y="-251.7" font-family="Times New Roman,serif" font-size="14.00">NONTERMINAL</text>
<text text-anchor="middle" x="649.04" y="-235.2" font-family="Times New Roman,serif" font-size="14.00">type: RuleElement</text>
</g>
<!-- 21&#45;&gt;24 -->
<g id="edge23" class="edge">
<title>21&#45;&gt;24</title>
<path fill="none" stroke="black" d="M649.04,-313.21C649.04,-303.5 649.04,-291.59 649.04,-280.7"/>
<polygon fill="black" stroke="black" points="652.54,-280.95 649.04,-270.95 645.54,-280.95 652.54,-280.95"/>
</g>
<!-- 25 -->
<g id="node25" class="node">
<title>25</title>
<polygon fill="none" stroke="black" points="940.04,-269 822.04,-269 822.04,-228 940.04,-228 940.04,-269"/>
<text text-anchor="middle" x="881.04" y="-251.7" font-family="Times New Roman,serif" font-size="14.00">NONTERMINAL</text>
<text text-anchor="middle" x="881.04" y="-235.2" font-family="Times New Roman,serif" font-size="14.00">type: RuleElement</text>
</g>
<!-- 23&#45;&gt;25 -->
<g id="edge24" class="edge">
<title>23&#45;&gt;25</title>
<path fill="none" stroke="black" d="M881.04,-313.21C881.04,-303.5 881.04,-291.59 881.04,-280.7"/>
<polygon fill="black" stroke="black" points="884.54,-280.95 881.04,-270.95 877.54,-280.95 884.54,-280.95"/>
</g>
<!-- 26 -->
<g id="node26" class="node">
<title>26</title>
<polygon fill="none" stroke="black" points="706.92,-192 591.17,-192 591.17,-151 706.92,-151 706.92,-192"/>
<text text-anchor="middle" x="649.04" y="-174.7" font-family="Times New Roman,serif" font-size="14.00">NONTERMINAL</text>
<text text-anchor="middle" x="649.04" y="-158.2" font-family="Times New Roman,serif" font-size="14.00">type: Element</text>
</g>
<!-- 24&#45;&gt;26 -->
<g id="edge25" class="edge">
<title>24&#45;&gt;26</title>
<path fill="none" stroke="black" d="M649.04,-227.79C649.04,-220.45 649.04,-211.91 649.04,-203.78"/>
<polygon fill="black" stroke="black" points="652.54,-203.85 649.04,-193.85 645.54,-203.85 652.54,-203.85"/>
</g>
<!-- 27 -->
<g id="node27" class="node">
<title>27</title>
<polygon fill="none" stroke="black" points="938.92,-192 823.17,-192 823.17,-151 938.92,-151 938.92,-192"/>
<text text-anchor="middle" x="881.04" y="-174.7" font-family="Times New Roman,serif" font-size="14.00">NONTERMINAL</text>
<text text-anchor="middle" x="881.04" y="-158.2" font-family="Times New Roman,serif" font-size="14.00">type: Element</text>
</g>
<!-- 25&#45;&gt;27 -->
<g id="edge26" class="edge">
<title>25&#45;&gt;27</title>
<path fill="none" stroke="black" d="M881.04,-227.79C881.04,-220.45 881.04,-211.91 881.04,-203.78"/>
<polygon fill="black" stroke="black" points="884.54,-203.85 881.04,-193.85 877.54,-203.85 884.54,-203.85"/>
</g>
<!-- 28 -->
<g id="node28" class="node">
<title>28</title>
<polygon fill="none" stroke="black" points="649.04,-115 546.04,-57.5 649.04,0 752.04,-57.5 649.04,-115"/>
<text text-anchor="middle" x="649.04" y="-68.95" font-family="Times New Roman,serif" font-size="14.00">TERMINAL</text>
<text text-anchor="middle" x="649.04" y="-52.45" font-family="Times New Roman,serif" font-size="14.00">type: key_name</text>
<text text-anchor="middle" x="649.04" y="-35.95" font-family="Times New Roman,serif" font-size="14.00">string: &#39;.&#39;</text>
</g>
<!-- 26&#45;&gt;28 -->
<g id="edge27" class="edge">
<title>26&#45;&gt;28</title>
<path fill="none" stroke="black" d="M649.04,-150.73C649.04,-143.67 649.04,-135.26 649.04,-126.43"/>
<polygon fill="black" stroke="black" points="652.54,-126.61 649.04,-116.61 645.54,-126.61 652.54,-126.61"/>
</g>
<!-- 29 -->
<g id="node29" class="node">
<title>29</title>
<polygon fill="none" stroke="black" points="881.04,-115 778.04,-57.5 881.04,0 984.04,-57.5 881.04,-115"/>
<text text-anchor="middle" x="881.04" y="-68.95" font-family="Times New Roman,serif" font-size="14.00">TERMINAL</text>
<text text-anchor="middle" x="881.04" y="-52.45" font-family="Times New Roman,serif" font-size="14.00">type: key_name</text>
<text text-anchor="middle" x="881.04" y="-35.95" font-family="Times New Roman,serif" font-size="14.00">string: &#39;;&#39;</text>
</g>
<!-- 27&#45;&gt;29 -->
<g id="edge28" class="edge">
<title>27&#45;&gt;29</title>
<path fill="none" stroke="black" d="M881.04,-150.73C881.04,-143.67 881.04,-135.26 881.04,-126.43"/>
<polygon fill="black" stroke="black" points="884.54,-126.61 881.04,-116.61 877.54,-126.61 884.54,-126.61"/>
</g>
</g>
</svg>
