<?xml version="1.0" encoding="UTF-8" standalone="no"?>
<!DOCTYPE svg PUBLIC "-//W3C//DTD SVG 1.1//EN"
 "http://www.w3.org/Graphics/SVG/1.1/DTD/svg11.dtd">
<!-- Generated by graphviz version 12.2.0 (20241103.1931)
 -->
<!-- Title: ast_RuleElement Pages: 1 -->
<svg width="904pt" height="599pt"
 viewBox="0.00 0.00 904.00 598.98" xmlns="http://www.w3.org/2000/svg" xmlns:xlink="http://www.w3.org/1999/xlink">
<g id="graph0" class="graph" transform="scale(1 1) rotate(0) translate(4 594.98)">
<title>ast_RuleElement</title>
<polygon fill="white" stroke="none" points="-4,4 -4,-594.98 900,-594.98 900,4 -4,4"/>
<!-- 1 -->
<g id="node1" class="node">
<title>1</title>
<polygon fill="none" stroke="black" points="442.88,-590.98 327.12,-590.98 327.12,-549.98 442.88,-549.98 442.88,-590.98"/>
<text text-anchor="middle" x="385" y="-573.68" font-family="Times New Roman,serif" font-size="14.00">NONTERMINAL</text>
<text text-anchor="middle" x="385" y="-557.18" font-family="Times New Roman,serif" font-size="14.00">type: Rule</text>
</g>
<!-- 2 -->
<g id="node2" class="node">
<title>2</title>
<polygon fill="none" stroke="black" points="130,-513.98 4.5,-456.48 130,-398.98 255.5,-456.48 130,-513.98"/>
<text text-anchor="middle" x="130" y="-467.93" font-family="Times New Roman,serif" font-size="14.00">TERMINAL</text>
<text text-anchor="middle" x="130" y="-451.43" font-family="Times New Roman,serif" font-size="14.00">type: name</text>
<text text-anchor="middle" x="130" y="-434.93" font-family="Times New Roman,serif" font-size="14.00">string: RuleElement</text>
</g>
<!-- 1&#45;&gt;2 -->
<g id="edge1" class="edge">
<title>1&#45;&gt;2</title>
<path fill="none" stroke="black" d="M339.7,-549.59C302.08,-533.06 247.79,-509.22 203.88,-489.93"/>
<polygon fill="black" stroke="black" points="205.49,-486.82 194.92,-486 202.67,-493.22 205.49,-486.82"/>
</g>
<!-- 3 -->
<g id="node3" class="node">
<title>3</title>
<ellipse fill="none" stroke="black" cx="323" cy="-456.48" rx="49.5" ry="28.99"/>
<text text-anchor="middle" x="323" y="-459.68" font-family="Times New Roman,serif" font-size="14.00">KEY</text>
<text text-anchor="middle" x="323" y="-443.18" font-family="Times New Roman,serif" font-size="14.00">string: ::=</text>
</g>
<!-- 1&#45;&gt;3 -->
<g id="edge2" class="edge">
<title>1&#45;&gt;3</title>
<path fill="none" stroke="black" d="M374.06,-549.72C365.55,-534.35 353.51,-512.61 343.26,-494.09"/>
<polygon fill="black" stroke="black" points="346.43,-492.57 338.52,-485.52 340.3,-495.96 346.43,-492.57"/>
</g>
<!-- 4 -->
<g id="node4" class="node">
<title>4</title>
<polygon fill="none" stroke="black" points="505.88,-476.98 390.12,-476.98 390.12,-435.98 505.88,-435.98 505.88,-476.98"/>
<text text-anchor="middle" x="448" y="-459.68" font-family="Times New Roman,serif" font-size="14.00">NONTERMINAL</text>
<text text-anchor="middle" x="448" y="-443.18" font-family="Times New Roman,serif" font-size="14.00">type: Alternative</text>
</g>
<!-- 1&#45;&gt;4 -->
<g id="edge3" class="edge">
<title>1&#45;&gt;4</title>
<path fill="none" stroke="black" d="M396.12,-549.72C405.82,-532.47 420.04,-507.19 431.14,-487.45"/>
<polygon fill="black" stroke="black" points="434.19,-489.18 436.04,-478.75 428.09,-485.75 434.19,-489.18"/>
</g>
<!-- 5 -->
<g id="node5" class="node">
<title>5</title>
<ellipse fill="none" stroke="black" cx="565" cy="-456.48" rx="41.01" ry="28.99"/>
<text text-anchor="middle" x="565" y="-459.68" font-family="Times New Roman,serif" font-size="14.00">KEY</text>
<text text-anchor="middle" x="565" y="-443.18" font-family="Times New Roman,serif" font-size="14.00">string: ;</text>
</g>
<!-- 1&#45;&gt;5 -->
<g id="edge4" class="edge">
<title>1&#45;&gt;5</title>
<path fill="none" stroke="black" d="M443.23,-550.95C466.76,-541.9 493.41,-529.56 515,-513.98 523.74,-507.68 532.02,-499.59 539.24,-491.52"/>
<polygon fill="black" stroke="black" points="541.83,-493.89 545.65,-484.01 536.5,-489.35 541.83,-493.89"/>
</g>
<!-- 6 -->
<g id="node6" class="node">
<title>6</title>
<polygon fill="none" stroke="black" points="157.88,-354.49 42.12,-354.49 42.12,-313.49 157.88,-313.49 157.88,-354.49"/>
<text text-anchor="middle" x="100" y="-337.19" font-family="Times New Roman,serif" font-size="14.00">NONTERMINAL</text>
<text text-anchor="middle" x="100" y="-320.69" font-family="Times New Roman,serif" font-size="14.00">type: Sequence</text>
</g>
<!-- 4&#45;&gt;6 -->
<g id="edge5" class="edge">
<title>4&#45;&gt;6</title>
<path fill="none" stroke="black" d="M430.01,-435.61C417.51,-423.08 399.78,-407.68 381,-398.98 293.48,-358.46 259.66,-389.75 167,-362.98 162.83,-361.78 158.56,-360.39 154.31,-358.89"/>
<polygon fill="black" stroke="black" points="155.82,-355.72 145.23,-355.5 153.38,-362.28 155.82,-355.72"/>
</g>
<!-- 7 -->
<g id="node7" class="node">
<title>7</title>
<ellipse fill="none" stroke="black" cx="216" cy="-333.99" rx="40.48" ry="28.99"/>
<text text-anchor="middle" x="216" y="-337.19" font-family="Times New Roman,serif" font-size="14.00">KEY</text>
<text text-anchor="middle" x="216" y="-320.69" font-family="Times New Roman,serif" font-size="14.00">string: |</text>
</g>
<!-- 4&#45;&gt;7 -->
<g id="edge6" class="edge">
<title>4&#45;&gt;7</title>
<path fill="none" stroke="black" d="M428.76,-435.62C416.14,-423.57 398.75,-408.7 381,-398.98 333.65,-373.07 314.51,-384.5 265,-362.98 262.19,-361.76 259.34,-360.42 256.49,-359.01"/>
<polygon fill="black" stroke="black" points="258.14,-355.92 247.66,-354.37 254.88,-362.12 258.14,-355.92"/>
</g>
<!-- 8 -->
<g id="node8" class="node">
<title>8</title>
<polygon fill="none" stroke="black" points="389.88,-354.49 274.12,-354.49 274.12,-313.49 389.88,-313.49 389.88,-354.49"/>
<text text-anchor="middle" x="332" y="-337.19" font-family="Times New Roman,serif" font-size="14.00">NONTERMINAL</text>
<text text-anchor="middle" x="332" y="-320.69" font-family="Times New Roman,serif" font-size="14.00">type: Sequence</text>
</g>
<!-- 4&#45;&gt;8 -->
<g id="edge7" class="edge">
<title>4&#45;&gt;8</title>
<path fill="none" stroke="black" d="M428.84,-435.59C409.79,-415.79 380.37,-385.24 358.96,-363"/>
<polygon fill="black" stroke="black" points="361.69,-360.78 352.23,-356.01 356.65,-365.64 361.69,-360.78"/>
</g>
<!-- 9 -->
<g id="node9" class="node">
<title>9</title>
<ellipse fill="none" stroke="black" cx="448" cy="-333.99" rx="40.48" ry="28.99"/>
<text text-anchor="middle" x="448" y="-337.19" font-family="Times New Roman,serif" font-size="14.00">KEY</text>
<text text-anchor="middle" x="448" y="-320.69" font-family="Times New Roman,serif" font-size="14.00">string: |</text>
</g>
<!-- 4&#45;&gt;9 -->
<g id="edge8" class="edge">
<title>4&#45;&gt;9</title>
<path fill="none" stroke="black" d="M448,-435.59C448,-418.97 448,-394.77 448,-374.28"/>
<polygon fill="black" stroke="black" points="451.5,-374.55 448,-364.55 444.5,-374.55 451.5,-374.55"/>
</g>
<!-- 10 -->
<g id="node10" class="node">
<title>10</title>
<polygon fill="none" stroke="black" points="621.88,-354.49 506.12,-354.49 506.12,-313.49 621.88,-313.49 621.88,-354.49"/>
<text text-anchor="middle" x="564" y="-337.19" font-family="Times New Roman,serif" font-size="14.00">NONTERMINAL</text>
<text text-anchor="middle" x="564" y="-320.69" font-family="Times New Roman,serif" font-size="14.00">type: Sequence</text>
</g>
<!-- 4&#45;&gt;10 -->
<g id="edge9" class="edge">
<title>4&#45;&gt;10</title>
<path fill="none" stroke="black" d="M467.16,-435.59C486.21,-415.79 515.63,-385.24 537.04,-363"/>
<polygon fill="black" stroke="black" points="539.35,-365.64 543.77,-356.01 534.31,-360.78 539.35,-365.64"/>
</g>
<!-- 11 -->
<g id="node11" class="node">
<title>11</title>
<ellipse fill="none" stroke="black" cx="680" cy="-333.99" rx="40.48" ry="28.99"/>
<text text-anchor="middle" x="680" y="-337.19" font-family="Times New Roman,serif" font-size="14.00">KEY</text>
<text text-anchor="middle" x="680" y="-320.69" font-family="Times New Roman,serif" font-size="14.00">string: |</text>
</g>
<!-- 4&#45;&gt;11 -->
<g id="edge10" class="edge">
<title>4&#45;&gt;11</title>
<path fill="none" stroke="black" d="M467.24,-435.62C479.86,-423.57 497.25,-408.7 515,-398.98 562.35,-373.07 581.49,-384.5 631,-362.98 633.81,-361.76 636.66,-360.42 639.51,-359.01"/>
<polygon fill="black" stroke="black" points="641.12,-362.12 648.34,-354.37 637.86,-355.92 641.12,-362.12"/>
</g>
<!-- 12 -->
<g id="node12" class="node">
<title>12</title>
<polygon fill="none" stroke="black" points="853.88,-354.49 738.12,-354.49 738.12,-313.49 853.88,-313.49 853.88,-354.49"/>
<text text-anchor="middle" x="796" y="-337.19" font-family="Times New Roman,serif" font-size="14.00">NONTERMINAL</text>
<text text-anchor="middle" x="796" y="-320.69" font-family="Times New Roman,serif" font-size="14.00">type: Sequence</text>
</g>
<!-- 4&#45;&gt;12 -->
<g id="edge11" class="edge">
<title>4&#45;&gt;12</title>
<path fill="none" stroke="black" d="M465.99,-435.61C478.49,-423.08 496.22,-407.68 515,-398.98 602.52,-358.46 636.34,-389.75 729,-362.98 733.17,-361.78 737.44,-360.39 741.69,-358.89"/>
<polygon fill="black" stroke="black" points="742.62,-362.28 750.77,-355.5 740.18,-355.72 742.62,-362.28"/>
</g>
<!-- 13 -->
<g id="node13" class="node">
<title>13</title>
<polygon fill="none" stroke="black" points="159,-269 41,-269 41,-228 159,-228 159,-269"/>
<text text-anchor="middle" x="100" y="-251.7" font-family="Times New Roman,serif" font-size="14.00">NONTERMINAL</text>
<text text-anchor="middle" x="100" y="-235.2" font-family="Times New Roman,serif" font-size="14.00">type: RuleElement</text>
</g>
<!-- 6&#45;&gt;13 -->
<g id="edge12" class="edge">
<title>6&#45;&gt;13</title>
<path fill="none" stroke="black" d="M100,-313.21C100,-303.5 100,-291.59 100,-280.7"/>
<polygon fill="black" stroke="black" points="103.5,-280.95 100,-270.95 96.5,-280.95 103.5,-280.95"/>
</g>
<!-- 14 -->
<g id="node14" class="node">
<title>14</title>
<polygon fill="none" stroke="black" points="391,-269 273,-269 273,-228 391,-228 391,-269"/>
<text text-anchor="middle" x="332" y="-251.7" font-family="Times New Roman,serif" font-size="14.00">NONTERMINAL</text>
<text text-anchor="middle" x="332" y="-235.2" font-family="Times New Roman,serif" font-size="14.00">type: RuleElement</text>
</g>
<!-- 8&#45;&gt;14 -->
<g id="edge13" class="edge">
<title>8&#45;&gt;14</title>
<path fill="none" stroke="black" d="M332,-313.21C332,-303.5 332,-291.59 332,-280.7"/>
<polygon fill="black" stroke="black" points="335.5,-280.95 332,-270.95 328.5,-280.95 335.5,-280.95"/>
</g>
<!-- 15 -->
<g id="node15" class="node">
<title>15</title>
<polygon fill="none" stroke="black" points="623,-269 505,-269 505,-228 623,-228 623,-269"/>
<text text-anchor="middle" x="564" y="-251.7" font-family="Times New Roman,serif" font-size="14.00">NONTERMINAL</text>
<text text-anchor="middle" x="564" y="-235.2" font-family="Times New Roman,serif" font-size="14.00">type: RuleElement</text>
</g>
<!-- 10&#45;&gt;15 -->
<g id="edge14" class="edge">
<title>10&#45;&gt;15</title>
<path fill="none" stroke="black" d="M564,-313.21C564,-303.5 564,-291.59 564,-280.7"/>
<polygon fill="black" stroke="black" points="567.5,-280.95 564,-270.95 560.5,-280.95 567.5,-280.95"/>
</g>
<!-- 16 -->
<g id="node16" class="node">
<title>16</title>
<polygon fill="none" stroke="black" points="855,-269 737,-269 737,-228 855,-228 855,-269"/>
<text text-anchor="middle" x="796" y="-251.7" font-family="Times New Roman,serif" font-size="14.00">NONTERMINAL</text>
<text text-anchor="middle" x="796" y="-235.2" font-family="Times New Roman,serif" font-size="14.00">type: RuleElement</text>
</g>
<!-- 12&#45;&gt;16 -->
<g id="edge15" class="edge">
<title>12&#45;&gt;16</title>
<path fill="none" stroke="black" d="M796,-313.21C796,-303.5 796,-291.59 796,-280.7"/>
<polygon fill="black" stroke="black" points="799.5,-280.95 796,-270.95 792.5,-280.95 799.5,-280.95"/>
</g>
<!-- 17 -->
<g id="node17" class="node">
<title>17</title>
<polygon fill="none" stroke="black" points="157.88,-192 42.12,-192 42.12,-151 157.88,-151 157.88,-192"/>
<text text-anchor="middle" x="100" y="-174.7" font-family="Times New Roman,serif" font-size="14.00">NONTERMINAL</text>
<text text-anchor="middle" x="100" y="-158.2" font-family="Times New Roman,serif" font-size="14.00">type: Element</text>
</g>
<!-- 13&#45;&gt;17 -->
<g id="edge16" class="edge">
<title>13&#45;&gt;17</title>
<path fill="none" stroke="black" d="M100,-227.79C100,-220.45 100,-211.91 100,-203.78"/>
<polygon fill="black" stroke="black" points="103.5,-203.85 100,-193.85 96.5,-203.85 103.5,-203.85"/>
</g>
<!-- 18 -->
<g id="node18" class="node">
<title>18</title>
<polygon fill="none" stroke="black" points="389.88,-192 274.12,-192 274.12,-151 389.88,-151 389.88,-192"/>
<text text-anchor="middle" x="332" y="-174.7" font-family="Times New Roman,serif" font-size="14.00">NONTERMINAL</text>
<text text-anchor="middle" x="332" y="-158.2" font-family="Times New Roman,serif" font-size="14.00">type: Element</text>
</g>
<!-- 14&#45;&gt;18 -->
<g id="edge17" class="edge">
<title>14&#45;&gt;18</title>
<path fill="none" stroke="black" d="M332,-227.79C332,-220.45 332,-211.91 332,-203.78"/>
<polygon fill="black" stroke="black" points="335.5,-203.85 332,-193.85 328.5,-203.85 335.5,-203.85"/>
</g>
<!-- 19 -->
<g id="node19" class="node">
<title>19</title>
<polygon fill="none" stroke="black" points="621.88,-192 506.12,-192 506.12,-151 621.88,-151 621.88,-192"/>
<text text-anchor="middle" x="564" y="-174.7" font-family="Times New Roman,serif" font-size="14.00">NONTERMINAL</text>
<text text-anchor="middle" x="564" y="-158.2" font-family="Times New Roman,serif" font-size="14.00">type: Element</text>
</g>
<!-- 15&#45;&gt;19 -->
<g id="edge18" class="edge">
<title>15&#45;&gt;19</title>
<path fill="none" stroke="black" d="M564,-227.79C564,-220.45 564,-211.91 564,-203.78"/>
<polygon fill="black" stroke="black" points="567.5,-203.85 564,-193.85 560.5,-203.85 567.5,-203.85"/>
</g>
<!-- 20 -->
<g id="node20" class="node">
<title>20</title>
<polygon fill="none" stroke="black" points="853.88,-192 738.12,-192 738.12,-151 853.88,-151 853.88,-192"/>
<text text-anchor="middle" x="796" y="-174.7" font-family="Times New Roman,serif" font-size="14.00">NONTERMINAL</text>
<text text-anchor="middle" x="796" y="-158.2" font-family="Times New Roman,serif" font-size="14.00">type: Element</text>
</g>
<!-- 16&#45;&gt;20 -->
<g id="edge19" class="edge">
<title>16&#45;&gt;20</title>
<path fill="none" stroke="black" d="M796,-227.79C796,-220.45 796,-211.91 796,-203.78"/>
<polygon fill="black" stroke="black" points="799.5,-203.85 796,-193.85 792.5,-203.85 799.5,-203.85"/>
</g>
<!-- 21 -->
<g id="node21" class="node">
<title>21</title>
<polygon fill="none" stroke="black" points="100,-115 0,-57.5 100,0 200,-57.5 100,-115"/>
<text text-anchor="middle" x="100" y="-68.95" font-family="Times New Roman,serif" font-size="14.00">TERMINAL</text>
<text text-anchor="middle" x="100" y="-52.45" font-family="Times New Roman,serif" font-size="14.00">type: name</text>
<text text-anchor="middle" x="100" y="-35.95" font-family="Times New Roman,serif" font-size="14.00">string: Element</text>
</g>
<!-- 17&#45;&gt;21 -->
<g id="edge20" class="edge">
<title>17&#45;&gt;21</title>
<path fill="none" stroke="black" d="M100,-150.73C100,-143.84 100,-135.65 100,-127.05"/>
<polygon fill="black" stroke="black" points="103.5,-127.09 100,-117.09 96.5,-127.09 103.5,-127.09"/>
</g>
<!-- 22 -->
<g id="node22" class="node">
<title>22</title>
<polygon fill="none" stroke="black" points="332,-115 243.25,-57.5 332,0 420.75,-57.5 332,-115"/>
<text text-anchor="middle" x="332" y="-68.95" font-family="Times New Roman,serif" font-size="14.00">TERMINAL</text>
<text text-anchor="middle" x="332" y="-52.45" font-family="Times New Roman,serif" font-size="14.00">type: name</text>
<text text-anchor="middle" x="332" y="-35.95" font-family="Times New Roman,serif" font-size="14.00">string: Group</text>
</g>
<!-- 18&#45;&gt;22 -->
<g id="edge21" class="edge">
<title>18&#45;&gt;22</title>
<path fill="none" stroke="black" d="M332,-150.73C332,-143.84 332,-135.65 332,-127.05"/>
<polygon fill="black" stroke="black" points="335.5,-127.09 332,-117.09 328.5,-127.09 335.5,-127.09"/>
</g>
<!-- 23 -->
<g id="node23" class="node">
<title>23</title>
<polygon fill="none" stroke="black" points="564,-115 462.5,-57.5 564,0 665.5,-57.5 564,-115"/>
<text text-anchor="middle" x="564" y="-68.95" font-family="Times New Roman,serif" font-size="14.00">TERMINAL</text>
<text text-anchor="middle" x="564" y="-52.45" font-family="Times New Roman,serif" font-size="14.00">type: name</text>
<text text-anchor="middle" x="564" y="-35.95" font-family="Times New Roman,serif" font-size="14.00">string: Optional</text>
</g>
<!-- 19&#45;&gt;23 -->
<g id="edge22" class="edge">
<title>19&#45;&gt;23</title>
<path fill="none" stroke="black" d="M564,-150.73C564,-143.67 564,-135.26 564,-126.43"/>
<polygon fill="black" stroke="black" points="567.5,-126.61 564,-116.61 560.5,-126.61 567.5,-126.61"/>
</g>
<!-- 24 -->
<g id="node24" class="node">
<title>24</title>
<polygon fill="none" stroke="black" points="796,-115 696,-57.5 796,0 896,-57.5 796,-115"/>
<text text-anchor="middle" x="796" y="-68.95" font-family="Times New Roman,serif" font-size="14.00">TERMINAL</text>
<text text-anchor="middle" x="796" y="-52.45" font-family="Times New Roman,serif" font-size="14.00">type: name</text>
<text text-anchor="middle" x="796" y="-35.95" font-family="Times New Roman,serif" font-size="14.00">string: Iteration</text>
</g>
<!-- 20&#45;&gt;24 -->
<g id="edge23" class="edge">
<title>20&#45;&gt;24</title>
<path fill="none" stroke="black" d="M796,-150.73C796,-143.84 796,-135.65 796,-127.05"/>
<polygon fill="black" stroke="black" points="799.5,-127.09 796,-117.09 792.5,-127.09 799.5,-127.09"/>
</g>
</g>
</svg>
