<?xml version="1.0" encoding="UTF-8" standalone="no"?>
<!DOCTYPE svg PUBLIC "-//W3C//DTD SVG 1.1//EN"
 "http://www.w3.org/Graphics/SVG/1.1/DTD/svg11.dtd">
<!-- Generated by graphviz version 12.2.0 (20241103.1931)
 -->
<!-- Title: ast_Expression Pages: 1 -->
<svg width="587pt" height="582pt"
 viewBox="0.00 0.00 587.26 582.00" xmlns="http://www.w3.org/2000/svg" xmlns:xlink="http://www.w3.org/1999/xlink">
<g id="graph0" class="graph" transform="scale(1 1) rotate(0) translate(4 578)">
<title>ast_Expression</title>
<polygon fill="white" stroke="none" points="-4,4 -4,-578 583.26,-578 583.26,4 -4,4"/>
<!-- 1 -->
<g id="node1" class="node">
<title>1</title>
<polygon fill="none" stroke="black" points="416.12,-574 300.38,-574 300.38,-533 416.12,-533 416.12,-574"/>
<text text-anchor="middle" x="358.25" y="-556.7" font-family="Times New Roman,serif" font-size="14.00">NONTERMINAL</text>
<text text-anchor="middle" x="358.25" y="-540.2" font-family="Times New Roman,serif" font-size="14.00">type: Rule</text>
</g>
<!-- 2 -->
<g id="node2" class="node">
<title>2</title>
<polygon fill="none" stroke="black" points="114.25,-497 0,-439.5 114.25,-382 228.5,-439.5 114.25,-497"/>
<text text-anchor="middle" x="114.25" y="-450.95" font-family="Times New Roman,serif" font-size="14.00">TERMINAL</text>
<text text-anchor="middle" x="114.25" y="-434.45" font-family="Times New Roman,serif" font-size="14.00">type: name</text>
<text text-anchor="middle" x="114.25" y="-417.95" font-family="Times New Roman,serif" font-size="14.00">string: Expression</text>
</g>
<!-- 1&#45;&gt;2 -->
<g id="edge1" class="edge">
<title>1&#45;&gt;2</title>
<path fill="none" stroke="black" d="M314.91,-532.61C278.47,-515.88 225.72,-491.67 183.45,-472.26"/>
<polygon fill="black" stroke="black" points="185.14,-469.19 174.59,-468.2 182.22,-475.55 185.14,-469.19"/>
</g>
<!-- 3 -->
<g id="node3" class="node">
<title>3</title>
<ellipse fill="none" stroke="black" cx="296.25" cy="-439.5" rx="49.5" ry="28.99"/>
<text text-anchor="middle" x="296.25" y="-442.7" font-family="Times New Roman,serif" font-size="14.00">KEY</text>
<text text-anchor="middle" x="296.25" y="-426.2" font-family="Times New Roman,serif" font-size="14.00">string: ::=</text>
</g>
<!-- 1&#45;&gt;3 -->
<g id="edge2" class="edge">
<title>1&#45;&gt;3</title>
<path fill="none" stroke="black" d="M347.31,-532.73C338.8,-517.37 326.76,-495.62 316.51,-477.11"/>
<polygon fill="black" stroke="black" points="319.68,-475.59 311.77,-468.54 313.55,-478.98 319.68,-475.59"/>
</g>
<!-- 4 -->
<g id="node4" class="node">
<title>4</title>
<polygon fill="none" stroke="black" points="479.12,-460 363.38,-460 363.38,-419 479.12,-419 479.12,-460"/>
<text text-anchor="middle" x="421.25" y="-442.7" font-family="Times New Roman,serif" font-size="14.00">NONTERMINAL</text>
<text text-anchor="middle" x="421.25" y="-426.2" font-family="Times New Roman,serif" font-size="14.00">type: Alternative</text>
</g>
<!-- 1&#45;&gt;4 -->
<g id="edge3" class="edge">
<title>1&#45;&gt;4</title>
<path fill="none" stroke="black" d="M369.37,-532.73C379.07,-515.49 393.29,-490.2 404.39,-470.47"/>
<polygon fill="black" stroke="black" points="407.44,-472.2 409.29,-461.76 401.34,-468.76 407.44,-472.2"/>
</g>
<!-- 5 -->
<g id="node5" class="node">
<title>5</title>
<ellipse fill="none" stroke="black" cx="538.25" cy="-439.5" rx="41.01" ry="28.99"/>
<text text-anchor="middle" x="538.25" y="-442.7" font-family="Times New Roman,serif" font-size="14.00">KEY</text>
<text text-anchor="middle" x="538.25" y="-426.2" font-family="Times New Roman,serif" font-size="14.00">string: ;</text>
</g>
<!-- 1&#45;&gt;5 -->
<g id="edge4" class="edge">
<title>1&#45;&gt;5</title>
<path fill="none" stroke="black" d="M416.48,-533.97C440.01,-524.92 466.66,-512.58 488.25,-497 496.99,-490.7 505.27,-482.61 512.49,-474.54"/>
<polygon fill="black" stroke="black" points="515.08,-476.91 518.9,-467.02 509.75,-472.36 515.08,-476.91"/>
</g>
<!-- 6 -->
<g id="node6" class="node">
<title>6</title>
<polygon fill="none" stroke="black" points="479.12,-346 363.38,-346 363.38,-305 479.12,-305 479.12,-346"/>
<text text-anchor="middle" x="421.25" y="-328.7" font-family="Times New Roman,serif" font-size="14.00">NONTERMINAL</text>
<text text-anchor="middle" x="421.25" y="-312.2" font-family="Times New Roman,serif" font-size="14.00">type: Sequence</text>
</g>
<!-- 4&#45;&gt;6 -->
<g id="edge5" class="edge">
<title>4&#45;&gt;6</title>
<path fill="none" stroke="black" d="M421.25,-418.73C421.25,-401.88 421.25,-377.37 421.25,-357.84"/>
<polygon fill="black" stroke="black" points="424.75,-357.96 421.25,-347.96 417.75,-357.96 424.75,-357.96"/>
</g>
<!-- 7 -->
<g id="node7" class="node">
<title>7</title>
<polygon fill="none" stroke="black" points="480.25,-269 362.25,-269 362.25,-228 480.25,-228 480.25,-269"/>
<text text-anchor="middle" x="421.25" y="-251.7" font-family="Times New Roman,serif" font-size="14.00">NONTERMINAL</text>
<text text-anchor="middle" x="421.25" y="-235.2" font-family="Times New Roman,serif" font-size="14.00">type: RuleElement</text>
</g>
<!-- 6&#45;&gt;7 -->
<g id="edge6" class="edge">
<title>6&#45;&gt;7</title>
<path fill="none" stroke="black" d="M421.25,-304.79C421.25,-297.45 421.25,-288.91 421.25,-280.78"/>
<polygon fill="black" stroke="black" points="424.75,-280.85 421.25,-270.85 417.75,-280.85 424.75,-280.85"/>
</g>
<!-- 8 -->
<g id="node8" class="node">
<title>8</title>
<polygon fill="none" stroke="black" points="479.12,-192 363.38,-192 363.38,-151 479.12,-151 479.12,-192"/>
<text text-anchor="middle" x="421.25" y="-174.7" font-family="Times New Roman,serif" font-size="14.00">NONTERMINAL</text>
<text text-anchor="middle" x="421.25" y="-158.2" font-family="Times New Roman,serif" font-size="14.00">type: Element</text>
</g>
<!-- 7&#45;&gt;8 -->
<g id="edge7" class="edge">
<title>7&#45;&gt;8</title>
<path fill="none" stroke="black" d="M421.25,-227.79C421.25,-220.45 421.25,-211.91 421.25,-203.78"/>
<polygon fill="black" stroke="black" points="424.75,-203.85 421.25,-193.85 417.75,-203.85 424.75,-203.85"/>
</g>
<!-- 9 -->
<g id="node9" class="node">
<title>9</title>
<polygon fill="none" stroke="black" points="421.25,-115 322.75,-57.5 421.25,0 519.75,-57.5 421.25,-115"/>
<text text-anchor="middle" x="421.25" y="-68.95" font-family="Times New Roman,serif" font-size="14.00">TERMINAL</text>
<text text-anchor="middle" x="421.25" y="-52.45" font-family="Times New Roman,serif" font-size="14.00">type: name</text>
<text text-anchor="middle" x="421.25" y="-35.95" font-family="Times New Roman,serif" font-size="14.00">string: exprtext</text>
</g>
<!-- 8&#45;&gt;9 -->
<g id="edge8" class="edge">
<title>8&#45;&gt;9</title>
<path fill="none" stroke="black" d="M421.25,-150.73C421.25,-143.84 421.25,-135.65 421.25,-127.05"/>
<polygon fill="black" stroke="black" points="424.75,-127.09 421.25,-117.09 417.75,-127.09 424.75,-127.09"/>
</g>
</g>
</svg>
