<?xml version="1.0" encoding="UTF-8" standalone="no"?>
<!DOCTYPE svg PUBLIC "-//W3C//DTD SVG 1.1//EN"
 "http://www.w3.org/Graphics/SVG/1.1/DTD/svg11.dtd">
<!-- Generated by graphviz version 12.2.0 (20241103.1931)
 -->
<!-- Title: ast_LC Pages: 1 -->
<svg width="1298pt" height="582pt"
 viewBox="0.00 0.00 1297.50 582.00" xmlns="http://www.w3.org/2000/svg" xmlns:xlink="http://www.w3.org/1999/xlink">
<g id="graph0" class="graph" transform="scale(1 1) rotate(0) translate(4 578)">
<title>ast_LC</title>
<polygon fill="white" stroke="none" points="-4,4 -4,-578 1293.5,-578 1293.5,4 -4,4"/>
<!-- 1 -->
<g id="node1" class="node">
<title>1</title>
<polygon fill="none" stroke="black" points="617.88,-574 502.12,-574 502.12,-533 617.88,-533 617.88,-574"/>
<text text-anchor="middle" x="560" y="-556.7" font-family="Times New Roman,serif" font-size="14.00">NONTERMINAL</text>
<text text-anchor="middle" x="560" y="-540.2" font-family="Times New Roman,serif" font-size="14.00">type: Rule</text>
</g>
<!-- 2 -->
<g id="node2" class="node">
<title>2</title>
<polygon fill="none" stroke="black" points="344,-497 257.5,-439.5 344,-382 430.5,-439.5 344,-497"/>
<text text-anchor="middle" x="344" y="-450.95" font-family="Times New Roman,serif" font-size="14.00">TERMINAL</text>
<text text-anchor="middle" x="344" y="-434.45" font-family="Times New Roman,serif" font-size="14.00">type: name</text>
<text text-anchor="middle" x="344" y="-417.95" font-family="Times New Roman,serif" font-size="14.00">string: LC</text>
</g>
<!-- 1&#45;&gt;2 -->
<g id="edge1" class="edge">
<title>1&#45;&gt;2</title>
<path fill="none" stroke="black" d="M514.18,-532.59C491.59,-522.45 464.09,-509.62 440,-497 426.22,-489.78 411.61,-481.51 398.07,-473.58"/>
<polygon fill="black" stroke="black" points="400.11,-470.72 389.72,-468.64 396.55,-476.74 400.11,-470.72"/>
</g>
<!-- 3 -->
<g id="node3" class="node">
<title>3</title>
<ellipse fill="none" stroke="black" cx="498" cy="-439.5" rx="49.5" ry="28.99"/>
<text text-anchor="middle" x="498" y="-442.7" font-family="Times New Roman,serif" font-size="14.00">KEY</text>
<text text-anchor="middle" x="498" y="-426.2" font-family="Times New Roman,serif" font-size="14.00">string: ::=</text>
</g>
<!-- 1&#45;&gt;3 -->
<g id="edge2" class="edge">
<title>1&#45;&gt;3</title>
<path fill="none" stroke="black" d="M549.06,-532.73C540.55,-517.37 528.51,-495.62 518.26,-477.11"/>
<polygon fill="black" stroke="black" points="521.43,-475.59 513.52,-468.54 515.3,-478.98 521.43,-475.59"/>
</g>
<!-- 4 -->
<g id="node4" class="node">
<title>4</title>
<polygon fill="none" stroke="black" points="680.88,-460 565.12,-460 565.12,-419 680.88,-419 680.88,-460"/>
<text text-anchor="middle" x="623" y="-442.7" font-family="Times New Roman,serif" font-size="14.00">NONTERMINAL</text>
<text text-anchor="middle" x="623" y="-426.2" font-family="Times New Roman,serif" font-size="14.00">type: Alternative</text>
</g>
<!-- 1&#45;&gt;4 -->
<g id="edge3" class="edge">
<title>1&#45;&gt;4</title>
<path fill="none" stroke="black" d="M571.12,-532.73C580.82,-515.49 595.04,-490.2 606.14,-470.47"/>
<polygon fill="black" stroke="black" points="609.19,-472.2 611.04,-461.76 603.09,-468.76 609.19,-472.2"/>
</g>
<!-- 5 -->
<g id="node5" class="node">
<title>5</title>
<ellipse fill="none" stroke="black" cx="740" cy="-439.5" rx="41.01" ry="28.99"/>
<text text-anchor="middle" x="740" y="-442.7" font-family="Times New Roman,serif" font-size="14.00">KEY</text>
<text text-anchor="middle" x="740" y="-426.2" font-family="Times New Roman,serif" font-size="14.00">string: ;</text>
</g>
<!-- 1&#45;&gt;5 -->
<g id="edge4" class="edge">
<title>1&#45;&gt;5</title>
<path fill="none" stroke="black" d="M618.23,-533.97C641.76,-524.92 668.41,-512.58 690,-497 698.74,-490.7 707.02,-482.61 714.24,-474.54"/>
<polygon fill="black" stroke="black" points="716.83,-476.91 720.65,-467.02 711.5,-472.36 716.83,-476.91"/>
</g>
<!-- 6 -->
<g id="node6" class="node">
<title>6</title>
<polygon fill="none" stroke="black" points="680.88,-346 565.12,-346 565.12,-305 680.88,-305 680.88,-346"/>
<text text-anchor="middle" x="623" y="-328.7" font-family="Times New Roman,serif" font-size="14.00">NONTERMINAL</text>
<text text-anchor="middle" x="623" y="-312.2" font-family="Times New Roman,serif" font-size="14.00">type: Sequence</text>
</g>
<!-- 4&#45;&gt;6 -->
<g id="edge5" class="edge">
<title>4&#45;&gt;6</title>
<path fill="none" stroke="black" d="M623,-418.73C623,-401.88 623,-377.37 623,-357.84"/>
<polygon fill="black" stroke="black" points="626.5,-357.96 623,-347.96 619.5,-357.96 626.5,-357.96"/>
</g>
<!-- 7 -->
<g id="node7" class="node">
<title>7</title>
<polygon fill="none" stroke="black" points="284,-269 166,-269 166,-228 284,-228 284,-269"/>
<text text-anchor="middle" x="225" y="-251.7" font-family="Times New Roman,serif" font-size="14.00">NONTERMINAL</text>
<text text-anchor="middle" x="225" y="-235.2" font-family="Times New Roman,serif" font-size="14.00">type: RuleElement</text>
</g>
<!-- 6&#45;&gt;7 -->
<g id="edge6" class="edge">
<title>6&#45;&gt;7</title>
<path fill="none" stroke="black" d="M564.79,-314.72C502.58,-304.12 401.13,-286.36 314,-269 307.99,-267.8 301.76,-266.52 295.51,-265.21"/>
<polygon fill="black" stroke="black" points="296.29,-261.79 285.78,-263.14 294.83,-268.64 296.29,-261.79"/>
</g>
<!-- 8 -->
<g id="node8" class="node">
<title>8</title>
<polygon fill="none" stroke="black" points="441,-269 323,-269 323,-228 441,-228 441,-269"/>
<text text-anchor="middle" x="382" y="-251.7" font-family="Times New Roman,serif" font-size="14.00">NONTERMINAL</text>
<text text-anchor="middle" x="382" y="-235.2" font-family="Times New Roman,serif" font-size="14.00">type: RuleElement</text>
</g>
<!-- 6&#45;&gt;8 -->
<g id="edge7" class="edge">
<title>6&#45;&gt;8</title>
<path fill="none" stroke="black" d="M564.66,-306.34C530.83,-295.82 487.99,-282.48 452.3,-271.38"/>
<polygon fill="black" stroke="black" points="453.51,-268.09 442.92,-268.46 451.43,-274.77 453.51,-268.09"/>
</g>
<!-- 9 -->
<g id="node9" class="node">
<title>9</title>
<polygon fill="none" stroke="black" points="614,-269 496,-269 496,-228 614,-228 614,-269"/>
<text text-anchor="middle" x="555" y="-251.7" font-family="Times New Roman,serif" font-size="14.00">NONTERMINAL</text>
<text text-anchor="middle" x="555" y="-235.2" font-family="Times New Roman,serif" font-size="14.00">type: RuleElement</text>
</g>
<!-- 6&#45;&gt;9 -->
<g id="edge8" class="edge">
<title>6&#45;&gt;9</title>
<path fill="none" stroke="black" d="M605.13,-304.79C597.62,-296.51 588.74,-286.71 580.55,-277.68"/>
<polygon fill="black" stroke="black" points="583.31,-275.51 574,-270.46 578.12,-280.21 583.31,-275.51"/>
</g>
<!-- 10 -->
<g id="node10" class="node">
<title>10</title>
<polygon fill="none" stroke="black" points="787,-269 669,-269 669,-228 787,-228 787,-269"/>
<text text-anchor="middle" x="728" y="-251.7" font-family="Times New Roman,serif" font-size="14.00">NONTERMINAL</text>
<text text-anchor="middle" x="728" y="-235.2" font-family="Times New Roman,serif" font-size="14.00">type: RuleElement</text>
</g>
<!-- 6&#45;&gt;10 -->
<g id="edge9" class="edge">
<title>6&#45;&gt;10</title>
<path fill="none" stroke="black" d="M650.86,-304.6C663.08,-295.87 677.61,-285.49 690.74,-276.11"/>
<polygon fill="black" stroke="black" points="692.67,-279.03 698.78,-270.37 688.6,-273.34 692.67,-279.03"/>
</g>
<!-- 11 -->
<g id="node11" class="node">
<title>11</title>
<polygon fill="none" stroke="black" points="977,-269 859,-269 859,-228 977,-228 977,-269"/>
<text text-anchor="middle" x="918" y="-251.7" font-family="Times New Roman,serif" font-size="14.00">NONTERMINAL</text>
<text text-anchor="middle" x="918" y="-235.2" font-family="Times New Roman,serif" font-size="14.00">type: RuleElement</text>
</g>
<!-- 6&#45;&gt;11 -->
<g id="edge10" class="edge">
<title>6&#45;&gt;11</title>
<path fill="none" stroke="black" d="M681.28,-309.68C729.07,-297.53 796.88,-280.29 847.68,-267.38"/>
<polygon fill="black" stroke="black" points="848.28,-270.84 857.11,-264.98 846.55,-264.05 848.28,-270.84"/>
</g>
<!-- 12 -->
<g id="node12" class="node">
<title>12</title>
<polygon fill="none" stroke="black" points="1184,-269 1066,-269 1066,-228 1184,-228 1184,-269"/>
<text text-anchor="middle" x="1125" y="-251.7" font-family="Times New Roman,serif" font-size="14.00">NONTERMINAL</text>
<text text-anchor="middle" x="1125" y="-235.2" font-family="Times New Roman,serif" font-size="14.00">type: RuleElement</text>
</g>
<!-- 6&#45;&gt;12 -->
<g id="edge11" class="edge">
<title>6&#45;&gt;12</title>
<path fill="none" stroke="black" d="M681.08,-315.82C773.65,-301.99 954.38,-274.99 1054.32,-260.06"/>
<polygon fill="black" stroke="black" points="1054.63,-263.55 1064.01,-258.61 1053.6,-256.63 1054.63,-263.55"/>
</g>
<!-- 13 -->
<g id="node13" class="node">
<title>13</title>
<polygon fill="none" stroke="black" points="240.88,-192 125.12,-192 125.12,-151 240.88,-151 240.88,-192"/>
<text text-anchor="middle" x="183" y="-174.7" font-family="Times New Roman,serif" font-size="14.00">NONTERMINAL</text>
<text text-anchor="middle" x="183" y="-158.2" font-family="Times New Roman,serif" font-size="14.00">type: Element</text>
</g>
<!-- 7&#45;&gt;13 -->
<g id="edge12" class="edge">
<title>7&#45;&gt;13</title>
<path fill="none" stroke="black" d="M213.96,-227.79C209.61,-220.02 204.51,-210.91 199.72,-202.36"/>
<polygon fill="black" stroke="black" points="202.79,-200.67 194.85,-193.65 196.68,-204.09 202.79,-200.67"/>
</g>
<!-- 14 -->
<g id="node14" class="node">
<title>14</title>
<polygon fill="none" stroke="black" points="407.88,-192 292.12,-192 292.12,-151 407.88,-151 407.88,-192"/>
<text text-anchor="middle" x="350" y="-174.7" font-family="Times New Roman,serif" font-size="14.00">NONTERMINAL</text>
<text text-anchor="middle" x="350" y="-158.2" font-family="Times New Roman,serif" font-size="14.00">type: Element</text>
</g>
<!-- 8&#45;&gt;14 -->
<g id="edge13" class="edge">
<title>8&#45;&gt;14</title>
<path fill="none" stroke="black" d="M373.59,-227.79C370.31,-220.1 366.48,-211.11 362.86,-202.65"/>
<polygon fill="black" stroke="black" points="366.2,-201.55 359.06,-193.73 359.76,-204.3 366.2,-201.55"/>
</g>
<!-- 15 -->
<g id="node15" class="node">
<title>15</title>
<polygon fill="none" stroke="black" points="594.88,-192 479.12,-192 479.12,-151 594.88,-151 594.88,-192"/>
<text text-anchor="middle" x="537" y="-174.7" font-family="Times New Roman,serif" font-size="14.00">NONTERMINAL</text>
<text text-anchor="middle" x="537" y="-158.2" font-family="Times New Roman,serif" font-size="14.00">type: Element</text>
</g>
<!-- 9&#45;&gt;15 -->
<g id="edge14" class="edge">
<title>9&#45;&gt;15</title>
<path fill="none" stroke="black" d="M550.27,-227.79C548.49,-220.36 546.41,-211.71 544.44,-203.49"/>
<polygon fill="black" stroke="black" points="547.85,-202.71 542.11,-193.81 541.04,-204.35 547.85,-202.71"/>
</g>
<!-- 16 -->
<g id="node16" class="node">
<title>16</title>
<polygon fill="none" stroke="black" points="790.88,-192 675.12,-192 675.12,-151 790.88,-151 790.88,-192"/>
<text text-anchor="middle" x="733" y="-174.7" font-family="Times New Roman,serif" font-size="14.00">NONTERMINAL</text>
<text text-anchor="middle" x="733" y="-158.2" font-family="Times New Roman,serif" font-size="14.00">type: Element</text>
</g>
<!-- 10&#45;&gt;16 -->
<g id="edge15" class="edge">
<title>10&#45;&gt;16</title>
<path fill="none" stroke="black" d="M729.31,-227.79C729.8,-220.45 730.37,-211.91 730.91,-203.78"/>
<polygon fill="black" stroke="black" points="734.4,-204.06 731.58,-193.84 727.42,-203.59 734.4,-204.06"/>
</g>
<!-- 17 -->
<g id="node17" class="node">
<title>17</title>
<polygon fill="none" stroke="black" points="993.88,-192 878.12,-192 878.12,-151 993.88,-151 993.88,-192"/>
<text text-anchor="middle" x="936" y="-174.7" font-family="Times New Roman,serif" font-size="14.00">NONTERMINAL</text>
<text text-anchor="middle" x="936" y="-158.2" font-family="Times New Roman,serif" font-size="14.00">type: Element</text>
</g>
<!-- 11&#45;&gt;17 -->
<g id="edge16" class="edge">
<title>11&#45;&gt;17</title>
<path fill="none" stroke="black" d="M922.73,-227.79C924.51,-220.36 926.59,-211.71 928.56,-203.49"/>
<polygon fill="black" stroke="black" points="931.96,-204.35 930.89,-193.81 925.15,-202.71 931.96,-204.35"/>
</g>
<!-- 18 -->
<g id="node18" class="node">
<title>18</title>
<polygon fill="none" stroke="black" points="1209.88,-192 1094.12,-192 1094.12,-151 1209.88,-151 1209.88,-192"/>
<text text-anchor="middle" x="1152" y="-174.7" font-family="Times New Roman,serif" font-size="14.00">NONTERMINAL</text>
<text text-anchor="middle" x="1152" y="-158.2" font-family="Times New Roman,serif" font-size="14.00">type: Element</text>
</g>
<!-- 12&#45;&gt;18 -->
<g id="edge17" class="edge">
<title>12&#45;&gt;18</title>
<path fill="none" stroke="black" d="M1132.09,-227.79C1134.83,-220.19 1138.03,-211.31 1141.05,-202.93"/>
<polygon fill="black" stroke="black" points="1144.25,-204.35 1144.35,-193.76 1137.67,-201.98 1144.25,-204.35"/>
</g>
<!-- 19 -->
<g id="node19" class="node">
<title>19</title>
<polygon fill="none" stroke="black" points="103,-115 0,-57.5 103,0 206,-57.5 103,-115"/>
<text text-anchor="middle" x="103" y="-68.95" font-family="Times New Roman,serif" font-size="14.00">TERMINAL</text>
<text text-anchor="middle" x="103" y="-52.45" font-family="Times New Roman,serif" font-size="14.00">type: key_name</text>
<text text-anchor="middle" x="103" y="-35.95" font-family="Times New Roman,serif" font-size="14.00">string: &#39;FOR&#39;</text>
</g>
<!-- 13&#45;&gt;19 -->
<g id="edge18" class="edge">
<title>13&#45;&gt;19</title>
<path fill="none" stroke="black" d="M168.88,-150.73C160.41,-138.88 149.23,-123.22 138.49,-108.18"/>
<polygon fill="black" stroke="black" points="141.42,-106.27 132.76,-100.17 135.73,-110.34 141.42,-106.27"/>
</g>
<!-- 20 -->
<g id="node20" class="node">
<title>20</title>
<polygon fill="none" stroke="black" points="323,-115 224.5,-57.5 323,0 421.5,-57.5 323,-115"/>
<text text-anchor="middle" x="323" y="-68.95" font-family="Times New Roman,serif" font-size="14.00">TERMINAL</text>
<text text-anchor="middle" x="323" y="-52.45" font-family="Times New Roman,serif" font-size="14.00">type: name</text>
<text text-anchor="middle" x="323" y="-35.95" font-family="Times New Roman,serif" font-size="14.00">string: Variable</text>
</g>
<!-- 14&#45;&gt;20 -->
<g id="edge19" class="edge">
<title>14&#45;&gt;20</title>
<path fill="none" stroke="black" d="M345.24,-150.73C343.08,-141.79 340.4,-130.68 337.66,-119.3"/>
<polygon fill="black" stroke="black" points="341.12,-118.75 335.38,-109.85 334.32,-120.39 341.12,-118.75"/>
</g>
<!-- 21 -->
<g id="node21" class="node">
<title>21</title>
<polygon fill="none" stroke="black" points="528,-115 439.25,-57.5 528,0 616.75,-57.5 528,-115"/>
<text text-anchor="middle" x="528" y="-68.95" font-family="Times New Roman,serif" font-size="14.00">TERMINAL</text>
<text text-anchor="middle" x="528" y="-52.45" font-family="Times New Roman,serif" font-size="14.00">type: name</text>
<text text-anchor="middle" x="528" y="-35.95" font-family="Times New Roman,serif" font-size="14.00">string: Range</text>
</g>
<!-- 15&#45;&gt;21 -->
<g id="edge20" class="edge">
<title>15&#45;&gt;21</title>
<path fill="none" stroke="black" d="M535.41,-150.73C534.8,-143.06 534.05,-133.8 533.27,-124.14"/>
<polygon fill="black" stroke="black" points="536.77,-123.89 532.48,-114.2 529.79,-124.45 536.77,-123.89"/>
</g>
<!-- 22 -->
<g id="node22" class="node">
<title>22</title>
<polygon fill="none" stroke="black" points="738,-115 635,-57.5 738,0 841,-57.5 738,-115"/>
<text text-anchor="middle" x="738" y="-68.95" font-family="Times New Roman,serif" font-size="14.00">TERMINAL</text>
<text text-anchor="middle" x="738" y="-52.45" font-family="Times New Roman,serif" font-size="14.00">type: key_name</text>
<text text-anchor="middle" x="738" y="-35.95" font-family="Times New Roman,serif" font-size="14.00">string: &#39;DO&#39;</text>
</g>
<!-- 16&#45;&gt;22 -->
<g id="edge21" class="edge">
<title>16&#45;&gt;22</title>
<path fill="none" stroke="black" d="M733.88,-150.73C734.21,-143.41 734.6,-134.64 735.01,-125.46"/>
<polygon fill="black" stroke="black" points="738.5,-125.79 735.45,-115.65 731.51,-125.48 738.5,-125.79"/>
</g>
<!-- 23 -->
<g id="node23" class="node">
<title>23</title>
<polygon fill="none" stroke="black" points="946,-115 859.5,-57.5 946,0 1032.5,-57.5 946,-115"/>
<text text-anchor="middle" x="946" y="-68.95" font-family="Times New Roman,serif" font-size="14.00">TERMINAL</text>
<text text-anchor="middle" x="946" y="-52.45" font-family="Times New Roman,serif" font-size="14.00">type: name</text>
<text text-anchor="middle" x="946" y="-35.95" font-family="Times New Roman,serif" font-size="14.00">string: Block</text>
</g>
<!-- 17&#45;&gt;23 -->
<g id="edge22" class="edge">
<title>17&#45;&gt;23</title>
<path fill="none" stroke="black" d="M937.76,-150.73C938.47,-142.89 939.31,-133.37 940.2,-123.48"/>
<polygon fill="black" stroke="black" points="943.67,-123.99 941.07,-113.72 936.69,-123.37 943.67,-123.99"/>
</g>
<!-- 24 -->
<g id="node24" class="node">
<title>24</title>
<polygon fill="none" stroke="black" points="1170,-115 1050.5,-57.5 1170,0 1289.5,-57.5 1170,-115"/>
<text text-anchor="middle" x="1170" y="-68.95" font-family="Times New Roman,serif" font-size="14.00">TERMINAL</text>
<text text-anchor="middle" x="1170" y="-52.45" font-family="Times New Roman,serif" font-size="14.00">type: key_name</text>
<text text-anchor="middle" x="1170" y="-35.95" font-family="Times New Roman,serif" font-size="14.00">string: &#39;END_FOR&#39;</text>
</g>
<!-- 18&#45;&gt;24 -->
<g id="edge23" class="edge">
<title>18&#45;&gt;24</title>
<path fill="none" stroke="black" d="M1155.18,-150.73C1156.48,-142.62 1158.07,-132.72 1159.72,-122.46"/>
<polygon fill="black" stroke="black" points="1163.15,-123.17 1161.28,-112.75 1156.24,-122.06 1163.15,-123.17"/>
</g>
</g>
</svg>
