<?xml version="1.0" encoding="UTF-8" standalone="no"?>
<!DOCTYPE svg PUBLIC "-//W3C//DTD SVG 1.1//EN"
 "http://www.w3.org/Graphics/SVG/1.1/DTD/svg11.dtd">
<!-- Generated by graphviz version 12.2.0 (20241103.1931)
 -->
<!-- Title: ast_TerminalsBlock Pages: 1 -->
<svg width="1310pt" height="964pt"
 viewBox="0.00 0.00 1309.75 964.00" xmlns="http://www.w3.org/2000/svg" xmlns:xlink="http://www.w3.org/1999/xlink">
<g id="graph0" class="graph" transform="scale(1 1) rotate(0) translate(4 960)">
<title>ast_TerminalsBlock</title>
<polygon fill="white" stroke="none" points="-4,4 -4,-960 1305.75,-960 1305.75,4 -4,4"/>
<!-- 1 -->
<g id="node1" class="node">
<title>1</title>
<polygon fill="none" stroke="black" points="611.62,-956 495.88,-956 495.88,-915 611.62,-915 611.62,-956"/>
<text text-anchor="middle" x="553.75" y="-938.7" font-family="Times New Roman,serif" font-size="14.00">NONTERMINAL</text>
<text text-anchor="middle" x="553.75" y="-922.2" font-family="Times New Roman,serif" font-size="14.00">type: Rule</text>
</g>
<!-- 2 -->
<g id="node2" class="node">
<title>2</title>
<polygon fill="none" stroke="black" points="283.75,-879 143.25,-821.5 283.75,-764 424.25,-821.5 283.75,-879"/>
<text text-anchor="middle" x="283.75" y="-832.95" font-family="Times New Roman,serif" font-size="14.00">TERMINAL</text>
<text text-anchor="middle" x="283.75" y="-816.45" font-family="Times New Roman,serif" font-size="14.00">type: name</text>
<text text-anchor="middle" x="283.75" y="-799.95" font-family="Times New Roman,serif" font-size="14.00">string: TerminalsBlock</text>
</g>
<!-- 1&#45;&gt;2 -->
<g id="edge1" class="edge">
<title>1&#45;&gt;2</title>
<path fill="none" stroke="black" d="M505.79,-914.61C466.36,-898.25 409.65,-874.72 363.41,-855.55"/>
<polygon fill="black" stroke="black" points="364.79,-852.33 354.21,-851.73 362.11,-858.79 364.79,-852.33"/>
</g>
<!-- 3 -->
<g id="node3" class="node">
<title>3</title>
<ellipse fill="none" stroke="black" cx="491.75" cy="-821.5" rx="49.5" ry="28.99"/>
<text text-anchor="middle" x="491.75" y="-824.7" font-family="Times New Roman,serif" font-size="14.00">KEY</text>
<text text-anchor="middle" x="491.75" y="-808.2" font-family="Times New Roman,serif" font-size="14.00">string: ::=</text>
</g>
<!-- 1&#45;&gt;3 -->
<g id="edge2" class="edge">
<title>1&#45;&gt;3</title>
<path fill="none" stroke="black" d="M542.81,-914.73C534.3,-899.37 522.26,-877.62 512.01,-859.11"/>
<polygon fill="black" stroke="black" points="515.18,-857.59 507.27,-850.54 509.05,-860.98 515.18,-857.59"/>
</g>
<!-- 4 -->
<g id="node4" class="node">
<title>4</title>
<polygon fill="none" stroke="black" points="674.62,-842 558.88,-842 558.88,-801 674.62,-801 674.62,-842"/>
<text text-anchor="middle" x="616.75" y="-824.7" font-family="Times New Roman,serif" font-size="14.00">NONTERMINAL</text>
<text text-anchor="middle" x="616.75" y="-808.2" font-family="Times New Roman,serif" font-size="14.00">type: Alternative</text>
</g>
<!-- 1&#45;&gt;4 -->
<g id="edge3" class="edge">
<title>1&#45;&gt;4</title>
<path fill="none" stroke="black" d="M564.87,-914.73C574.57,-897.49 588.79,-872.2 599.89,-852.47"/>
<polygon fill="black" stroke="black" points="602.94,-854.2 604.79,-843.76 596.84,-850.76 602.94,-854.2"/>
</g>
<!-- 5 -->
<g id="node5" class="node">
<title>5</title>
<ellipse fill="none" stroke="black" cx="733.75" cy="-821.5" rx="41.01" ry="28.99"/>
<text text-anchor="middle" x="733.75" y="-824.7" font-family="Times New Roman,serif" font-size="14.00">KEY</text>
<text text-anchor="middle" x="733.75" y="-808.2" font-family="Times New Roman,serif" font-size="14.00">string: ;</text>
</g>
<!-- 1&#45;&gt;5 -->
<g id="edge4" class="edge">
<title>1&#45;&gt;5</title>
<path fill="none" stroke="black" d="M611.98,-915.97C635.51,-906.92 662.16,-894.58 683.75,-879 692.49,-872.7 700.77,-864.61 707.99,-856.54"/>
<polygon fill="black" stroke="black" points="710.58,-858.91 714.4,-849.02 705.25,-854.36 710.58,-858.91"/>
</g>
<!-- 6 -->
<g id="node6" class="node">
<title>6</title>
<polygon fill="none" stroke="black" points="674.62,-728 558.88,-728 558.88,-687 674.62,-687 674.62,-728"/>
<text text-anchor="middle" x="616.75" y="-710.7" font-family="Times New Roman,serif" font-size="14.00">NONTERMINAL</text>
<text text-anchor="middle" x="616.75" y="-694.2" font-family="Times New Roman,serif" font-size="14.00">type: Sequence</text>
</g>
<!-- 4&#45;&gt;6 -->
<g id="edge5" class="edge">
<title>4&#45;&gt;6</title>
<path fill="none" stroke="black" d="M616.75,-800.73C616.75,-783.88 616.75,-759.37 616.75,-739.84"/>
<polygon fill="black" stroke="black" points="620.25,-739.96 616.75,-729.96 613.25,-739.96 620.25,-739.96"/>
</g>
<!-- 7 -->
<g id="node7" class="node">
<title>7</title>
<polygon fill="none" stroke="black" points="369.75,-651 251.75,-651 251.75,-610 369.75,-610 369.75,-651"/>
<text text-anchor="middle" x="310.75" y="-633.7" font-family="Times New Roman,serif" font-size="14.00">NONTERMINAL</text>
<text text-anchor="middle" x="310.75" y="-617.2" font-family="Times New Roman,serif" font-size="14.00">type: RuleElement</text>
</g>
<!-- 6&#45;&gt;7 -->
<g id="edge6" class="edge">
<title>6&#45;&gt;7</title>
<path fill="none" stroke="black" d="M558.47,-692.22C508.04,-679.86 434.98,-661.95 381.27,-648.78"/>
<polygon fill="black" stroke="black" points="382.13,-645.39 371.58,-646.41 380.46,-652.19 382.13,-645.39"/>
</g>
<!-- 8 -->
<g id="node8" class="node">
<title>8</title>
<polygon fill="none" stroke="black" points="535.75,-651 417.75,-651 417.75,-610 535.75,-610 535.75,-651"/>
<text text-anchor="middle" x="476.75" y="-633.7" font-family="Times New Roman,serif" font-size="14.00">NONTERMINAL</text>
<text text-anchor="middle" x="476.75" y="-617.2" font-family="Times New Roman,serif" font-size="14.00">type: RuleElement</text>
</g>
<!-- 6&#45;&gt;8 -->
<g id="edge7" class="edge">
<title>6&#45;&gt;8</title>
<path fill="none" stroke="black" d="M579.6,-686.6C562.59,-677.49 542.24,-666.58 524.14,-656.89"/>
<polygon fill="black" stroke="black" points="525.88,-653.85 515.41,-652.21 522.57,-660.02 525.88,-653.85"/>
</g>
<!-- 9 -->
<g id="node9" class="node">
<title>9</title>
<polygon fill="none" stroke="black" points="723.75,-651 605.75,-651 605.75,-610 723.75,-610 723.75,-651"/>
<text text-anchor="middle" x="664.75" y="-633.7" font-family="Times New Roman,serif" font-size="14.00">NONTERMINAL</text>
<text text-anchor="middle" x="664.75" y="-617.2" font-family="Times New Roman,serif" font-size="14.00">type: RuleElement</text>
</g>
<!-- 6&#45;&gt;9 -->
<g id="edge8" class="edge">
<title>6&#45;&gt;9</title>
<path fill="none" stroke="black" d="M629.36,-686.79C634.45,-678.85 640.42,-669.51 646,-660.8"/>
<polygon fill="black" stroke="black" points="648.8,-662.92 651.24,-652.61 642.9,-659.14 648.8,-662.92"/>
</g>
<!-- 10 -->
<g id="node10" class="node">
<title>10</title>
<polygon fill="none" stroke="black" points="929.75,-651 811.75,-651 811.75,-610 929.75,-610 929.75,-651"/>
<text text-anchor="middle" x="870.75" y="-633.7" font-family="Times New Roman,serif" font-size="14.00">NONTERMINAL</text>
<text text-anchor="middle" x="870.75" y="-617.2" font-family="Times New Roman,serif" font-size="14.00">type: RuleElement</text>
</g>
<!-- 6&#45;&gt;10 -->
<g id="edge9" class="edge">
<title>6&#45;&gt;10</title>
<path fill="none" stroke="black" d="M675.02,-689.29C712.37,-678.26 761.08,-663.88 800.55,-652.23"/>
<polygon fill="black" stroke="black" points="801.38,-655.63 809.98,-649.45 799.39,-648.92 801.38,-655.63"/>
</g>
<!-- 11 -->
<g id="node11" class="node">
<title>11</title>
<polygon fill="none" stroke="black" points="307.62,-574 191.88,-574 191.88,-533 307.62,-533 307.62,-574"/>
<text text-anchor="middle" x="249.75" y="-556.7" font-family="Times New Roman,serif" font-size="14.00">NONTERMINAL</text>
<text text-anchor="middle" x="249.75" y="-540.2" font-family="Times New Roman,serif" font-size="14.00">type: Element</text>
</g>
<!-- 7&#45;&gt;11 -->
<g id="edge10" class="edge">
<title>7&#45;&gt;11</title>
<path fill="none" stroke="black" d="M294.72,-609.79C288.12,-601.68 280.34,-592.11 273.12,-583.24"/>
<polygon fill="black" stroke="black" points="275.86,-581.06 266.84,-575.51 270.43,-585.47 275.86,-581.06"/>
</g>
<!-- 12 -->
<g id="node12" class="node">
<title>12</title>
<polygon fill="none" stroke="black" points="499.62,-574 383.88,-574 383.88,-533 499.62,-533 499.62,-574"/>
<text text-anchor="middle" x="441.75" y="-556.7" font-family="Times New Roman,serif" font-size="14.00">NONTERMINAL</text>
<text text-anchor="middle" x="441.75" y="-540.2" font-family="Times New Roman,serif" font-size="14.00">type: Element</text>
</g>
<!-- 8&#45;&gt;12 -->
<g id="edge11" class="edge">
<title>8&#45;&gt;12</title>
<path fill="none" stroke="black" d="M467.55,-609.79C463.97,-602.1 459.77,-593.11 455.82,-584.65"/>
<polygon fill="black" stroke="black" points="459.05,-583.29 451.65,-575.71 452.7,-586.25 459.05,-583.29"/>
</g>
<!-- 13 -->
<g id="node13" class="node">
<title>13</title>
<polygon fill="none" stroke="black" points="794.62,-574 678.88,-574 678.88,-533 794.62,-533 794.62,-574"/>
<text text-anchor="middle" x="736.75" y="-556.7" font-family="Times New Roman,serif" font-size="14.00">NONTERMINAL</text>
<text text-anchor="middle" x="736.75" y="-540.2" font-family="Times New Roman,serif" font-size="14.00">type: Iteration</text>
</g>
<!-- 9&#45;&gt;13 -->
<g id="edge12" class="edge">
<title>9&#45;&gt;13</title>
<path fill="none" stroke="black" d="M683.67,-609.79C691.71,-601.42 701.22,-591.51 709.96,-582.4"/>
<polygon fill="black" stroke="black" points="712.26,-585.06 716.66,-575.43 707.21,-580.22 712.26,-585.06"/>
</g>
<!-- 14 -->
<g id="node14" class="node">
<title>14</title>
<polygon fill="none" stroke="black" points="964.62,-574 848.88,-574 848.88,-533 964.62,-533 964.62,-574"/>
<text text-anchor="middle" x="906.75" y="-556.7" font-family="Times New Roman,serif" font-size="14.00">NONTERMINAL</text>
<text text-anchor="middle" x="906.75" y="-540.2" font-family="Times New Roman,serif" font-size="14.00">type: Element</text>
</g>
<!-- 10&#45;&gt;14 -->
<g id="edge13" class="edge">
<title>10&#45;&gt;14</title>
<path fill="none" stroke="black" d="M880.21,-609.79C883.9,-602.1 888.21,-593.11 892.28,-584.65"/>
<polygon fill="black" stroke="black" points="895.4,-586.23 896.57,-575.7 889.09,-583.2 895.4,-586.23"/>
</g>
<!-- 15 -->
<g id="node15" class="node">
<title>15</title>
<polygon fill="none" stroke="black" points="136.75,-497 0,-439.5 136.75,-382 273.5,-439.5 136.75,-497"/>
<text text-anchor="middle" x="136.75" y="-450.95" font-family="Times New Roman,serif" font-size="14.00">TERMINAL</text>
<text text-anchor="middle" x="136.75" y="-434.45" font-family="Times New Roman,serif" font-size="14.00">type: key_name</text>
<text text-anchor="middle" x="136.75" y="-417.95" font-family="Times New Roman,serif" font-size="14.00">string: &#39;TERMINALS&#39;</text>
</g>
<!-- 11&#45;&gt;15 -->
<g id="edge14" class="edge">
<title>11&#45;&gt;15</title>
<path fill="none" stroke="black" d="M229.81,-532.73C217.4,-520.43 200.87,-504.05 185.18,-488.5"/>
<polygon fill="black" stroke="black" points="187.72,-486.09 178.16,-481.54 182.79,-491.06 187.72,-486.09"/>
</g>
<!-- 16 -->
<g id="node16" class="node">
<title>16</title>
<polygon fill="none" stroke="black" points="394.75,-497 291.75,-439.5 394.75,-382 497.75,-439.5 394.75,-497"/>
<text text-anchor="middle" x="394.75" y="-450.95" font-family="Times New Roman,serif" font-size="14.00">TERMINAL</text>
<text text-anchor="middle" x="394.75" y="-434.45" font-family="Times New Roman,serif" font-size="14.00">type: key_name</text>
<text text-anchor="middle" x="394.75" y="-417.95" font-family="Times New Roman,serif" font-size="14.00">string: &#39;:&#39;</text>
</g>
<!-- 12&#45;&gt;16 -->
<g id="edge15" class="edge">
<title>12&#45;&gt;16</title>
<path fill="none" stroke="black" d="M433.46,-532.73C429.21,-522.63 423.81,-509.76 418.4,-496.86"/>
<polygon fill="black" stroke="black" points="421.76,-495.83 414.67,-487.96 415.31,-498.54 421.76,-495.83"/>
</g>
<!-- 17 -->
<g id="node17" class="node">
<title>17</title>
<ellipse fill="none" stroke="black" cx="558.75" cy="-439.5" rx="43.13" ry="28.99"/>
<text text-anchor="middle" x="558.75" y="-442.7" font-family="Times New Roman,serif" font-size="14.00">KEY</text>
<text text-anchor="middle" x="558.75" y="-426.2" font-family="Times New Roman,serif" font-size="14.00">string: {</text>
</g>
<!-- 13&#45;&gt;17 -->
<g id="edge16" class="edge">
<title>13&#45;&gt;17</title>
<path fill="none" stroke="black" d="M678.58,-532.72C656.27,-523.67 631.26,-511.67 610.75,-497 601.74,-490.55 593.09,-482.34 585.53,-474.18"/>
<polygon fill="black" stroke="black" points="588.33,-472.06 579.08,-466.91 583.1,-476.71 588.33,-472.06"/>
</g>
<!-- 18 -->
<g id="node18" class="node">
<title>18</title>
<polygon fill="none" stroke="black" points="735.62,-460 619.88,-460 619.88,-419 735.62,-419 735.62,-460"/>
<text text-anchor="middle" x="677.75" y="-442.7" font-family="Times New Roman,serif" font-size="14.00">NONTERMINAL</text>
<text text-anchor="middle" x="677.75" y="-426.2" font-family="Times New Roman,serif" font-size="14.00">type: Alternative</text>
</g>
<!-- 13&#45;&gt;18 -->
<g id="edge17" class="edge">
<title>13&#45;&gt;18</title>
<path fill="none" stroke="black" d="M726.34,-532.73C717.25,-515.49 703.93,-490.2 693.54,-470.47"/>
<polygon fill="black" stroke="black" points="696.72,-469 688.96,-461.78 690.53,-472.26 696.72,-469"/>
</g>
<!-- 19 -->
<g id="node19" class="node">
<title>19</title>
<ellipse fill="none" stroke="black" cx="796.75" cy="-439.5" rx="43.13" ry="28.99"/>
<text text-anchor="middle" x="796.75" y="-442.7" font-family="Times New Roman,serif" font-size="14.00">KEY</text>
<text text-anchor="middle" x="796.75" y="-426.2" font-family="Times New Roman,serif" font-size="14.00">string: #</text>
</g>
<!-- 13&#45;&gt;19 -->
<g id="edge18" class="edge">
<title>13&#45;&gt;19</title>
<path fill="none" stroke="black" d="M747.34,-532.73C755.57,-517.37 767.22,-495.62 777.14,-477.11"/>
<polygon fill="black" stroke="black" points="780.09,-479.01 781.73,-468.55 773.92,-475.71 780.09,-479.01"/>
</g>
<!-- 20 -->
<g id="node20" class="node">
<title>20</title>
<polygon fill="none" stroke="black" points="973.62,-460 857.88,-460 857.88,-419 973.62,-419 973.62,-460"/>
<text text-anchor="middle" x="915.75" y="-442.7" font-family="Times New Roman,serif" font-size="14.00">NONTERMINAL</text>
<text text-anchor="middle" x="915.75" y="-426.2" font-family="Times New Roman,serif" font-size="14.00">type: Alternative</text>
</g>
<!-- 13&#45;&gt;20 -->
<g id="edge19" class="edge">
<title>13&#45;&gt;20</title>
<path fill="none" stroke="black" d="M783.08,-532.61C803.8,-522.94 828.15,-510.5 848.75,-497 861.7,-488.51 874.95,-477.84 886.2,-468.06"/>
<polygon fill="black" stroke="black" points="888.47,-470.73 893.63,-461.48 883.83,-465.49 888.47,-470.73"/>
</g>
<!-- 21 -->
<g id="node21" class="node">
<title>21</title>
<ellipse fill="none" stroke="black" cx="1034.75" cy="-439.5" rx="43.13" ry="28.99"/>
<text text-anchor="middle" x="1034.75" y="-442.7" font-family="Times New Roman,serif" font-size="14.00">KEY</text>
<text text-anchor="middle" x="1034.75" y="-426.2" font-family="Times New Roman,serif" font-size="14.00">string: }</text>
</g>
<!-- 13&#45;&gt;21 -->
<g id="edge20" class="edge">
<title>13&#45;&gt;21</title>
<path fill="none" stroke="black" d="M795.04,-541.25C862.53,-527.92 966.57,-506.36 982.75,-497 992.6,-491.3 1001.66,-483.12 1009.37,-474.75"/>
<polygon fill="black" stroke="black" points="1012,-477.05 1015.89,-467.2 1006.71,-472.48 1012,-477.05"/>
</g>
<!-- 22 -->
<g id="node22" class="node">
<title>22</title>
<polygon fill="none" stroke="black" points="1198.75,-497 1095.75,-439.5 1198.75,-382 1301.75,-439.5 1198.75,-497"/>
<text text-anchor="middle" x="1198.75" y="-450.95" font-family="Times New Roman,serif" font-size="14.00">TERMINAL</text>
<text text-anchor="middle" x="1198.75" y="-434.45" font-family="Times New Roman,serif" font-size="14.00">type: key_name</text>
<text text-anchor="middle" x="1198.75" y="-417.95" font-family="Times New Roman,serif" font-size="14.00">string: &#39;.&#39;</text>
</g>
<!-- 14&#45;&gt;22 -->
<g id="edge21" class="edge">
<title>14&#45;&gt;22</title>
<path fill="none" stroke="black" d="M964.76,-537.29C1000.46,-527.28 1046.87,-513.08 1086.75,-497 1103.56,-490.22 1121.28,-481.88 1137.54,-473.71"/>
<polygon fill="black" stroke="black" points="1138.78,-477 1146.1,-469.34 1135.6,-470.77 1138.78,-477"/>
</g>
<!-- 23 -->
<g id="node23" class="node">
<title>23</title>
<polygon fill="none" stroke="black" points="735.62,-346 619.88,-346 619.88,-305 735.62,-305 735.62,-346"/>
<text text-anchor="middle" x="677.75" y="-328.7" font-family="Times New Roman,serif" font-size="14.00">NONTERMINAL</text>
<text text-anchor="middle" x="677.75" y="-312.2" font-family="Times New Roman,serif" font-size="14.00">type: Sequence</text>
</g>
<!-- 18&#45;&gt;23 -->
<g id="edge22" class="edge">
<title>18&#45;&gt;23</title>
<path fill="none" stroke="black" d="M677.75,-418.73C677.75,-401.88 677.75,-377.37 677.75,-357.84"/>
<polygon fill="black" stroke="black" points="681.25,-357.96 677.75,-347.96 674.25,-357.96 681.25,-357.96"/>
</g>
<!-- 24 -->
<g id="node24" class="node">
<title>24</title>
<polygon fill="none" stroke="black" points="973.62,-346 857.88,-346 857.88,-305 973.62,-305 973.62,-346"/>
<text text-anchor="middle" x="915.75" y="-328.7" font-family="Times New Roman,serif" font-size="14.00">NONTERMINAL</text>
<text text-anchor="middle" x="915.75" y="-312.2" font-family="Times New Roman,serif" font-size="14.00">type: Sequence</text>
</g>
<!-- 20&#45;&gt;24 -->
<g id="edge23" class="edge">
<title>20&#45;&gt;24</title>
<path fill="none" stroke="black" d="M915.75,-418.73C915.75,-401.88 915.75,-377.37 915.75,-357.84"/>
<polygon fill="black" stroke="black" points="919.25,-357.96 915.75,-347.96 912.25,-357.96 919.25,-357.96"/>
</g>
<!-- 25 -->
<g id="node25" class="node">
<title>25</title>
<polygon fill="none" stroke="black" points="736.75,-269 618.75,-269 618.75,-228 736.75,-228 736.75,-269"/>
<text text-anchor="middle" x="677.75" y="-251.7" font-family="Times New Roman,serif" font-size="14.00">NONTERMINAL</text>
<text text-anchor="middle" x="677.75" y="-235.2" font-family="Times New Roman,serif" font-size="14.00">type: RuleElement</text>
</g>
<!-- 23&#45;&gt;25 -->
<g id="edge24" class="edge">
<title>23&#45;&gt;25</title>
<path fill="none" stroke="black" d="M677.75,-304.79C677.75,-297.45 677.75,-288.91 677.75,-280.78"/>
<polygon fill="black" stroke="black" points="681.25,-280.85 677.75,-270.85 674.25,-280.85 681.25,-280.85"/>
</g>
<!-- 26 -->
<g id="node26" class="node">
<title>26</title>
<polygon fill="none" stroke="black" points="974.75,-269 856.75,-269 856.75,-228 974.75,-228 974.75,-269"/>
<text text-anchor="middle" x="915.75" y="-251.7" font-family="Times New Roman,serif" font-size="14.00">NONTERMINAL</text>
<text text-anchor="middle" x="915.75" y="-235.2" font-family="Times New Roman,serif" font-size="14.00">type: RuleElement</text>
</g>
<!-- 24&#45;&gt;26 -->
<g id="edge25" class="edge">
<title>24&#45;&gt;26</title>
<path fill="none" stroke="black" d="M915.75,-304.79C915.75,-297.45 915.75,-288.91 915.75,-280.78"/>
<polygon fill="black" stroke="black" points="919.25,-280.85 915.75,-270.85 912.25,-280.85 919.25,-280.85"/>
</g>
<!-- 27 -->
<g id="node27" class="node">
<title>27</title>
<polygon fill="none" stroke="black" points="735.62,-192 619.88,-192 619.88,-151 735.62,-151 735.62,-192"/>
<text text-anchor="middle" x="677.75" y="-174.7" font-family="Times New Roman,serif" font-size="14.00">NONTERMINAL</text>
<text text-anchor="middle" x="677.75" y="-158.2" font-family="Times New Roman,serif" font-size="14.00">type: Element</text>
</g>
<!-- 25&#45;&gt;27 -->
<g id="edge26" class="edge">
<title>25&#45;&gt;27</title>
<path fill="none" stroke="black" d="M677.75,-227.79C677.75,-220.45 677.75,-211.91 677.75,-203.78"/>
<polygon fill="black" stroke="black" points="681.25,-203.85 677.75,-193.85 674.25,-203.85 681.25,-203.85"/>
</g>
<!-- 28 -->
<g id="node28" class="node">
<title>28</title>
<polygon fill="none" stroke="black" points="973.62,-192 857.88,-192 857.88,-151 973.62,-151 973.62,-192"/>
<text text-anchor="middle" x="915.75" y="-174.7" font-family="Times New Roman,serif" font-size="14.00">NONTERMINAL</text>
<text text-anchor="middle" x="915.75" y="-158.2" font-family="Times New Roman,serif" font-size="14.00">type: Element</text>
</g>
<!-- 26&#45;&gt;28 -->
<g id="edge27" class="edge">
<title>26&#45;&gt;28</title>
<path fill="none" stroke="black" d="M915.75,-227.79C915.75,-220.45 915.75,-211.91 915.75,-203.78"/>
<polygon fill="black" stroke="black" points="919.25,-203.85 915.75,-193.85 912.25,-203.85 919.25,-203.85"/>
</g>
<!-- 29 -->
<g id="node29" class="node">
<title>29</title>
<polygon fill="none" stroke="black" points="677.75,-115 574.75,-57.5 677.75,0 780.75,-57.5 677.75,-115"/>
<text text-anchor="middle" x="677.75" y="-68.95" font-family="Times New Roman,serif" font-size="14.00">TERMINAL</text>
<text text-anchor="middle" x="677.75" y="-52.45" font-family="Times New Roman,serif" font-size="14.00">type: name</text>
<text text-anchor="middle" x="677.75" y="-35.95" font-family="Times New Roman,serif" font-size="14.00">string: Terminal</text>
</g>
<!-- 27&#45;&gt;29 -->
<g id="edge28" class="edge">
<title>27&#45;&gt;29</title>
<path fill="none" stroke="black" d="M677.75,-150.73C677.75,-143.67 677.75,-135.26 677.75,-126.43"/>
<polygon fill="black" stroke="black" points="681.25,-126.61 677.75,-116.61 674.25,-126.61 681.25,-126.61"/>
</g>
<!-- 30 -->
<g id="node30" class="node">
<title>30</title>
<polygon fill="none" stroke="black" points="915.75,-115 812.75,-57.5 915.75,0 1018.75,-57.5 915.75,-115"/>
<text text-anchor="middle" x="915.75" y="-68.95" font-family="Times New Roman,serif" font-size="14.00">TERMINAL</text>
<text text-anchor="middle" x="915.75" y="-52.45" font-family="Times New Roman,serif" font-size="14.00">type: key_name</text>
<text text-anchor="middle" x="915.75" y="-35.95" font-family="Times New Roman,serif" font-size="14.00">string: &#39;;&#39;</text>
</g>
<!-- 28&#45;&gt;30 -->
<g id="edge29" class="edge">
<title>28&#45;&gt;30</title>
<path fill="none" stroke="black" d="M915.75,-150.73C915.75,-143.67 915.75,-135.26 915.75,-126.43"/>
<polygon fill="black" stroke="black" points="919.25,-126.61 915.75,-116.61 912.25,-126.61 919.25,-126.61"/>
</g>
</g>
</svg>
