<?xml version="1.0" encoding="UTF-8" standalone="no"?>
<!DOCTYPE svg PUBLIC "-//W3C//DTD SVG 1.1//EN"
 "http://www.w3.org/Graphics/SVG/1.1/DTD/svg11.dtd">
<!-- Generated by graphviz version 12.2.0 (20241103.1931)
 -->
<!-- Title: ast_NextFor Pages: 1 -->
<svg width="718pt" height="582pt"
 viewBox="0.00 0.00 717.75 582.00" xmlns="http://www.w3.org/2000/svg" xmlns:xlink="http://www.w3.org/1999/xlink">
<g id="graph0" class="graph" transform="scale(1 1) rotate(0) translate(4 578)">
<title>ast_NextFor</title>
<polygon fill="white" stroke="none" points="-4,4 -4,-578 713.75,-578 713.75,4 -4,4"/>
<!-- 1 -->
<g id="node1" class="node">
<title>1</title>
<polygon fill="none" stroke="black" points="386.12,-574 270.38,-574 270.38,-533 386.12,-533 386.12,-574"/>
<text text-anchor="middle" x="328.25" y="-556.7" font-family="Times New Roman,serif" font-size="14.00">NONTERMINAL</text>
<text text-anchor="middle" x="328.25" y="-540.2" font-family="Times New Roman,serif" font-size="14.00">type: Rule</text>
</g>
<!-- 2 -->
<g id="node2" class="node">
<title>2</title>
<polygon fill="none" stroke="black" points="99.25,-497 0,-439.5 99.25,-382 198.5,-439.5 99.25,-497"/>
<text text-anchor="middle" x="99.25" y="-450.95" font-family="Times New Roman,serif" font-size="14.00">TERMINAL</text>
<text text-anchor="middle" x="99.25" y="-434.45" font-family="Times New Roman,serif" font-size="14.00">type: name</text>
<text text-anchor="middle" x="99.25" y="-417.95" font-family="Times New Roman,serif" font-size="14.00">string: NextFor</text>
</g>
<!-- 1&#45;&gt;2 -->
<g id="edge1" class="edge">
<title>1&#45;&gt;2</title>
<path fill="none" stroke="black" d="M283.86,-532.54C261.13,-522.18 233.09,-509.17 208.25,-497 192.71,-489.38 176.06,-480.91 160.56,-472.9"/>
<polygon fill="black" stroke="black" points="162.41,-469.91 151.92,-468.41 159.18,-476.12 162.41,-469.91"/>
</g>
<!-- 3 -->
<g id="node3" class="node">
<title>3</title>
<ellipse fill="none" stroke="black" cx="266.25" cy="-439.5" rx="49.5" ry="28.99"/>
<text text-anchor="middle" x="266.25" y="-442.7" font-family="Times New Roman,serif" font-size="14.00">KEY</text>
<text text-anchor="middle" x="266.25" y="-426.2" font-family="Times New Roman,serif" font-size="14.00">string: ::=</text>
</g>
<!-- 1&#45;&gt;3 -->
<g id="edge2" class="edge">
<title>1&#45;&gt;3</title>
<path fill="none" stroke="black" d="M317.31,-532.73C308.8,-517.37 296.76,-495.62 286.51,-477.11"/>
<polygon fill="black" stroke="black" points="289.68,-475.59 281.77,-468.54 283.55,-478.98 289.68,-475.59"/>
</g>
<!-- 4 -->
<g id="node4" class="node">
<title>4</title>
<polygon fill="none" stroke="black" points="449.12,-460 333.38,-460 333.38,-419 449.12,-419 449.12,-460"/>
<text text-anchor="middle" x="391.25" y="-442.7" font-family="Times New Roman,serif" font-size="14.00">NONTERMINAL</text>
<text text-anchor="middle" x="391.25" y="-426.2" font-family="Times New Roman,serif" font-size="14.00">type: Alternative</text>
</g>
<!-- 1&#45;&gt;4 -->
<g id="edge3" class="edge">
<title>1&#45;&gt;4</title>
<path fill="none" stroke="black" d="M339.37,-532.73C349.07,-515.49 363.29,-490.2 374.39,-470.47"/>
<polygon fill="black" stroke="black" points="377.44,-472.2 379.29,-461.76 371.34,-468.76 377.44,-472.2"/>
</g>
<!-- 5 -->
<g id="node5" class="node">
<title>5</title>
<ellipse fill="none" stroke="black" cx="508.25" cy="-439.5" rx="41.01" ry="28.99"/>
<text text-anchor="middle" x="508.25" y="-442.7" font-family="Times New Roman,serif" font-size="14.00">KEY</text>
<text text-anchor="middle" x="508.25" y="-426.2" font-family="Times New Roman,serif" font-size="14.00">string: ;</text>
</g>
<!-- 1&#45;&gt;5 -->
<g id="edge4" class="edge">
<title>1&#45;&gt;5</title>
<path fill="none" stroke="black" d="M386.48,-533.97C410.01,-524.92 436.66,-512.58 458.25,-497 466.99,-490.7 475.27,-482.61 482.49,-474.54"/>
<polygon fill="black" stroke="black" points="485.08,-476.91 488.9,-467.02 479.75,-472.36 485.08,-476.91"/>
</g>
<!-- 6 -->
<g id="node6" class="node">
<title>6</title>
<polygon fill="none" stroke="black" points="449.12,-346 333.38,-346 333.38,-305 449.12,-305 449.12,-346"/>
<text text-anchor="middle" x="391.25" y="-328.7" font-family="Times New Roman,serif" font-size="14.00">NONTERMINAL</text>
<text text-anchor="middle" x="391.25" y="-312.2" font-family="Times New Roman,serif" font-size="14.00">type: Sequence</text>
</g>
<!-- 4&#45;&gt;6 -->
<g id="edge5" class="edge">
<title>4&#45;&gt;6</title>
<path fill="none" stroke="black" d="M391.25,-418.73C391.25,-401.88 391.25,-377.37 391.25,-357.84"/>
<polygon fill="black" stroke="black" points="394.75,-357.96 391.25,-347.96 387.75,-357.96 394.75,-357.96"/>
</g>
<!-- 7 -->
<g id="node7" class="node">
<title>7</title>
<polygon fill="none" stroke="black" points="292.25,-269 174.25,-269 174.25,-228 292.25,-228 292.25,-269"/>
<text text-anchor="middle" x="233.25" y="-251.7" font-family="Times New Roman,serif" font-size="14.00">NONTERMINAL</text>
<text text-anchor="middle" x="233.25" y="-235.2" font-family="Times New Roman,serif" font-size="14.00">type: RuleElement</text>
</g>
<!-- 6&#45;&gt;7 -->
<g id="edge6" class="edge">
<title>6&#45;&gt;7</title>
<path fill="none" stroke="black" d="M349.32,-304.6C329.77,-295.32 306.3,-284.18 285.6,-274.35"/>
<polygon fill="black" stroke="black" points="287.27,-271.27 276.74,-270.14 284.27,-277.59 287.27,-271.27"/>
</g>
<!-- 8 -->
<g id="node8" class="node">
<title>8</title>
<polygon fill="none" stroke="black" points="450.25,-269 332.25,-269 332.25,-228 450.25,-228 450.25,-269"/>
<text text-anchor="middle" x="391.25" y="-251.7" font-family="Times New Roman,serif" font-size="14.00">NONTERMINAL</text>
<text text-anchor="middle" x="391.25" y="-235.2" font-family="Times New Roman,serif" font-size="14.00">type: RuleElement</text>
</g>
<!-- 6&#45;&gt;8 -->
<g id="edge7" class="edge">
<title>6&#45;&gt;8</title>
<path fill="none" stroke="black" d="M391.25,-304.79C391.25,-297.45 391.25,-288.91 391.25,-280.78"/>
<polygon fill="black" stroke="black" points="394.75,-280.85 391.25,-270.85 387.75,-280.85 394.75,-280.85"/>
</g>
<!-- 9 -->
<g id="node9" class="node">
<title>9</title>
<polygon fill="none" stroke="black" points="628.25,-269 510.25,-269 510.25,-228 628.25,-228 628.25,-269"/>
<text text-anchor="middle" x="569.25" y="-251.7" font-family="Times New Roman,serif" font-size="14.00">NONTERMINAL</text>
<text text-anchor="middle" x="569.25" y="-235.2" font-family="Times New Roman,serif" font-size="14.00">type: RuleElement</text>
</g>
<!-- 6&#45;&gt;9 -->
<g id="edge8" class="edge">
<title>6&#45;&gt;9</title>
<path fill="none" stroke="black" d="M438.48,-304.6C460.81,-295.19 487.68,-283.87 511.23,-273.95"/>
<polygon fill="black" stroke="black" points="512.54,-277.19 520.4,-270.08 509.83,-270.74 512.54,-277.19"/>
</g>
<!-- 10 -->
<g id="node10" class="node">
<title>10</title>
<polygon fill="none" stroke="black" points="247.12,-192 131.38,-192 131.38,-151 247.12,-151 247.12,-192"/>
<text text-anchor="middle" x="189.25" y="-174.7" font-family="Times New Roman,serif" font-size="14.00">NONTERMINAL</text>
<text text-anchor="middle" x="189.25" y="-158.2" font-family="Times New Roman,serif" font-size="14.00">type: Element</text>
</g>
<!-- 7&#45;&gt;10 -->
<g id="edge9" class="edge">
<title>7&#45;&gt;10</title>
<path fill="none" stroke="black" d="M221.69,-227.79C217.08,-219.93 211.67,-210.71 206.6,-202.08"/>
<polygon fill="black" stroke="black" points="209.73,-200.49 201.65,-193.64 203.69,-204.04 209.73,-200.49"/>
</g>
<!-- 11 -->
<g id="node11" class="node">
<title>11</title>
<polygon fill="none" stroke="black" points="449.12,-192 333.38,-192 333.38,-151 449.12,-151 449.12,-192"/>
<text text-anchor="middle" x="391.25" y="-174.7" font-family="Times New Roman,serif" font-size="14.00">NONTERMINAL</text>
<text text-anchor="middle" x="391.25" y="-158.2" font-family="Times New Roman,serif" font-size="14.00">type: Element</text>
</g>
<!-- 8&#45;&gt;11 -->
<g id="edge10" class="edge">
<title>8&#45;&gt;11</title>
<path fill="none" stroke="black" d="M391.25,-227.79C391.25,-220.45 391.25,-211.91 391.25,-203.78"/>
<polygon fill="black" stroke="black" points="394.75,-203.85 391.25,-193.85 387.75,-203.85 394.75,-203.85"/>
</g>
<!-- 12 -->
<g id="node12" class="node">
<title>12</title>
<polygon fill="none" stroke="black" points="648.12,-192 532.38,-192 532.38,-151 648.12,-151 648.12,-192"/>
<text text-anchor="middle" x="590.25" y="-174.7" font-family="Times New Roman,serif" font-size="14.00">NONTERMINAL</text>
<text text-anchor="middle" x="590.25" y="-158.2" font-family="Times New Roman,serif" font-size="14.00">type: Element</text>
</g>
<!-- 9&#45;&gt;12 -->
<g id="edge11" class="edge">
<title>9&#45;&gt;12</title>
<path fill="none" stroke="black" d="M574.77,-227.79C576.87,-220.28 579.33,-211.51 581.65,-203.21"/>
<polygon fill="black" stroke="black" points="584.96,-204.37 584.29,-193.79 578.22,-202.48 584.96,-204.37"/>
</g>
<!-- 13 -->
<g id="node13" class="node">
<title>13</title>
<polygon fill="none" stroke="black" points="167.25,-115 64.25,-57.5 167.25,0 270.25,-57.5 167.25,-115"/>
<text text-anchor="middle" x="167.25" y="-68.95" font-family="Times New Roman,serif" font-size="14.00">TERMINAL</text>
<text text-anchor="middle" x="167.25" y="-52.45" font-family="Times New Roman,serif" font-size="14.00">type: key_name</text>
<text text-anchor="middle" x="167.25" y="-35.95" font-family="Times New Roman,serif" font-size="14.00">string: &#39;NEXT&#39;</text>
</g>
<!-- 10&#45;&gt;13 -->
<g id="edge12" class="edge">
<title>10&#45;&gt;13</title>
<path fill="none" stroke="black" d="M185.37,-150.73C183.7,-142.25 181.65,-131.83 179.54,-121.07"/>
<polygon fill="black" stroke="black" points="182.98,-120.44 177.62,-111.3 176.11,-121.78 182.98,-120.44"/>
</g>
<!-- 14 -->
<g id="node14" class="node">
<title>14</title>
<polygon fill="none" stroke="black" points="391.25,-115 288.25,-57.5 391.25,0 494.25,-57.5 391.25,-115"/>
<text text-anchor="middle" x="391.25" y="-68.95" font-family="Times New Roman,serif" font-size="14.00">TERMINAL</text>
<text text-anchor="middle" x="391.25" y="-52.45" font-family="Times New Roman,serif" font-size="14.00">type: key_name</text>
<text text-anchor="middle" x="391.25" y="-35.95" font-family="Times New Roman,serif" font-size="14.00">string: &#39;FOR&#39;</text>
</g>
<!-- 11&#45;&gt;14 -->
<g id="edge13" class="edge">
<title>11&#45;&gt;14</title>
<path fill="none" stroke="black" d="M391.25,-150.73C391.25,-143.67 391.25,-135.26 391.25,-126.43"/>
<polygon fill="black" stroke="black" points="394.75,-126.61 391.25,-116.61 387.75,-126.61 394.75,-126.61"/>
</g>
<!-- 15 -->
<g id="node15" class="node">
<title>15</title>
<polygon fill="none" stroke="black" points="611.25,-115 512.75,-57.5 611.25,0 709.75,-57.5 611.25,-115"/>
<text text-anchor="middle" x="611.25" y="-68.95" font-family="Times New Roman,serif" font-size="14.00">TERMINAL</text>
<text text-anchor="middle" x="611.25" y="-52.45" font-family="Times New Roman,serif" font-size="14.00">type: name</text>
<text text-anchor="middle" x="611.25" y="-35.95" font-family="Times New Roman,serif" font-size="14.00">string: Variable</text>
</g>
<!-- 12&#45;&gt;15 -->
<g id="edge14" class="edge">
<title>12&#45;&gt;15</title>
<path fill="none" stroke="black" d="M593.96,-150.73C595.55,-142.25 597.5,-131.83 599.52,-121.07"/>
<polygon fill="black" stroke="black" points="602.95,-121.77 601.35,-111.3 596.07,-120.48 602.95,-121.77"/>
</g>
</g>
</svg>
