<?xml version="1.0" encoding="UTF-8" standalone="no"?>
<!DOCTYPE svg PUBLIC "-//W3C//DTD SVG 1.1//EN"
 "http://www.w3.org/Graphics/SVG/1.1/DTD/svg11.dtd">
<!-- Generated by graphviz version 12.2.0 (20241103.1931)
 -->
<!-- Title: ast_LS Pages: 1 -->
<svg width="1670pt" height="964pt"
 viewBox="0.00 0.00 1669.50 964.00" xmlns="http://www.w3.org/2000/svg" xmlns:xlink="http://www.w3.org/1999/xlink">
<g id="graph0" class="graph" transform="scale(1 1) rotate(0) translate(4 960)">
<title>ast_LS</title>
<polygon fill="white" stroke="none" points="-4,4 -4,-960 1665.5,-960 1665.5,4 -4,4"/>
<!-- 1 -->
<g id="node1" class="node">
<title>1</title>
<polygon fill="none" stroke="black" points="745.88,-956 630.12,-956 630.12,-915 745.88,-915 745.88,-956"/>
<text text-anchor="middle" x="688" y="-938.7" font-family="Times New Roman,serif" font-size="14.00">NONTERMINAL</text>
<text text-anchor="middle" x="688" y="-922.2" font-family="Times New Roman,serif" font-size="14.00">type: Rule</text>
</g>
<!-- 2 -->
<g id="node2" class="node">
<title>2</title>
<polygon fill="none" stroke="black" points="472,-879 385.5,-821.5 472,-764 558.5,-821.5 472,-879"/>
<text text-anchor="middle" x="472" y="-832.95" font-family="Times New Roman,serif" font-size="14.00">TERMINAL</text>
<text text-anchor="middle" x="472" y="-816.45" font-family="Times New Roman,serif" font-size="14.00">type: name</text>
<text text-anchor="middle" x="472" y="-799.95" font-family="Times New Roman,serif" font-size="14.00">string: LS</text>
</g>
<!-- 1&#45;&gt;2 -->
<g id="edge1" class="edge">
<title>1&#45;&gt;2</title>
<path fill="none" stroke="black" d="M642.18,-914.59C619.59,-904.45 592.09,-891.62 568,-879 554.22,-871.78 539.61,-863.51 526.07,-855.58"/>
<polygon fill="black" stroke="black" points="528.11,-852.72 517.72,-850.64 524.55,-858.74 528.11,-852.72"/>
</g>
<!-- 3 -->
<g id="node3" class="node">
<title>3</title>
<ellipse fill="none" stroke="black" cx="626" cy="-821.5" rx="49.5" ry="28.99"/>
<text text-anchor="middle" x="626" y="-824.7" font-family="Times New Roman,serif" font-size="14.00">KEY</text>
<text text-anchor="middle" x="626" y="-808.2" font-family="Times New Roman,serif" font-size="14.00">string: ::=</text>
</g>
<!-- 1&#45;&gt;3 -->
<g id="edge2" class="edge">
<title>1&#45;&gt;3</title>
<path fill="none" stroke="black" d="M677.06,-914.73C668.55,-899.37 656.51,-877.62 646.26,-859.11"/>
<polygon fill="black" stroke="black" points="649.43,-857.59 641.52,-850.54 643.3,-860.98 649.43,-857.59"/>
</g>
<!-- 4 -->
<g id="node4" class="node">
<title>4</title>
<polygon fill="none" stroke="black" points="808.88,-842 693.12,-842 693.12,-801 808.88,-801 808.88,-842"/>
<text text-anchor="middle" x="751" y="-824.7" font-family="Times New Roman,serif" font-size="14.00">NONTERMINAL</text>
<text text-anchor="middle" x="751" y="-808.2" font-family="Times New Roman,serif" font-size="14.00">type: Alternative</text>
</g>
<!-- 1&#45;&gt;4 -->
<g id="edge3" class="edge">
<title>1&#45;&gt;4</title>
<path fill="none" stroke="black" d="M699.12,-914.73C708.82,-897.49 723.04,-872.2 734.14,-852.47"/>
<polygon fill="black" stroke="black" points="737.19,-854.2 739.04,-843.76 731.09,-850.76 737.19,-854.2"/>
</g>
<!-- 5 -->
<g id="node5" class="node">
<title>5</title>
<ellipse fill="none" stroke="black" cx="868" cy="-821.5" rx="41.01" ry="28.99"/>
<text text-anchor="middle" x="868" y="-824.7" font-family="Times New Roman,serif" font-size="14.00">KEY</text>
<text text-anchor="middle" x="868" y="-808.2" font-family="Times New Roman,serif" font-size="14.00">string: ;</text>
</g>
<!-- 1&#45;&gt;5 -->
<g id="edge4" class="edge">
<title>1&#45;&gt;5</title>
<path fill="none" stroke="black" d="M746.23,-915.97C769.76,-906.92 796.41,-894.58 818,-879 826.74,-872.7 835.02,-864.61 842.24,-856.54"/>
<polygon fill="black" stroke="black" points="844.83,-858.91 848.65,-849.02 839.5,-854.36 844.83,-858.91"/>
</g>
<!-- 6 -->
<g id="node6" class="node">
<title>6</title>
<polygon fill="none" stroke="black" points="808.88,-728 693.12,-728 693.12,-687 808.88,-687 808.88,-728"/>
<text text-anchor="middle" x="751" y="-710.7" font-family="Times New Roman,serif" font-size="14.00">NONTERMINAL</text>
<text text-anchor="middle" x="751" y="-694.2" font-family="Times New Roman,serif" font-size="14.00">type: Sequence</text>
</g>
<!-- 4&#45;&gt;6 -->
<g id="edge5" class="edge">
<title>4&#45;&gt;6</title>
<path fill="none" stroke="black" d="M751,-800.73C751,-783.88 751,-759.37 751,-739.84"/>
<polygon fill="black" stroke="black" points="754.5,-739.96 751,-729.96 747.5,-739.96 754.5,-739.96"/>
</g>
<!-- 7 -->
<g id="node7" class="node">
<title>7</title>
<polygon fill="none" stroke="black" points="268,-651 150,-651 150,-610 268,-610 268,-651"/>
<text text-anchor="middle" x="209" y="-633.7" font-family="Times New Roman,serif" font-size="14.00">NONTERMINAL</text>
<text text-anchor="middle" x="209" y="-617.2" font-family="Times New Roman,serif" font-size="14.00">type: RuleElement</text>
</g>
<!-- 6&#45;&gt;7 -->
<g id="edge6" class="edge">
<title>6&#45;&gt;7</title>
<path fill="none" stroke="black" d="M692.74,-698.44C592.39,-684.55 387.35,-656.18 279.26,-641.22"/>
<polygon fill="black" stroke="black" points="280.05,-637.8 269.66,-639.89 279.09,-644.73 280.05,-637.8"/>
</g>
<!-- 8 -->
<g id="node8" class="node">
<title>8</title>
<polygon fill="none" stroke="black" points="481,-651 363,-651 363,-610 481,-610 481,-651"/>
<text text-anchor="middle" x="422" y="-633.7" font-family="Times New Roman,serif" font-size="14.00">NONTERMINAL</text>
<text text-anchor="middle" x="422" y="-617.2" font-family="Times New Roman,serif" font-size="14.00">type: RuleElement</text>
</g>
<!-- 6&#45;&gt;8 -->
<g id="edge7" class="edge">
<title>6&#45;&gt;8</title>
<path fill="none" stroke="black" d="M692.94,-693.26C636.93,-680.5 552.08,-661.15 492.28,-647.52"/>
<polygon fill="black" stroke="black" points="493.43,-644.19 482.9,-645.38 491.87,-651.02 493.43,-644.19"/>
</g>
<!-- 9 -->
<g id="node9" class="node">
<title>9</title>
<polygon fill="none" stroke="black" points="655,-651 537,-651 537,-610 655,-610 655,-651"/>
<text text-anchor="middle" x="596" y="-633.7" font-family="Times New Roman,serif" font-size="14.00">NONTERMINAL</text>
<text text-anchor="middle" x="596" y="-617.2" font-family="Times New Roman,serif" font-size="14.00">type: RuleElement</text>
</g>
<!-- 6&#45;&gt;9 -->
<g id="edge8" class="edge">
<title>6&#45;&gt;9</title>
<path fill="none" stroke="black" d="M709.87,-686.6C690.78,-677.36 667.87,-666.28 647.63,-656.48"/>
<polygon fill="black" stroke="black" points="649.21,-653.36 638.68,-652.15 646.16,-659.66 649.21,-653.36"/>
</g>
<!-- 10 -->
<g id="node10" class="node">
<title>10</title>
<polygon fill="none" stroke="black" points="810,-651 692,-651 692,-610 810,-610 810,-651"/>
<text text-anchor="middle" x="751" y="-633.7" font-family="Times New Roman,serif" font-size="14.00">NONTERMINAL</text>
<text text-anchor="middle" x="751" y="-617.2" font-family="Times New Roman,serif" font-size="14.00">type: RuleElement</text>
</g>
<!-- 6&#45;&gt;10 -->
<g id="edge9" class="edge">
<title>6&#45;&gt;10</title>
<path fill="none" stroke="black" d="M751,-686.79C751,-679.45 751,-670.91 751,-662.78"/>
<polygon fill="black" stroke="black" points="754.5,-662.85 751,-652.85 747.5,-662.85 754.5,-662.85"/>
</g>
<!-- 11 -->
<g id="node11" class="node">
<title>11</title>
<polygon fill="none" stroke="black" points="964,-651 846,-651 846,-610 964,-610 964,-651"/>
<text text-anchor="middle" x="905" y="-633.7" font-family="Times New Roman,serif" font-size="14.00">NONTERMINAL</text>
<text text-anchor="middle" x="905" y="-617.2" font-family="Times New Roman,serif" font-size="14.00">type: RuleElement</text>
</g>
<!-- 6&#45;&gt;11 -->
<g id="edge10" class="edge">
<title>6&#45;&gt;11</title>
<path fill="none" stroke="black" d="M791.86,-686.6C810.84,-677.36 833.59,-666.28 853.7,-656.48"/>
<polygon fill="black" stroke="black" points="855.13,-659.68 862.58,-652.16 852.06,-653.39 855.13,-659.68"/>
</g>
<!-- 12 -->
<g id="node12" class="node">
<title>12</title>
<polygon fill="none" stroke="black" points="1201,-651 1083,-651 1083,-610 1201,-610 1201,-651"/>
<text text-anchor="middle" x="1142" y="-633.7" font-family="Times New Roman,serif" font-size="14.00">NONTERMINAL</text>
<text text-anchor="middle" x="1142" y="-617.2" font-family="Times New Roman,serif" font-size="14.00">type: RuleElement</text>
</g>
<!-- 6&#45;&gt;12 -->
<g id="edge11" class="edge">
<title>6&#45;&gt;12</title>
<path fill="none" stroke="black" d="M809.11,-695.35C879.03,-681.94 996.33,-659.44 1071.39,-645.04"/>
<polygon fill="black" stroke="black" points="1071.96,-648.5 1081.12,-643.18 1070.64,-641.62 1071.96,-648.5"/>
</g>
<!-- 13 -->
<g id="node13" class="node">
<title>13</title>
<polygon fill="none" stroke="black" points="1368,-651 1250,-651 1250,-610 1368,-610 1368,-651"/>
<text text-anchor="middle" x="1309" y="-633.7" font-family="Times New Roman,serif" font-size="14.00">NONTERMINAL</text>
<text text-anchor="middle" x="1309" y="-617.2" font-family="Times New Roman,serif" font-size="14.00">type: RuleElement</text>
</g>
<!-- 6&#45;&gt;13 -->
<g id="edge12" class="edge">
<title>6&#45;&gt;13</title>
<path fill="none" stroke="black" d="M809.16,-700.86C896.47,-692.09 1066.51,-673.77 1210,-651 1219.26,-649.53 1228.98,-647.82 1238.56,-646.04"/>
<polygon fill="black" stroke="black" points="1239.05,-649.51 1248.22,-644.2 1237.75,-642.63 1239.05,-649.51"/>
</g>
<!-- 14 -->
<g id="node14" class="node">
<title>14</title>
<polygon fill="none" stroke="black" points="234.88,-574 119.12,-574 119.12,-533 234.88,-533 234.88,-574"/>
<text text-anchor="middle" x="177" y="-556.7" font-family="Times New Roman,serif" font-size="14.00">NONTERMINAL</text>
<text text-anchor="middle" x="177" y="-540.2" font-family="Times New Roman,serif" font-size="14.00">type: Element</text>
</g>
<!-- 7&#45;&gt;14 -->
<g id="edge13" class="edge">
<title>7&#45;&gt;14</title>
<path fill="none" stroke="black" d="M200.59,-609.79C197.31,-602.1 193.48,-593.11 189.86,-584.65"/>
<polygon fill="black" stroke="black" points="193.2,-583.55 186.06,-575.73 186.76,-586.3 193.2,-583.55"/>
</g>
<!-- 15 -->
<g id="node15" class="node">
<title>15</title>
<polygon fill="none" stroke="black" points="411.88,-574 296.12,-574 296.12,-533 411.88,-533 411.88,-574"/>
<text text-anchor="middle" x="354" y="-556.7" font-family="Times New Roman,serif" font-size="14.00">NONTERMINAL</text>
<text text-anchor="middle" x="354" y="-540.2" font-family="Times New Roman,serif" font-size="14.00">type: Element</text>
</g>
<!-- 8&#45;&gt;15 -->
<g id="edge14" class="edge">
<title>8&#45;&gt;15</title>
<path fill="none" stroke="black" d="M404.13,-609.79C396.62,-601.51 387.74,-591.71 379.55,-582.68"/>
<polygon fill="black" stroke="black" points="382.31,-580.51 373,-575.46 377.12,-585.21 382.31,-580.51"/>
</g>
<!-- 16 -->
<g id="node16" class="node">
<title>16</title>
<polygon fill="none" stroke="black" points="626.88,-574 511.12,-574 511.12,-533 626.88,-533 626.88,-574"/>
<text text-anchor="middle" x="569" y="-556.7" font-family="Times New Roman,serif" font-size="14.00">NONTERMINAL</text>
<text text-anchor="middle" x="569" y="-540.2" font-family="Times New Roman,serif" font-size="14.00">type: Element</text>
</g>
<!-- 9&#45;&gt;16 -->
<g id="edge15" class="edge">
<title>9&#45;&gt;16</title>
<path fill="none" stroke="black" d="M588.91,-609.79C586.17,-602.19 582.97,-593.31 579.95,-584.93"/>
<polygon fill="black" stroke="black" points="583.33,-583.98 576.65,-575.76 576.75,-586.35 583.33,-583.98"/>
</g>
<!-- 17 -->
<g id="node17" class="node">
<title>17</title>
<polygon fill="none" stroke="black" points="808.88,-574 693.12,-574 693.12,-533 808.88,-533 808.88,-574"/>
<text text-anchor="middle" x="751" y="-556.7" font-family="Times New Roman,serif" font-size="14.00">NONTERMINAL</text>
<text text-anchor="middle" x="751" y="-540.2" font-family="Times New Roman,serif" font-size="14.00">type: Element</text>
</g>
<!-- 10&#45;&gt;17 -->
<g id="edge16" class="edge">
<title>10&#45;&gt;17</title>
<path fill="none" stroke="black" d="M751,-609.79C751,-602.45 751,-593.91 751,-585.78"/>
<polygon fill="black" stroke="black" points="754.5,-585.85 751,-575.85 747.5,-585.85 754.5,-585.85"/>
</g>
<!-- 18 -->
<g id="node18" class="node">
<title>18</title>
<polygon fill="none" stroke="black" points="980.88,-574 865.12,-574 865.12,-533 980.88,-533 980.88,-574"/>
<text text-anchor="middle" x="923" y="-556.7" font-family="Times New Roman,serif" font-size="14.00">NONTERMINAL</text>
<text text-anchor="middle" x="923" y="-540.2" font-family="Times New Roman,serif" font-size="14.00">type: Element</text>
</g>
<!-- 11&#45;&gt;18 -->
<g id="edge17" class="edge">
<title>11&#45;&gt;18</title>
<path fill="none" stroke="black" d="M909.73,-609.79C911.51,-602.36 913.59,-593.71 915.56,-585.49"/>
<polygon fill="black" stroke="black" points="918.96,-586.35 917.89,-575.81 912.15,-584.71 918.96,-586.35"/>
</g>
<!-- 19 -->
<g id="node19" class="node">
<title>19</title>
<polygon fill="none" stroke="black" points="1239.88,-574 1124.12,-574 1124.12,-533 1239.88,-533 1239.88,-574"/>
<text text-anchor="middle" x="1182" y="-556.7" font-family="Times New Roman,serif" font-size="14.00">NONTERMINAL</text>
<text text-anchor="middle" x="1182" y="-540.2" font-family="Times New Roman,serif" font-size="14.00">type: Iteration</text>
</g>
<!-- 12&#45;&gt;19 -->
<g id="edge18" class="edge">
<title>12&#45;&gt;19</title>
<path fill="none" stroke="black" d="M1152.51,-609.79C1156.66,-602.02 1161.51,-592.91 1166.07,-584.36"/>
<polygon fill="black" stroke="black" points="1169.09,-586.14 1170.71,-575.67 1162.92,-582.85 1169.09,-586.14"/>
</g>
<!-- 20 -->
<g id="node20" class="node">
<title>20</title>
<polygon fill="none" stroke="black" points="1389.88,-574 1274.12,-574 1274.12,-533 1389.88,-533 1389.88,-574"/>
<text text-anchor="middle" x="1332" y="-556.7" font-family="Times New Roman,serif" font-size="14.00">NONTERMINAL</text>
<text text-anchor="middle" x="1332" y="-540.2" font-family="Times New Roman,serif" font-size="14.00">type: Element</text>
</g>
<!-- 13&#45;&gt;20 -->
<g id="edge19" class="edge">
<title>13&#45;&gt;20</title>
<path fill="none" stroke="black" d="M1315.04,-609.79C1317.35,-602.28 1320.04,-593.51 1322.58,-585.21"/>
<polygon fill="black" stroke="black" points="1325.89,-586.37 1325.47,-575.78 1319.2,-584.32 1325.89,-586.37"/>
</g>
<!-- 21 -->
<g id="node21" class="node">
<title>21</title>
<polygon fill="none" stroke="black" points="103,-497 0,-439.5 103,-382 206,-439.5 103,-497"/>
<text text-anchor="middle" x="103" y="-450.95" font-family="Times New Roman,serif" font-size="14.00">TERMINAL</text>
<text text-anchor="middle" x="103" y="-434.45" font-family="Times New Roman,serif" font-size="14.00">type: key_name</text>
<text text-anchor="middle" x="103" y="-417.95" font-family="Times New Roman,serif" font-size="14.00">string: &#39;FOR&#39;</text>
</g>
<!-- 14&#45;&gt;21 -->
<g id="edge20" class="edge">
<title>14&#45;&gt;21</title>
<path fill="none" stroke="black" d="M163.94,-532.73C156.32,-521.2 146.32,-506.06 136.63,-491.39"/>
<polygon fill="black" stroke="black" points="139.6,-489.54 131.17,-483.13 133.76,-493.4 139.6,-489.54"/>
</g>
<!-- 22 -->
<g id="node22" class="node">
<title>22</title>
<polygon fill="none" stroke="black" points="323,-497 224.5,-439.5 323,-382 421.5,-439.5 323,-497"/>
<text text-anchor="middle" x="323" y="-450.95" font-family="Times New Roman,serif" font-size="14.00">TERMINAL</text>
<text text-anchor="middle" x="323" y="-434.45" font-family="Times New Roman,serif" font-size="14.00">type: name</text>
<text text-anchor="middle" x="323" y="-417.95" font-family="Times New Roman,serif" font-size="14.00">string: Variable</text>
</g>
<!-- 15&#45;&gt;22 -->
<g id="edge21" class="edge">
<title>15&#45;&gt;22</title>
<path fill="none" stroke="black" d="M348.53,-532.73C345.97,-523.5 342.78,-511.97 339.53,-500.22"/>
<polygon fill="black" stroke="black" points="342.99,-499.58 336.94,-490.88 336.24,-501.45 342.99,-499.58"/>
</g>
<!-- 23 -->
<g id="node23" class="node">
<title>23</title>
<polygon fill="none" stroke="black" points="543,-497 440,-439.5 543,-382 646,-439.5 543,-497"/>
<text text-anchor="middle" x="543" y="-450.95" font-family="Times New Roman,serif" font-size="14.00">TERMINAL</text>
<text text-anchor="middle" x="543" y="-434.45" font-family="Times New Roman,serif" font-size="14.00">type: key_name</text>
<text text-anchor="middle" x="543" y="-417.95" font-family="Times New Roman,serif" font-size="14.00">string: &#39;IN&#39;</text>
</g>
<!-- 16&#45;&gt;23 -->
<g id="edge22" class="edge">
<title>16&#45;&gt;23</title>
<path fill="none" stroke="black" d="M564.41,-532.73C562.38,-523.97 559.86,-513.14 557.28,-502.01"/>
<polygon fill="black" stroke="black" points="560.7,-501.28 555.03,-492.33 553.88,-502.86 560.7,-501.28"/>
</g>
<!-- 24 -->
<g id="node24" class="node">
<title>24</title>
<polygon fill="none" stroke="black" points="751,-497 664.5,-439.5 751,-382 837.5,-439.5 751,-497"/>
<text text-anchor="middle" x="751" y="-450.95" font-family="Times New Roman,serif" font-size="14.00">TERMINAL</text>
<text text-anchor="middle" x="751" y="-434.45" font-family="Times New Roman,serif" font-size="14.00">type: name</text>
<text text-anchor="middle" x="751" y="-417.95" font-family="Times New Roman,serif" font-size="14.00">string: Set</text>
</g>
<!-- 17&#45;&gt;24 -->
<g id="edge23" class="edge">
<title>17&#45;&gt;24</title>
<path fill="none" stroke="black" d="M751,-532.73C751,-525.84 751,-517.65 751,-509.05"/>
<polygon fill="black" stroke="black" points="754.5,-509.09 751,-499.09 747.5,-509.09 754.5,-509.09"/>
</g>
<!-- 25 -->
<g id="node25" class="node">
<title>25</title>
<polygon fill="none" stroke="black" points="959,-497 856,-439.5 959,-382 1062,-439.5 959,-497"/>
<text text-anchor="middle" x="959" y="-450.95" font-family="Times New Roman,serif" font-size="14.00">TERMINAL</text>
<text text-anchor="middle" x="959" y="-434.45" font-family="Times New Roman,serif" font-size="14.00">type: key_name</text>
<text text-anchor="middle" x="959" y="-417.95" font-family="Times New Roman,serif" font-size="14.00">string: &#39;DO&#39;</text>
</g>
<!-- 18&#45;&gt;25 -->
<g id="edge24" class="edge">
<title>18&#45;&gt;25</title>
<path fill="none" stroke="black" d="M929.35,-532.73C932.41,-523.21 936.26,-511.25 940.16,-499.11"/>
<polygon fill="black" stroke="black" points="943.39,-500.5 943.12,-489.91 936.73,-498.36 943.39,-500.5"/>
</g>
<!-- 26 -->
<g id="node26" class="node">
<title>26</title>
<ellipse fill="none" stroke="black" cx="1123" cy="-439.5" rx="43.13" ry="28.99"/>
<text text-anchor="middle" x="1123" y="-442.7" font-family="Times New Roman,serif" font-size="14.00">KEY</text>
<text text-anchor="middle" x="1123" y="-426.2" font-family="Times New Roman,serif" font-size="14.00">string: {</text>
</g>
<!-- 19&#45;&gt;26 -->
<g id="edge25" class="edge">
<title>19&#45;&gt;26</title>
<path fill="none" stroke="black" d="M1171.59,-532.73C1163.53,-517.44 1152.14,-495.82 1142.42,-477.36"/>
<polygon fill="black" stroke="black" points="1145.53,-475.77 1137.78,-468.55 1139.34,-479.03 1145.53,-475.77"/>
</g>
<!-- 27 -->
<g id="node27" class="node">
<title>27</title>
<polygon fill="none" stroke="black" points="1299.88,-460 1184.12,-460 1184.12,-419 1299.88,-419 1299.88,-460"/>
<text text-anchor="middle" x="1242" y="-442.7" font-family="Times New Roman,serif" font-size="14.00">NONTERMINAL</text>
<text text-anchor="middle" x="1242" y="-426.2" font-family="Times New Roman,serif" font-size="14.00">type: Alternative</text>
</g>
<!-- 19&#45;&gt;27 -->
<g id="edge26" class="edge">
<title>19&#45;&gt;27</title>
<path fill="none" stroke="black" d="M1192.59,-532.73C1201.83,-515.49 1215.37,-490.2 1225.95,-470.47"/>
<polygon fill="black" stroke="black" points="1228.96,-472.25 1230.6,-461.78 1222.79,-468.94 1228.96,-472.25"/>
</g>
<!-- 28 -->
<g id="node28" class="node">
<title>28</title>
<ellipse fill="none" stroke="black" cx="1361" cy="-439.5" rx="43.13" ry="28.99"/>
<text text-anchor="middle" x="1361" y="-442.7" font-family="Times New Roman,serif" font-size="14.00">KEY</text>
<text text-anchor="middle" x="1361" y="-426.2" font-family="Times New Roman,serif" font-size="14.00">string: }</text>
</g>
<!-- 19&#45;&gt;28 -->
<g id="edge27" class="edge">
<title>19&#45;&gt;28</title>
<path fill="none" stroke="black" d="M1240.32,-532.92C1262.89,-523.87 1288.23,-511.81 1309,-497 1318.02,-490.57 1326.67,-482.35 1334.23,-474.2"/>
<polygon fill="black" stroke="black" points="1336.67,-476.73 1340.69,-466.92 1331.43,-472.08 1336.67,-476.73"/>
</g>
<!-- 29 -->
<g id="node29" class="node">
<title>29</title>
<polygon fill="none" stroke="black" points="1542,-497 1422.5,-439.5 1542,-382 1661.5,-439.5 1542,-497"/>
<text text-anchor="middle" x="1542" y="-450.95" font-family="Times New Roman,serif" font-size="14.00">TERMINAL</text>
<text text-anchor="middle" x="1542" y="-434.45" font-family="Times New Roman,serif" font-size="14.00">type: key_name</text>
<text text-anchor="middle" x="1542" y="-417.95" font-family="Times New Roman,serif" font-size="14.00">string: &#39;END_FOR&#39;</text>
</g>
<!-- 20&#45;&gt;29 -->
<g id="edge28" class="edge">
<title>20&#45;&gt;29</title>
<path fill="none" stroke="black" d="M1369.06,-532.73C1398.66,-516.95 1440.88,-494.43 1476.19,-475.6"/>
<polygon fill="black" stroke="black" points="1477.44,-478.9 1484.62,-471.1 1474.15,-472.72 1477.44,-478.9"/>
</g>
<!-- 30 -->
<g id="node30" class="node">
<title>30</title>
<polygon fill="none" stroke="black" points="1299.88,-346 1184.12,-346 1184.12,-305 1299.88,-305 1299.88,-346"/>
<text text-anchor="middle" x="1242" y="-328.7" font-family="Times New Roman,serif" font-size="14.00">NONTERMINAL</text>
<text text-anchor="middle" x="1242" y="-312.2" font-family="Times New Roman,serif" font-size="14.00">type: Sequence</text>
</g>
<!-- 27&#45;&gt;30 -->
<g id="edge29" class="edge">
<title>27&#45;&gt;30</title>
<path fill="none" stroke="black" d="M1242,-418.73C1242,-401.88 1242,-377.37 1242,-357.84"/>
<polygon fill="black" stroke="black" points="1245.5,-357.96 1242,-347.96 1238.5,-357.96 1245.5,-357.96"/>
</g>
<!-- 31 -->
<g id="node31" class="node">
<title>31</title>
<polygon fill="none" stroke="black" points="1301,-269 1183,-269 1183,-228 1301,-228 1301,-269"/>
<text text-anchor="middle" x="1242" y="-251.7" font-family="Times New Roman,serif" font-size="14.00">NONTERMINAL</text>
<text text-anchor="middle" x="1242" y="-235.2" font-family="Times New Roman,serif" font-size="14.00">type: RuleElement</text>
</g>
<!-- 30&#45;&gt;31 -->
<g id="edge30" class="edge">
<title>30&#45;&gt;31</title>
<path fill="none" stroke="black" d="M1242,-304.79C1242,-297.45 1242,-288.91 1242,-280.78"/>
<polygon fill="black" stroke="black" points="1245.5,-280.85 1242,-270.85 1238.5,-280.85 1245.5,-280.85"/>
</g>
<!-- 32 -->
<g id="node32" class="node">
<title>32</title>
<polygon fill="none" stroke="black" points="1299.88,-192 1184.12,-192 1184.12,-151 1299.88,-151 1299.88,-192"/>
<text text-anchor="middle" x="1242" y="-174.7" font-family="Times New Roman,serif" font-size="14.00">NONTERMINAL</text>
<text text-anchor="middle" x="1242" y="-158.2" font-family="Times New Roman,serif" font-size="14.00">type: Element</text>
</g>
<!-- 31&#45;&gt;32 -->
<g id="edge31" class="edge">
<title>31&#45;&gt;32</title>
<path fill="none" stroke="black" d="M1242,-227.79C1242,-220.45 1242,-211.91 1242,-203.78"/>
<polygon fill="black" stroke="black" points="1245.5,-203.85 1242,-193.85 1238.5,-203.85 1245.5,-203.85"/>
</g>
<!-- 33 -->
<g id="node33" class="node">
<title>33</title>
<polygon fill="none" stroke="black" points="1242,-115 1155.5,-57.5 1242,0 1328.5,-57.5 1242,-115"/>
<text text-anchor="middle" x="1242" y="-68.95" font-family="Times New Roman,serif" font-size="14.00">TERMINAL</text>
<text text-anchor="middle" x="1242" y="-52.45" font-family="Times New Roman,serif" font-size="14.00">type: name</text>
<text text-anchor="middle" x="1242" y="-35.95" font-family="Times New Roman,serif" font-size="14.00">string: Block</text>
</g>
<!-- 32&#45;&gt;33 -->
<g id="edge32" class="edge">
<title>32&#45;&gt;33</title>
<path fill="none" stroke="black" d="M1242,-150.73C1242,-143.84 1242,-135.65 1242,-127.05"/>
<polygon fill="black" stroke="black" points="1245.5,-127.09 1242,-117.09 1238.5,-127.09 1245.5,-127.09"/>
</g>
</g>
</svg>
