<?xml version="1.0" encoding="UTF-8" standalone="no"?>
<!DOCTYPE svg PUBLIC "-//W3C//DTD SVG 1.1//EN"
 "http://www.w3.org/Graphics/SVG/1.1/DTD/svg11.dtd">
<!-- Generated by graphviz version 12.2.0 (20241103.1931)
 -->
<!-- Title: ast_Parameters Pages: 1 -->
<svg width="711pt" height="907pt"
 viewBox="0.00 0.00 711.13 906.98" xmlns="http://www.w3.org/2000/svg" xmlns:xlink="http://www.w3.org/1999/xlink">
<g id="graph0" class="graph" transform="scale(1 1) rotate(0) translate(4 902.98)">
<title>ast_Parameters</title>
<polygon fill="white" stroke="none" points="-4,4 -4,-902.98 707.13,-902.98 707.13,4 -4,4"/>
<!-- 1 -->
<g id="node1" class="node">
<title>1</title>
<polygon fill="none" stroke="black" points="416.88,-898.98 301.12,-898.98 301.12,-857.98 416.88,-857.98 416.88,-898.98"/>
<text text-anchor="middle" x="359" y="-881.68" font-family="Times New Roman,serif" font-size="14.00">NONTERMINAL</text>
<text text-anchor="middle" x="359" y="-865.18" font-family="Times New Roman,serif" font-size="14.00">type: Rule</text>
</g>
<!-- 2 -->
<g id="node2" class="node">
<title>2</title>
<polygon fill="none" stroke="black" points="115,-821.98 0,-764.48 115,-706.98 230,-764.48 115,-821.98"/>
<text text-anchor="middle" x="115" y="-775.93" font-family="Times New Roman,serif" font-size="14.00">TERMINAL</text>
<text text-anchor="middle" x="115" y="-759.43" font-family="Times New Roman,serif" font-size="14.00">type: name</text>
<text text-anchor="middle" x="115" y="-742.93" font-family="Times New Roman,serif" font-size="14.00">string: Parameters</text>
</g>
<!-- 1&#45;&gt;2 -->
<g id="edge1" class="edge">
<title>1&#45;&gt;2</title>
<path fill="none" stroke="black" d="M315.66,-857.59C279.35,-840.92 226.84,-816.82 184.64,-797.45"/>
<polygon fill="black" stroke="black" points="186.35,-794.38 175.8,-793.39 183.43,-800.74 186.35,-794.38"/>
</g>
<!-- 3 -->
<g id="node3" class="node">
<title>3</title>
<ellipse fill="none" stroke="black" cx="297" cy="-764.48" rx="49.5" ry="28.99"/>
<text text-anchor="middle" x="297" y="-767.68" font-family="Times New Roman,serif" font-size="14.00">KEY</text>
<text text-anchor="middle" x="297" y="-751.18" font-family="Times New Roman,serif" font-size="14.00">string: ::=</text>
</g>
<!-- 1&#45;&gt;3 -->
<g id="edge2" class="edge">
<title>1&#45;&gt;3</title>
<path fill="none" stroke="black" d="M348.06,-857.72C339.55,-842.35 327.51,-820.61 317.26,-802.09"/>
<polygon fill="black" stroke="black" points="320.43,-800.57 312.52,-793.52 314.3,-803.96 320.43,-800.57"/>
</g>
<!-- 4 -->
<g id="node4" class="node">
<title>4</title>
<polygon fill="none" stroke="black" points="479.88,-784.98 364.12,-784.98 364.12,-743.98 479.88,-743.98 479.88,-784.98"/>
<text text-anchor="middle" x="422" y="-767.68" font-family="Times New Roman,serif" font-size="14.00">NONTERMINAL</text>
<text text-anchor="middle" x="422" y="-751.18" font-family="Times New Roman,serif" font-size="14.00">type: Alternative</text>
</g>
<!-- 1&#45;&gt;4 -->
<g id="edge3" class="edge">
<title>1&#45;&gt;4</title>
<path fill="none" stroke="black" d="M370.12,-857.72C379.82,-840.47 394.04,-815.19 405.14,-795.45"/>
<polygon fill="black" stroke="black" points="408.19,-797.18 410.04,-786.75 402.09,-793.75 408.19,-797.18"/>
</g>
<!-- 5 -->
<g id="node5" class="node">
<title>5</title>
<ellipse fill="none" stroke="black" cx="539" cy="-764.48" rx="41.01" ry="28.99"/>
<text text-anchor="middle" x="539" y="-767.68" font-family="Times New Roman,serif" font-size="14.00">KEY</text>
<text text-anchor="middle" x="539" y="-751.18" font-family="Times New Roman,serif" font-size="14.00">string: ;</text>
</g>
<!-- 1&#45;&gt;5 -->
<g id="edge4" class="edge">
<title>1&#45;&gt;5</title>
<path fill="none" stroke="black" d="M417.23,-858.95C440.76,-849.9 467.41,-837.56 489,-821.98 497.74,-815.68 506.02,-807.59 513.24,-799.52"/>
<polygon fill="black" stroke="black" points="515.83,-801.89 519.65,-792.01 510.5,-797.35 515.83,-801.89"/>
</g>
<!-- 6 -->
<g id="node6" class="node">
<title>6</title>
<polygon fill="none" stroke="black" points="479.88,-670.98 364.12,-670.98 364.12,-629.98 479.88,-629.98 479.88,-670.98"/>
<text text-anchor="middle" x="422" y="-653.68" font-family="Times New Roman,serif" font-size="14.00">NONTERMINAL</text>
<text text-anchor="middle" x="422" y="-637.18" font-family="Times New Roman,serif" font-size="14.00">type: Sequence</text>
</g>
<!-- 4&#45;&gt;6 -->
<g id="edge5" class="edge">
<title>4&#45;&gt;6</title>
<path fill="none" stroke="black" d="M422,-743.72C422,-726.87 422,-702.35 422,-682.82"/>
<polygon fill="black" stroke="black" points="425.5,-682.94 422,-672.94 418.5,-682.94 425.5,-682.94"/>
</g>
<!-- 7 -->
<g id="node7" class="node">
<title>7</title>
<polygon fill="none" stroke="black" points="481,-593.98 363,-593.98 363,-552.98 481,-552.98 481,-593.98"/>
<text text-anchor="middle" x="422" y="-576.68" font-family="Times New Roman,serif" font-size="14.00">NONTERMINAL</text>
<text text-anchor="middle" x="422" y="-560.18" font-family="Times New Roman,serif" font-size="14.00">type: RuleElement</text>
</g>
<!-- 6&#45;&gt;7 -->
<g id="edge6" class="edge">
<title>6&#45;&gt;7</title>
<path fill="none" stroke="black" d="M422,-629.78C422,-622.43 422,-613.89 422,-605.76"/>
<polygon fill="black" stroke="black" points="425.5,-605.83 422,-595.83 418.5,-605.83 425.5,-605.83"/>
</g>
<!-- 8 -->
<g id="node8" class="node">
<title>8</title>
<polygon fill="none" stroke="black" points="479.88,-516.98 364.12,-516.98 364.12,-475.98 479.88,-475.98 479.88,-516.98"/>
<text text-anchor="middle" x="422" y="-499.68" font-family="Times New Roman,serif" font-size="14.00">NONTERMINAL</text>
<text text-anchor="middle" x="422" y="-483.18" font-family="Times New Roman,serif" font-size="14.00">type: Iteration</text>
</g>
<!-- 7&#45;&gt;8 -->
<g id="edge7" class="edge">
<title>7&#45;&gt;8</title>
<path fill="none" stroke="black" d="M422,-552.78C422,-545.43 422,-536.89 422,-528.76"/>
<polygon fill="black" stroke="black" points="425.5,-528.83 422,-518.83 418.5,-528.83 425.5,-528.83"/>
</g>
<!-- 9 -->
<g id="node9" class="node">
<title>9</title>
<ellipse fill="none" stroke="black" cx="184" cy="-410.99" rx="43.13" ry="28.99"/>
<text text-anchor="middle" x="184" y="-414.19" font-family="Times New Roman,serif" font-size="14.00">KEY</text>
<text text-anchor="middle" x="184" y="-397.69" font-family="Times New Roman,serif" font-size="14.00">string: {</text>
</g>
<!-- 8&#45;&gt;9 -->
<g id="edge8" class="edge">
<title>8&#45;&gt;9</title>
<path fill="none" stroke="black" d="M363.97,-481.43C326.74,-471.63 277.73,-457.23 236,-439.98 232.83,-438.67 229.61,-437.23 226.39,-435.71"/>
<polygon fill="black" stroke="black" points="228.1,-432.65 217.59,-431.33 224.98,-438.92 228.1,-432.65"/>
</g>
<!-- 10 -->
<g id="node10" class="node">
<title>10</title>
<polygon fill="none" stroke="black" points="360.88,-431.49 245.12,-431.49 245.12,-390.49 360.88,-390.49 360.88,-431.49"/>
<text text-anchor="middle" x="303" y="-414.19" font-family="Times New Roman,serif" font-size="14.00">NONTERMINAL</text>
<text text-anchor="middle" x="303" y="-397.69" font-family="Times New Roman,serif" font-size="14.00">type: Alternative</text>
</g>
<!-- 8&#45;&gt;10 -->
<g id="edge9" class="edge">
<title>8&#45;&gt;10</title>
<path fill="none" stroke="black" d="M393.5,-475.48C377.6,-464.33 357.61,-450.31 340.46,-438.27"/>
<polygon fill="black" stroke="black" points="342.71,-435.57 332.51,-432.7 338.69,-441.3 342.71,-435.57"/>
</g>
<!-- 11 -->
<g id="node11" class="node">
<title>11</title>
<ellipse fill="none" stroke="black" cx="422" cy="-410.99" rx="43.13" ry="28.99"/>
<text text-anchor="middle" x="422" y="-414.19" font-family="Times New Roman,serif" font-size="14.00">KEY</text>
<text text-anchor="middle" x="422" y="-397.69" font-family="Times New Roman,serif" font-size="14.00">string: #</text>
</g>
<!-- 8&#45;&gt;11 -->
<g id="edge10" class="edge">
<title>8&#45;&gt;11</title>
<path fill="none" stroke="black" d="M422,-475.7C422,-468.4 422,-459.86 422,-451.44"/>
<polygon fill="black" stroke="black" points="425.5,-451.68 422,-441.68 418.5,-451.68 425.5,-451.68"/>
</g>
<!-- 12 -->
<g id="node12" class="node">
<title>12</title>
<polygon fill="none" stroke="black" points="598.88,-431.49 483.12,-431.49 483.12,-390.49 598.88,-390.49 598.88,-431.49"/>
<text text-anchor="middle" x="541" y="-414.19" font-family="Times New Roman,serif" font-size="14.00">NONTERMINAL</text>
<text text-anchor="middle" x="541" y="-397.69" font-family="Times New Roman,serif" font-size="14.00">type: Alternative</text>
</g>
<!-- 8&#45;&gt;12 -->
<g id="edge11" class="edge">
<title>8&#45;&gt;12</title>
<path fill="none" stroke="black" d="M450.5,-475.48C466.4,-464.33 486.39,-450.31 503.54,-438.27"/>
<polygon fill="black" stroke="black" points="505.31,-441.3 511.49,-432.7 501.29,-435.57 505.31,-441.3"/>
</g>
<!-- 13 -->
<g id="node13" class="node">
<title>13</title>
<ellipse fill="none" stroke="black" cx="660" cy="-410.99" rx="43.13" ry="28.99"/>
<text text-anchor="middle" x="660" y="-414.19" font-family="Times New Roman,serif" font-size="14.00">KEY</text>
<text text-anchor="middle" x="660" y="-397.69" font-family="Times New Roman,serif" font-size="14.00">string: }</text>
</g>
<!-- 8&#45;&gt;13 -->
<g id="edge12" class="edge">
<title>8&#45;&gt;13</title>
<path fill="none" stroke="black" d="M480.03,-481.43C517.26,-471.63 566.27,-457.23 608,-439.98 611.17,-438.67 614.39,-437.23 617.61,-435.71"/>
<polygon fill="black" stroke="black" points="619.02,-438.92 626.41,-431.33 615.9,-432.65 619.02,-438.92"/>
</g>
<!-- 14 -->
<g id="node14" class="node">
<title>14</title>
<polygon fill="none" stroke="black" points="360.88,-346 245.12,-346 245.12,-305 360.88,-305 360.88,-346"/>
<text text-anchor="middle" x="303" y="-328.7" font-family="Times New Roman,serif" font-size="14.00">NONTERMINAL</text>
<text text-anchor="middle" x="303" y="-312.2" font-family="Times New Roman,serif" font-size="14.00">type: Sequence</text>
</g>
<!-- 10&#45;&gt;14 -->
<g id="edge13" class="edge">
<title>10&#45;&gt;14</title>
<path fill="none" stroke="black" d="M303,-390.21C303,-380.5 303,-368.59 303,-357.7"/>
<polygon fill="black" stroke="black" points="306.5,-357.95 303,-347.95 299.5,-357.95 306.5,-357.95"/>
</g>
<!-- 15 -->
<g id="node15" class="node">
<title>15</title>
<polygon fill="none" stroke="black" points="598.88,-346 483.12,-346 483.12,-305 598.88,-305 598.88,-346"/>
<text text-anchor="middle" x="541" y="-328.7" font-family="Times New Roman,serif" font-size="14.00">NONTERMINAL</text>
<text text-anchor="middle" x="541" y="-312.2" font-family="Times New Roman,serif" font-size="14.00">type: Sequence</text>
</g>
<!-- 12&#45;&gt;15 -->
<g id="edge14" class="edge">
<title>12&#45;&gt;15</title>
<path fill="none" stroke="black" d="M541,-390.21C541,-380.5 541,-368.59 541,-357.7"/>
<polygon fill="black" stroke="black" points="544.5,-357.95 541,-347.95 537.5,-357.95 544.5,-357.95"/>
</g>
<!-- 16 -->
<g id="node16" class="node">
<title>16</title>
<polygon fill="none" stroke="black" points="362,-269 244,-269 244,-228 362,-228 362,-269"/>
<text text-anchor="middle" x="303" y="-251.7" font-family="Times New Roman,serif" font-size="14.00">NONTERMINAL</text>
<text text-anchor="middle" x="303" y="-235.2" font-family="Times New Roman,serif" font-size="14.00">type: RuleElement</text>
</g>
<!-- 14&#45;&gt;16 -->
<g id="edge15" class="edge">
<title>14&#45;&gt;16</title>
<path fill="none" stroke="black" d="M303,-304.79C303,-297.45 303,-288.91 303,-280.78"/>
<polygon fill="black" stroke="black" points="306.5,-280.85 303,-270.85 299.5,-280.85 306.5,-280.85"/>
</g>
<!-- 17 -->
<g id="node17" class="node">
<title>17</title>
<polygon fill="none" stroke="black" points="600,-269 482,-269 482,-228 600,-228 600,-269"/>
<text text-anchor="middle" x="541" y="-251.7" font-family="Times New Roman,serif" font-size="14.00">NONTERMINAL</text>
<text text-anchor="middle" x="541" y="-235.2" font-family="Times New Roman,serif" font-size="14.00">type: RuleElement</text>
</g>
<!-- 15&#45;&gt;17 -->
<g id="edge16" class="edge">
<title>15&#45;&gt;17</title>
<path fill="none" stroke="black" d="M541,-304.79C541,-297.45 541,-288.91 541,-280.78"/>
<polygon fill="black" stroke="black" points="544.5,-280.85 541,-270.85 537.5,-280.85 544.5,-280.85"/>
</g>
<!-- 18 -->
<g id="node18" class="node">
<title>18</title>
<polygon fill="none" stroke="black" points="360.88,-192 245.12,-192 245.12,-151 360.88,-151 360.88,-192"/>
<text text-anchor="middle" x="303" y="-174.7" font-family="Times New Roman,serif" font-size="14.00">NONTERMINAL</text>
<text text-anchor="middle" x="303" y="-158.2" font-family="Times New Roman,serif" font-size="14.00">type: Element</text>
</g>
<!-- 16&#45;&gt;18 -->
<g id="edge17" class="edge">
<title>16&#45;&gt;18</title>
<path fill="none" stroke="black" d="M303,-227.79C303,-220.45 303,-211.91 303,-203.78"/>
<polygon fill="black" stroke="black" points="306.5,-203.85 303,-193.85 299.5,-203.85 306.5,-203.85"/>
</g>
<!-- 19 -->
<g id="node19" class="node">
<title>19</title>
<polygon fill="none" stroke="black" points="598.88,-192 483.12,-192 483.12,-151 598.88,-151 598.88,-192"/>
<text text-anchor="middle" x="541" y="-174.7" font-family="Times New Roman,serif" font-size="14.00">NONTERMINAL</text>
<text text-anchor="middle" x="541" y="-158.2" font-family="Times New Roman,serif" font-size="14.00">type: Element</text>
</g>
<!-- 17&#45;&gt;19 -->
<g id="edge18" class="edge">
<title>17&#45;&gt;19</title>
<path fill="none" stroke="black" d="M541,-227.79C541,-220.45 541,-211.91 541,-203.78"/>
<polygon fill="black" stroke="black" points="544.5,-203.85 541,-193.85 537.5,-203.85 544.5,-203.85"/>
</g>
<!-- 20 -->
<g id="node20" class="node">
<title>20</title>
<polygon fill="none" stroke="black" points="303,-115 204.5,-57.5 303,0 401.5,-57.5 303,-115"/>
<text text-anchor="middle" x="303" y="-68.95" font-family="Times New Roman,serif" font-size="14.00">TERMINAL</text>
<text text-anchor="middle" x="303" y="-52.45" font-family="Times New Roman,serif" font-size="14.00">type: name</text>
<text text-anchor="middle" x="303" y="-35.95" font-family="Times New Roman,serif" font-size="14.00">string: Variable</text>
</g>
<!-- 18&#45;&gt;20 -->
<g id="edge19" class="edge">
<title>18&#45;&gt;20</title>
<path fill="none" stroke="black" d="M303,-150.73C303,-143.84 303,-135.65 303,-127.05"/>
<polygon fill="black" stroke="black" points="306.5,-127.09 303,-117.09 299.5,-127.09 306.5,-127.09"/>
</g>
<!-- 21 -->
<g id="node21" class="node">
<title>21</title>
<polygon fill="none" stroke="black" points="541,-115 438,-57.5 541,0 644,-57.5 541,-115"/>
<text text-anchor="middle" x="541" y="-68.95" font-family="Times New Roman,serif" font-size="14.00">TERMINAL</text>
<text text-anchor="middle" x="541" y="-52.45" font-family="Times New Roman,serif" font-size="14.00">type: key_name</text>
<text text-anchor="middle" x="541" y="-35.95" font-family="Times New Roman,serif" font-size="14.00">string: &#39;,&#39;</text>
</g>
<!-- 19&#45;&gt;21 -->
<g id="edge20" class="edge">
<title>19&#45;&gt;21</title>
<path fill="none" stroke="black" d="M541,-150.73C541,-143.67 541,-135.26 541,-126.43"/>
<polygon fill="black" stroke="black" points="544.5,-126.61 541,-116.61 537.5,-126.61 544.5,-126.61"/>
</g>
</g>
</svg>
