<?xml version="1.0" encoding="UTF-8" standalone="no"?>
<!DOCTYPE svg PUBLIC "-//W3C//DTD SVG 1.1//EN"
 "http://www.w3.org/Graphics/SVG/1.1/DTD/svg11.dtd">
<!-- Generated by graphviz version 12.2.0 (20241103.1931)
 -->
<!-- Title: ast_Variable Pages: 1 -->
<svg width="556pt" height="582pt"
 viewBox="0.00 0.00 555.51 582.00" xmlns="http://www.w3.org/2000/svg" xmlns:xlink="http://www.w3.org/1999/xlink">
<g id="graph0" class="graph" transform="scale(1 1) rotate(0) translate(4 578)">
<title>ast_Variable</title>
<polygon fill="white" stroke="none" points="-4,4 -4,-578 551.51,-578 551.51,4 -4,4"/>
<!-- 1 -->
<g id="node1" class="node">
<title>1</title>
<polygon fill="none" stroke="black" points="384.38,-574 268.62,-574 268.62,-533 384.38,-533 384.38,-574"/>
<text text-anchor="middle" x="326.5" y="-556.7" font-family="Times New Roman,serif" font-size="14.00">NONTERMINAL</text>
<text text-anchor="middle" x="326.5" y="-540.2" font-family="Times New Roman,serif" font-size="14.00">type: Rule</text>
</g>
<!-- 2 -->
<g id="node2" class="node">
<title>2</title>
<polygon fill="none" stroke="black" points="98.5,-497 0,-439.5 98.5,-382 197,-439.5 98.5,-497"/>
<text text-anchor="middle" x="98.5" y="-450.95" font-family="Times New Roman,serif" font-size="14.00">TERMINAL</text>
<text text-anchor="middle" x="98.5" y="-434.45" font-family="Times New Roman,serif" font-size="14.00">type: name</text>
<text text-anchor="middle" x="98.5" y="-417.95" font-family="Times New Roman,serif" font-size="14.00">string: Variable</text>
</g>
<!-- 1&#45;&gt;2 -->
<g id="edge1" class="edge">
<title>1&#45;&gt;2</title>
<path fill="none" stroke="black" d="M282.09,-532.58C259.35,-522.23 231.31,-509.22 206.5,-497 191.08,-489.41 174.58,-480.95 159.23,-472.93"/>
<polygon fill="black" stroke="black" points="161.15,-469.99 150.67,-468.45 157.9,-476.19 161.15,-469.99"/>
</g>
<!-- 3 -->
<g id="node3" class="node">
<title>3</title>
<ellipse fill="none" stroke="black" cx="264.5" cy="-439.5" rx="49.5" ry="28.99"/>
<text text-anchor="middle" x="264.5" y="-442.7" font-family="Times New Roman,serif" font-size="14.00">KEY</text>
<text text-anchor="middle" x="264.5" y="-426.2" font-family="Times New Roman,serif" font-size="14.00">string: ::=</text>
</g>
<!-- 1&#45;&gt;3 -->
<g id="edge2" class="edge">
<title>1&#45;&gt;3</title>
<path fill="none" stroke="black" d="M315.56,-532.73C307.05,-517.37 295.01,-495.62 284.76,-477.11"/>
<polygon fill="black" stroke="black" points="287.93,-475.59 280.02,-468.54 281.8,-478.98 287.93,-475.59"/>
</g>
<!-- 4 -->
<g id="node4" class="node">
<title>4</title>
<polygon fill="none" stroke="black" points="447.38,-460 331.62,-460 331.62,-419 447.38,-419 447.38,-460"/>
<text text-anchor="middle" x="389.5" y="-442.7" font-family="Times New Roman,serif" font-size="14.00">NONTERMINAL</text>
<text text-anchor="middle" x="389.5" y="-426.2" font-family="Times New Roman,serif" font-size="14.00">type: Alternative</text>
</g>
<!-- 1&#45;&gt;4 -->
<g id="edge3" class="edge">
<title>1&#45;&gt;4</title>
<path fill="none" stroke="black" d="M337.62,-532.73C347.32,-515.49 361.54,-490.2 372.64,-470.47"/>
<polygon fill="black" stroke="black" points="375.69,-472.2 377.54,-461.76 369.59,-468.76 375.69,-472.2"/>
</g>
<!-- 5 -->
<g id="node5" class="node">
<title>5</title>
<ellipse fill="none" stroke="black" cx="506.5" cy="-439.5" rx="41.01" ry="28.99"/>
<text text-anchor="middle" x="506.5" y="-442.7" font-family="Times New Roman,serif" font-size="14.00">KEY</text>
<text text-anchor="middle" x="506.5" y="-426.2" font-family="Times New Roman,serif" font-size="14.00">string: ;</text>
</g>
<!-- 1&#45;&gt;5 -->
<g id="edge4" class="edge">
<title>1&#45;&gt;5</title>
<path fill="none" stroke="black" d="M384.73,-533.97C408.26,-524.92 434.91,-512.58 456.5,-497 465.24,-490.7 473.52,-482.61 480.74,-474.54"/>
<polygon fill="black" stroke="black" points="483.33,-476.91 487.15,-467.02 478,-472.36 483.33,-476.91"/>
</g>
<!-- 6 -->
<g id="node6" class="node">
<title>6</title>
<polygon fill="none" stroke="black" points="447.38,-346 331.62,-346 331.62,-305 447.38,-305 447.38,-346"/>
<text text-anchor="middle" x="389.5" y="-328.7" font-family="Times New Roman,serif" font-size="14.00">NONTERMINAL</text>
<text text-anchor="middle" x="389.5" y="-312.2" font-family="Times New Roman,serif" font-size="14.00">type: Sequence</text>
</g>
<!-- 4&#45;&gt;6 -->
<g id="edge5" class="edge">
<title>4&#45;&gt;6</title>
<path fill="none" stroke="black" d="M389.5,-418.73C389.5,-401.88 389.5,-377.37 389.5,-357.84"/>
<polygon fill="black" stroke="black" points="393,-357.96 389.5,-347.96 386,-357.96 393,-357.96"/>
</g>
<!-- 7 -->
<g id="node7" class="node">
<title>7</title>
<polygon fill="none" stroke="black" points="448.5,-269 330.5,-269 330.5,-228 448.5,-228 448.5,-269"/>
<text text-anchor="middle" x="389.5" y="-251.7" font-family="Times New Roman,serif" font-size="14.00">NONTERMINAL</text>
<text text-anchor="middle" x="389.5" y="-235.2" font-family="Times New Roman,serif" font-size="14.00">type: RuleElement</text>
</g>
<!-- 6&#45;&gt;7 -->
<g id="edge6" class="edge">
<title>6&#45;&gt;7</title>
<path fill="none" stroke="black" d="M389.5,-304.79C389.5,-297.45 389.5,-288.91 389.5,-280.78"/>
<polygon fill="black" stroke="black" points="393,-280.85 389.5,-270.85 386,-280.85 393,-280.85"/>
</g>
<!-- 8 -->
<g id="node8" class="node">
<title>8</title>
<polygon fill="none" stroke="black" points="447.38,-192 331.62,-192 331.62,-151 447.38,-151 447.38,-192"/>
<text text-anchor="middle" x="389.5" y="-174.7" font-family="Times New Roman,serif" font-size="14.00">NONTERMINAL</text>
<text text-anchor="middle" x="389.5" y="-158.2" font-family="Times New Roman,serif" font-size="14.00">type: Element</text>
</g>
<!-- 7&#45;&gt;8 -->
<g id="edge7" class="edge">
<title>7&#45;&gt;8</title>
<path fill="none" stroke="black" d="M389.5,-227.79C389.5,-220.45 389.5,-211.91 389.5,-203.78"/>
<polygon fill="black" stroke="black" points="393,-203.85 389.5,-193.85 386,-203.85 393,-203.85"/>
</g>
<!-- 9 -->
<g id="node9" class="node">
<title>9</title>
<polygon fill="none" stroke="black" points="389.5,-115 285,-57.5 389.5,0 494,-57.5 389.5,-115"/>
<text text-anchor="middle" x="389.5" y="-68.95" font-family="Times New Roman,serif" font-size="14.00">TERMINAL</text>
<text text-anchor="middle" x="389.5" y="-52.45" font-family="Times New Roman,serif" font-size="14.00">type: name</text>
<text text-anchor="middle" x="389.5" y="-35.95" font-family="Times New Roman,serif" font-size="14.00">string: Identifier</text>
</g>
<!-- 8&#45;&gt;9 -->
<g id="edge8" class="edge">
<title>8&#45;&gt;9</title>
<path fill="none" stroke="black" d="M389.5,-150.73C389.5,-143.67 389.5,-135.26 389.5,-126.43"/>
<polygon fill="black" stroke="black" points="393,-126.61 389.5,-116.61 386,-126.61 393,-126.61"/>
</g>
</g>
</svg>
