<?xml version="1.0" encoding="UTF-8" standalone="no"?>
<!DOCTYPE svg PUBLIC "-//W3C//DTD SVG 1.1//EN"
 "http://www.w3.org/Graphics/SVG/1.1/DTD/svg11.dtd">
<!-- Generated by graphviz version 12.2.0 (20241103.1931)
 -->
<!-- Title: ast_Optional Pages: 1 -->
<svg width="742pt" height="582pt"
 viewBox="0.00 0.00 741.50 582.00" xmlns="http://www.w3.org/2000/svg" xmlns:xlink="http://www.w3.org/1999/xlink">
<g id="graph0" class="graph" transform="scale(1 1) rotate(0) translate(4 578)">
<title>ast_Optional</title>
<polygon fill="white" stroke="none" points="-4,4 -4,-578 737.5,-578 737.5,4 -4,4"/>
<!-- 1 -->
<g id="node1" class="node">
<title>1</title>
<polygon fill="none" stroke="black" points="390.38,-574 274.62,-574 274.62,-533 390.38,-533 390.38,-574"/>
<text text-anchor="middle" x="332.5" y="-556.7" font-family="Times New Roman,serif" font-size="14.00">NONTERMINAL</text>
<text text-anchor="middle" x="332.5" y="-540.2" font-family="Times New Roman,serif" font-size="14.00">type: Rule</text>
</g>
<!-- 2 -->
<g id="node2" class="node">
<title>2</title>
<polygon fill="none" stroke="black" points="101.5,-497 0,-439.5 101.5,-382 203,-439.5 101.5,-497"/>
<text text-anchor="middle" x="101.5" y="-450.95" font-family="Times New Roman,serif" font-size="14.00">TERMINAL</text>
<text text-anchor="middle" x="101.5" y="-434.45" font-family="Times New Roman,serif" font-size="14.00">type: name</text>
<text text-anchor="middle" x="101.5" y="-417.95" font-family="Times New Roman,serif" font-size="14.00">string: Optional</text>
</g>
<!-- 1&#45;&gt;2 -->
<g id="edge1" class="edge">
<title>1&#45;&gt;2</title>
<path fill="none" stroke="black" d="M288.43,-532.6C265.66,-522.19 237.48,-509.13 212.5,-497 196.78,-489.37 179.93,-480.93 164.22,-472.94"/>
<polygon fill="black" stroke="black" points="165.94,-469.89 155.44,-468.47 162.76,-476.13 165.94,-469.89"/>
</g>
<!-- 3 -->
<g id="node3" class="node">
<title>3</title>
<ellipse fill="none" stroke="black" cx="270.5" cy="-439.5" rx="49.5" ry="28.99"/>
<text text-anchor="middle" x="270.5" y="-442.7" font-family="Times New Roman,serif" font-size="14.00">KEY</text>
<text text-anchor="middle" x="270.5" y="-426.2" font-family="Times New Roman,serif" font-size="14.00">string: ::=</text>
</g>
<!-- 1&#45;&gt;3 -->
<g id="edge2" class="edge">
<title>1&#45;&gt;3</title>
<path fill="none" stroke="black" d="M321.56,-532.73C313.05,-517.37 301.01,-495.62 290.76,-477.11"/>
<polygon fill="black" stroke="black" points="293.93,-475.59 286.02,-468.54 287.8,-478.98 293.93,-475.59"/>
</g>
<!-- 4 -->
<g id="node4" class="node">
<title>4</title>
<polygon fill="none" stroke="black" points="453.38,-460 337.62,-460 337.62,-419 453.38,-419 453.38,-460"/>
<text text-anchor="middle" x="395.5" y="-442.7" font-family="Times New Roman,serif" font-size="14.00">NONTERMINAL</text>
<text text-anchor="middle" x="395.5" y="-426.2" font-family="Times New Roman,serif" font-size="14.00">type: Alternative</text>
</g>
<!-- 1&#45;&gt;4 -->
<g id="edge3" class="edge">
<title>1&#45;&gt;4</title>
<path fill="none" stroke="black" d="M343.62,-532.73C353.32,-515.49 367.54,-490.2 378.64,-470.47"/>
<polygon fill="black" stroke="black" points="381.69,-472.2 383.54,-461.76 375.59,-468.76 381.69,-472.2"/>
</g>
<!-- 5 -->
<g id="node5" class="node">
<title>5</title>
<ellipse fill="none" stroke="black" cx="512.5" cy="-439.5" rx="41.01" ry="28.99"/>
<text text-anchor="middle" x="512.5" y="-442.7" font-family="Times New Roman,serif" font-size="14.00">KEY</text>
<text text-anchor="middle" x="512.5" y="-426.2" font-family="Times New Roman,serif" font-size="14.00">string: ;</text>
</g>
<!-- 1&#45;&gt;5 -->
<g id="edge4" class="edge">
<title>1&#45;&gt;5</title>
<path fill="none" stroke="black" d="M390.73,-533.97C414.26,-524.92 440.91,-512.58 462.5,-497 471.24,-490.7 479.52,-482.61 486.74,-474.54"/>
<polygon fill="black" stroke="black" points="489.33,-476.91 493.15,-467.02 484,-472.36 489.33,-476.91"/>
</g>
<!-- 6 -->
<g id="node6" class="node">
<title>6</title>
<polygon fill="none" stroke="black" points="453.38,-346 337.62,-346 337.62,-305 453.38,-305 453.38,-346"/>
<text text-anchor="middle" x="395.5" y="-328.7" font-family="Times New Roman,serif" font-size="14.00">NONTERMINAL</text>
<text text-anchor="middle" x="395.5" y="-312.2" font-family="Times New Roman,serif" font-size="14.00">type: Sequence</text>
</g>
<!-- 4&#45;&gt;6 -->
<g id="edge5" class="edge">
<title>4&#45;&gt;6</title>
<path fill="none" stroke="black" d="M395.5,-418.73C395.5,-401.88 395.5,-377.37 395.5,-357.84"/>
<polygon fill="black" stroke="black" points="399,-357.96 395.5,-347.96 392,-357.96 399,-357.96"/>
</g>
<!-- 7 -->
<g id="node7" class="node">
<title>7</title>
<polygon fill="none" stroke="black" points="293.5,-269 175.5,-269 175.5,-228 293.5,-228 293.5,-269"/>
<text text-anchor="middle" x="234.5" y="-251.7" font-family="Times New Roman,serif" font-size="14.00">NONTERMINAL</text>
<text text-anchor="middle" x="234.5" y="-235.2" font-family="Times New Roman,serif" font-size="14.00">type: RuleElement</text>
</g>
<!-- 6&#45;&gt;7 -->
<g id="edge6" class="edge">
<title>6&#45;&gt;7</title>
<path fill="none" stroke="black" d="M352.78,-304.6C332.85,-295.32 308.94,-284.18 287.84,-274.35"/>
<polygon fill="black" stroke="black" points="289.34,-271.18 278.79,-270.13 286.38,-277.53 289.34,-271.18"/>
</g>
<!-- 8 -->
<g id="node8" class="node">
<title>8</title>
<polygon fill="none" stroke="black" points="454.5,-269 336.5,-269 336.5,-228 454.5,-228 454.5,-269"/>
<text text-anchor="middle" x="395.5" y="-251.7" font-family="Times New Roman,serif" font-size="14.00">NONTERMINAL</text>
<text text-anchor="middle" x="395.5" y="-235.2" font-family="Times New Roman,serif" font-size="14.00">type: RuleElement</text>
</g>
<!-- 6&#45;&gt;8 -->
<g id="edge7" class="edge">
<title>6&#45;&gt;8</title>
<path fill="none" stroke="black" d="M395.5,-304.79C395.5,-297.45 395.5,-288.91 395.5,-280.78"/>
<polygon fill="black" stroke="black" points="399,-280.85 395.5,-270.85 392,-280.85 399,-280.85"/>
</g>
<!-- 9 -->
<g id="node9" class="node">
<title>9</title>
<polygon fill="none" stroke="black" points="639.5,-269 521.5,-269 521.5,-228 639.5,-228 639.5,-269"/>
<text text-anchor="middle" x="580.5" y="-251.7" font-family="Times New Roman,serif" font-size="14.00">NONTERMINAL</text>
<text text-anchor="middle" x="580.5" y="-235.2" font-family="Times New Roman,serif" font-size="14.00">type: RuleElement</text>
</g>
<!-- 6&#45;&gt;9 -->
<g id="edge8" class="edge">
<title>6&#45;&gt;9</title>
<path fill="none" stroke="black" d="M444.59,-304.6C467.9,-295.15 495.97,-283.77 520.53,-273.81"/>
<polygon fill="black" stroke="black" points="521.82,-277.06 529.78,-270.06 519.19,-270.58 521.82,-277.06"/>
</g>
<!-- 10 -->
<g id="node10" class="node">
<title>10</title>
<polygon fill="none" stroke="black" points="243.38,-192 127.62,-192 127.62,-151 243.38,-151 243.38,-192"/>
<text text-anchor="middle" x="185.5" y="-174.7" font-family="Times New Roman,serif" font-size="14.00">NONTERMINAL</text>
<text text-anchor="middle" x="185.5" y="-158.2" font-family="Times New Roman,serif" font-size="14.00">type: Element</text>
</g>
<!-- 7&#45;&gt;10 -->
<g id="edge9" class="edge">
<title>7&#45;&gt;10</title>
<path fill="none" stroke="black" d="M221.63,-227.79C216.43,-219.85 210.34,-210.51 204.64,-201.8"/>
<polygon fill="black" stroke="black" points="207.69,-200.06 199.29,-193.6 201.83,-203.89 207.69,-200.06"/>
</g>
<!-- 11 -->
<g id="node11" class="node">
<title>11</title>
<polygon fill="none" stroke="black" points="453.38,-192 337.62,-192 337.62,-151 453.38,-151 453.38,-192"/>
<text text-anchor="middle" x="395.5" y="-174.7" font-family="Times New Roman,serif" font-size="14.00">NONTERMINAL</text>
<text text-anchor="middle" x="395.5" y="-158.2" font-family="Times New Roman,serif" font-size="14.00">type: Element</text>
</g>
<!-- 8&#45;&gt;11 -->
<g id="edge10" class="edge">
<title>8&#45;&gt;11</title>
<path fill="none" stroke="black" d="M395.5,-227.79C395.5,-220.45 395.5,-211.91 395.5,-203.78"/>
<polygon fill="black" stroke="black" points="399,-203.85 395.5,-193.85 392,-203.85 399,-203.85"/>
</g>
<!-- 12 -->
<g id="node12" class="node">
<title>12</title>
<polygon fill="none" stroke="black" points="663.38,-192 547.62,-192 547.62,-151 663.38,-151 663.38,-192"/>
<text text-anchor="middle" x="605.5" y="-174.7" font-family="Times New Roman,serif" font-size="14.00">NONTERMINAL</text>
<text text-anchor="middle" x="605.5" y="-158.2" font-family="Times New Roman,serif" font-size="14.00">type: Element</text>
</g>
<!-- 9&#45;&gt;12 -->
<g id="edge11" class="edge">
<title>9&#45;&gt;12</title>
<path fill="none" stroke="black" d="M587.07,-227.79C589.57,-220.28 592.5,-211.51 595.26,-203.21"/>
<polygon fill="black" stroke="black" points="598.57,-204.36 598.41,-193.77 591.93,-202.15 598.57,-204.36"/>
</g>
<!-- 13 -->
<g id="node13" class="node">
<title>13</title>
<polygon fill="none" stroke="black" points="160.5,-115 57.5,-57.5 160.5,0 263.5,-57.5 160.5,-115"/>
<text text-anchor="middle" x="160.5" y="-68.95" font-family="Times New Roman,serif" font-size="14.00">TERMINAL</text>
<text text-anchor="middle" x="160.5" y="-52.45" font-family="Times New Roman,serif" font-size="14.00">type: key_name</text>
<text text-anchor="middle" x="160.5" y="-35.95" font-family="Times New Roman,serif" font-size="14.00">string: &#39;[&#39;</text>
</g>
<!-- 10&#45;&gt;13 -->
<g id="edge12" class="edge">
<title>10&#45;&gt;13</title>
<path fill="none" stroke="black" d="M181.09,-150.73C179.13,-141.97 176.71,-131.14 174.23,-120.01"/>
<polygon fill="black" stroke="black" points="177.66,-119.33 172.07,-110.33 170.83,-120.85 177.66,-119.33"/>
</g>
<!-- 14 -->
<g id="node14" class="node">
<title>14</title>
<polygon fill="none" stroke="black" points="395.5,-115 281.25,-57.5 395.5,0 509.75,-57.5 395.5,-115"/>
<text text-anchor="middle" x="395.5" y="-68.95" font-family="Times New Roman,serif" font-size="14.00">TERMINAL</text>
<text text-anchor="middle" x="395.5" y="-52.45" font-family="Times New Roman,serif" font-size="14.00">type: name</text>
<text text-anchor="middle" x="395.5" y="-35.95" font-family="Times New Roman,serif" font-size="14.00">string: Alternative</text>
</g>
<!-- 11&#45;&gt;14 -->
<g id="edge13" class="edge">
<title>11&#45;&gt;14</title>
<path fill="none" stroke="black" d="M395.5,-150.73C395.5,-143.67 395.5,-135.26 395.5,-126.43"/>
<polygon fill="black" stroke="black" points="399,-126.61 395.5,-116.61 392,-126.61 399,-126.61"/>
</g>
<!-- 15 -->
<g id="node15" class="node">
<title>15</title>
<polygon fill="none" stroke="black" points="630.5,-115 527.5,-57.5 630.5,0 733.5,-57.5 630.5,-115"/>
<text text-anchor="middle" x="630.5" y="-68.95" font-family="Times New Roman,serif" font-size="14.00">TERMINAL</text>
<text text-anchor="middle" x="630.5" y="-52.45" font-family="Times New Roman,serif" font-size="14.00">type: key_name</text>
<text text-anchor="middle" x="630.5" y="-35.95" font-family="Times New Roman,serif" font-size="14.00">string: &#39;]&#39;</text>
</g>
<!-- 12&#45;&gt;15 -->
<g id="edge14" class="edge">
<title>12&#45;&gt;15</title>
<path fill="none" stroke="black" d="M609.91,-150.73C611.87,-141.97 614.29,-131.14 616.77,-120.01"/>
<polygon fill="black" stroke="black" points="620.17,-120.85 618.93,-110.33 613.34,-119.33 620.17,-120.85"/>
</g>
</g>
</svg>
