<?xml version="1.0" encoding="UTF-8" standalone="no"?>
<!DOCTYPE svg PUBLIC "-//W3C//DTD SVG 1.1//EN"
 "http://www.w3.org/Graphics/SVG/1.1/DTD/svg11.dtd">
<!-- Generated by graphviz version 12.2.0 (20241103.1931)
 -->
<!-- Title: ast_Loop Pages: 1 -->
<svg width="877pt" height="599pt"
 viewBox="0.00 0.00 877.00 598.98" xmlns="http://www.w3.org/2000/svg" xmlns:xlink="http://www.w3.org/1999/xlink">
<g id="graph0" class="graph" transform="scale(1 1) rotate(0) translate(4 594.98)">
<title>ast_Loop</title>
<polygon fill="white" stroke="none" points="-4,4 -4,-594.98 873,-594.98 873,4 -4,4"/>
<!-- 1 -->
<g id="node1" class="node">
<title>1</title>
<polygon fill="none" stroke="black" points="429.38,-590.98 313.62,-590.98 313.62,-549.98 429.38,-549.98 429.38,-590.98"/>
<text text-anchor="middle" x="371.5" y="-573.68" font-family="Times New Roman,serif" font-size="14.00">NONTERMINAL</text>
<text text-anchor="middle" x="371.5" y="-557.18" font-family="Times New Roman,serif" font-size="14.00">type: Rule</text>
</g>
<!-- 2 -->
<g id="node2" class="node">
<title>2</title>
<polygon fill="none" stroke="black" points="155.5,-513.98 69,-456.48 155.5,-398.98 242,-456.48 155.5,-513.98"/>
<text text-anchor="middle" x="155.5" y="-467.93" font-family="Times New Roman,serif" font-size="14.00">TERMINAL</text>
<text text-anchor="middle" x="155.5" y="-451.43" font-family="Times New Roman,serif" font-size="14.00">type: name</text>
<text text-anchor="middle" x="155.5" y="-434.93" font-family="Times New Roman,serif" font-size="14.00">string: Loop</text>
</g>
<!-- 1&#45;&gt;2 -->
<g id="edge1" class="edge">
<title>1&#45;&gt;2</title>
<path fill="none" stroke="black" d="M325.68,-549.57C303.09,-539.43 275.59,-526.61 251.5,-513.98 237.72,-506.76 223.11,-498.5 209.57,-490.56"/>
<polygon fill="black" stroke="black" points="211.61,-487.7 201.22,-485.63 208.05,-493.73 211.61,-487.7"/>
</g>
<!-- 3 -->
<g id="node3" class="node">
<title>3</title>
<ellipse fill="none" stroke="black" cx="309.5" cy="-456.48" rx="49.5" ry="28.99"/>
<text text-anchor="middle" x="309.5" y="-459.68" font-family="Times New Roman,serif" font-size="14.00">KEY</text>
<text text-anchor="middle" x="309.5" y="-443.18" font-family="Times New Roman,serif" font-size="14.00">string: ::=</text>
</g>
<!-- 1&#45;&gt;3 -->
<g id="edge2" class="edge">
<title>1&#45;&gt;3</title>
<path fill="none" stroke="black" d="M360.56,-549.72C352.05,-534.35 340.01,-512.61 329.76,-494.09"/>
<polygon fill="black" stroke="black" points="332.93,-492.57 325.02,-485.52 326.8,-495.96 332.93,-492.57"/>
</g>
<!-- 4 -->
<g id="node4" class="node">
<title>4</title>
<polygon fill="none" stroke="black" points="492.38,-476.98 376.62,-476.98 376.62,-435.98 492.38,-435.98 492.38,-476.98"/>
<text text-anchor="middle" x="434.5" y="-459.68" font-family="Times New Roman,serif" font-size="14.00">NONTERMINAL</text>
<text text-anchor="middle" x="434.5" y="-443.18" font-family="Times New Roman,serif" font-size="14.00">type: Alternative</text>
</g>
<!-- 1&#45;&gt;4 -->
<g id="edge3" class="edge">
<title>1&#45;&gt;4</title>
<path fill="none" stroke="black" d="M382.62,-549.72C392.32,-532.47 406.54,-507.19 417.64,-487.45"/>
<polygon fill="black" stroke="black" points="420.69,-489.18 422.54,-478.75 414.59,-485.75 420.69,-489.18"/>
</g>
<!-- 5 -->
<g id="node5" class="node">
<title>5</title>
<ellipse fill="none" stroke="black" cx="551.5" cy="-456.48" rx="41.01" ry="28.99"/>
<text text-anchor="middle" x="551.5" y="-459.68" font-family="Times New Roman,serif" font-size="14.00">KEY</text>
<text text-anchor="middle" x="551.5" y="-443.18" font-family="Times New Roman,serif" font-size="14.00">string: ;</text>
</g>
<!-- 1&#45;&gt;5 -->
<g id="edge4" class="edge">
<title>1&#45;&gt;5</title>
<path fill="none" stroke="black" d="M429.73,-550.95C453.26,-541.9 479.91,-529.56 501.5,-513.98 510.24,-507.68 518.52,-499.59 525.74,-491.52"/>
<polygon fill="black" stroke="black" points="528.33,-493.89 532.15,-484.01 523,-489.35 528.33,-493.89"/>
</g>
<!-- 6 -->
<g id="node6" class="node">
<title>6</title>
<polygon fill="none" stroke="black" points="144.38,-354.49 28.62,-354.49 28.62,-313.49 144.38,-313.49 144.38,-354.49"/>
<text text-anchor="middle" x="86.5" y="-337.19" font-family="Times New Roman,serif" font-size="14.00">NONTERMINAL</text>
<text text-anchor="middle" x="86.5" y="-320.69" font-family="Times New Roman,serif" font-size="14.00">type: Sequence</text>
</g>
<!-- 4&#45;&gt;6 -->
<g id="edge5" class="edge">
<title>4&#45;&gt;6</title>
<path fill="none" stroke="black" d="M416.51,-435.61C404.01,-423.08 386.28,-407.68 367.5,-398.98 279.98,-358.46 246.16,-389.75 153.5,-362.98 149.33,-361.78 145.06,-360.39 140.81,-358.89"/>
<polygon fill="black" stroke="black" points="142.32,-355.72 131.73,-355.5 139.88,-362.28 142.32,-355.72"/>
</g>
<!-- 7 -->
<g id="node7" class="node">
<title>7</title>
<ellipse fill="none" stroke="black" cx="202.5" cy="-333.99" rx="40.48" ry="28.99"/>
<text text-anchor="middle" x="202.5" y="-337.19" font-family="Times New Roman,serif" font-size="14.00">KEY</text>
<text text-anchor="middle" x="202.5" y="-320.69" font-family="Times New Roman,serif" font-size="14.00">string: |</text>
</g>
<!-- 4&#45;&gt;7 -->
<g id="edge6" class="edge">
<title>4&#45;&gt;7</title>
<path fill="none" stroke="black" d="M415.26,-435.62C402.64,-423.57 385.25,-408.7 367.5,-398.98 320.15,-373.07 301.01,-384.5 251.5,-362.98 248.69,-361.76 245.84,-360.42 242.99,-359.01"/>
<polygon fill="black" stroke="black" points="244.64,-355.92 234.16,-354.37 241.38,-362.12 244.64,-355.92"/>
</g>
<!-- 8 -->
<g id="node8" class="node">
<title>8</title>
<polygon fill="none" stroke="black" points="376.38,-354.49 260.62,-354.49 260.62,-313.49 376.38,-313.49 376.38,-354.49"/>
<text text-anchor="middle" x="318.5" y="-337.19" font-family="Times New Roman,serif" font-size="14.00">NONTERMINAL</text>
<text text-anchor="middle" x="318.5" y="-320.69" font-family="Times New Roman,serif" font-size="14.00">type: Sequence</text>
</g>
<!-- 4&#45;&gt;8 -->
<g id="edge7" class="edge">
<title>4&#45;&gt;8</title>
<path fill="none" stroke="black" d="M415.34,-435.59C396.29,-415.79 366.87,-385.24 345.46,-363"/>
<polygon fill="black" stroke="black" points="348.19,-360.78 338.73,-356.01 343.15,-365.64 348.19,-360.78"/>
</g>
<!-- 9 -->
<g id="node9" class="node">
<title>9</title>
<ellipse fill="none" stroke="black" cx="434.5" cy="-333.99" rx="40.48" ry="28.99"/>
<text text-anchor="middle" x="434.5" y="-337.19" font-family="Times New Roman,serif" font-size="14.00">KEY</text>
<text text-anchor="middle" x="434.5" y="-320.69" font-family="Times New Roman,serif" font-size="14.00">string: |</text>
</g>
<!-- 4&#45;&gt;9 -->
<g id="edge8" class="edge">
<title>4&#45;&gt;9</title>
<path fill="none" stroke="black" d="M434.5,-435.59C434.5,-418.97 434.5,-394.77 434.5,-374.28"/>
<polygon fill="black" stroke="black" points="438,-374.55 434.5,-364.55 431,-374.55 438,-374.55"/>
</g>
<!-- 10 -->
<g id="node10" class="node">
<title>10</title>
<polygon fill="none" stroke="black" points="608.38,-354.49 492.62,-354.49 492.62,-313.49 608.38,-313.49 608.38,-354.49"/>
<text text-anchor="middle" x="550.5" y="-337.19" font-family="Times New Roman,serif" font-size="14.00">NONTERMINAL</text>
<text text-anchor="middle" x="550.5" y="-320.69" font-family="Times New Roman,serif" font-size="14.00">type: Sequence</text>
</g>
<!-- 4&#45;&gt;10 -->
<g id="edge9" class="edge">
<title>4&#45;&gt;10</title>
<path fill="none" stroke="black" d="M453.66,-435.59C472.71,-415.79 502.13,-385.24 523.54,-363"/>
<polygon fill="black" stroke="black" points="525.85,-365.64 530.27,-356.01 520.81,-360.78 525.85,-365.64"/>
</g>
<!-- 11 -->
<g id="node11" class="node">
<title>11</title>
<ellipse fill="none" stroke="black" cx="666.5" cy="-333.99" rx="40.48" ry="28.99"/>
<text text-anchor="middle" x="666.5" y="-337.19" font-family="Times New Roman,serif" font-size="14.00">KEY</text>
<text text-anchor="middle" x="666.5" y="-320.69" font-family="Times New Roman,serif" font-size="14.00">string: |</text>
</g>
<!-- 4&#45;&gt;11 -->
<g id="edge10" class="edge">
<title>4&#45;&gt;11</title>
<path fill="none" stroke="black" d="M453.74,-435.62C466.36,-423.57 483.75,-408.7 501.5,-398.98 548.85,-373.07 567.99,-384.5 617.5,-362.98 620.31,-361.76 623.16,-360.42 626.01,-359.01"/>
<polygon fill="black" stroke="black" points="627.62,-362.12 634.84,-354.37 624.36,-355.92 627.62,-362.12"/>
</g>
<!-- 12 -->
<g id="node12" class="node">
<title>12</title>
<polygon fill="none" stroke="black" points="840.38,-354.49 724.62,-354.49 724.62,-313.49 840.38,-313.49 840.38,-354.49"/>
<text text-anchor="middle" x="782.5" y="-337.19" font-family="Times New Roman,serif" font-size="14.00">NONTERMINAL</text>
<text text-anchor="middle" x="782.5" y="-320.69" font-family="Times New Roman,serif" font-size="14.00">type: Sequence</text>
</g>
<!-- 4&#45;&gt;12 -->
<g id="edge11" class="edge">
<title>4&#45;&gt;12</title>
<path fill="none" stroke="black" d="M452.49,-435.61C464.99,-423.08 482.72,-407.68 501.5,-398.98 589.02,-358.46 622.84,-389.75 715.5,-362.98 719.67,-361.78 723.94,-360.39 728.19,-358.89"/>
<polygon fill="black" stroke="black" points="729.12,-362.28 737.27,-355.5 726.68,-355.72 729.12,-362.28"/>
</g>
<!-- 13 -->
<g id="node13" class="node">
<title>13</title>
<polygon fill="none" stroke="black" points="145.5,-269 27.5,-269 27.5,-228 145.5,-228 145.5,-269"/>
<text text-anchor="middle" x="86.5" y="-251.7" font-family="Times New Roman,serif" font-size="14.00">NONTERMINAL</text>
<text text-anchor="middle" x="86.5" y="-235.2" font-family="Times New Roman,serif" font-size="14.00">type: RuleElement</text>
</g>
<!-- 6&#45;&gt;13 -->
<g id="edge12" class="edge">
<title>6&#45;&gt;13</title>
<path fill="none" stroke="black" d="M86.5,-313.21C86.5,-303.5 86.5,-291.59 86.5,-280.7"/>
<polygon fill="black" stroke="black" points="90,-280.95 86.5,-270.95 83,-280.95 90,-280.95"/>
</g>
<!-- 14 -->
<g id="node14" class="node">
<title>14</title>
<polygon fill="none" stroke="black" points="377.5,-269 259.5,-269 259.5,-228 377.5,-228 377.5,-269"/>
<text text-anchor="middle" x="318.5" y="-251.7" font-family="Times New Roman,serif" font-size="14.00">NONTERMINAL</text>
<text text-anchor="middle" x="318.5" y="-235.2" font-family="Times New Roman,serif" font-size="14.00">type: RuleElement</text>
</g>
<!-- 8&#45;&gt;14 -->
<g id="edge13" class="edge">
<title>8&#45;&gt;14</title>
<path fill="none" stroke="black" d="M318.5,-313.21C318.5,-303.5 318.5,-291.59 318.5,-280.7"/>
<polygon fill="black" stroke="black" points="322,-280.95 318.5,-270.95 315,-280.95 322,-280.95"/>
</g>
<!-- 15 -->
<g id="node15" class="node">
<title>15</title>
<polygon fill="none" stroke="black" points="609.5,-269 491.5,-269 491.5,-228 609.5,-228 609.5,-269"/>
<text text-anchor="middle" x="550.5" y="-251.7" font-family="Times New Roman,serif" font-size="14.00">NONTERMINAL</text>
<text text-anchor="middle" x="550.5" y="-235.2" font-family="Times New Roman,serif" font-size="14.00">type: RuleElement</text>
</g>
<!-- 10&#45;&gt;15 -->
<g id="edge14" class="edge">
<title>10&#45;&gt;15</title>
<path fill="none" stroke="black" d="M550.5,-313.21C550.5,-303.5 550.5,-291.59 550.5,-280.7"/>
<polygon fill="black" stroke="black" points="554,-280.95 550.5,-270.95 547,-280.95 554,-280.95"/>
</g>
<!-- 16 -->
<g id="node16" class="node">
<title>16</title>
<polygon fill="none" stroke="black" points="841.5,-269 723.5,-269 723.5,-228 841.5,-228 841.5,-269"/>
<text text-anchor="middle" x="782.5" y="-251.7" font-family="Times New Roman,serif" font-size="14.00">NONTERMINAL</text>
<text text-anchor="middle" x="782.5" y="-235.2" font-family="Times New Roman,serif" font-size="14.00">type: RuleElement</text>
</g>
<!-- 12&#45;&gt;16 -->
<g id="edge15" class="edge">
<title>12&#45;&gt;16</title>
<path fill="none" stroke="black" d="M782.5,-313.21C782.5,-303.5 782.5,-291.59 782.5,-280.7"/>
<polygon fill="black" stroke="black" points="786,-280.95 782.5,-270.95 779,-280.95 786,-280.95"/>
</g>
<!-- 17 -->
<g id="node17" class="node">
<title>17</title>
<polygon fill="none" stroke="black" points="144.38,-192 28.62,-192 28.62,-151 144.38,-151 144.38,-192"/>
<text text-anchor="middle" x="86.5" y="-174.7" font-family="Times New Roman,serif" font-size="14.00">NONTERMINAL</text>
<text text-anchor="middle" x="86.5" y="-158.2" font-family="Times New Roman,serif" font-size="14.00">type: Element</text>
</g>
<!-- 13&#45;&gt;17 -->
<g id="edge16" class="edge">
<title>13&#45;&gt;17</title>
<path fill="none" stroke="black" d="M86.5,-227.79C86.5,-220.45 86.5,-211.91 86.5,-203.78"/>
<polygon fill="black" stroke="black" points="90,-203.85 86.5,-193.85 83,-203.85 90,-203.85"/>
</g>
<!-- 18 -->
<g id="node18" class="node">
<title>18</title>
<polygon fill="none" stroke="black" points="376.38,-192 260.62,-192 260.62,-151 376.38,-151 376.38,-192"/>
<text text-anchor="middle" x="318.5" y="-174.7" font-family="Times New Roman,serif" font-size="14.00">NONTERMINAL</text>
<text text-anchor="middle" x="318.5" y="-158.2" font-family="Times New Roman,serif" font-size="14.00">type: Element</text>
</g>
<!-- 14&#45;&gt;18 -->
<g id="edge17" class="edge">
<title>14&#45;&gt;18</title>
<path fill="none" stroke="black" d="M318.5,-227.79C318.5,-220.45 318.5,-211.91 318.5,-203.78"/>
<polygon fill="black" stroke="black" points="322,-203.85 318.5,-193.85 315,-203.85 322,-203.85"/>
</g>
<!-- 19 -->
<g id="node19" class="node">
<title>19</title>
<polygon fill="none" stroke="black" points="608.38,-192 492.62,-192 492.62,-151 608.38,-151 608.38,-192"/>
<text text-anchor="middle" x="550.5" y="-174.7" font-family="Times New Roman,serif" font-size="14.00">NONTERMINAL</text>
<text text-anchor="middle" x="550.5" y="-158.2" font-family="Times New Roman,serif" font-size="14.00">type: Element</text>
</g>
<!-- 15&#45;&gt;19 -->
<g id="edge18" class="edge">
<title>15&#45;&gt;19</title>
<path fill="none" stroke="black" d="M550.5,-227.79C550.5,-220.45 550.5,-211.91 550.5,-203.78"/>
<polygon fill="black" stroke="black" points="554,-203.85 550.5,-193.85 547,-203.85 554,-203.85"/>
</g>
<!-- 20 -->
<g id="node20" class="node">
<title>20</title>
<polygon fill="none" stroke="black" points="840.38,-192 724.62,-192 724.62,-151 840.38,-151 840.38,-192"/>
<text text-anchor="middle" x="782.5" y="-174.7" font-family="Times New Roman,serif" font-size="14.00">NONTERMINAL</text>
<text text-anchor="middle" x="782.5" y="-158.2" font-family="Times New Roman,serif" font-size="14.00">type: Element</text>
</g>
<!-- 16&#45;&gt;20 -->
<g id="edge19" class="edge">
<title>16&#45;&gt;20</title>
<path fill="none" stroke="black" d="M782.5,-227.79C782.5,-220.45 782.5,-211.91 782.5,-203.78"/>
<polygon fill="black" stroke="black" points="786,-203.85 782.5,-193.85 779,-203.85 786,-203.85"/>
</g>
<!-- 21 -->
<g id="node21" class="node">
<title>21</title>
<polygon fill="none" stroke="black" points="86.5,-115 0,-57.5 86.5,0 173,-57.5 86.5,-115"/>
<text text-anchor="middle" x="86.5" y="-68.95" font-family="Times New Roman,serif" font-size="14.00">TERMINAL</text>
<text text-anchor="middle" x="86.5" y="-52.45" font-family="Times New Roman,serif" font-size="14.00">type: name</text>
<text text-anchor="middle" x="86.5" y="-35.95" font-family="Times New Roman,serif" font-size="14.00">string: LC</text>
</g>
<!-- 17&#45;&gt;21 -->
<g id="edge20" class="edge">
<title>17&#45;&gt;21</title>
<path fill="none" stroke="black" d="M86.5,-150.73C86.5,-143.84 86.5,-135.65 86.5,-127.05"/>
<polygon fill="black" stroke="black" points="90,-127.09 86.5,-117.09 83,-127.09 90,-127.09"/>
</g>
<!-- 22 -->
<g id="node22" class="node">
<title>22</title>
<polygon fill="none" stroke="black" points="318.5,-115 232,-57.5 318.5,0 405,-57.5 318.5,-115"/>
<text text-anchor="middle" x="318.5" y="-68.95" font-family="Times New Roman,serif" font-size="14.00">TERMINAL</text>
<text text-anchor="middle" x="318.5" y="-52.45" font-family="Times New Roman,serif" font-size="14.00">type: name</text>
<text text-anchor="middle" x="318.5" y="-35.95" font-family="Times New Roman,serif" font-size="14.00">string: LA</text>
</g>
<!-- 18&#45;&gt;22 -->
<g id="edge21" class="edge">
<title>18&#45;&gt;22</title>
<path fill="none" stroke="black" d="M318.5,-150.73C318.5,-143.84 318.5,-135.65 318.5,-127.05"/>
<polygon fill="black" stroke="black" points="322,-127.09 318.5,-117.09 315,-127.09 322,-127.09"/>
</g>
<!-- 23 -->
<g id="node23" class="node">
<title>23</title>
<polygon fill="none" stroke="black" points="550.5,-115 464,-57.5 550.5,0 637,-57.5 550.5,-115"/>
<text text-anchor="middle" x="550.5" y="-68.95" font-family="Times New Roman,serif" font-size="14.00">TERMINAL</text>
<text text-anchor="middle" x="550.5" y="-52.45" font-family="Times New Roman,serif" font-size="14.00">type: name</text>
<text text-anchor="middle" x="550.5" y="-35.95" font-family="Times New Roman,serif" font-size="14.00">string: LB</text>
</g>
<!-- 19&#45;&gt;23 -->
<g id="edge22" class="edge">
<title>19&#45;&gt;23</title>
<path fill="none" stroke="black" d="M550.5,-150.73C550.5,-143.84 550.5,-135.65 550.5,-127.05"/>
<polygon fill="black" stroke="black" points="554,-127.09 550.5,-117.09 547,-127.09 554,-127.09"/>
</g>
<!-- 24 -->
<g id="node24" class="node">
<title>24</title>
<polygon fill="none" stroke="black" points="782.5,-115 696,-57.5 782.5,0 869,-57.5 782.5,-115"/>
<text text-anchor="middle" x="782.5" y="-68.95" font-family="Times New Roman,serif" font-size="14.00">TERMINAL</text>
<text text-anchor="middle" x="782.5" y="-52.45" font-family="Times New Roman,serif" font-size="14.00">type: name</text>
<text text-anchor="middle" x="782.5" y="-35.95" font-family="Times New Roman,serif" font-size="14.00">string: LS</text>
</g>
<!-- 20&#45;&gt;24 -->
<g id="edge23" class="edge">
<title>20&#45;&gt;24</title>
<path fill="none" stroke="black" d="M782.5,-150.73C782.5,-143.84 782.5,-135.65 782.5,-127.05"/>
<polygon fill="black" stroke="black" points="786,-127.09 782.5,-117.09 779,-127.09 786,-127.09"/>
</g>
</g>
</svg>
