<?xml version="1.0" encoding="UTF-8" standalone="no"?>
<!DOCTYPE svg PUBLIC "-//W3C//DTD SVG 1.1//EN"
 "http://www.w3.org/Graphics/SVG/1.1/DTD/svg11.dtd">
<!-- Generated by graphviz version 12.2.0 (20241103.1931)
 -->
<!-- Title: ast_Element Pages: 1 -->
<svg width="627pt" height="599pt"
 viewBox="0.00 0.00 626.50 598.98" xmlns="http://www.w3.org/2000/svg" xmlns:xlink="http://www.w3.org/1999/xlink">
<g id="graph0" class="graph" transform="scale(1 1) rotate(0) translate(4 594.98)">
<title>ast_Element</title>
<polygon fill="white" stroke="none" points="-4,4 -4,-594.98 622.5,-594.98 622.5,4 -4,4"/>
<!-- 1 -->
<g id="node1" class="node">
<title>1</title>
<polygon fill="none" stroke="black" points="386.88,-590.98 271.12,-590.98 271.12,-549.98 386.88,-549.98 386.88,-590.98"/>
<text text-anchor="middle" x="329" y="-573.68" font-family="Times New Roman,serif" font-size="14.00">NONTERMINAL</text>
<text text-anchor="middle" x="329" y="-557.18" font-family="Times New Roman,serif" font-size="14.00">type: Rule</text>
</g>
<!-- 2 -->
<g id="node2" class="node">
<title>2</title>
<polygon fill="none" stroke="black" points="100,-513.98 0,-456.48 100,-398.98 200,-456.48 100,-513.98"/>
<text text-anchor="middle" x="100" y="-467.93" font-family="Times New Roman,serif" font-size="14.00">TERMINAL</text>
<text text-anchor="middle" x="100" y="-451.43" font-family="Times New Roman,serif" font-size="14.00">type: name</text>
<text text-anchor="middle" x="100" y="-434.93" font-family="Times New Roman,serif" font-size="14.00">string: Element</text>
</g>
<!-- 1&#45;&gt;2 -->
<g id="edge1" class="edge">
<title>1&#45;&gt;2</title>
<path fill="none" stroke="black" d="M284.61,-549.53C261.88,-539.17 233.84,-526.16 209,-513.98 193.54,-506.4 176.97,-497.98 161.55,-490"/>
<polygon fill="black" stroke="black" points="163.43,-487.03 152.94,-485.53 160.2,-493.25 163.43,-487.03"/>
</g>
<!-- 3 -->
<g id="node3" class="node">
<title>3</title>
<ellipse fill="none" stroke="black" cx="267" cy="-456.48" rx="49.5" ry="28.99"/>
<text text-anchor="middle" x="267" y="-459.68" font-family="Times New Roman,serif" font-size="14.00">KEY</text>
<text text-anchor="middle" x="267" y="-443.18" font-family="Times New Roman,serif" font-size="14.00">string: ::=</text>
</g>
<!-- 1&#45;&gt;3 -->
<g id="edge2" class="edge">
<title>1&#45;&gt;3</title>
<path fill="none" stroke="black" d="M318.06,-549.72C309.55,-534.35 297.51,-512.61 287.26,-494.09"/>
<polygon fill="black" stroke="black" points="290.43,-492.57 282.52,-485.52 284.3,-495.96 290.43,-492.57"/>
</g>
<!-- 4 -->
<g id="node4" class="node">
<title>4</title>
<polygon fill="none" stroke="black" points="449.88,-476.98 334.12,-476.98 334.12,-435.98 449.88,-435.98 449.88,-476.98"/>
<text text-anchor="middle" x="392" y="-459.68" font-family="Times New Roman,serif" font-size="14.00">NONTERMINAL</text>
<text text-anchor="middle" x="392" y="-443.18" font-family="Times New Roman,serif" font-size="14.00">type: Alternative</text>
</g>
<!-- 1&#45;&gt;4 -->
<g id="edge3" class="edge">
<title>1&#45;&gt;4</title>
<path fill="none" stroke="black" d="M340.12,-549.72C349.82,-532.47 364.04,-507.19 375.14,-487.45"/>
<polygon fill="black" stroke="black" points="378.19,-489.18 380.04,-478.75 372.09,-485.75 378.19,-489.18"/>
</g>
<!-- 5 -->
<g id="node5" class="node">
<title>5</title>
<ellipse fill="none" stroke="black" cx="509" cy="-456.48" rx="41.01" ry="28.99"/>
<text text-anchor="middle" x="509" y="-459.68" font-family="Times New Roman,serif" font-size="14.00">KEY</text>
<text text-anchor="middle" x="509" y="-443.18" font-family="Times New Roman,serif" font-size="14.00">string: ;</text>
</g>
<!-- 1&#45;&gt;5 -->
<g id="edge4" class="edge">
<title>1&#45;&gt;5</title>
<path fill="none" stroke="black" d="M387.23,-550.95C410.76,-541.9 437.41,-529.56 459,-513.98 467.74,-507.68 476.02,-499.59 483.24,-491.52"/>
<polygon fill="black" stroke="black" points="485.83,-493.89 489.65,-484.01 480.5,-489.35 485.83,-493.89"/>
</g>
<!-- 6 -->
<g id="node6" class="node">
<title>6</title>
<polygon fill="none" stroke="black" points="333.88,-354.49 218.12,-354.49 218.12,-313.49 333.88,-313.49 333.88,-354.49"/>
<text text-anchor="middle" x="276" y="-337.19" font-family="Times New Roman,serif" font-size="14.00">NONTERMINAL</text>
<text text-anchor="middle" x="276" y="-320.69" font-family="Times New Roman,serif" font-size="14.00">type: Sequence</text>
</g>
<!-- 4&#45;&gt;6 -->
<g id="edge5" class="edge">
<title>4&#45;&gt;6</title>
<path fill="none" stroke="black" d="M372.84,-435.59C353.79,-415.79 324.37,-385.24 302.96,-363"/>
<polygon fill="black" stroke="black" points="305.69,-360.78 296.23,-356.01 300.65,-365.64 305.69,-360.78"/>
</g>
<!-- 7 -->
<g id="node7" class="node">
<title>7</title>
<ellipse fill="none" stroke="black" cx="392" cy="-333.99" rx="40.48" ry="28.99"/>
<text text-anchor="middle" x="392" y="-337.19" font-family="Times New Roman,serif" font-size="14.00">KEY</text>
<text text-anchor="middle" x="392" y="-320.69" font-family="Times New Roman,serif" font-size="14.00">string: |</text>
</g>
<!-- 4&#45;&gt;7 -->
<g id="edge6" class="edge">
<title>4&#45;&gt;7</title>
<path fill="none" stroke="black" d="M392,-435.59C392,-418.97 392,-394.77 392,-374.28"/>
<polygon fill="black" stroke="black" points="395.5,-374.55 392,-364.55 388.5,-374.55 395.5,-374.55"/>
</g>
<!-- 8 -->
<g id="node8" class="node">
<title>8</title>
<polygon fill="none" stroke="black" points="565.88,-354.49 450.12,-354.49 450.12,-313.49 565.88,-313.49 565.88,-354.49"/>
<text text-anchor="middle" x="508" y="-337.19" font-family="Times New Roman,serif" font-size="14.00">NONTERMINAL</text>
<text text-anchor="middle" x="508" y="-320.69" font-family="Times New Roman,serif" font-size="14.00">type: Sequence</text>
</g>
<!-- 4&#45;&gt;8 -->
<g id="edge7" class="edge">
<title>4&#45;&gt;8</title>
<path fill="none" stroke="black" d="M411.16,-435.59C430.21,-415.79 459.63,-385.24 481.04,-363"/>
<polygon fill="black" stroke="black" points="483.35,-365.64 487.77,-356.01 478.31,-360.78 483.35,-365.64"/>
</g>
<!-- 9 -->
<g id="node9" class="node">
<title>9</title>
<polygon fill="none" stroke="black" points="335,-269 217,-269 217,-228 335,-228 335,-269"/>
<text text-anchor="middle" x="276" y="-251.7" font-family="Times New Roman,serif" font-size="14.00">NONTERMINAL</text>
<text text-anchor="middle" x="276" y="-235.2" font-family="Times New Roman,serif" font-size="14.00">type: RuleElement</text>
</g>
<!-- 6&#45;&gt;9 -->
<g id="edge8" class="edge">
<title>6&#45;&gt;9</title>
<path fill="none" stroke="black" d="M276,-313.21C276,-303.5 276,-291.59 276,-280.7"/>
<polygon fill="black" stroke="black" points="279.5,-280.95 276,-270.95 272.5,-280.95 279.5,-280.95"/>
</g>
<!-- 10 -->
<g id="node10" class="node">
<title>10</title>
<polygon fill="none" stroke="black" points="567,-269 449,-269 449,-228 567,-228 567,-269"/>
<text text-anchor="middle" x="508" y="-251.7" font-family="Times New Roman,serif" font-size="14.00">NONTERMINAL</text>
<text text-anchor="middle" x="508" y="-235.2" font-family="Times New Roman,serif" font-size="14.00">type: RuleElement</text>
</g>
<!-- 8&#45;&gt;10 -->
<g id="edge9" class="edge">
<title>8&#45;&gt;10</title>
<path fill="none" stroke="black" d="M508,-313.21C508,-303.5 508,-291.59 508,-280.7"/>
<polygon fill="black" stroke="black" points="511.5,-280.95 508,-270.95 504.5,-280.95 511.5,-280.95"/>
</g>
<!-- 11 -->
<g id="node11" class="node">
<title>11</title>
<polygon fill="none" stroke="black" points="333.88,-192 218.12,-192 218.12,-151 333.88,-151 333.88,-192"/>
<text text-anchor="middle" x="276" y="-174.7" font-family="Times New Roman,serif" font-size="14.00">NONTERMINAL</text>
<text text-anchor="middle" x="276" y="-158.2" font-family="Times New Roman,serif" font-size="14.00">type: Element</text>
</g>
<!-- 9&#45;&gt;11 -->
<g id="edge10" class="edge">
<title>9&#45;&gt;11</title>
<path fill="none" stroke="black" d="M276,-227.79C276,-220.45 276,-211.91 276,-203.78"/>
<polygon fill="black" stroke="black" points="279.5,-203.85 276,-193.85 272.5,-203.85 279.5,-203.85"/>
</g>
<!-- 12 -->
<g id="node12" class="node">
<title>12</title>
<polygon fill="none" stroke="black" points="565.88,-192 450.12,-192 450.12,-151 565.88,-151 565.88,-192"/>
<text text-anchor="middle" x="508" y="-174.7" font-family="Times New Roman,serif" font-size="14.00">NONTERMINAL</text>
<text text-anchor="middle" x="508" y="-158.2" font-family="Times New Roman,serif" font-size="14.00">type: Element</text>
</g>
<!-- 10&#45;&gt;12 -->
<g id="edge11" class="edge">
<title>10&#45;&gt;12</title>
<path fill="none" stroke="black" d="M508,-227.79C508,-220.45 508,-211.91 508,-203.78"/>
<polygon fill="black" stroke="black" points="511.5,-203.85 508,-193.85 504.5,-203.85 511.5,-203.85"/>
</g>
<!-- 13 -->
<g id="node13" class="node">
<title>13</title>
<ellipse fill="none" stroke="black" cx="276" cy="-57.5" rx="59.04" ry="28.99"/>
<text text-anchor="middle" x="276" y="-60.7" font-family="Times New Roman,serif" font-size="14.00">KEY</text>
<text text-anchor="middle" x="276" y="-44.2" font-family="Times New Roman,serif" font-size="14.00">string: None</text>
</g>
<!-- 11&#45;&gt;13 -->
<g id="edge12" class="edge">
<title>11&#45;&gt;13</title>
<path fill="none" stroke="black" d="M276,-150.73C276,-136.21 276,-115.98 276,-98.17"/>
<polygon fill="black" stroke="black" points="279.5,-98.41 276,-88.41 272.5,-98.41 279.5,-98.41"/>
</g>
<!-- 14 -->
<g id="node14" class="node">
<title>14</title>
<polygon fill="none" stroke="black" points="508,-115 397.5,-57.5 508,0 618.5,-57.5 508,-115"/>
<text text-anchor="middle" x="508" y="-68.95" font-family="Times New Roman,serif" font-size="14.00">TERMINAL</text>
<text text-anchor="middle" x="508" y="-52.45" font-family="Times New Roman,serif" font-size="14.00">type: name</text>
<text text-anchor="middle" x="508" y="-35.95" font-family="Times New Roman,serif" font-size="14.00">string: key_name</text>
</g>
<!-- 12&#45;&gt;14 -->
<g id="edge13" class="edge">
<title>12&#45;&gt;14</title>
<path fill="none" stroke="black" d="M508,-150.73C508,-143.67 508,-135.26 508,-126.43"/>
<polygon fill="black" stroke="black" points="511.5,-126.61 508,-116.61 504.5,-126.61 511.5,-126.61"/>
</g>
</g>
</svg>
