<?xml version="1.0" encoding="UTF-8" standalone="no"?>
<!DOCTYPE svg PUBLIC "-//W3C//DTD SVG 1.1//EN"
 "http://www.w3.org/Graphics/SVG/1.1/DTD/svg11.dtd">
<!-- Generated by graphviz version 12.2.0 (20241103.1931)
 -->
<!-- Title: ast_Return Pages: 1 -->
<svg width="592pt" height="582pt"
 viewBox="0.00 0.00 592.25 582.00" xmlns="http://www.w3.org/2000/svg" xmlns:xlink="http://www.w3.org/1999/xlink">
<g id="graph0" class="graph" transform="scale(1 1) rotate(0) translate(4 578)">
<title>ast_Return</title>
<polygon fill="white" stroke="none" points="-4,4 -4,-578 588.25,-578 588.25,4 -4,4"/>
<!-- 1 -->
<g id="node1" class="node">
<title>1</title>
<polygon fill="none" stroke="black" points="368.88,-574 253.12,-574 253.12,-533 368.88,-533 368.88,-574"/>
<text text-anchor="middle" x="311" y="-556.7" font-family="Times New Roman,serif" font-size="14.00">NONTERMINAL</text>
<text text-anchor="middle" x="311" y="-540.2" font-family="Times New Roman,serif" font-size="14.00">type: Rule</text>
</g>
<!-- 2 -->
<g id="node2" class="node">
<title>2</title>
<polygon fill="none" stroke="black" points="91,-497 0,-439.5 91,-382 182,-439.5 91,-497"/>
<text text-anchor="middle" x="91" y="-450.95" font-family="Times New Roman,serif" font-size="14.00">TERMINAL</text>
<text text-anchor="middle" x="91" y="-434.45" font-family="Times New Roman,serif" font-size="14.00">type: name</text>
<text text-anchor="middle" x="91" y="-417.95" font-family="Times New Roman,serif" font-size="14.00">string: Return</text>
</g>
<!-- 1&#45;&gt;2 -->
<g id="edge1" class="edge">
<title>1&#45;&gt;2</title>
<path fill="none" stroke="black" d="M265.57,-532.53C242.95,-522.33 215.31,-509.46 191,-497 176.79,-489.72 161.69,-481.46 147.64,-473.56"/>
<polygon fill="black" stroke="black" points="149.37,-470.51 138.95,-468.63 145.92,-476.6 149.37,-470.51"/>
</g>
<!-- 3 -->
<g id="node3" class="node">
<title>3</title>
<ellipse fill="none" stroke="black" cx="249" cy="-439.5" rx="49.5" ry="28.99"/>
<text text-anchor="middle" x="249" y="-442.7" font-family="Times New Roman,serif" font-size="14.00">KEY</text>
<text text-anchor="middle" x="249" y="-426.2" font-family="Times New Roman,serif" font-size="14.00">string: ::=</text>
</g>
<!-- 1&#45;&gt;3 -->
<g id="edge2" class="edge">
<title>1&#45;&gt;3</title>
<path fill="none" stroke="black" d="M300.06,-532.73C291.55,-517.37 279.51,-495.62 269.26,-477.11"/>
<polygon fill="black" stroke="black" points="272.43,-475.59 264.52,-468.54 266.3,-478.98 272.43,-475.59"/>
</g>
<!-- 4 -->
<g id="node4" class="node">
<title>4</title>
<polygon fill="none" stroke="black" points="431.88,-460 316.12,-460 316.12,-419 431.88,-419 431.88,-460"/>
<text text-anchor="middle" x="374" y="-442.7" font-family="Times New Roman,serif" font-size="14.00">NONTERMINAL</text>
<text text-anchor="middle" x="374" y="-426.2" font-family="Times New Roman,serif" font-size="14.00">type: Alternative</text>
</g>
<!-- 1&#45;&gt;4 -->
<g id="edge3" class="edge">
<title>1&#45;&gt;4</title>
<path fill="none" stroke="black" d="M322.12,-532.73C331.82,-515.49 346.04,-490.2 357.14,-470.47"/>
<polygon fill="black" stroke="black" points="360.19,-472.2 362.04,-461.76 354.09,-468.76 360.19,-472.2"/>
</g>
<!-- 5 -->
<g id="node5" class="node">
<title>5</title>
<ellipse fill="none" stroke="black" cx="491" cy="-439.5" rx="41.01" ry="28.99"/>
<text text-anchor="middle" x="491" y="-442.7" font-family="Times New Roman,serif" font-size="14.00">KEY</text>
<text text-anchor="middle" x="491" y="-426.2" font-family="Times New Roman,serif" font-size="14.00">string: ;</text>
</g>
<!-- 1&#45;&gt;5 -->
<g id="edge4" class="edge">
<title>1&#45;&gt;5</title>
<path fill="none" stroke="black" d="M369.23,-533.97C392.76,-524.92 419.41,-512.58 441,-497 449.74,-490.7 458.02,-482.61 465.24,-474.54"/>
<polygon fill="black" stroke="black" points="467.83,-476.91 471.65,-467.02 462.5,-472.36 467.83,-476.91"/>
</g>
<!-- 6 -->
<g id="node6" class="node">
<title>6</title>
<polygon fill="none" stroke="black" points="431.88,-346 316.12,-346 316.12,-305 431.88,-305 431.88,-346"/>
<text text-anchor="middle" x="374" y="-328.7" font-family="Times New Roman,serif" font-size="14.00">NONTERMINAL</text>
<text text-anchor="middle" x="374" y="-312.2" font-family="Times New Roman,serif" font-size="14.00">type: Sequence</text>
</g>
<!-- 4&#45;&gt;6 -->
<g id="edge5" class="edge">
<title>4&#45;&gt;6</title>
<path fill="none" stroke="black" d="M374,-418.73C374,-401.88 374,-377.37 374,-357.84"/>
<polygon fill="black" stroke="black" points="377.5,-357.96 374,-347.96 370.5,-357.96 377.5,-357.96"/>
</g>
<!-- 7 -->
<g id="node7" class="node">
<title>7</title>
<polygon fill="none" stroke="black" points="365,-269 247,-269 247,-228 365,-228 365,-269"/>
<text text-anchor="middle" x="306" y="-251.7" font-family="Times New Roman,serif" font-size="14.00">NONTERMINAL</text>
<text text-anchor="middle" x="306" y="-235.2" font-family="Times New Roman,serif" font-size="14.00">type: RuleElement</text>
</g>
<!-- 6&#45;&gt;7 -->
<g id="edge6" class="edge">
<title>6&#45;&gt;7</title>
<path fill="none" stroke="black" d="M356.13,-304.79C348.62,-296.51 339.74,-286.71 331.55,-277.68"/>
<polygon fill="black" stroke="black" points="334.31,-275.51 325,-270.46 329.12,-280.21 334.31,-275.51"/>
</g>
<!-- 8 -->
<g id="node8" class="node">
<title>8</title>
<polygon fill="none" stroke="black" points="515,-269 397,-269 397,-228 515,-228 515,-269"/>
<text text-anchor="middle" x="456" y="-251.7" font-family="Times New Roman,serif" font-size="14.00">NONTERMINAL</text>
<text text-anchor="middle" x="456" y="-235.2" font-family="Times New Roman,serif" font-size="14.00">type: RuleElement</text>
</g>
<!-- 6&#45;&gt;8 -->
<g id="edge7" class="edge">
<title>6&#45;&gt;8</title>
<path fill="none" stroke="black" d="M395.54,-304.79C404.89,-296.25 415.98,-286.1 426.1,-276.84"/>
<polygon fill="black" stroke="black" points="428.18,-279.69 433.2,-270.36 423.46,-274.52 428.18,-279.69"/>
</g>
<!-- 9 -->
<g id="node9" class="node">
<title>9</title>
<polygon fill="none" stroke="black" points="336.88,-192 221.12,-192 221.12,-151 336.88,-151 336.88,-192"/>
<text text-anchor="middle" x="279" y="-174.7" font-family="Times New Roman,serif" font-size="14.00">NONTERMINAL</text>
<text text-anchor="middle" x="279" y="-158.2" font-family="Times New Roman,serif" font-size="14.00">type: Element</text>
</g>
<!-- 7&#45;&gt;9 -->
<g id="edge8" class="edge">
<title>7&#45;&gt;9</title>
<path fill="none" stroke="black" d="M298.91,-227.79C296.17,-220.19 292.97,-211.31 289.95,-202.93"/>
<polygon fill="black" stroke="black" points="293.33,-201.98 286.65,-193.76 286.75,-204.35 293.33,-201.98"/>
</g>
<!-- 10 -->
<g id="node10" class="node">
<title>10</title>
<polygon fill="none" stroke="black" points="520.88,-192 405.12,-192 405.12,-151 520.88,-151 520.88,-192"/>
<text text-anchor="middle" x="463" y="-174.7" font-family="Times New Roman,serif" font-size="14.00">NONTERMINAL</text>
<text text-anchor="middle" x="463" y="-158.2" font-family="Times New Roman,serif" font-size="14.00">type: Element</text>
</g>
<!-- 8&#45;&gt;10 -->
<g id="edge9" class="edge">
<title>8&#45;&gt;10</title>
<path fill="none" stroke="black" d="M457.84,-227.79C458.53,-220.45 459.32,-211.91 460.08,-203.78"/>
<polygon fill="black" stroke="black" points="463.56,-204.12 461.01,-193.84 456.59,-203.47 463.56,-204.12"/>
</g>
<!-- 11 -->
<g id="node11" class="node">
<title>11</title>
<polygon fill="none" stroke="black" points="225,-115 112.25,-57.5 225,0 337.75,-57.5 225,-115"/>
<text text-anchor="middle" x="225" y="-68.95" font-family="Times New Roman,serif" font-size="14.00">TERMINAL</text>
<text text-anchor="middle" x="225" y="-52.45" font-family="Times New Roman,serif" font-size="14.00">type: key_name</text>
<text text-anchor="middle" x="225" y="-35.95" font-family="Times New Roman,serif" font-size="14.00">string: &#39;RETURN&#39;</text>
</g>
<!-- 9&#45;&gt;11 -->
<g id="edge10" class="edge">
<title>9&#45;&gt;11</title>
<path fill="none" stroke="black" d="M269.47,-150.73C264.5,-140.43 258.15,-127.25 251.81,-114.1"/>
<polygon fill="black" stroke="black" points="255.14,-112.94 247.64,-105.46 248.83,-115.98 255.14,-112.94"/>
</g>
<!-- 12 -->
<g id="node12" class="node">
<title>12</title>
<polygon fill="none" stroke="black" points="470,-115 355.75,-57.5 470,0 584.25,-57.5 470,-115"/>
<text text-anchor="middle" x="470" y="-68.95" font-family="Times New Roman,serif" font-size="14.00">TERMINAL</text>
<text text-anchor="middle" x="470" y="-52.45" font-family="Times New Roman,serif" font-size="14.00">type: name</text>
<text text-anchor="middle" x="470" y="-35.95" font-family="Times New Roman,serif" font-size="14.00">string: Expression</text>
</g>
<!-- 10&#45;&gt;12 -->
<g id="edge11" class="edge">
<title>10&#45;&gt;12</title>
<path fill="none" stroke="black" d="M464.24,-150.73C464.7,-143.32 465.25,-134.43 465.84,-125.13"/>
<polygon fill="black" stroke="black" points="469.33,-125.36 466.46,-115.16 462.34,-124.93 469.33,-125.36"/>
</g>
</g>
</svg>
