<?xml version="1.0" encoding="UTF-8" standalone="no"?>
<!DOCTYPE svg PUBLIC "-//W3C//DTD SVG 1.1//EN"
 "http://www.w3.org/Graphics/SVG/1.1/DTD/svg11.dtd">
<!-- Generated by graphviz version 12.2.0 (20241103.1931)
 -->
<!-- Title: ast_Goto Pages: 1 -->
<svg width="569pt" height="582pt"
 viewBox="0.00 0.00 569.00 582.00" xmlns="http://www.w3.org/2000/svg" xmlns:xlink="http://www.w3.org/1999/xlink">
<g id="graph0" class="graph" transform="scale(1 1) rotate(0) translate(4 578)">
<title>ast_Goto</title>
<polygon fill="white" stroke="none" points="-4,4 -4,-578 565,-578 565,4 -4,4"/>
<!-- 1 -->
<g id="node1" class="node">
<title>1</title>
<polygon fill="none" stroke="black" points="360.38,-574 244.62,-574 244.62,-533 360.38,-533 360.38,-574"/>
<text text-anchor="middle" x="302.5" y="-556.7" font-family="Times New Roman,serif" font-size="14.00">NONTERMINAL</text>
<text text-anchor="middle" x="302.5" y="-540.2" font-family="Times New Roman,serif" font-size="14.00">type: Rule</text>
</g>
<!-- 2 -->
<g id="node2" class="node">
<title>2</title>
<polygon fill="none" stroke="black" points="86.5,-497 0,-439.5 86.5,-382 173,-439.5 86.5,-497"/>
<text text-anchor="middle" x="86.5" y="-450.95" font-family="Times New Roman,serif" font-size="14.00">TERMINAL</text>
<text text-anchor="middle" x="86.5" y="-434.45" font-family="Times New Roman,serif" font-size="14.00">type: name</text>
<text text-anchor="middle" x="86.5" y="-417.95" font-family="Times New Roman,serif" font-size="14.00">string: Goto</text>
</g>
<!-- 1&#45;&gt;2 -->
<g id="edge1" class="edge">
<title>1&#45;&gt;2</title>
<path fill="none" stroke="black" d="M256.68,-532.59C234.09,-522.45 206.59,-509.62 182.5,-497 168.72,-489.78 154.11,-481.51 140.57,-473.58"/>
<polygon fill="black" stroke="black" points="142.61,-470.72 132.22,-468.64 139.05,-476.74 142.61,-470.72"/>
</g>
<!-- 3 -->
<g id="node3" class="node">
<title>3</title>
<ellipse fill="none" stroke="black" cx="240.5" cy="-439.5" rx="49.5" ry="28.99"/>
<text text-anchor="middle" x="240.5" y="-442.7" font-family="Times New Roman,serif" font-size="14.00">KEY</text>
<text text-anchor="middle" x="240.5" y="-426.2" font-family="Times New Roman,serif" font-size="14.00">string: ::=</text>
</g>
<!-- 1&#45;&gt;3 -->
<g id="edge2" class="edge">
<title>1&#45;&gt;3</title>
<path fill="none" stroke="black" d="M291.56,-532.73C283.05,-517.37 271.01,-495.62 260.76,-477.11"/>
<polygon fill="black" stroke="black" points="263.93,-475.59 256.02,-468.54 257.8,-478.98 263.93,-475.59"/>
</g>
<!-- 4 -->
<g id="node4" class="node">
<title>4</title>
<polygon fill="none" stroke="black" points="423.38,-460 307.62,-460 307.62,-419 423.38,-419 423.38,-460"/>
<text text-anchor="middle" x="365.5" y="-442.7" font-family="Times New Roman,serif" font-size="14.00">NONTERMINAL</text>
<text text-anchor="middle" x="365.5" y="-426.2" font-family="Times New Roman,serif" font-size="14.00">type: Alternative</text>
</g>
<!-- 1&#45;&gt;4 -->
<g id="edge3" class="edge">
<title>1&#45;&gt;4</title>
<path fill="none" stroke="black" d="M313.62,-532.73C323.32,-515.49 337.54,-490.2 348.64,-470.47"/>
<polygon fill="black" stroke="black" points="351.69,-472.2 353.54,-461.76 345.59,-468.76 351.69,-472.2"/>
</g>
<!-- 5 -->
<g id="node5" class="node">
<title>5</title>
<ellipse fill="none" stroke="black" cx="482.5" cy="-439.5" rx="41.01" ry="28.99"/>
<text text-anchor="middle" x="482.5" y="-442.7" font-family="Times New Roman,serif" font-size="14.00">KEY</text>
<text text-anchor="middle" x="482.5" y="-426.2" font-family="Times New Roman,serif" font-size="14.00">string: ;</text>
</g>
<!-- 1&#45;&gt;5 -->
<g id="edge4" class="edge">
<title>1&#45;&gt;5</title>
<path fill="none" stroke="black" d="M360.73,-533.97C384.26,-524.92 410.91,-512.58 432.5,-497 441.24,-490.7 449.52,-482.61 456.74,-474.54"/>
<polygon fill="black" stroke="black" points="459.33,-476.91 463.15,-467.02 454,-472.36 459.33,-476.91"/>
</g>
<!-- 6 -->
<g id="node6" class="node">
<title>6</title>
<polygon fill="none" stroke="black" points="423.38,-346 307.62,-346 307.62,-305 423.38,-305 423.38,-346"/>
<text text-anchor="middle" x="365.5" y="-328.7" font-family="Times New Roman,serif" font-size="14.00">NONTERMINAL</text>
<text text-anchor="middle" x="365.5" y="-312.2" font-family="Times New Roman,serif" font-size="14.00">type: Sequence</text>
</g>
<!-- 4&#45;&gt;6 -->
<g id="edge5" class="edge">
<title>4&#45;&gt;6</title>
<path fill="none" stroke="black" d="M365.5,-418.73C365.5,-401.88 365.5,-377.37 365.5,-357.84"/>
<polygon fill="black" stroke="black" points="369,-357.96 365.5,-347.96 362,-357.96 369,-357.96"/>
</g>
<!-- 7 -->
<g id="node7" class="node">
<title>7</title>
<polygon fill="none" stroke="black" points="356.5,-269 238.5,-269 238.5,-228 356.5,-228 356.5,-269"/>
<text text-anchor="middle" x="297.5" y="-251.7" font-family="Times New Roman,serif" font-size="14.00">NONTERMINAL</text>
<text text-anchor="middle" x="297.5" y="-235.2" font-family="Times New Roman,serif" font-size="14.00">type: RuleElement</text>
</g>
<!-- 6&#45;&gt;7 -->
<g id="edge6" class="edge">
<title>6&#45;&gt;7</title>
<path fill="none" stroke="black" d="M347.63,-304.79C340.12,-296.51 331.24,-286.71 323.05,-277.68"/>
<polygon fill="black" stroke="black" points="325.81,-275.51 316.5,-270.46 320.62,-280.21 325.81,-275.51"/>
</g>
<!-- 8 -->
<g id="node8" class="node">
<title>8</title>
<polygon fill="none" stroke="black" points="503.5,-269 385.5,-269 385.5,-228 503.5,-228 503.5,-269"/>
<text text-anchor="middle" x="444.5" y="-251.7" font-family="Times New Roman,serif" font-size="14.00">NONTERMINAL</text>
<text text-anchor="middle" x="444.5" y="-235.2" font-family="Times New Roman,serif" font-size="14.00">type: RuleElement</text>
</g>
<!-- 6&#45;&gt;8 -->
<g id="edge7" class="edge">
<title>6&#45;&gt;8</title>
<path fill="none" stroke="black" d="M386.26,-304.79C395.17,-296.34 405.73,-286.3 415.4,-277.12"/>
<polygon fill="black" stroke="black" points="417.67,-279.8 422.51,-270.38 412.85,-274.72 417.67,-279.8"/>
</g>
<!-- 9 -->
<g id="node9" class="node">
<title>9</title>
<polygon fill="none" stroke="black" points="333.38,-192 217.62,-192 217.62,-151 333.38,-151 333.38,-192"/>
<text text-anchor="middle" x="275.5" y="-174.7" font-family="Times New Roman,serif" font-size="14.00">NONTERMINAL</text>
<text text-anchor="middle" x="275.5" y="-158.2" font-family="Times New Roman,serif" font-size="14.00">type: Element</text>
</g>
<!-- 7&#45;&gt;9 -->
<g id="edge8" class="edge">
<title>7&#45;&gt;9</title>
<path fill="none" stroke="black" d="M291.72,-227.79C289.51,-220.28 286.94,-211.51 284.51,-203.21"/>
<polygon fill="black" stroke="black" points="287.92,-202.4 281.74,-193.79 281.2,-204.37 287.92,-202.4"/>
</g>
<!-- 10 -->
<g id="node10" class="node">
<title>10</title>
<polygon fill="none" stroke="black" points="508.38,-192 392.62,-192 392.62,-151 508.38,-151 508.38,-192"/>
<text text-anchor="middle" x="450.5" y="-174.7" font-family="Times New Roman,serif" font-size="14.00">NONTERMINAL</text>
<text text-anchor="middle" x="450.5" y="-158.2" font-family="Times New Roman,serif" font-size="14.00">type: Element</text>
</g>
<!-- 8&#45;&gt;10 -->
<g id="edge9" class="edge">
<title>8&#45;&gt;10</title>
<path fill="none" stroke="black" d="M446.08,-227.79C446.66,-220.45 447.35,-211.91 448,-203.78"/>
<polygon fill="black" stroke="black" points="451.48,-204.09 448.79,-193.84 444.51,-203.53 451.48,-204.09"/>
</g>
<!-- 11 -->
<g id="node11" class="node">
<title>11</title>
<polygon fill="none" stroke="black" points="230.5,-115 127.5,-57.5 230.5,0 333.5,-57.5 230.5,-115"/>
<text text-anchor="middle" x="230.5" y="-68.95" font-family="Times New Roman,serif" font-size="14.00">TERMINAL</text>
<text text-anchor="middle" x="230.5" y="-52.45" font-family="Times New Roman,serif" font-size="14.00">type: key_name</text>
<text text-anchor="middle" x="230.5" y="-35.95" font-family="Times New Roman,serif" font-size="14.00">string: &#39;GOTO&#39;</text>
</g>
<!-- 9&#45;&gt;11 -->
<g id="edge10" class="edge">
<title>9&#45;&gt;11</title>
<path fill="none" stroke="black" d="M267.56,-150.73C263.58,-140.82 258.53,-128.26 253.45,-115.62"/>
<polygon fill="black" stroke="black" points="256.74,-114.42 249.76,-106.45 250.24,-117.03 256.74,-114.42"/>
</g>
<!-- 12 -->
<g id="node12" class="node">
<title>12</title>
<polygon fill="none" stroke="black" points="456.5,-115 352,-57.5 456.5,0 561,-57.5 456.5,-115"/>
<text text-anchor="middle" x="456.5" y="-68.95" font-family="Times New Roman,serif" font-size="14.00">TERMINAL</text>
<text text-anchor="middle" x="456.5" y="-52.45" font-family="Times New Roman,serif" font-size="14.00">type: name</text>
<text text-anchor="middle" x="456.5" y="-35.95" font-family="Times New Roman,serif" font-size="14.00">string: Identifier</text>
</g>
<!-- 10&#45;&gt;12 -->
<g id="edge11" class="edge">
<title>10&#45;&gt;12</title>
<path fill="none" stroke="black" d="M451.56,-150.73C451.96,-143.32 452.43,-134.43 452.93,-125.13"/>
<polygon fill="black" stroke="black" points="456.42,-125.34 453.46,-115.16 449.43,-124.96 456.42,-125.34"/>
</g>
</g>
</svg>
