<?xml version="1.0" encoding="UTF-8" standalone="no"?>
<!DOCTYPE svg PUBLIC "-//W3C//DTD SVG 1.1//EN"
 "http://www.w3.org/Graphics/SVG/1.1/DTD/svg11.dtd">
<!-- Generated by graphviz version 12.2.0 (20241103.1931)
 -->
<!-- Title: ast_LB Pages: 1 -->
<svg width="1320pt" height="964pt"
 viewBox="0.00 0.00 1319.50 964.00" xmlns="http://www.w3.org/2000/svg" xmlns:xlink="http://www.w3.org/1999/xlink">
<g id="graph0" class="graph" transform="scale(1 1) rotate(0) translate(4 960)">
<title>ast_LB</title>
<polygon fill="white" stroke="none" points="-4,4 -4,-960 1315.5,-960 1315.5,4 -4,4"/>
<!-- 1 -->
<g id="node1" class="node">
<title>1</title>
<polygon fill="none" stroke="black" points="567.88,-956 452.12,-956 452.12,-915 567.88,-915 567.88,-956"/>
<text text-anchor="middle" x="510" y="-938.7" font-family="Times New Roman,serif" font-size="14.00">NONTERMINAL</text>
<text text-anchor="middle" x="510" y="-922.2" font-family="Times New Roman,serif" font-size="14.00">type: Rule</text>
</g>
<!-- 2 -->
<g id="node2" class="node">
<title>2</title>
<polygon fill="none" stroke="black" points="294,-879 207.5,-821.5 294,-764 380.5,-821.5 294,-879"/>
<text text-anchor="middle" x="294" y="-832.95" font-family="Times New Roman,serif" font-size="14.00">TERMINAL</text>
<text text-anchor="middle" x="294" y="-816.45" font-family="Times New Roman,serif" font-size="14.00">type: name</text>
<text text-anchor="middle" x="294" y="-799.95" font-family="Times New Roman,serif" font-size="14.00">string: LB</text>
</g>
<!-- 1&#45;&gt;2 -->
<g id="edge1" class="edge">
<title>1&#45;&gt;2</title>
<path fill="none" stroke="black" d="M464.18,-914.59C441.59,-904.45 414.09,-891.62 390,-879 376.22,-871.78 361.61,-863.51 348.07,-855.58"/>
<polygon fill="black" stroke="black" points="350.11,-852.72 339.72,-850.64 346.55,-858.74 350.11,-852.72"/>
</g>
<!-- 3 -->
<g id="node3" class="node">
<title>3</title>
<ellipse fill="none" stroke="black" cx="448" cy="-821.5" rx="49.5" ry="28.99"/>
<text text-anchor="middle" x="448" y="-824.7" font-family="Times New Roman,serif" font-size="14.00">KEY</text>
<text text-anchor="middle" x="448" y="-808.2" font-family="Times New Roman,serif" font-size="14.00">string: ::=</text>
</g>
<!-- 1&#45;&gt;3 -->
<g id="edge2" class="edge">
<title>1&#45;&gt;3</title>
<path fill="none" stroke="black" d="M499.06,-914.73C490.55,-899.37 478.51,-877.62 468.26,-859.11"/>
<polygon fill="black" stroke="black" points="471.43,-857.59 463.52,-850.54 465.3,-860.98 471.43,-857.59"/>
</g>
<!-- 4 -->
<g id="node4" class="node">
<title>4</title>
<polygon fill="none" stroke="black" points="630.88,-842 515.12,-842 515.12,-801 630.88,-801 630.88,-842"/>
<text text-anchor="middle" x="573" y="-824.7" font-family="Times New Roman,serif" font-size="14.00">NONTERMINAL</text>
<text text-anchor="middle" x="573" y="-808.2" font-family="Times New Roman,serif" font-size="14.00">type: Alternative</text>
</g>
<!-- 1&#45;&gt;4 -->
<g id="edge3" class="edge">
<title>1&#45;&gt;4</title>
<path fill="none" stroke="black" d="M521.12,-914.73C530.82,-897.49 545.04,-872.2 556.14,-852.47"/>
<polygon fill="black" stroke="black" points="559.19,-854.2 561.04,-843.76 553.09,-850.76 559.19,-854.2"/>
</g>
<!-- 5 -->
<g id="node5" class="node">
<title>5</title>
<ellipse fill="none" stroke="black" cx="690" cy="-821.5" rx="41.01" ry="28.99"/>
<text text-anchor="middle" x="690" y="-824.7" font-family="Times New Roman,serif" font-size="14.00">KEY</text>
<text text-anchor="middle" x="690" y="-808.2" font-family="Times New Roman,serif" font-size="14.00">string: ;</text>
</g>
<!-- 1&#45;&gt;5 -->
<g id="edge4" class="edge">
<title>1&#45;&gt;5</title>
<path fill="none" stroke="black" d="M568.23,-915.97C591.76,-906.92 618.41,-894.58 640,-879 648.74,-872.7 657.02,-864.61 664.24,-856.54"/>
<polygon fill="black" stroke="black" points="666.83,-858.91 670.65,-849.02 661.5,-854.36 666.83,-858.91"/>
</g>
<!-- 6 -->
<g id="node6" class="node">
<title>6</title>
<polygon fill="none" stroke="black" points="630.88,-728 515.12,-728 515.12,-687 630.88,-687 630.88,-728"/>
<text text-anchor="middle" x="573" y="-710.7" font-family="Times New Roman,serif" font-size="14.00">NONTERMINAL</text>
<text text-anchor="middle" x="573" y="-694.2" font-family="Times New Roman,serif" font-size="14.00">type: Sequence</text>
</g>
<!-- 4&#45;&gt;6 -->
<g id="edge5" class="edge">
<title>4&#45;&gt;6</title>
<path fill="none" stroke="black" d="M573,-800.73C573,-783.88 573,-759.37 573,-739.84"/>
<polygon fill="black" stroke="black" points="576.5,-739.96 573,-729.96 569.5,-739.96 576.5,-739.96"/>
</g>
<!-- 7 -->
<g id="node7" class="node">
<title>7</title>
<polygon fill="none" stroke="black" points="288,-651 170,-651 170,-610 288,-610 288,-651"/>
<text text-anchor="middle" x="229" y="-633.7" font-family="Times New Roman,serif" font-size="14.00">NONTERMINAL</text>
<text text-anchor="middle" x="229" y="-617.2" font-family="Times New Roman,serif" font-size="14.00">type: RuleElement</text>
</g>
<!-- 6&#45;&gt;7 -->
<g id="edge6" class="edge">
<title>6&#45;&gt;7</title>
<path fill="none" stroke="black" d="M514.65,-693.78C455.15,-680.81 362.82,-660.68 299.33,-646.83"/>
<polygon fill="black" stroke="black" points="300.21,-643.44 289.7,-644.73 298.72,-650.28 300.21,-643.44"/>
</g>
<!-- 8 -->
<g id="node8" class="node">
<title>8</title>
<polygon fill="none" stroke="black" points="472,-651 354,-651 354,-610 472,-610 472,-651"/>
<text text-anchor="middle" x="413" y="-633.7" font-family="Times New Roman,serif" font-size="14.00">NONTERMINAL</text>
<text text-anchor="middle" x="413" y="-617.2" font-family="Times New Roman,serif" font-size="14.00">type: RuleElement</text>
</g>
<!-- 6&#45;&gt;8 -->
<g id="edge7" class="edge">
<title>6&#45;&gt;8</title>
<path fill="none" stroke="black" d="M530.54,-686.6C510.74,-677.32 486.98,-666.18 466.01,-656.35"/>
<polygon fill="black" stroke="black" points="467.57,-653.21 457.03,-652.14 464.59,-659.55 467.57,-653.21"/>
</g>
<!-- 9 -->
<g id="node9" class="node">
<title>9</title>
<polygon fill="none" stroke="black" points="632,-651 514,-651 514,-610 632,-610 632,-651"/>
<text text-anchor="middle" x="573" y="-633.7" font-family="Times New Roman,serif" font-size="14.00">NONTERMINAL</text>
<text text-anchor="middle" x="573" y="-617.2" font-family="Times New Roman,serif" font-size="14.00">type: RuleElement</text>
</g>
<!-- 6&#45;&gt;9 -->
<g id="edge8" class="edge">
<title>6&#45;&gt;9</title>
<path fill="none" stroke="black" d="M573,-686.79C573,-679.45 573,-670.91 573,-662.78"/>
<polygon fill="black" stroke="black" points="576.5,-662.85 573,-652.85 569.5,-662.85 576.5,-662.85"/>
</g>
<!-- 10 -->
<g id="node10" class="node">
<title>10</title>
<polygon fill="none" stroke="black" points="837,-651 719,-651 719,-610 837,-610 837,-651"/>
<text text-anchor="middle" x="778" y="-633.7" font-family="Times New Roman,serif" font-size="14.00">NONTERMINAL</text>
<text text-anchor="middle" x="778" y="-617.2" font-family="Times New Roman,serif" font-size="14.00">type: RuleElement</text>
</g>
<!-- 6&#45;&gt;10 -->
<g id="edge9" class="edge">
<title>6&#45;&gt;10</title>
<path fill="none" stroke="black" d="M627.4,-686.6C653.58,-677.02 685.17,-665.46 712.65,-655.41"/>
<polygon fill="black" stroke="black" points="713.74,-658.74 721.93,-652.01 711.33,-652.16 713.74,-658.74"/>
</g>
<!-- 11 -->
<g id="node11" class="node">
<title>11</title>
<polygon fill="none" stroke="black" points="986,-651 868,-651 868,-610 986,-610 986,-651"/>
<text text-anchor="middle" x="927" y="-633.7" font-family="Times New Roman,serif" font-size="14.00">NONTERMINAL</text>
<text text-anchor="middle" x="927" y="-617.2" font-family="Times New Roman,serif" font-size="14.00">type: RuleElement</text>
</g>
<!-- 6&#45;&gt;11 -->
<g id="edge10" class="edge">
<title>6&#45;&gt;11</title>
<path fill="none" stroke="black" d="M631.18,-695.3C686.53,-684.49 772.11,-667.4 846,-651 849.53,-650.22 853.14,-649.4 856.79,-648.56"/>
<polygon fill="black" stroke="black" points="857.35,-652.03 866.3,-646.36 855.77,-645.21 857.35,-652.03"/>
</g>
<!-- 12 -->
<g id="node12" class="node">
<title>12</title>
<polygon fill="none" stroke="black" points="248.88,-574 133.12,-574 133.12,-533 248.88,-533 248.88,-574"/>
<text text-anchor="middle" x="191" y="-556.7" font-family="Times New Roman,serif" font-size="14.00">NONTERMINAL</text>
<text text-anchor="middle" x="191" y="-540.2" font-family="Times New Roman,serif" font-size="14.00">type: Element</text>
</g>
<!-- 7&#45;&gt;12 -->
<g id="edge11" class="edge">
<title>7&#45;&gt;12</title>
<path fill="none" stroke="black" d="M219.02,-609.79C215.08,-602.02 210.46,-592.91 206.13,-584.36"/>
<polygon fill="black" stroke="black" points="209.38,-583.02 201.73,-575.68 203.13,-586.19 209.38,-583.02"/>
</g>
<!-- 13 -->
<g id="node13" class="node">
<title>13</title>
<polygon fill="none" stroke="black" points="432.88,-574 317.12,-574 317.12,-533 432.88,-533 432.88,-574"/>
<text text-anchor="middle" x="375" y="-556.7" font-family="Times New Roman,serif" font-size="14.00">NONTERMINAL</text>
<text text-anchor="middle" x="375" y="-540.2" font-family="Times New Roman,serif" font-size="14.00">type: Element</text>
</g>
<!-- 8&#45;&gt;13 -->
<g id="edge12" class="edge">
<title>8&#45;&gt;13</title>
<path fill="none" stroke="black" d="M403.02,-609.79C399.08,-602.02 394.46,-592.91 390.13,-584.36"/>
<polygon fill="black" stroke="black" points="393.38,-583.02 385.73,-575.68 387.13,-586.19 393.38,-583.02"/>
</g>
<!-- 14 -->
<g id="node14" class="node">
<title>14</title>
<polygon fill="none" stroke="black" points="630.88,-574 515.12,-574 515.12,-533 630.88,-533 630.88,-574"/>
<text text-anchor="middle" x="573" y="-556.7" font-family="Times New Roman,serif" font-size="14.00">NONTERMINAL</text>
<text text-anchor="middle" x="573" y="-540.2" font-family="Times New Roman,serif" font-size="14.00">type: Element</text>
</g>
<!-- 9&#45;&gt;14 -->
<g id="edge13" class="edge">
<title>9&#45;&gt;14</title>
<path fill="none" stroke="black" d="M573,-609.79C573,-602.45 573,-593.91 573,-585.78"/>
<polygon fill="black" stroke="black" points="576.5,-585.85 573,-575.85 569.5,-585.85 576.5,-585.85"/>
</g>
<!-- 15 -->
<g id="node15" class="node">
<title>15</title>
<polygon fill="none" stroke="black" points="853.88,-574 738.12,-574 738.12,-533 853.88,-533 853.88,-574"/>
<text text-anchor="middle" x="796" y="-556.7" font-family="Times New Roman,serif" font-size="14.00">NONTERMINAL</text>
<text text-anchor="middle" x="796" y="-540.2" font-family="Times New Roman,serif" font-size="14.00">type: Iteration</text>
</g>
<!-- 10&#45;&gt;15 -->
<g id="edge14" class="edge">
<title>10&#45;&gt;15</title>
<path fill="none" stroke="black" d="M782.73,-609.79C784.51,-602.36 786.59,-593.71 788.56,-585.49"/>
<polygon fill="black" stroke="black" points="791.96,-586.35 790.89,-575.81 785.15,-584.71 791.96,-586.35"/>
</g>
<!-- 16 -->
<g id="node16" class="node">
<title>16</title>
<polygon fill="none" stroke="black" points="994.88,-574 879.12,-574 879.12,-533 994.88,-533 994.88,-574"/>
<text text-anchor="middle" x="937" y="-556.7" font-family="Times New Roman,serif" font-size="14.00">NONTERMINAL</text>
<text text-anchor="middle" x="937" y="-540.2" font-family="Times New Roman,serif" font-size="14.00">type: Element</text>
</g>
<!-- 11&#45;&gt;16 -->
<g id="edge15" class="edge">
<title>11&#45;&gt;16</title>
<path fill="none" stroke="black" d="M929.63,-609.79C930.62,-602.36 931.77,-593.71 932.87,-585.49"/>
<polygon fill="black" stroke="black" points="936.3,-586.21 934.16,-575.83 929.36,-585.28 936.3,-586.21"/>
</g>
<!-- 17 -->
<g id="node17" class="node">
<title>17</title>
<polygon fill="none" stroke="black" points="103,-497 0,-439.5 103,-382 206,-439.5 103,-497"/>
<text text-anchor="middle" x="103" y="-450.95" font-family="Times New Roman,serif" font-size="14.00">TERMINAL</text>
<text text-anchor="middle" x="103" y="-434.45" font-family="Times New Roman,serif" font-size="14.00">type: key_name</text>
<text text-anchor="middle" x="103" y="-417.95" font-family="Times New Roman,serif" font-size="14.00">string: &#39;WHILE&#39;</text>
</g>
<!-- 12&#45;&gt;17 -->
<g id="edge16" class="edge">
<title>12&#45;&gt;17</title>
<path fill="none" stroke="black" d="M175.47,-532.73C165.9,-520.56 153.18,-504.37 141.07,-488.96"/>
<polygon fill="black" stroke="black" points="143.91,-486.9 134.98,-481.2 138.41,-491.23 143.91,-486.9"/>
</g>
<!-- 18 -->
<g id="node18" class="node">
<title>18</title>
<polygon fill="none" stroke="black" points="338,-497 223.75,-439.5 338,-382 452.25,-439.5 338,-497"/>
<text text-anchor="middle" x="338" y="-450.95" font-family="Times New Roman,serif" font-size="14.00">TERMINAL</text>
<text text-anchor="middle" x="338" y="-434.45" font-family="Times New Roman,serif" font-size="14.00">type: name</text>
<text text-anchor="middle" x="338" y="-417.95" font-family="Times New Roman,serif" font-size="14.00">string: Expression</text>
</g>
<!-- 13&#45;&gt;18 -->
<g id="edge17" class="edge">
<title>13&#45;&gt;18</title>
<path fill="none" stroke="black" d="M368.47,-532.73C365.42,-523.5 361.61,-511.97 357.73,-500.22"/>
<polygon fill="black" stroke="black" points="361.1,-499.26 354.64,-490.86 354.45,-501.45 361.1,-499.26"/>
</g>
<!-- 19 -->
<g id="node19" class="node">
<title>19</title>
<polygon fill="none" stroke="black" points="573,-497 470,-439.5 573,-382 676,-439.5 573,-497"/>
<text text-anchor="middle" x="573" y="-450.95" font-family="Times New Roman,serif" font-size="14.00">TERMINAL</text>
<text text-anchor="middle" x="573" y="-434.45" font-family="Times New Roman,serif" font-size="14.00">type: key_name</text>
<text text-anchor="middle" x="573" y="-417.95" font-family="Times New Roman,serif" font-size="14.00">string: &#39;DO&#39;</text>
</g>
<!-- 14&#45;&gt;19 -->
<g id="edge18" class="edge">
<title>14&#45;&gt;19</title>
<path fill="none" stroke="black" d="M573,-532.73C573,-525.67 573,-517.26 573,-508.43"/>
<polygon fill="black" stroke="black" points="576.5,-508.61 573,-498.61 569.5,-508.61 576.5,-508.61"/>
</g>
<!-- 20 -->
<g id="node20" class="node">
<title>20</title>
<ellipse fill="none" stroke="black" cx="737" cy="-439.5" rx="43.13" ry="28.99"/>
<text text-anchor="middle" x="737" y="-442.7" font-family="Times New Roman,serif" font-size="14.00">KEY</text>
<text text-anchor="middle" x="737" y="-426.2" font-family="Times New Roman,serif" font-size="14.00">string: {</text>
</g>
<!-- 15&#45;&gt;20 -->
<g id="edge19" class="edge">
<title>15&#45;&gt;20</title>
<path fill="none" stroke="black" d="M785.59,-532.73C777.53,-517.44 766.14,-495.82 756.42,-477.36"/>
<polygon fill="black" stroke="black" points="759.53,-475.77 751.78,-468.55 753.34,-479.03 759.53,-475.77"/>
</g>
<!-- 21 -->
<g id="node21" class="node">
<title>21</title>
<polygon fill="none" stroke="black" points="913.88,-460 798.12,-460 798.12,-419 913.88,-419 913.88,-460"/>
<text text-anchor="middle" x="856" y="-442.7" font-family="Times New Roman,serif" font-size="14.00">NONTERMINAL</text>
<text text-anchor="middle" x="856" y="-426.2" font-family="Times New Roman,serif" font-size="14.00">type: Alternative</text>
</g>
<!-- 15&#45;&gt;21 -->
<g id="edge20" class="edge">
<title>15&#45;&gt;21</title>
<path fill="none" stroke="black" d="M806.59,-532.73C815.83,-515.49 829.37,-490.2 839.95,-470.47"/>
<polygon fill="black" stroke="black" points="842.96,-472.25 844.6,-461.78 836.79,-468.94 842.96,-472.25"/>
</g>
<!-- 22 -->
<g id="node22" class="node">
<title>22</title>
<ellipse fill="none" stroke="black" cx="975" cy="-439.5" rx="43.13" ry="28.99"/>
<text text-anchor="middle" x="975" y="-442.7" font-family="Times New Roman,serif" font-size="14.00">KEY</text>
<text text-anchor="middle" x="975" y="-426.2" font-family="Times New Roman,serif" font-size="14.00">string: }</text>
</g>
<!-- 15&#45;&gt;22 -->
<g id="edge21" class="edge">
<title>15&#45;&gt;22</title>
<path fill="none" stroke="black" d="M854.32,-532.92C876.89,-523.87 902.23,-511.81 923,-497 932.02,-490.57 940.67,-482.35 948.23,-474.2"/>
<polygon fill="black" stroke="black" points="950.67,-476.73 954.69,-466.92 945.43,-472.08 950.67,-476.73"/>
</g>
<!-- 23 -->
<g id="node23" class="node">
<title>23</title>
<polygon fill="none" stroke="black" points="1174,-497 1036.5,-439.5 1174,-382 1311.5,-439.5 1174,-497"/>
<text text-anchor="middle" x="1174" y="-450.95" font-family="Times New Roman,serif" font-size="14.00">TERMINAL</text>
<text text-anchor="middle" x="1174" y="-434.45" font-family="Times New Roman,serif" font-size="14.00">type: key_name</text>
<text text-anchor="middle" x="1174" y="-417.95" font-family="Times New Roman,serif" font-size="14.00">string: &#39;END_WHILE&#39;</text>
</g>
<!-- 16&#45;&gt;23 -->
<g id="edge22" class="edge">
<title>16&#45;&gt;23</title>
<path fill="none" stroke="black" d="M979.1,-532.61C1012.5,-516.82 1060.03,-494.36 1099.79,-475.57"/>
<polygon fill="black" stroke="black" points="1101.07,-478.84 1108.61,-471.4 1098.07,-472.51 1101.07,-478.84"/>
</g>
<!-- 24 -->
<g id="node24" class="node">
<title>24</title>
<polygon fill="none" stroke="black" points="913.88,-346 798.12,-346 798.12,-305 913.88,-305 913.88,-346"/>
<text text-anchor="middle" x="856" y="-328.7" font-family="Times New Roman,serif" font-size="14.00">NONTERMINAL</text>
<text text-anchor="middle" x="856" y="-312.2" font-family="Times New Roman,serif" font-size="14.00">type: Sequence</text>
</g>
<!-- 21&#45;&gt;24 -->
<g id="edge23" class="edge">
<title>21&#45;&gt;24</title>
<path fill="none" stroke="black" d="M856,-418.73C856,-401.88 856,-377.37 856,-357.84"/>
<polygon fill="black" stroke="black" points="859.5,-357.96 856,-347.96 852.5,-357.96 859.5,-357.96"/>
</g>
<!-- 25 -->
<g id="node25" class="node">
<title>25</title>
<polygon fill="none" stroke="black" points="915,-269 797,-269 797,-228 915,-228 915,-269"/>
<text text-anchor="middle" x="856" y="-251.7" font-family="Times New Roman,serif" font-size="14.00">NONTERMINAL</text>
<text text-anchor="middle" x="856" y="-235.2" font-family="Times New Roman,serif" font-size="14.00">type: RuleElement</text>
</g>
<!-- 24&#45;&gt;25 -->
<g id="edge24" class="edge">
<title>24&#45;&gt;25</title>
<path fill="none" stroke="black" d="M856,-304.79C856,-297.45 856,-288.91 856,-280.78"/>
<polygon fill="black" stroke="black" points="859.5,-280.85 856,-270.85 852.5,-280.85 859.5,-280.85"/>
</g>
<!-- 26 -->
<g id="node26" class="node">
<title>26</title>
<polygon fill="none" stroke="black" points="913.88,-192 798.12,-192 798.12,-151 913.88,-151 913.88,-192"/>
<text text-anchor="middle" x="856" y="-174.7" font-family="Times New Roman,serif" font-size="14.00">NONTERMINAL</text>
<text text-anchor="middle" x="856" y="-158.2" font-family="Times New Roman,serif" font-size="14.00">type: Element</text>
</g>
<!-- 25&#45;&gt;26 -->
<g id="edge25" class="edge">
<title>25&#45;&gt;26</title>
<path fill="none" stroke="black" d="M856,-227.79C856,-220.45 856,-211.91 856,-203.78"/>
<polygon fill="black" stroke="black" points="859.5,-203.85 856,-193.85 852.5,-203.85 859.5,-203.85"/>
</g>
<!-- 27 -->
<g id="node27" class="node">
<title>27</title>
<polygon fill="none" stroke="black" points="856,-115 769.5,-57.5 856,0 942.5,-57.5 856,-115"/>
<text text-anchor="middle" x="856" y="-68.95" font-family="Times New Roman,serif" font-size="14.00">TERMINAL</text>
<text text-anchor="middle" x="856" y="-52.45" font-family="Times New Roman,serif" font-size="14.00">type: name</text>
<text text-anchor="middle" x="856" y="-35.95" font-family="Times New Roman,serif" font-size="14.00">string: Block</text>
</g>
<!-- 26&#45;&gt;27 -->
<g id="edge26" class="edge">
<title>26&#45;&gt;27</title>
<path fill="none" stroke="black" d="M856,-150.73C856,-143.84 856,-135.65 856,-127.05"/>
<polygon fill="black" stroke="black" points="859.5,-127.09 856,-117.09 852.5,-127.09 859.5,-127.09"/>
</g>
</g>
</svg>
