<?xml version="1.0" encoding="UTF-8" standalone="no"?>
<!DOCTYPE svg PUBLIC "-//W3C//DTD SVG 1.1//EN"
 "http://www.w3.org/Graphics/SVG/1.1/DTD/svg11.dtd">
<!-- Generated by graphviz version 12.2.0 (20241103.1931)
 -->
<!-- Title: ast_Identifier Pages: 1 -->
<svg width="624pt" height="599pt"
 viewBox="0.00 0.00 624.00 598.98" xmlns="http://www.w3.org/2000/svg" xmlns:xlink="http://www.w3.org/1999/xlink">
<g id="graph0" class="graph" transform="scale(1 1) rotate(0) translate(4 594.98)">
<title>ast_Identifier</title>
<polygon fill="white" stroke="none" points="-4,4 -4,-594.98 620,-594.98 620,4 -4,4"/>
<!-- 1 -->
<g id="node1" class="node">
<title>1</title>
<polygon fill="none" stroke="black" points="396.38,-590.98 280.62,-590.98 280.62,-549.98 396.38,-549.98 396.38,-590.98"/>
<text text-anchor="middle" x="338.5" y="-573.68" font-family="Times New Roman,serif" font-size="14.00">NONTERMINAL</text>
<text text-anchor="middle" x="338.5" y="-557.18" font-family="Times New Roman,serif" font-size="14.00">type: Rule</text>
</g>
<!-- 2 -->
<g id="node2" class="node">
<title>2</title>
<polygon fill="none" stroke="black" points="104.5,-513.98 0,-456.48 104.5,-398.98 209,-456.48 104.5,-513.98"/>
<text text-anchor="middle" x="104.5" y="-467.93" font-family="Times New Roman,serif" font-size="14.00">TERMINAL</text>
<text text-anchor="middle" x="104.5" y="-451.43" font-family="Times New Roman,serif" font-size="14.00">type: name</text>
<text text-anchor="middle" x="104.5" y="-434.93" font-family="Times New Roman,serif" font-size="14.00">string: Identifier</text>
</g>
<!-- 1&#45;&gt;2 -->
<g id="edge1" class="edge">
<title>1&#45;&gt;2</title>
<path fill="none" stroke="black" d="M294.76,-549.6C271.96,-539.14 243.65,-526.03 218.5,-513.98 202.25,-506.2 184.78,-497.64 168.52,-489.59"/>
<polygon fill="black" stroke="black" points="170.44,-486.64 159.93,-485.33 167.33,-492.91 170.44,-486.64"/>
</g>
<!-- 3 -->
<g id="node3" class="node">
<title>3</title>
<ellipse fill="none" stroke="black" cx="276.5" cy="-456.48" rx="49.5" ry="28.99"/>
<text text-anchor="middle" x="276.5" y="-459.68" font-family="Times New Roman,serif" font-size="14.00">KEY</text>
<text text-anchor="middle" x="276.5" y="-443.18" font-family="Times New Roman,serif" font-size="14.00">string: ::=</text>
</g>
<!-- 1&#45;&gt;3 -->
<g id="edge2" class="edge">
<title>1&#45;&gt;3</title>
<path fill="none" stroke="black" d="M327.56,-549.72C319.05,-534.35 307.01,-512.61 296.76,-494.09"/>
<polygon fill="black" stroke="black" points="299.93,-492.57 292.02,-485.52 293.8,-495.96 299.93,-492.57"/>
</g>
<!-- 4 -->
<g id="node4" class="node">
<title>4</title>
<polygon fill="none" stroke="black" points="459.38,-476.98 343.62,-476.98 343.62,-435.98 459.38,-435.98 459.38,-476.98"/>
<text text-anchor="middle" x="401.5" y="-459.68" font-family="Times New Roman,serif" font-size="14.00">NONTERMINAL</text>
<text text-anchor="middle" x="401.5" y="-443.18" font-family="Times New Roman,serif" font-size="14.00">type: Alternative</text>
</g>
<!-- 1&#45;&gt;4 -->
<g id="edge3" class="edge">
<title>1&#45;&gt;4</title>
<path fill="none" stroke="black" d="M349.62,-549.72C359.32,-532.47 373.54,-507.19 384.64,-487.45"/>
<polygon fill="black" stroke="black" points="387.69,-489.18 389.54,-478.75 381.59,-485.75 387.69,-489.18"/>
</g>
<!-- 5 -->
<g id="node5" class="node">
<title>5</title>
<ellipse fill="none" stroke="black" cx="518.5" cy="-456.48" rx="41.01" ry="28.99"/>
<text text-anchor="middle" x="518.5" y="-459.68" font-family="Times New Roman,serif" font-size="14.00">KEY</text>
<text text-anchor="middle" x="518.5" y="-443.18" font-family="Times New Roman,serif" font-size="14.00">string: ;</text>
</g>
<!-- 1&#45;&gt;5 -->
<g id="edge4" class="edge">
<title>1&#45;&gt;5</title>
<path fill="none" stroke="black" d="M396.73,-550.95C420.26,-541.9 446.91,-529.56 468.5,-513.98 477.24,-507.68 485.52,-499.59 492.74,-491.52"/>
<polygon fill="black" stroke="black" points="495.33,-493.89 499.15,-484.01 490,-489.35 495.33,-493.89"/>
</g>
<!-- 6 -->
<g id="node6" class="node">
<title>6</title>
<polygon fill="none" stroke="black" points="343.38,-354.49 227.62,-354.49 227.62,-313.49 343.38,-313.49 343.38,-354.49"/>
<text text-anchor="middle" x="285.5" y="-337.19" font-family="Times New Roman,serif" font-size="14.00">NONTERMINAL</text>
<text text-anchor="middle" x="285.5" y="-320.69" font-family="Times New Roman,serif" font-size="14.00">type: Sequence</text>
</g>
<!-- 4&#45;&gt;6 -->
<g id="edge5" class="edge">
<title>4&#45;&gt;6</title>
<path fill="none" stroke="black" d="M382.34,-435.59C363.29,-415.79 333.87,-385.24 312.46,-363"/>
<polygon fill="black" stroke="black" points="315.19,-360.78 305.73,-356.01 310.15,-365.64 315.19,-360.78"/>
</g>
<!-- 7 -->
<g id="node7" class="node">
<title>7</title>
<ellipse fill="none" stroke="black" cx="401.5" cy="-333.99" rx="40.48" ry="28.99"/>
<text text-anchor="middle" x="401.5" y="-337.19" font-family="Times New Roman,serif" font-size="14.00">KEY</text>
<text text-anchor="middle" x="401.5" y="-320.69" font-family="Times New Roman,serif" font-size="14.00">string: |</text>
</g>
<!-- 4&#45;&gt;7 -->
<g id="edge6" class="edge">
<title>4&#45;&gt;7</title>
<path fill="none" stroke="black" d="M401.5,-435.59C401.5,-418.97 401.5,-394.77 401.5,-374.28"/>
<polygon fill="black" stroke="black" points="405,-374.55 401.5,-364.55 398,-374.55 405,-374.55"/>
</g>
<!-- 8 -->
<g id="node8" class="node">
<title>8</title>
<polygon fill="none" stroke="black" points="575.38,-354.49 459.62,-354.49 459.62,-313.49 575.38,-313.49 575.38,-354.49"/>
<text text-anchor="middle" x="517.5" y="-337.19" font-family="Times New Roman,serif" font-size="14.00">NONTERMINAL</text>
<text text-anchor="middle" x="517.5" y="-320.69" font-family="Times New Roman,serif" font-size="14.00">type: Sequence</text>
</g>
<!-- 4&#45;&gt;8 -->
<g id="edge7" class="edge">
<title>4&#45;&gt;8</title>
<path fill="none" stroke="black" d="M420.66,-435.59C439.71,-415.79 469.13,-385.24 490.54,-363"/>
<polygon fill="black" stroke="black" points="492.85,-365.64 497.27,-356.01 487.81,-360.78 492.85,-365.64"/>
</g>
<!-- 9 -->
<g id="node9" class="node">
<title>9</title>
<polygon fill="none" stroke="black" points="344.5,-269 226.5,-269 226.5,-228 344.5,-228 344.5,-269"/>
<text text-anchor="middle" x="285.5" y="-251.7" font-family="Times New Roman,serif" font-size="14.00">NONTERMINAL</text>
<text text-anchor="middle" x="285.5" y="-235.2" font-family="Times New Roman,serif" font-size="14.00">type: RuleElement</text>
</g>
<!-- 6&#45;&gt;9 -->
<g id="edge8" class="edge">
<title>6&#45;&gt;9</title>
<path fill="none" stroke="black" d="M285.5,-313.21C285.5,-303.5 285.5,-291.59 285.5,-280.7"/>
<polygon fill="black" stroke="black" points="289,-280.95 285.5,-270.95 282,-280.95 289,-280.95"/>
</g>
<!-- 10 -->
<g id="node10" class="node">
<title>10</title>
<polygon fill="none" stroke="black" points="576.5,-269 458.5,-269 458.5,-228 576.5,-228 576.5,-269"/>
<text text-anchor="middle" x="517.5" y="-251.7" font-family="Times New Roman,serif" font-size="14.00">NONTERMINAL</text>
<text text-anchor="middle" x="517.5" y="-235.2" font-family="Times New Roman,serif" font-size="14.00">type: RuleElement</text>
</g>
<!-- 8&#45;&gt;10 -->
<g id="edge9" class="edge">
<title>8&#45;&gt;10</title>
<path fill="none" stroke="black" d="M517.5,-313.21C517.5,-303.5 517.5,-291.59 517.5,-280.7"/>
<polygon fill="black" stroke="black" points="521,-280.95 517.5,-270.95 514,-280.95 521,-280.95"/>
</g>
<!-- 11 -->
<g id="node11" class="node">
<title>11</title>
<polygon fill="none" stroke="black" points="343.38,-192 227.62,-192 227.62,-151 343.38,-151 343.38,-192"/>
<text text-anchor="middle" x="285.5" y="-174.7" font-family="Times New Roman,serif" font-size="14.00">NONTERMINAL</text>
<text text-anchor="middle" x="285.5" y="-158.2" font-family="Times New Roman,serif" font-size="14.00">type: Element</text>
</g>
<!-- 9&#45;&gt;11 -->
<g id="edge10" class="edge">
<title>9&#45;&gt;11</title>
<path fill="none" stroke="black" d="M285.5,-227.79C285.5,-220.45 285.5,-211.91 285.5,-203.78"/>
<polygon fill="black" stroke="black" points="289,-203.85 285.5,-193.85 282,-203.85 289,-203.85"/>
</g>
<!-- 12 -->
<g id="node12" class="node">
<title>12</title>
<polygon fill="none" stroke="black" points="575.38,-192 459.62,-192 459.62,-151 575.38,-151 575.38,-192"/>
<text text-anchor="middle" x="517.5" y="-174.7" font-family="Times New Roman,serif" font-size="14.00">NONTERMINAL</text>
<text text-anchor="middle" x="517.5" y="-158.2" font-family="Times New Roman,serif" font-size="14.00">type: Element</text>
</g>
<!-- 10&#45;&gt;12 -->
<g id="edge11" class="edge">
<title>10&#45;&gt;12</title>
<path fill="none" stroke="black" d="M517.5,-227.79C517.5,-220.45 517.5,-211.91 517.5,-203.78"/>
<polygon fill="black" stroke="black" points="521,-203.85 517.5,-193.85 514,-203.85 521,-203.85"/>
</g>
<!-- 13 -->
<g id="node13" class="node">
<title>13</title>
<ellipse fill="none" stroke="black" cx="285.5" cy="-57.5" rx="59.04" ry="28.99"/>
<text text-anchor="middle" x="285.5" y="-60.7" font-family="Times New Roman,serif" font-size="14.00">KEY</text>
<text text-anchor="middle" x="285.5" y="-44.2" font-family="Times New Roman,serif" font-size="14.00">string: None</text>
</g>
<!-- 11&#45;&gt;13 -->
<g id="edge12" class="edge">
<title>11&#45;&gt;13</title>
<path fill="none" stroke="black" d="M285.5,-150.73C285.5,-136.21 285.5,-115.98 285.5,-98.17"/>
<polygon fill="black" stroke="black" points="289,-98.41 285.5,-88.41 282,-98.41 289,-98.41"/>
</g>
<!-- 14 -->
<g id="node14" class="node">
<title>14</title>
<polygon fill="none" stroke="black" points="517.5,-115 419,-57.5 517.5,0 616,-57.5 517.5,-115"/>
<text text-anchor="middle" x="517.5" y="-68.95" font-family="Times New Roman,serif" font-size="14.00">TERMINAL</text>
<text text-anchor="middle" x="517.5" y="-52.45" font-family="Times New Roman,serif" font-size="14.00">type: name</text>
<text text-anchor="middle" x="517.5" y="-35.95" font-family="Times New Roman,serif" font-size="14.00">string: exprtext</text>
</g>
<!-- 12&#45;&gt;14 -->
<g id="edge13" class="edge">
<title>12&#45;&gt;14</title>
<path fill="none" stroke="black" d="M517.5,-150.73C517.5,-143.84 517.5,-135.65 517.5,-127.05"/>
<polygon fill="black" stroke="black" points="521,-127.09 517.5,-117.09 514,-127.09 521,-127.09"/>
</g>
</g>
</svg>
