<?xml version="1.0" encoding="UTF-8" standalone="no"?>
<!DOCTYPE svg PUBLIC "-//W3C//DTD SVG 1.1//EN"
 "http://www.w3.org/Graphics/SVG/1.1/DTD/svg11.dtd">
<!-- Generated by graphviz version 12.2.0 (20241103.1931)
 -->
<!-- Title: ast_Comment Pages: 1 -->
<svg width="576pt" height="582pt"
 viewBox="0.00 0.00 576.01 582.00" xmlns="http://www.w3.org/2000/svg" xmlns:xlink="http://www.w3.org/1999/xlink">
<g id="graph0" class="graph" transform="scale(1 1) rotate(0) translate(4 578)">
<title>ast_Comment</title>
<polygon fill="white" stroke="none" points="-4,4 -4,-578 572.01,-578 572.01,4 -4,4"/>
<!-- 1 -->
<g id="node1" class="node">
<title>1</title>
<polygon fill="none" stroke="black" points="404.88,-574 289.12,-574 289.12,-533 404.88,-533 404.88,-574"/>
<text text-anchor="middle" x="347" y="-556.7" font-family="Times New Roman,serif" font-size="14.00">NONTERMINAL</text>
<text text-anchor="middle" x="347" y="-540.2" font-family="Times New Roman,serif" font-size="14.00">type: Rule</text>
</g>
<!-- 2 -->
<g id="node2" class="node">
<title>2</title>
<polygon fill="none" stroke="black" points="109,-497 0,-439.5 109,-382 218,-439.5 109,-497"/>
<text text-anchor="middle" x="109" y="-450.95" font-family="Times New Roman,serif" font-size="14.00">TERMINAL</text>
<text text-anchor="middle" x="109" y="-434.45" font-family="Times New Roman,serif" font-size="14.00">type: name</text>
<text text-anchor="middle" x="109" y="-417.95" font-family="Times New Roman,serif" font-size="14.00">string: Comment</text>
</g>
<!-- 1&#45;&gt;2 -->
<g id="edge1" class="edge">
<title>1&#45;&gt;2</title>
<path fill="none" stroke="black" d="M303.61,-532.6C280.78,-522.09 252.34,-508.92 227,-497 210.32,-489.15 192.36,-480.6 175.6,-472.58"/>
<polygon fill="black" stroke="black" points="177.24,-469.49 166.71,-468.32 174.22,-475.8 177.24,-469.49"/>
</g>
<!-- 3 -->
<g id="node3" class="node">
<title>3</title>
<ellipse fill="none" stroke="black" cx="285" cy="-439.5" rx="49.5" ry="28.99"/>
<text text-anchor="middle" x="285" y="-442.7" font-family="Times New Roman,serif" font-size="14.00">KEY</text>
<text text-anchor="middle" x="285" y="-426.2" font-family="Times New Roman,serif" font-size="14.00">string: ::=</text>
</g>
<!-- 1&#45;&gt;3 -->
<g id="edge2" class="edge">
<title>1&#45;&gt;3</title>
<path fill="none" stroke="black" d="M336.06,-532.73C327.55,-517.37 315.51,-495.62 305.26,-477.11"/>
<polygon fill="black" stroke="black" points="308.43,-475.59 300.52,-468.54 302.3,-478.98 308.43,-475.59"/>
</g>
<!-- 4 -->
<g id="node4" class="node">
<title>4</title>
<polygon fill="none" stroke="black" points="467.88,-460 352.12,-460 352.12,-419 467.88,-419 467.88,-460"/>
<text text-anchor="middle" x="410" y="-442.7" font-family="Times New Roman,serif" font-size="14.00">NONTERMINAL</text>
<text text-anchor="middle" x="410" y="-426.2" font-family="Times New Roman,serif" font-size="14.00">type: Alternative</text>
</g>
<!-- 1&#45;&gt;4 -->
<g id="edge3" class="edge">
<title>1&#45;&gt;4</title>
<path fill="none" stroke="black" d="M358.12,-532.73C367.82,-515.49 382.04,-490.2 393.14,-470.47"/>
<polygon fill="black" stroke="black" points="396.19,-472.2 398.04,-461.76 390.09,-468.76 396.19,-472.2"/>
</g>
<!-- 5 -->
<g id="node5" class="node">
<title>5</title>
<ellipse fill="none" stroke="black" cx="527" cy="-439.5" rx="41.01" ry="28.99"/>
<text text-anchor="middle" x="527" y="-442.7" font-family="Times New Roman,serif" font-size="14.00">KEY</text>
<text text-anchor="middle" x="527" y="-426.2" font-family="Times New Roman,serif" font-size="14.00">string: ;</text>
</g>
<!-- 1&#45;&gt;5 -->
<g id="edge4" class="edge">
<title>1&#45;&gt;5</title>
<path fill="none" stroke="black" d="M405.23,-533.97C428.76,-524.92 455.41,-512.58 477,-497 485.74,-490.7 494.02,-482.61 501.24,-474.54"/>
<polygon fill="black" stroke="black" points="503.83,-476.91 507.65,-467.02 498.5,-472.36 503.83,-476.91"/>
</g>
<!-- 6 -->
<g id="node6" class="node">
<title>6</title>
<polygon fill="none" stroke="black" points="467.88,-346 352.12,-346 352.12,-305 467.88,-305 467.88,-346"/>
<text text-anchor="middle" x="410" y="-328.7" font-family="Times New Roman,serif" font-size="14.00">NONTERMINAL</text>
<text text-anchor="middle" x="410" y="-312.2" font-family="Times New Roman,serif" font-size="14.00">type: Sequence</text>
</g>
<!-- 4&#45;&gt;6 -->
<g id="edge5" class="edge">
<title>4&#45;&gt;6</title>
<path fill="none" stroke="black" d="M410,-418.73C410,-401.88 410,-377.37 410,-357.84"/>
<polygon fill="black" stroke="black" points="413.5,-357.96 410,-347.96 406.5,-357.96 413.5,-357.96"/>
</g>
<!-- 7 -->
<g id="node7" class="node">
<title>7</title>
<polygon fill="none" stroke="black" points="469,-269 351,-269 351,-228 469,-228 469,-269"/>
<text text-anchor="middle" x="410" y="-251.7" font-family="Times New Roman,serif" font-size="14.00">NONTERMINAL</text>
<text text-anchor="middle" x="410" y="-235.2" font-family="Times New Roman,serif" font-size="14.00">type: RuleElement</text>
</g>
<!-- 6&#45;&gt;7 -->
<g id="edge6" class="edge">
<title>6&#45;&gt;7</title>
<path fill="none" stroke="black" d="M410,-304.79C410,-297.45 410,-288.91 410,-280.78"/>
<polygon fill="black" stroke="black" points="413.5,-280.85 410,-270.85 406.5,-280.85 413.5,-280.85"/>
</g>
<!-- 8 -->
<g id="node8" class="node">
<title>8</title>
<polygon fill="none" stroke="black" points="467.88,-192 352.12,-192 352.12,-151 467.88,-151 467.88,-192"/>
<text text-anchor="middle" x="410" y="-174.7" font-family="Times New Roman,serif" font-size="14.00">NONTERMINAL</text>
<text text-anchor="middle" x="410" y="-158.2" font-family="Times New Roman,serif" font-size="14.00">type: Element</text>
</g>
<!-- 7&#45;&gt;8 -->
<g id="edge7" class="edge">
<title>7&#45;&gt;8</title>
<path fill="none" stroke="black" d="M410,-227.79C410,-220.45 410,-211.91 410,-203.78"/>
<polygon fill="black" stroke="black" points="413.5,-203.85 410,-193.85 406.5,-203.85 413.5,-203.85"/>
</g>
<!-- 9 -->
<g id="node9" class="node">
<title>9</title>
<polygon fill="none" stroke="black" points="410,-115 283.75,-57.5 410,0 536.25,-57.5 410,-115"/>
<text text-anchor="middle" x="410" y="-68.95" font-family="Times New Roman,serif" font-size="14.00">TERMINAL</text>
<text text-anchor="middle" x="410" y="-52.45" font-family="Times New Roman,serif" font-size="14.00">type: name</text>
<text text-anchor="middle" x="410" y="-35.95" font-family="Times New Roman,serif" font-size="14.00">string: commenttext</text>
</g>
<!-- 8&#45;&gt;9 -->
<g id="edge8" class="edge">
<title>8&#45;&gt;9</title>
<path fill="none" stroke="black" d="M410,-150.73C410,-143.67 410,-135.26 410,-126.43"/>
<polygon fill="black" stroke="black" points="413.5,-126.61 410,-116.61 406.5,-126.61 413.5,-126.61"/>
</g>
</g>
</svg>
