<?xml version="1.0" encoding="UTF-8" standalone="no"?>
<!DOCTYPE svg PUBLIC "-//W3C//DTD SVG 1.1//EN"
 "http://www.w3.org/Graphics/SVG/1.1/DTD/svg11.dtd">
<!-- Generated by graphviz version 12.2.0 (20241103.1931)
 -->
<!-- Title: ast_ProcDecl Pages: 1 -->
<svg width="1844pt" height="964pt"
 viewBox="0.00 0.00 1843.50 964.00" xmlns="http://www.w3.org/2000/svg" xmlns:xlink="http://www.w3.org/1999/xlink">
<g id="graph0" class="graph" transform="scale(1 1) rotate(0) translate(4 960)">
<title>ast_ProcDecl</title>
<polygon fill="white" stroke="none" points="-4,4 -4,-960 1839.5,-960 1839.5,4 -4,4"/>
<!-- 1 -->
<g id="node1" class="node">
<title>1</title>
<polygon fill="none" stroke="black" points="829.88,-956 714.12,-956 714.12,-915 829.88,-915 829.88,-956"/>
<text text-anchor="middle" x="772" y="-938.7" font-family="Times New Roman,serif" font-size="14.00">NONTERMINAL</text>
<text text-anchor="middle" x="772" y="-922.2" font-family="Times New Roman,serif" font-size="14.00">type: Rule</text>
</g>
<!-- 2 -->
<g id="node2" class="node">
<title>2</title>
<polygon fill="none" stroke="black" points="538,-879 433.5,-821.5 538,-764 642.5,-821.5 538,-879"/>
<text text-anchor="middle" x="538" y="-832.95" font-family="Times New Roman,serif" font-size="14.00">TERMINAL</text>
<text text-anchor="middle" x="538" y="-816.45" font-family="Times New Roman,serif" font-size="14.00">type: name</text>
<text text-anchor="middle" x="538" y="-799.95" font-family="Times New Roman,serif" font-size="14.00">string: ProcDecl</text>
</g>
<!-- 1&#45;&gt;2 -->
<g id="edge1" class="edge">
<title>1&#45;&gt;2</title>
<path fill="none" stroke="black" d="M728.26,-914.61C705.46,-904.16 677.15,-891.05 652,-879 635.75,-871.22 618.28,-862.66 602.02,-854.61"/>
<polygon fill="black" stroke="black" points="603.94,-851.65 593.43,-850.34 600.83,-857.92 603.94,-851.65"/>
</g>
<!-- 3 -->
<g id="node3" class="node">
<title>3</title>
<ellipse fill="none" stroke="black" cx="710" cy="-821.5" rx="49.5" ry="28.99"/>
<text text-anchor="middle" x="710" y="-824.7" font-family="Times New Roman,serif" font-size="14.00">KEY</text>
<text text-anchor="middle" x="710" y="-808.2" font-family="Times New Roman,serif" font-size="14.00">string: ::=</text>
</g>
<!-- 1&#45;&gt;3 -->
<g id="edge2" class="edge">
<title>1&#45;&gt;3</title>
<path fill="none" stroke="black" d="M761.06,-914.73C752.55,-899.37 740.51,-877.62 730.26,-859.11"/>
<polygon fill="black" stroke="black" points="733.43,-857.59 725.52,-850.54 727.3,-860.98 733.43,-857.59"/>
</g>
<!-- 4 -->
<g id="node4" class="node">
<title>4</title>
<polygon fill="none" stroke="black" points="892.88,-842 777.12,-842 777.12,-801 892.88,-801 892.88,-842"/>
<text text-anchor="middle" x="835" y="-824.7" font-family="Times New Roman,serif" font-size="14.00">NONTERMINAL</text>
<text text-anchor="middle" x="835" y="-808.2" font-family="Times New Roman,serif" font-size="14.00">type: Alternative</text>
</g>
<!-- 1&#45;&gt;4 -->
<g id="edge3" class="edge">
<title>1&#45;&gt;4</title>
<path fill="none" stroke="black" d="M783.12,-914.73C792.82,-897.49 807.04,-872.2 818.14,-852.47"/>
<polygon fill="black" stroke="black" points="821.19,-854.2 823.04,-843.76 815.09,-850.76 821.19,-854.2"/>
</g>
<!-- 5 -->
<g id="node5" class="node">
<title>5</title>
<ellipse fill="none" stroke="black" cx="952" cy="-821.5" rx="41.01" ry="28.99"/>
<text text-anchor="middle" x="952" y="-824.7" font-family="Times New Roman,serif" font-size="14.00">KEY</text>
<text text-anchor="middle" x="952" y="-808.2" font-family="Times New Roman,serif" font-size="14.00">string: ;</text>
</g>
<!-- 1&#45;&gt;5 -->
<g id="edge4" class="edge">
<title>1&#45;&gt;5</title>
<path fill="none" stroke="black" d="M830.23,-915.97C853.76,-906.92 880.41,-894.58 902,-879 910.74,-872.7 919.02,-864.61 926.24,-856.54"/>
<polygon fill="black" stroke="black" points="928.83,-858.91 932.65,-849.02 923.5,-854.36 928.83,-858.91"/>
</g>
<!-- 6 -->
<g id="node6" class="node">
<title>6</title>
<polygon fill="none" stroke="black" points="892.88,-728 777.12,-728 777.12,-687 892.88,-687 892.88,-728"/>
<text text-anchor="middle" x="835" y="-710.7" font-family="Times New Roman,serif" font-size="14.00">NONTERMINAL</text>
<text text-anchor="middle" x="835" y="-694.2" font-family="Times New Roman,serif" font-size="14.00">type: Sequence</text>
</g>
<!-- 4&#45;&gt;6 -->
<g id="edge5" class="edge">
<title>4&#45;&gt;6</title>
<path fill="none" stroke="black" d="M835,-800.73C835,-783.88 835,-759.37 835,-739.84"/>
<polygon fill="black" stroke="black" points="838.5,-739.96 835,-729.96 831.5,-739.96 838.5,-739.96"/>
</g>
<!-- 7 -->
<g id="node7" class="node">
<title>7</title>
<polygon fill="none" stroke="black" points="283,-651 165,-651 165,-610 283,-610 283,-651"/>
<text text-anchor="middle" x="224" y="-633.7" font-family="Times New Roman,serif" font-size="14.00">NONTERMINAL</text>
<text text-anchor="middle" x="224" y="-617.2" font-family="Times New Roman,serif" font-size="14.00">type: RuleElement</text>
</g>
<!-- 6&#45;&gt;7 -->
<g id="edge6" class="edge">
<title>6&#45;&gt;7</title>
<path fill="none" stroke="black" d="M776.69,-699.34C664,-685.51 416.67,-655.15 294.77,-640.19"/>
<polygon fill="black" stroke="black" points="295.23,-636.72 284.87,-638.97 294.37,-643.66 295.23,-636.72"/>
</g>
<!-- 8 -->
<g id="node8" class="node">
<title>8</title>
<polygon fill="none" stroke="black" points="535,-651 417,-651 417,-610 535,-610 535,-651"/>
<text text-anchor="middle" x="476" y="-633.7" font-family="Times New Roman,serif" font-size="14.00">NONTERMINAL</text>
<text text-anchor="middle" x="476" y="-617.2" font-family="Times New Roman,serif" font-size="14.00">type: RuleElement</text>
</g>
<!-- 6&#45;&gt;8 -->
<g id="edge7" class="edge">
<title>6&#45;&gt;8</title>
<path fill="none" stroke="black" d="M776.92,-694.37C714.04,-681.23 613.74,-660.28 546.41,-646.21"/>
<polygon fill="black" stroke="black" points="547.48,-642.86 536.97,-644.24 546.04,-649.71 547.48,-642.86"/>
</g>
<!-- 9 -->
<g id="node9" class="node">
<title>9</title>
<polygon fill="none" stroke="black" points="729,-651 611,-651 611,-610 729,-610 729,-651"/>
<text text-anchor="middle" x="670" y="-633.7" font-family="Times New Roman,serif" font-size="14.00">NONTERMINAL</text>
<text text-anchor="middle" x="670" y="-617.2" font-family="Times New Roman,serif" font-size="14.00">type: RuleElement</text>
</g>
<!-- 6&#45;&gt;9 -->
<g id="edge8" class="edge">
<title>6&#45;&gt;9</title>
<path fill="none" stroke="black" d="M791.22,-686.6C770.7,-677.27 746.06,-666.07 724.37,-656.21"/>
<polygon fill="black" stroke="black" points="725.92,-653.07 715.37,-652.12 723.02,-659.45 725.92,-653.07"/>
</g>
<!-- 10 -->
<g id="node10" class="node">
<title>10</title>
<polygon fill="none" stroke="black" points="894,-651 776,-651 776,-610 894,-610 894,-651"/>
<text text-anchor="middle" x="835" y="-633.7" font-family="Times New Roman,serif" font-size="14.00">NONTERMINAL</text>
<text text-anchor="middle" x="835" y="-617.2" font-family="Times New Roman,serif" font-size="14.00">type: RuleElement</text>
</g>
<!-- 6&#45;&gt;10 -->
<g id="edge9" class="edge">
<title>6&#45;&gt;10</title>
<path fill="none" stroke="black" d="M835,-686.79C835,-679.45 835,-670.91 835,-662.78"/>
<polygon fill="black" stroke="black" points="838.5,-662.85 835,-652.85 831.5,-662.85 838.5,-662.85"/>
</g>
<!-- 11 -->
<g id="node11" class="node">
<title>11</title>
<polygon fill="none" stroke="black" points="1066,-651 948,-651 948,-610 1066,-610 1066,-651"/>
<text text-anchor="middle" x="1007" y="-633.7" font-family="Times New Roman,serif" font-size="14.00">NONTERMINAL</text>
<text text-anchor="middle" x="1007" y="-617.2" font-family="Times New Roman,serif" font-size="14.00">type: RuleElement</text>
</g>
<!-- 6&#45;&gt;11 -->
<g id="edge10" class="edge">
<title>6&#45;&gt;11</title>
<path fill="none" stroke="black" d="M880.64,-686.6C902.12,-677.23 927.94,-665.97 950.63,-656.08"/>
<polygon fill="black" stroke="black" points="951.99,-659.31 959.76,-652.1 949.19,-652.89 951.99,-659.31"/>
</g>
<!-- 12 -->
<g id="node12" class="node">
<title>12</title>
<polygon fill="none" stroke="black" points="1316,-651 1198,-651 1198,-610 1316,-610 1316,-651"/>
<text text-anchor="middle" x="1257" y="-633.7" font-family="Times New Roman,serif" font-size="14.00">NONTERMINAL</text>
<text text-anchor="middle" x="1257" y="-617.2" font-family="Times New Roman,serif" font-size="14.00">type: RuleElement</text>
</g>
<!-- 6&#45;&gt;12 -->
<g id="edge11" class="edge">
<title>6&#45;&gt;12</title>
<path fill="none" stroke="black" d="M893.23,-696.15C969.79,-682.54 1104.17,-658.66 1186.42,-644.04"/>
<polygon fill="black" stroke="black" points="1186.94,-647.51 1196.17,-642.31 1185.72,-640.61 1186.94,-647.51"/>
</g>
<!-- 13 -->
<g id="node13" class="node">
<title>13</title>
<polygon fill="none" stroke="black" points="1501,-651 1383,-651 1383,-610 1501,-610 1501,-651"/>
<text text-anchor="middle" x="1442" y="-633.7" font-family="Times New Roman,serif" font-size="14.00">NONTERMINAL</text>
<text text-anchor="middle" x="1442" y="-617.2" font-family="Times New Roman,serif" font-size="14.00">type: RuleElement</text>
</g>
<!-- 6&#45;&gt;13 -->
<g id="edge12" class="edge">
<title>6&#45;&gt;13</title>
<path fill="none" stroke="black" d="M893.2,-700.9C985.11,-691.84 1169.41,-672.76 1325,-651 1340.1,-648.89 1356.25,-646.37 1371.58,-643.85"/>
<polygon fill="black" stroke="black" points="1371.79,-647.36 1381.08,-642.27 1370.64,-640.46 1371.79,-647.36"/>
</g>
<!-- 14 -->
<g id="node14" class="node">
<title>14</title>
<polygon fill="none" stroke="black" points="243.88,-574 128.12,-574 128.12,-533 243.88,-533 243.88,-574"/>
<text text-anchor="middle" x="186" y="-556.7" font-family="Times New Roman,serif" font-size="14.00">NONTERMINAL</text>
<text text-anchor="middle" x="186" y="-540.2" font-family="Times New Roman,serif" font-size="14.00">type: Element</text>
</g>
<!-- 7&#45;&gt;14 -->
<g id="edge13" class="edge">
<title>7&#45;&gt;14</title>
<path fill="none" stroke="black" d="M214.02,-609.79C210.08,-602.02 205.46,-592.91 201.13,-584.36"/>
<polygon fill="black" stroke="black" points="204.38,-583.02 196.73,-575.68 198.13,-586.19 204.38,-583.02"/>
</g>
<!-- 15 -->
<g id="node15" class="node">
<title>15</title>
<polygon fill="none" stroke="black" points="423.88,-574 308.12,-574 308.12,-533 423.88,-533 423.88,-574"/>
<text text-anchor="middle" x="366" y="-556.7" font-family="Times New Roman,serif" font-size="14.00">NONTERMINAL</text>
<text text-anchor="middle" x="366" y="-540.2" font-family="Times New Roman,serif" font-size="14.00">type: Element</text>
</g>
<!-- 8&#45;&gt;15 -->
<g id="edge14" class="edge">
<title>8&#45;&gt;15</title>
<path fill="none" stroke="black" d="M446.81,-609.6C433.88,-600.78 418.49,-590.29 404.63,-580.84"/>
<polygon fill="black" stroke="black" points="406.81,-578.09 396.58,-575.35 402.87,-583.87 406.81,-578.09"/>
</g>
<!-- 16 -->
<g id="node16" class="node">
<title>16</title>
<polygon fill="none" stroke="black" points="669.88,-574 554.12,-574 554.12,-533 669.88,-533 669.88,-574"/>
<text text-anchor="middle" x="612" y="-556.7" font-family="Times New Roman,serif" font-size="14.00">NONTERMINAL</text>
<text text-anchor="middle" x="612" y="-540.2" font-family="Times New Roman,serif" font-size="14.00">type: Element</text>
</g>
<!-- 9&#45;&gt;16 -->
<g id="edge15" class="edge">
<title>9&#45;&gt;16</title>
<path fill="none" stroke="black" d="M654.76,-609.79C648.48,-601.68 641.09,-592.11 634.23,-583.24"/>
<polygon fill="black" stroke="black" points="637.15,-581.3 628.26,-575.53 631.61,-585.58 637.15,-581.3"/>
</g>
<!-- 17 -->
<g id="node17" class="node">
<title>17</title>
<polygon fill="none" stroke="black" points="892.88,-574 777.12,-574 777.12,-533 892.88,-533 892.88,-574"/>
<text text-anchor="middle" x="835" y="-556.7" font-family="Times New Roman,serif" font-size="14.00">NONTERMINAL</text>
<text text-anchor="middle" x="835" y="-540.2" font-family="Times New Roman,serif" font-size="14.00">type: Optional</text>
</g>
<!-- 10&#45;&gt;17 -->
<g id="edge16" class="edge">
<title>10&#45;&gt;17</title>
<path fill="none" stroke="black" d="M835,-609.79C835,-602.45 835,-593.91 835,-585.78"/>
<polygon fill="black" stroke="black" points="838.5,-585.85 835,-575.85 831.5,-585.85 838.5,-585.85"/>
</g>
<!-- 18 -->
<g id="node18" class="node">
<title>18</title>
<polygon fill="none" stroke="black" points="1100.88,-574 985.12,-574 985.12,-533 1100.88,-533 1100.88,-574"/>
<text text-anchor="middle" x="1043" y="-556.7" font-family="Times New Roman,serif" font-size="14.00">NONTERMINAL</text>
<text text-anchor="middle" x="1043" y="-540.2" font-family="Times New Roman,serif" font-size="14.00">type: Element</text>
</g>
<!-- 11&#45;&gt;18 -->
<g id="edge17" class="edge">
<title>11&#45;&gt;18</title>
<path fill="none" stroke="black" d="M1016.46,-609.79C1020.15,-602.1 1024.46,-593.11 1028.53,-584.65"/>
<polygon fill="black" stroke="black" points="1031.65,-586.23 1032.82,-575.7 1025.34,-583.2 1031.65,-586.23"/>
</g>
<!-- 19 -->
<g id="node19" class="node">
<title>19</title>
<polygon fill="none" stroke="black" points="1395.88,-574 1280.12,-574 1280.12,-533 1395.88,-533 1395.88,-574"/>
<text text-anchor="middle" x="1338" y="-556.7" font-family="Times New Roman,serif" font-size="14.00">NONTERMINAL</text>
<text text-anchor="middle" x="1338" y="-540.2" font-family="Times New Roman,serif" font-size="14.00">type: Iteration</text>
</g>
<!-- 12&#45;&gt;19 -->
<g id="edge18" class="edge">
<title>12&#45;&gt;19</title>
<path fill="none" stroke="black" d="M1278.28,-609.79C1287.42,-601.34 1298.25,-591.3 1308.17,-582.12"/>
<polygon fill="black" stroke="black" points="1310.51,-584.72 1315.47,-575.36 1305.75,-579.59 1310.51,-584.72"/>
</g>
<!-- 20 -->
<g id="node20" class="node">
<title>20</title>
<polygon fill="none" stroke="black" points="1554.88,-574 1439.12,-574 1439.12,-533 1554.88,-533 1554.88,-574"/>
<text text-anchor="middle" x="1497" y="-556.7" font-family="Times New Roman,serif" font-size="14.00">NONTERMINAL</text>
<text text-anchor="middle" x="1497" y="-540.2" font-family="Times New Roman,serif" font-size="14.00">type: Element</text>
</g>
<!-- 13&#45;&gt;20 -->
<g id="edge19" class="edge">
<title>13&#45;&gt;20</title>
<path fill="none" stroke="black" d="M1456.45,-609.79C1462.34,-601.76 1469.27,-592.31 1475.72,-583.52"/>
<polygon fill="black" stroke="black" points="1478.47,-585.69 1481.56,-575.55 1472.82,-581.55 1478.47,-585.69"/>
</g>
<!-- 21 -->
<g id="node21" class="node">
<title>21</title>
<polygon fill="none" stroke="black" points="103,-497 0,-439.5 103,-382 206,-439.5 103,-497"/>
<text text-anchor="middle" x="103" y="-450.95" font-family="Times New Roman,serif" font-size="14.00">TERMINAL</text>
<text text-anchor="middle" x="103" y="-434.45" font-family="Times New Roman,serif" font-size="14.00">type: key_name</text>
<text text-anchor="middle" x="103" y="-417.95" font-family="Times New Roman,serif" font-size="14.00">string: &#39;PROC&#39;</text>
</g>
<!-- 14&#45;&gt;21 -->
<g id="edge20" class="edge">
<title>14&#45;&gt;21</title>
<path fill="none" stroke="black" d="M171.35,-532.73C162.4,-520.66 150.54,-504.65 139.21,-489.36"/>
<polygon fill="black" stroke="black" points="142.29,-487.64 133.52,-481.69 136.67,-491.81 142.29,-487.64"/>
</g>
<!-- 22 -->
<g id="node22" class="node">
<title>22</title>
<polygon fill="none" stroke="black" points="329,-497 224.5,-439.5 329,-382 433.5,-439.5 329,-497"/>
<text text-anchor="middle" x="329" y="-450.95" font-family="Times New Roman,serif" font-size="14.00">TERMINAL</text>
<text text-anchor="middle" x="329" y="-434.45" font-family="Times New Roman,serif" font-size="14.00">type: name</text>
<text text-anchor="middle" x="329" y="-417.95" font-family="Times New Roman,serif" font-size="14.00">string: Identifier</text>
</g>
<!-- 15&#45;&gt;22 -->
<g id="edge21" class="edge">
<title>15&#45;&gt;22</title>
<path fill="none" stroke="black" d="M359.47,-532.73C356.33,-523.21 352.37,-511.25 348.36,-499.11"/>
<polygon fill="black" stroke="black" points="351.78,-498.3 345.32,-489.9 345.13,-500.5 351.78,-498.3"/>
</g>
<!-- 23 -->
<g id="node23" class="node">
<title>23</title>
<polygon fill="none" stroke="black" points="555,-497 452,-439.5 555,-382 658,-439.5 555,-497"/>
<text text-anchor="middle" x="555" y="-450.95" font-family="Times New Roman,serif" font-size="14.00">TERMINAL</text>
<text text-anchor="middle" x="555" y="-434.45" font-family="Times New Roman,serif" font-size="14.00">type: key_name</text>
<text text-anchor="middle" x="555" y="-417.95" font-family="Times New Roman,serif" font-size="14.00">string: &#39;(&#39;</text>
</g>
<!-- 16&#45;&gt;23 -->
<g id="edge22" class="edge">
<title>16&#45;&gt;23</title>
<path fill="none" stroke="black" d="M601.94,-532.73C596.49,-522.02 589.46,-508.21 582.51,-494.55"/>
<polygon fill="black" stroke="black" points="585.82,-493.35 578.17,-486.03 579.59,-496.53 585.82,-493.35"/>
</g>
<!-- 24 -->
<g id="node24" class="node">
<title>24</title>
<ellipse fill="none" stroke="black" cx="718" cy="-439.5" rx="41.54" ry="28.99"/>
<text text-anchor="middle" x="718" y="-442.7" font-family="Times New Roman,serif" font-size="14.00">KEY</text>
<text text-anchor="middle" x="718" y="-426.2" font-family="Times New Roman,serif" font-size="14.00">string: [</text>
</g>
<!-- 17&#45;&gt;24 -->
<g id="edge23" class="edge">
<title>17&#45;&gt;24</title>
<path fill="none" stroke="black" d="M809.07,-532.57C796.3,-522.37 780.92,-509.5 768,-497 760.55,-489.79 752.92,-481.63 745.94,-473.8"/>
<polygon fill="black" stroke="black" points="748.6,-471.52 739.38,-466.31 743.33,-476.14 748.6,-471.52"/>
</g>
<!-- 25 -->
<g id="node25" class="node">
<title>25</title>
<polygon fill="none" stroke="black" points="892.88,-460 777.12,-460 777.12,-419 892.88,-419 892.88,-460"/>
<text text-anchor="middle" x="835" y="-442.7" font-family="Times New Roman,serif" font-size="14.00">NONTERMINAL</text>
<text text-anchor="middle" x="835" y="-426.2" font-family="Times New Roman,serif" font-size="14.00">type: Alternative</text>
</g>
<!-- 17&#45;&gt;25 -->
<g id="edge24" class="edge">
<title>17&#45;&gt;25</title>
<path fill="none" stroke="black" d="M835,-532.73C835,-515.88 835,-491.37 835,-471.84"/>
<polygon fill="black" stroke="black" points="838.5,-471.96 835,-461.96 831.5,-471.96 838.5,-471.96"/>
</g>
<!-- 26 -->
<g id="node26" class="node">
<title>26</title>
<ellipse fill="none" stroke="black" cx="952" cy="-439.5" rx="41.54" ry="28.99"/>
<text text-anchor="middle" x="952" y="-442.7" font-family="Times New Roman,serif" font-size="14.00">KEY</text>
<text text-anchor="middle" x="952" y="-426.2" font-family="Times New Roman,serif" font-size="14.00">string: ]</text>
</g>
<!-- 17&#45;&gt;26 -->
<g id="edge25" class="edge">
<title>17&#45;&gt;26</title>
<path fill="none" stroke="black" d="M860.93,-532.57C873.7,-522.37 889.08,-509.5 902,-497 909.45,-489.79 917.08,-481.63 924.06,-473.8"/>
<polygon fill="black" stroke="black" points="926.67,-476.14 930.62,-466.31 921.4,-471.52 926.67,-476.14"/>
</g>
<!-- 27 -->
<g id="node27" class="node">
<title>27</title>
<polygon fill="none" stroke="black" points="1115,-497 1012,-439.5 1115,-382 1218,-439.5 1115,-497"/>
<text text-anchor="middle" x="1115" y="-450.95" font-family="Times New Roman,serif" font-size="14.00">TERMINAL</text>
<text text-anchor="middle" x="1115" y="-434.45" font-family="Times New Roman,serif" font-size="14.00">type: key_name</text>
<text text-anchor="middle" x="1115" y="-417.95" font-family="Times New Roman,serif" font-size="14.00">string: &#39;)&#39;</text>
</g>
<!-- 18&#45;&gt;27 -->
<g id="edge26" class="edge">
<title>18&#45;&gt;27</title>
<path fill="none" stroke="black" d="M1055.71,-532.73C1063.06,-521.3 1072.68,-506.33 1082.03,-491.79"/>
<polygon fill="black" stroke="black" points="1084.83,-493.91 1087.29,-483.61 1078.94,-490.13 1084.83,-493.91"/>
</g>
<!-- 28 -->
<g id="node28" class="node">
<title>28</title>
<ellipse fill="none" stroke="black" cx="1279" cy="-439.5" rx="43.13" ry="28.99"/>
<text text-anchor="middle" x="1279" y="-442.7" font-family="Times New Roman,serif" font-size="14.00">KEY</text>
<text text-anchor="middle" x="1279" y="-426.2" font-family="Times New Roman,serif" font-size="14.00">string: {</text>
</g>
<!-- 19&#45;&gt;28 -->
<g id="edge27" class="edge">
<title>19&#45;&gt;28</title>
<path fill="none" stroke="black" d="M1327.59,-532.73C1319.53,-517.44 1308.14,-495.82 1298.42,-477.36"/>
<polygon fill="black" stroke="black" points="1301.53,-475.77 1293.78,-468.55 1295.34,-479.03 1301.53,-475.77"/>
</g>
<!-- 29 -->
<g id="node29" class="node">
<title>29</title>
<polygon fill="none" stroke="black" points="1455.88,-460 1340.12,-460 1340.12,-419 1455.88,-419 1455.88,-460"/>
<text text-anchor="middle" x="1398" y="-442.7" font-family="Times New Roman,serif" font-size="14.00">NONTERMINAL</text>
<text text-anchor="middle" x="1398" y="-426.2" font-family="Times New Roman,serif" font-size="14.00">type: Alternative</text>
</g>
<!-- 19&#45;&gt;29 -->
<g id="edge28" class="edge">
<title>19&#45;&gt;29</title>
<path fill="none" stroke="black" d="M1348.59,-532.73C1357.83,-515.49 1371.37,-490.2 1381.95,-470.47"/>
<polygon fill="black" stroke="black" points="1384.96,-472.25 1386.6,-461.78 1378.79,-468.94 1384.96,-472.25"/>
</g>
<!-- 30 -->
<g id="node30" class="node">
<title>30</title>
<ellipse fill="none" stroke="black" cx="1517" cy="-439.5" rx="43.13" ry="28.99"/>
<text text-anchor="middle" x="1517" y="-442.7" font-family="Times New Roman,serif" font-size="14.00">KEY</text>
<text text-anchor="middle" x="1517" y="-426.2" font-family="Times New Roman,serif" font-size="14.00">string: }</text>
</g>
<!-- 19&#45;&gt;30 -->
<g id="edge29" class="edge">
<title>19&#45;&gt;30</title>
<path fill="none" stroke="black" d="M1396.32,-532.92C1418.89,-523.87 1444.23,-511.81 1465,-497 1474.02,-490.57 1482.67,-482.35 1490.23,-474.2"/>
<polygon fill="black" stroke="black" points="1492.67,-476.73 1496.69,-466.92 1487.43,-472.08 1492.67,-476.73"/>
</g>
<!-- 31 -->
<g id="node31" class="node">
<title>31</title>
<polygon fill="none" stroke="black" points="1707,-497 1578.5,-439.5 1707,-382 1835.5,-439.5 1707,-497"/>
<text text-anchor="middle" x="1707" y="-450.95" font-family="Times New Roman,serif" font-size="14.00">TERMINAL</text>
<text text-anchor="middle" x="1707" y="-434.45" font-family="Times New Roman,serif" font-size="14.00">type: key_name</text>
<text text-anchor="middle" x="1707" y="-417.95" font-family="Times New Roman,serif" font-size="14.00">string: &#39;END_PROC&#39;</text>
</g>
<!-- 20&#45;&gt;31 -->
<g id="edge30" class="edge">
<title>20&#45;&gt;31</title>
<path fill="none" stroke="black" d="M1534.06,-532.73C1563,-517.3 1603.99,-495.44 1638.81,-476.87"/>
<polygon fill="black" stroke="black" points="1640.41,-479.98 1647.59,-472.19 1637.12,-473.8 1640.41,-479.98"/>
</g>
<!-- 32 -->
<g id="node32" class="node">
<title>32</title>
<polygon fill="none" stroke="black" points="892.88,-346 777.12,-346 777.12,-305 892.88,-305 892.88,-346"/>
<text text-anchor="middle" x="835" y="-328.7" font-family="Times New Roman,serif" font-size="14.00">NONTERMINAL</text>
<text text-anchor="middle" x="835" y="-312.2" font-family="Times New Roman,serif" font-size="14.00">type: Sequence</text>
</g>
<!-- 25&#45;&gt;32 -->
<g id="edge31" class="edge">
<title>25&#45;&gt;32</title>
<path fill="none" stroke="black" d="M835,-418.73C835,-401.88 835,-377.37 835,-357.84"/>
<polygon fill="black" stroke="black" points="838.5,-357.96 835,-347.96 831.5,-357.96 838.5,-357.96"/>
</g>
<!-- 33 -->
<g id="node33" class="node">
<title>33</title>
<polygon fill="none" stroke="black" points="1455.88,-346 1340.12,-346 1340.12,-305 1455.88,-305 1455.88,-346"/>
<text text-anchor="middle" x="1398" y="-328.7" font-family="Times New Roman,serif" font-size="14.00">NONTERMINAL</text>
<text text-anchor="middle" x="1398" y="-312.2" font-family="Times New Roman,serif" font-size="14.00">type: Sequence</text>
</g>
<!-- 29&#45;&gt;33 -->
<g id="edge32" class="edge">
<title>29&#45;&gt;33</title>
<path fill="none" stroke="black" d="M1398,-418.73C1398,-401.88 1398,-377.37 1398,-357.84"/>
<polygon fill="black" stroke="black" points="1401.5,-357.96 1398,-347.96 1394.5,-357.96 1401.5,-357.96"/>
</g>
<!-- 34 -->
<g id="node34" class="node">
<title>34</title>
<polygon fill="none" stroke="black" points="894,-269 776,-269 776,-228 894,-228 894,-269"/>
<text text-anchor="middle" x="835" y="-251.7" font-family="Times New Roman,serif" font-size="14.00">NONTERMINAL</text>
<text text-anchor="middle" x="835" y="-235.2" font-family="Times New Roman,serif" font-size="14.00">type: RuleElement</text>
</g>
<!-- 32&#45;&gt;34 -->
<g id="edge33" class="edge">
<title>32&#45;&gt;34</title>
<path fill="none" stroke="black" d="M835,-304.79C835,-297.45 835,-288.91 835,-280.78"/>
<polygon fill="black" stroke="black" points="838.5,-280.85 835,-270.85 831.5,-280.85 838.5,-280.85"/>
</g>
<!-- 35 -->
<g id="node35" class="node">
<title>35</title>
<polygon fill="none" stroke="black" points="1457,-269 1339,-269 1339,-228 1457,-228 1457,-269"/>
<text text-anchor="middle" x="1398" y="-251.7" font-family="Times New Roman,serif" font-size="14.00">NONTERMINAL</text>
<text text-anchor="middle" x="1398" y="-235.2" font-family="Times New Roman,serif" font-size="14.00">type: RuleElement</text>
</g>
<!-- 33&#45;&gt;35 -->
<g id="edge34" class="edge">
<title>33&#45;&gt;35</title>
<path fill="none" stroke="black" d="M1398,-304.79C1398,-297.45 1398,-288.91 1398,-280.78"/>
<polygon fill="black" stroke="black" points="1401.5,-280.85 1398,-270.85 1394.5,-280.85 1401.5,-280.85"/>
</g>
<!-- 36 -->
<g id="node36" class="node">
<title>36</title>
<polygon fill="none" stroke="black" points="892.88,-192 777.12,-192 777.12,-151 892.88,-151 892.88,-192"/>
<text text-anchor="middle" x="835" y="-174.7" font-family="Times New Roman,serif" font-size="14.00">NONTERMINAL</text>
<text text-anchor="middle" x="835" y="-158.2" font-family="Times New Roman,serif" font-size="14.00">type: Element</text>
</g>
<!-- 34&#45;&gt;36 -->
<g id="edge35" class="edge">
<title>34&#45;&gt;36</title>
<path fill="none" stroke="black" d="M835,-227.79C835,-220.45 835,-211.91 835,-203.78"/>
<polygon fill="black" stroke="black" points="838.5,-203.85 835,-193.85 831.5,-203.85 838.5,-203.85"/>
</g>
<!-- 37 -->
<g id="node37" class="node">
<title>37</title>
<polygon fill="none" stroke="black" points="1455.88,-192 1340.12,-192 1340.12,-151 1455.88,-151 1455.88,-192"/>
<text text-anchor="middle" x="1398" y="-174.7" font-family="Times New Roman,serif" font-size="14.00">NONTERMINAL</text>
<text text-anchor="middle" x="1398" y="-158.2" font-family="Times New Roman,serif" font-size="14.00">type: Element</text>
</g>
<!-- 35&#45;&gt;37 -->
<g id="edge36" class="edge">
<title>35&#45;&gt;37</title>
<path fill="none" stroke="black" d="M1398,-227.79C1398,-220.45 1398,-211.91 1398,-203.78"/>
<polygon fill="black" stroke="black" points="1401.5,-203.85 1398,-193.85 1394.5,-203.85 1401.5,-203.85"/>
</g>
<!-- 38 -->
<g id="node38" class="node">
<title>38</title>
<polygon fill="none" stroke="black" points="835,-115 720,-57.5 835,0 950,-57.5 835,-115"/>
<text text-anchor="middle" x="835" y="-68.95" font-family="Times New Roman,serif" font-size="14.00">TERMINAL</text>
<text text-anchor="middle" x="835" y="-52.45" font-family="Times New Roman,serif" font-size="14.00">type: name</text>
<text text-anchor="middle" x="835" y="-35.95" font-family="Times New Roman,serif" font-size="14.00">string: Parameters</text>
</g>
<!-- 36&#45;&gt;38 -->
<g id="edge37" class="edge">
<title>36&#45;&gt;38</title>
<path fill="none" stroke="black" d="M835,-150.73C835,-143.67 835,-135.26 835,-126.43"/>
<polygon fill="black" stroke="black" points="838.5,-126.61 835,-116.61 831.5,-126.61 838.5,-126.61"/>
</g>
<!-- 39 -->
<g id="node39" class="node">
<title>39</title>
<polygon fill="none" stroke="black" points="1398,-115 1311.5,-57.5 1398,0 1484.5,-57.5 1398,-115"/>
<text text-anchor="middle" x="1398" y="-68.95" font-family="Times New Roman,serif" font-size="14.00">TERMINAL</text>
<text text-anchor="middle" x="1398" y="-52.45" font-family="Times New Roman,serif" font-size="14.00">type: name</text>
<text text-anchor="middle" x="1398" y="-35.95" font-family="Times New Roman,serif" font-size="14.00">string: Block</text>
</g>
<!-- 37&#45;&gt;39 -->
<g id="edge38" class="edge">
<title>37&#45;&gt;39</title>
<path fill="none" stroke="black" d="M1398,-150.73C1398,-143.84 1398,-135.65 1398,-127.05"/>
<polygon fill="black" stroke="black" points="1401.5,-127.09 1398,-117.09 1394.5,-127.09 1401.5,-127.09"/>
</g>
</g>
</svg>
