<?xml version="1.0" encoding="UTF-8" standalone="no"?>
<!DOCTYPE svg PUBLIC "-//W3C//DTD SVG 1.1//EN"
 "http://www.w3.org/Graphics/SVG/1.1/DTD/svg11.dtd">
<!-- Generated by graphviz version 12.2.0 (20241103.1931)
 -->
<!-- Title: ast_Sequence Pages: 1 -->
<svg width="574pt" height="907pt"
 viewBox="0.00 0.00 574.13 906.98" xmlns="http://www.w3.org/2000/svg" xmlns:xlink="http://www.w3.org/1999/xlink">
<g id="graph0" class="graph" transform="scale(1 1) rotate(0) translate(4 902.98)">
<title>ast_Sequence</title>
<polygon fill="white" stroke="none" points="-4,4 -4,-902.98 570.13,-902.98 570.13,4 -4,4"/>
<!-- 1 -->
<g id="node1" class="node">
<title>1</title>
<polygon fill="none" stroke="black" points="398.88,-898.98 283.12,-898.98 283.12,-857.98 398.88,-857.98 398.88,-898.98"/>
<text text-anchor="middle" x="341" y="-881.68" font-family="Times New Roman,serif" font-size="14.00">NONTERMINAL</text>
<text text-anchor="middle" x="341" y="-865.18" font-family="Times New Roman,serif" font-size="14.00">type: Rule</text>
</g>
<!-- 2 -->
<g id="node2" class="node">
<title>2</title>
<polygon fill="none" stroke="black" points="106,-821.98 0,-764.48 106,-706.98 212,-764.48 106,-821.98"/>
<text text-anchor="middle" x="106" y="-775.93" font-family="Times New Roman,serif" font-size="14.00">TERMINAL</text>
<text text-anchor="middle" x="106" y="-759.43" font-family="Times New Roman,serif" font-size="14.00">type: name</text>
<text text-anchor="middle" x="106" y="-742.93" font-family="Times New Roman,serif" font-size="14.00">string: Sequence</text>
</g>
<!-- 1&#45;&gt;2 -->
<g id="edge1" class="edge">
<title>1&#45;&gt;2</title>
<path fill="none" stroke="black" d="M297.28,-857.56C274.48,-847.1 246.17,-833.99 221,-821.98 204.7,-814.21 187.18,-805.69 170.85,-797.67"/>
<polygon fill="black" stroke="black" points="172.73,-794.7 162.22,-793.43 169.65,-800.98 172.73,-794.7"/>
</g>
<!-- 3 -->
<g id="node3" class="node">
<title>3</title>
<ellipse fill="none" stroke="black" cx="279" cy="-764.48" rx="49.5" ry="28.99"/>
<text text-anchor="middle" x="279" y="-767.68" font-family="Times New Roman,serif" font-size="14.00">KEY</text>
<text text-anchor="middle" x="279" y="-751.18" font-family="Times New Roman,serif" font-size="14.00">string: ::=</text>
</g>
<!-- 1&#45;&gt;3 -->
<g id="edge2" class="edge">
<title>1&#45;&gt;3</title>
<path fill="none" stroke="black" d="M330.06,-857.72C321.55,-842.35 309.51,-820.61 299.26,-802.09"/>
<polygon fill="black" stroke="black" points="302.43,-800.57 294.52,-793.52 296.3,-803.96 302.43,-800.57"/>
</g>
<!-- 4 -->
<g id="node4" class="node">
<title>4</title>
<polygon fill="none" stroke="black" points="461.88,-784.98 346.12,-784.98 346.12,-743.98 461.88,-743.98 461.88,-784.98"/>
<text text-anchor="middle" x="404" y="-767.68" font-family="Times New Roman,serif" font-size="14.00">NONTERMINAL</text>
<text text-anchor="middle" x="404" y="-751.18" font-family="Times New Roman,serif" font-size="14.00">type: Alternative</text>
</g>
<!-- 1&#45;&gt;4 -->
<g id="edge3" class="edge">
<title>1&#45;&gt;4</title>
<path fill="none" stroke="black" d="M352.12,-857.72C361.82,-840.47 376.04,-815.19 387.14,-795.45"/>
<polygon fill="black" stroke="black" points="390.19,-797.18 392.04,-786.75 384.09,-793.75 390.19,-797.18"/>
</g>
<!-- 5 -->
<g id="node5" class="node">
<title>5</title>
<ellipse fill="none" stroke="black" cx="521" cy="-764.48" rx="41.01" ry="28.99"/>
<text text-anchor="middle" x="521" y="-767.68" font-family="Times New Roman,serif" font-size="14.00">KEY</text>
<text text-anchor="middle" x="521" y="-751.18" font-family="Times New Roman,serif" font-size="14.00">string: ;</text>
</g>
<!-- 1&#45;&gt;5 -->
<g id="edge4" class="edge">
<title>1&#45;&gt;5</title>
<path fill="none" stroke="black" d="M399.23,-858.95C422.76,-849.9 449.41,-837.56 471,-821.98 479.74,-815.68 488.02,-807.59 495.24,-799.52"/>
<polygon fill="black" stroke="black" points="497.83,-801.89 501.65,-792.01 492.5,-797.35 497.83,-801.89"/>
</g>
<!-- 6 -->
<g id="node6" class="node">
<title>6</title>
<polygon fill="none" stroke="black" points="461.88,-670.98 346.12,-670.98 346.12,-629.98 461.88,-629.98 461.88,-670.98"/>
<text text-anchor="middle" x="404" y="-653.68" font-family="Times New Roman,serif" font-size="14.00">NONTERMINAL</text>
<text text-anchor="middle" x="404" y="-637.18" font-family="Times New Roman,serif" font-size="14.00">type: Sequence</text>
</g>
<!-- 4&#45;&gt;6 -->
<g id="edge5" class="edge">
<title>4&#45;&gt;6</title>
<path fill="none" stroke="black" d="M404,-743.72C404,-726.87 404,-702.35 404,-682.82"/>
<polygon fill="black" stroke="black" points="407.5,-682.94 404,-672.94 400.5,-682.94 407.5,-682.94"/>
</g>
<!-- 7 -->
<g id="node7" class="node">
<title>7</title>
<polygon fill="none" stroke="black" points="463,-593.98 345,-593.98 345,-552.98 463,-552.98 463,-593.98"/>
<text text-anchor="middle" x="404" y="-576.68" font-family="Times New Roman,serif" font-size="14.00">NONTERMINAL</text>
<text text-anchor="middle" x="404" y="-560.18" font-family="Times New Roman,serif" font-size="14.00">type: RuleElement</text>
</g>
<!-- 6&#45;&gt;7 -->
<g id="edge6" class="edge">
<title>6&#45;&gt;7</title>
<path fill="none" stroke="black" d="M404,-629.78C404,-622.43 404,-613.89 404,-605.76"/>
<polygon fill="black" stroke="black" points="407.5,-605.83 404,-595.83 400.5,-605.83 407.5,-605.83"/>
</g>
<!-- 8 -->
<g id="node8" class="node">
<title>8</title>
<polygon fill="none" stroke="black" points="461.88,-516.98 346.12,-516.98 346.12,-475.98 461.88,-475.98 461.88,-516.98"/>
<text text-anchor="middle" x="404" y="-499.68" font-family="Times New Roman,serif" font-size="14.00">NONTERMINAL</text>
<text text-anchor="middle" x="404" y="-483.18" font-family="Times New Roman,serif" font-size="14.00">type: Iteration</text>
</g>
<!-- 7&#45;&gt;8 -->
<g id="edge7" class="edge">
<title>7&#45;&gt;8</title>
<path fill="none" stroke="black" d="M404,-552.78C404,-545.43 404,-536.89 404,-528.76"/>
<polygon fill="black" stroke="black" points="407.5,-528.83 404,-518.83 400.5,-528.83 407.5,-528.83"/>
</g>
<!-- 9 -->
<g id="node9" class="node">
<title>9</title>
<ellipse fill="none" stroke="black" cx="285" cy="-410.99" rx="43.13" ry="28.99"/>
<text text-anchor="middle" x="285" y="-414.19" font-family="Times New Roman,serif" font-size="14.00">KEY</text>
<text text-anchor="middle" x="285" y="-397.69" font-family="Times New Roman,serif" font-size="14.00">string: {</text>
</g>
<!-- 8&#45;&gt;9 -->
<g id="edge8" class="edge">
<title>8&#45;&gt;9</title>
<path fill="none" stroke="black" d="M375.5,-475.48C359.95,-464.58 340.48,-450.92 323.59,-439.07"/>
<polygon fill="black" stroke="black" points="325.95,-436.45 315.75,-433.57 321.93,-442.18 325.95,-436.45"/>
</g>
<!-- 10 -->
<g id="node10" class="node">
<title>10</title>
<polygon fill="none" stroke="black" points="461.88,-431.49 346.12,-431.49 346.12,-390.49 461.88,-390.49 461.88,-431.49"/>
<text text-anchor="middle" x="404" y="-414.19" font-family="Times New Roman,serif" font-size="14.00">NONTERMINAL</text>
<text text-anchor="middle" x="404" y="-397.69" font-family="Times New Roman,serif" font-size="14.00">type: Alternative</text>
</g>
<!-- 8&#45;&gt;10 -->
<g id="edge9" class="edge">
<title>8&#45;&gt;10</title>
<path fill="none" stroke="black" d="M404,-475.7C404,-465.99 404,-454.08 404,-443.19"/>
<polygon fill="black" stroke="black" points="407.5,-443.44 404,-433.44 400.5,-443.44 407.5,-443.44"/>
</g>
<!-- 11 -->
<g id="node11" class="node">
<title>11</title>
<ellipse fill="none" stroke="black" cx="523" cy="-410.99" rx="43.13" ry="28.99"/>
<text text-anchor="middle" x="523" y="-414.19" font-family="Times New Roman,serif" font-size="14.00">KEY</text>
<text text-anchor="middle" x="523" y="-397.69" font-family="Times New Roman,serif" font-size="14.00">string: }</text>
</g>
<!-- 8&#45;&gt;11 -->
<g id="edge10" class="edge">
<title>8&#45;&gt;11</title>
<path fill="none" stroke="black" d="M432.5,-475.48C448.05,-464.58 467.52,-450.92 484.41,-439.07"/>
<polygon fill="black" stroke="black" points="486.07,-442.18 492.25,-433.57 482.05,-436.45 486.07,-442.18"/>
</g>
<!-- 12 -->
<g id="node12" class="node">
<title>12</title>
<polygon fill="none" stroke="black" points="461.88,-346 346.12,-346 346.12,-305 461.88,-305 461.88,-346"/>
<text text-anchor="middle" x="404" y="-328.7" font-family="Times New Roman,serif" font-size="14.00">NONTERMINAL</text>
<text text-anchor="middle" x="404" y="-312.2" font-family="Times New Roman,serif" font-size="14.00">type: Sequence</text>
</g>
<!-- 10&#45;&gt;12 -->
<g id="edge11" class="edge">
<title>10&#45;&gt;12</title>
<path fill="none" stroke="black" d="M404,-390.21C404,-380.5 404,-368.59 404,-357.7"/>
<polygon fill="black" stroke="black" points="407.5,-357.95 404,-347.95 400.5,-357.95 407.5,-357.95"/>
</g>
<!-- 13 -->
<g id="node13" class="node">
<title>13</title>
<polygon fill="none" stroke="black" points="463,-269 345,-269 345,-228 463,-228 463,-269"/>
<text text-anchor="middle" x="404" y="-251.7" font-family="Times New Roman,serif" font-size="14.00">NONTERMINAL</text>
<text text-anchor="middle" x="404" y="-235.2" font-family="Times New Roman,serif" font-size="14.00">type: RuleElement</text>
</g>
<!-- 12&#45;&gt;13 -->
<g id="edge12" class="edge">
<title>12&#45;&gt;13</title>
<path fill="none" stroke="black" d="M404,-304.79C404,-297.45 404,-288.91 404,-280.78"/>
<polygon fill="black" stroke="black" points="407.5,-280.85 404,-270.85 400.5,-280.85 407.5,-280.85"/>
</g>
<!-- 14 -->
<g id="node14" class="node">
<title>14</title>
<polygon fill="none" stroke="black" points="461.88,-192 346.12,-192 346.12,-151 461.88,-151 461.88,-192"/>
<text text-anchor="middle" x="404" y="-174.7" font-family="Times New Roman,serif" font-size="14.00">NONTERMINAL</text>
<text text-anchor="middle" x="404" y="-158.2" font-family="Times New Roman,serif" font-size="14.00">type: Element</text>
</g>
<!-- 13&#45;&gt;14 -->
<g id="edge13" class="edge">
<title>13&#45;&gt;14</title>
<path fill="none" stroke="black" d="M404,-227.79C404,-220.45 404,-211.91 404,-203.78"/>
<polygon fill="black" stroke="black" points="407.5,-203.85 404,-193.85 400.5,-203.85 407.5,-203.85"/>
</g>
<!-- 15 -->
<g id="node15" class="node">
<title>15</title>
<polygon fill="none" stroke="black" points="404,-115 278.5,-57.5 404,0 529.5,-57.5 404,-115"/>
<text text-anchor="middle" x="404" y="-68.95" font-family="Times New Roman,serif" font-size="14.00">TERMINAL</text>
<text text-anchor="middle" x="404" y="-52.45" font-family="Times New Roman,serif" font-size="14.00">type: name</text>
<text text-anchor="middle" x="404" y="-35.95" font-family="Times New Roman,serif" font-size="14.00">string: RuleElement</text>
</g>
<!-- 14&#45;&gt;15 -->
<g id="edge14" class="edge">
<title>14&#45;&gt;15</title>
<path fill="none" stroke="black" d="M404,-150.73C404,-143.67 404,-135.26 404,-126.43"/>
<polygon fill="black" stroke="black" points="407.5,-126.61 404,-116.61 400.5,-126.61 407.5,-126.61"/>
</g>
</g>
</svg>
