<?xml version="1.0" encoding="UTF-8" standalone="no"?>
<!DOCTYPE svg PUBLIC "-//W3C//DTD SVG 1.1//EN"
 "http://www.w3.org/Graphics/SVG/1.1/DTD/svg11.dtd">
<!-- Generated by graphviz version 12.2.0 (20241103.1931)
 -->
<!-- Title: ast_Grammar Pages: 1 -->
<svg width="1394pt" height="582pt"
 viewBox="0.00 0.00 1393.75 582.00" xmlns="http://www.w3.org/2000/svg" xmlns:xlink="http://www.w3.org/1999/xlink">
<g id="graph0" class="graph" transform="scale(1 1) rotate(0) translate(4 578)">
<title>ast_Grammar</title>
<polygon fill="white" stroke="none" points="-4,4 -4,-578 1389.75,-578 1389.75,4 -4,4"/>
<!-- 1 -->
<g id="node1" class="node">
<title>1</title>
<polygon fill="none" stroke="black" points="701.38,-574 585.62,-574 585.62,-533 701.38,-533 701.38,-574"/>
<text text-anchor="middle" x="643.5" y="-556.7" font-family="Times New Roman,serif" font-size="14.00">NONTERMINAL</text>
<text text-anchor="middle" x="643.5" y="-540.2" font-family="Times New Roman,serif" font-size="14.00">type: Rule</text>
</g>
<!-- 2 -->
<g id="node2" class="node">
<title>2</title>
<polygon fill="none" stroke="black" points="406.5,-497 299,-439.5 406.5,-382 514,-439.5 406.5,-497"/>
<text text-anchor="middle" x="406.5" y="-450.95" font-family="Times New Roman,serif" font-size="14.00">TERMINAL</text>
<text text-anchor="middle" x="406.5" y="-434.45" font-family="Times New Roman,serif" font-size="14.00">type: name</text>
<text text-anchor="middle" x="406.5" y="-417.95" font-family="Times New Roman,serif" font-size="14.00">string: Grammar</text>
</g>
<!-- 1&#45;&gt;2 -->
<g id="edge1" class="edge">
<title>1&#45;&gt;2</title>
<path fill="none" stroke="black" d="M599.81,-532.51C577.02,-522.02 548.71,-508.92 523.5,-497 506.86,-489.14 488.95,-480.55 472.26,-472.5"/>
<polygon fill="black" stroke="black" points="473.94,-469.42 463.42,-468.22 470.9,-475.72 473.94,-469.42"/>
</g>
<!-- 3 -->
<g id="node3" class="node">
<title>3</title>
<ellipse fill="none" stroke="black" cx="581.5" cy="-439.5" rx="49.5" ry="28.99"/>
<text text-anchor="middle" x="581.5" y="-442.7" font-family="Times New Roman,serif" font-size="14.00">KEY</text>
<text text-anchor="middle" x="581.5" y="-426.2" font-family="Times New Roman,serif" font-size="14.00">string: ::=</text>
</g>
<!-- 1&#45;&gt;3 -->
<g id="edge2" class="edge">
<title>1&#45;&gt;3</title>
<path fill="none" stroke="black" d="M632.56,-532.73C624.05,-517.37 612.01,-495.62 601.76,-477.11"/>
<polygon fill="black" stroke="black" points="604.93,-475.59 597.02,-468.54 598.8,-478.98 604.93,-475.59"/>
</g>
<!-- 4 -->
<g id="node4" class="node">
<title>4</title>
<polygon fill="none" stroke="black" points="764.38,-460 648.62,-460 648.62,-419 764.38,-419 764.38,-460"/>
<text text-anchor="middle" x="706.5" y="-442.7" font-family="Times New Roman,serif" font-size="14.00">NONTERMINAL</text>
<text text-anchor="middle" x="706.5" y="-426.2" font-family="Times New Roman,serif" font-size="14.00">type: Alternative</text>
</g>
<!-- 1&#45;&gt;4 -->
<g id="edge3" class="edge">
<title>1&#45;&gt;4</title>
<path fill="none" stroke="black" d="M654.62,-532.73C664.32,-515.49 678.54,-490.2 689.64,-470.47"/>
<polygon fill="black" stroke="black" points="692.69,-472.2 694.54,-461.76 686.59,-468.76 692.69,-472.2"/>
</g>
<!-- 5 -->
<g id="node5" class="node">
<title>5</title>
<ellipse fill="none" stroke="black" cx="823.5" cy="-439.5" rx="41.01" ry="28.99"/>
<text text-anchor="middle" x="823.5" y="-442.7" font-family="Times New Roman,serif" font-size="14.00">KEY</text>
<text text-anchor="middle" x="823.5" y="-426.2" font-family="Times New Roman,serif" font-size="14.00">string: ;</text>
</g>
<!-- 1&#45;&gt;5 -->
<g id="edge4" class="edge">
<title>1&#45;&gt;5</title>
<path fill="none" stroke="black" d="M701.73,-533.97C725.26,-524.92 751.91,-512.58 773.5,-497 782.24,-490.7 790.52,-482.61 797.74,-474.54"/>
<polygon fill="black" stroke="black" points="800.33,-476.91 804.15,-467.02 795,-472.36 800.33,-476.91"/>
</g>
<!-- 6 -->
<g id="node6" class="node">
<title>6</title>
<polygon fill="none" stroke="black" points="764.38,-346 648.62,-346 648.62,-305 764.38,-305 764.38,-346"/>
<text text-anchor="middle" x="706.5" y="-328.7" font-family="Times New Roman,serif" font-size="14.00">NONTERMINAL</text>
<text text-anchor="middle" x="706.5" y="-312.2" font-family="Times New Roman,serif" font-size="14.00">type: Sequence</text>
</g>
<!-- 4&#45;&gt;6 -->
<g id="edge5" class="edge">
<title>4&#45;&gt;6</title>
<path fill="none" stroke="black" d="M706.5,-418.73C706.5,-401.88 706.5,-377.37 706.5,-357.84"/>
<polygon fill="black" stroke="black" points="710,-357.96 706.5,-347.96 703,-357.96 710,-357.96"/>
</g>
<!-- 7 -->
<g id="node7" class="node">
<title>7</title>
<polygon fill="none" stroke="black" points="406.5,-269 288.5,-269 288.5,-228 406.5,-228 406.5,-269"/>
<text text-anchor="middle" x="347.5" y="-251.7" font-family="Times New Roman,serif" font-size="14.00">NONTERMINAL</text>
<text text-anchor="middle" x="347.5" y="-235.2" font-family="Times New Roman,serif" font-size="14.00">type: RuleElement</text>
</g>
<!-- 6&#45;&gt;7 -->
<g id="edge6" class="edge">
<title>6&#45;&gt;7</title>
<path fill="none" stroke="black" d="M648.42,-312.37C585.54,-299.23 485.24,-278.28 417.91,-264.21"/>
<polygon fill="black" stroke="black" points="418.98,-260.86 408.47,-262.24 417.54,-267.71 418.98,-260.86"/>
</g>
<!-- 8 -->
<g id="node8" class="node">
<title>8</title>
<polygon fill="none" stroke="black" points="576.5,-269 458.5,-269 458.5,-228 576.5,-228 576.5,-269"/>
<text text-anchor="middle" x="517.5" y="-251.7" font-family="Times New Roman,serif" font-size="14.00">NONTERMINAL</text>
<text text-anchor="middle" x="517.5" y="-235.2" font-family="Times New Roman,serif" font-size="14.00">type: RuleElement</text>
</g>
<!-- 6&#45;&gt;8 -->
<g id="edge7" class="edge">
<title>6&#45;&gt;8</title>
<path fill="none" stroke="black" d="M656.35,-304.6C632.43,-295.11 603.6,-283.67 578.43,-273.68"/>
<polygon fill="black" stroke="black" points="579.88,-270.49 569.29,-270.05 577.3,-276.99 579.88,-270.49"/>
</g>
<!-- 9 -->
<g id="node9" class="node">
<title>9</title>
<polygon fill="none" stroke="black" points="765.5,-269 647.5,-269 647.5,-228 765.5,-228 765.5,-269"/>
<text text-anchor="middle" x="706.5" y="-251.7" font-family="Times New Roman,serif" font-size="14.00">NONTERMINAL</text>
<text text-anchor="middle" x="706.5" y="-235.2" font-family="Times New Roman,serif" font-size="14.00">type: RuleElement</text>
</g>
<!-- 6&#45;&gt;9 -->
<g id="edge8" class="edge">
<title>6&#45;&gt;9</title>
<path fill="none" stroke="black" d="M706.5,-304.79C706.5,-297.45 706.5,-288.91 706.5,-280.78"/>
<polygon fill="black" stroke="black" points="710,-280.85 706.5,-270.85 703,-280.85 710,-280.85"/>
</g>
<!-- 10 -->
<g id="node10" class="node">
<title>10</title>
<polygon fill="none" stroke="black" points="984.5,-269 866.5,-269 866.5,-228 984.5,-228 984.5,-269"/>
<text text-anchor="middle" x="925.5" y="-251.7" font-family="Times New Roman,serif" font-size="14.00">NONTERMINAL</text>
<text text-anchor="middle" x="925.5" y="-235.2" font-family="Times New Roman,serif" font-size="14.00">type: RuleElement</text>
</g>
<!-- 6&#45;&gt;10 -->
<g id="edge9" class="edge">
<title>6&#45;&gt;10</title>
<path fill="none" stroke="black" d="M764.61,-304.6C792.83,-294.94 826.93,-283.26 856.46,-273.14"/>
<polygon fill="black" stroke="black" points="857.36,-276.54 865.68,-269.99 855.09,-269.91 857.36,-276.54"/>
</g>
<!-- 11 -->
<g id="node11" class="node">
<title>11</title>
<polygon fill="none" stroke="black" points="1223.5,-269 1105.5,-269 1105.5,-228 1223.5,-228 1223.5,-269"/>
<text text-anchor="middle" x="1164.5" y="-251.7" font-family="Times New Roman,serif" font-size="14.00">NONTERMINAL</text>
<text text-anchor="middle" x="1164.5" y="-235.2" font-family="Times New Roman,serif" font-size="14.00">type: RuleElement</text>
</g>
<!-- 6&#45;&gt;11 -->
<g id="edge10" class="edge">
<title>6&#45;&gt;11</title>
<path fill="none" stroke="black" d="M764.51,-315C848.41,-301.26 1003.48,-275.87 1093.92,-261.06"/>
<polygon fill="black" stroke="black" points="1094.36,-264.53 1103.66,-259.46 1093.23,-257.62 1094.36,-264.53"/>
</g>
<!-- 12 -->
<g id="node12" class="node">
<title>12</title>
<polygon fill="none" stroke="black" points="337.38,-192 221.62,-192 221.62,-151 337.38,-151 337.38,-192"/>
<text text-anchor="middle" x="279.5" y="-174.7" font-family="Times New Roman,serif" font-size="14.00">NONTERMINAL</text>
<text text-anchor="middle" x="279.5" y="-158.2" font-family="Times New Roman,serif" font-size="14.00">type: Element</text>
</g>
<!-- 7&#45;&gt;12 -->
<g id="edge11" class="edge">
<title>7&#45;&gt;12</title>
<path fill="none" stroke="black" d="M329.63,-227.79C322.12,-219.51 313.24,-209.71 305.05,-200.68"/>
<polygon fill="black" stroke="black" points="307.81,-198.51 298.5,-193.46 302.62,-203.21 307.81,-198.51"/>
</g>
<!-- 13 -->
<g id="node13" class="node">
<title>13</title>
<polygon fill="none" stroke="black" points="523.38,-192 407.62,-192 407.62,-151 523.38,-151 523.38,-192"/>
<text text-anchor="middle" x="465.5" y="-174.7" font-family="Times New Roman,serif" font-size="14.00">NONTERMINAL</text>
<text text-anchor="middle" x="465.5" y="-158.2" font-family="Times New Roman,serif" font-size="14.00">type: Element</text>
</g>
<!-- 8&#45;&gt;13 -->
<g id="edge12" class="edge">
<title>8&#45;&gt;13</title>
<path fill="none" stroke="black" d="M503.84,-227.79C498.27,-219.76 491.72,-210.31 485.62,-201.52"/>
<polygon fill="black" stroke="black" points="488.69,-199.8 480.11,-193.58 482.94,-203.79 488.69,-199.8"/>
</g>
<!-- 14 -->
<g id="node14" class="node">
<title>14</title>
<polygon fill="none" stroke="black" points="764.38,-192 648.62,-192 648.62,-151 764.38,-151 764.38,-192"/>
<text text-anchor="middle" x="706.5" y="-174.7" font-family="Times New Roman,serif" font-size="14.00">NONTERMINAL</text>
<text text-anchor="middle" x="706.5" y="-158.2" font-family="Times New Roman,serif" font-size="14.00">type: Element</text>
</g>
<!-- 9&#45;&gt;14 -->
<g id="edge13" class="edge">
<title>9&#45;&gt;14</title>
<path fill="none" stroke="black" d="M706.5,-227.79C706.5,-220.45 706.5,-211.91 706.5,-203.78"/>
<polygon fill="black" stroke="black" points="710,-203.85 706.5,-193.85 703,-203.85 710,-203.85"/>
</g>
<!-- 15 -->
<g id="node15" class="node">
<title>15</title>
<polygon fill="none" stroke="black" points="1025.38,-192 909.62,-192 909.62,-151 1025.38,-151 1025.38,-192"/>
<text text-anchor="middle" x="967.5" y="-174.7" font-family="Times New Roman,serif" font-size="14.00">NONTERMINAL</text>
<text text-anchor="middle" x="967.5" y="-158.2" font-family="Times New Roman,serif" font-size="14.00">type: Element</text>
</g>
<!-- 10&#45;&gt;15 -->
<g id="edge14" class="edge">
<title>10&#45;&gt;15</title>
<path fill="none" stroke="black" d="M936.54,-227.79C940.89,-220.02 945.99,-210.91 950.78,-202.36"/>
<polygon fill="black" stroke="black" points="953.82,-204.09 955.65,-193.65 947.71,-200.67 953.82,-204.09"/>
</g>
<!-- 16 -->
<g id="node16" class="node">
<title>16</title>
<polygon fill="none" stroke="black" points="1274.38,-192 1158.62,-192 1158.62,-151 1274.38,-151 1274.38,-192"/>
<text text-anchor="middle" x="1216.5" y="-174.7" font-family="Times New Roman,serif" font-size="14.00">NONTERMINAL</text>
<text text-anchor="middle" x="1216.5" y="-158.2" font-family="Times New Roman,serif" font-size="14.00">type: Element</text>
</g>
<!-- 11&#45;&gt;16 -->
<g id="edge15" class="edge">
<title>11&#45;&gt;16</title>
<path fill="none" stroke="black" d="M1178.16,-227.79C1183.73,-219.76 1190.28,-210.31 1196.38,-201.52"/>
<polygon fill="black" stroke="black" points="1199.06,-203.79 1201.89,-193.58 1193.31,-199.8 1199.06,-203.79"/>
</g>
<!-- 17 -->
<g id="node17" class="node">
<title>17</title>
<polygon fill="none" stroke="black" points="140.5,-115 0,-57.5 140.5,0 281,-57.5 140.5,-115"/>
<text text-anchor="middle" x="140.5" y="-68.95" font-family="Times New Roman,serif" font-size="14.00">TERMINAL</text>
<text text-anchor="middle" x="140.5" y="-52.45" font-family="Times New Roman,serif" font-size="14.00">type: name</text>
<text text-anchor="middle" x="140.5" y="-35.95" font-family="Times New Roman,serif" font-size="14.00">string: TerminalsBlock</text>
</g>
<!-- 12&#45;&gt;17 -->
<g id="edge16" class="edge">
<title>12&#45;&gt;17</title>
<path fill="none" stroke="black" d="M254.97,-150.73C238.68,-137.61 216.6,-119.82 196.19,-103.37"/>
<polygon fill="black" stroke="black" points="198.42,-100.67 188.43,-97.12 194.03,-106.12 198.42,-100.67"/>
</g>
<!-- 18 -->
<g id="node18" class="node">
<title>18</title>
<polygon fill="none" stroke="black" points="413.5,-115 299.25,-57.5 413.5,0 527.75,-57.5 413.5,-115"/>
<text text-anchor="middle" x="413.5" y="-68.95" font-family="Times New Roman,serif" font-size="14.00">TERMINAL</text>
<text text-anchor="middle" x="413.5" y="-52.45" font-family="Times New Roman,serif" font-size="14.00">type: name</text>
<text text-anchor="middle" x="413.5" y="-35.95" font-family="Times New Roman,serif" font-size="14.00">string: KeysBlock</text>
</g>
<!-- 13&#45;&gt;18 -->
<g id="edge17" class="edge">
<title>13&#45;&gt;18</title>
<path fill="none" stroke="black" d="M456.32,-150.73C451.63,-140.63 445.65,-127.76 439.67,-114.86"/>
<polygon fill="black" stroke="black" points="442.91,-113.54 435.53,-105.94 436.56,-116.48 442.91,-113.54"/>
</g>
<!-- 19 -->
<g id="node19" class="node">
<title>19</title>
<polygon fill="none" stroke="black" points="706.5,-115 545.75,-57.5 706.5,0 867.25,-57.5 706.5,-115"/>
<text text-anchor="middle" x="706.5" y="-68.95" font-family="Times New Roman,serif" font-size="14.00">TERMINAL</text>
<text text-anchor="middle" x="706.5" y="-52.45" font-family="Times New Roman,serif" font-size="14.00">type: name</text>
<text text-anchor="middle" x="706.5" y="-35.95" font-family="Times New Roman,serif" font-size="14.00">string: NonterminalsBlock</text>
</g>
<!-- 14&#45;&gt;19 -->
<g id="edge18" class="edge">
<title>14&#45;&gt;19</title>
<path fill="none" stroke="black" d="M706.5,-150.73C706.5,-143.67 706.5,-135.26 706.5,-126.43"/>
<polygon fill="black" stroke="black" points="710,-126.61 706.5,-116.61 703,-126.61 710,-126.61"/>
</g>
<!-- 20 -->
<g id="node20" class="node">
<title>20</title>
<polygon fill="none" stroke="black" points="1009.5,-115 885.5,-57.5 1009.5,0 1133.5,-57.5 1009.5,-115"/>
<text text-anchor="middle" x="1009.5" y="-68.95" font-family="Times New Roman,serif" font-size="14.00">TERMINAL</text>
<text text-anchor="middle" x="1009.5" y="-52.45" font-family="Times New Roman,serif" font-size="14.00">type: name</text>
<text text-anchor="middle" x="1009.5" y="-35.95" font-family="Times New Roman,serif" font-size="14.00">string: AxiomBlock</text>
</g>
<!-- 15&#45;&gt;20 -->
<g id="edge19" class="edge">
<title>15&#45;&gt;20</title>
<path fill="none" stroke="black" d="M974.91,-150.73C978.45,-141.31 982.88,-129.49 987.38,-117.49"/>
<polygon fill="black" stroke="black" points="990.57,-118.95 990.8,-108.36 984.01,-116.5 990.57,-118.95"/>
</g>
<!-- 21 -->
<g id="node21" class="node">
<title>21</title>
<polygon fill="none" stroke="black" points="1268.5,-115 1151.25,-57.5 1268.5,0 1385.75,-57.5 1268.5,-115"/>
<text text-anchor="middle" x="1268.5" y="-68.95" font-family="Times New Roman,serif" font-size="14.00">TERMINAL</text>
<text text-anchor="middle" x="1268.5" y="-52.45" font-family="Times New Roman,serif" font-size="14.00">type: name</text>
<text text-anchor="middle" x="1268.5" y="-35.95" font-family="Times New Roman,serif" font-size="14.00">string: RulesBlock</text>
</g>
<!-- 16&#45;&gt;21 -->
<g id="edge20" class="edge">
<title>16&#45;&gt;21</title>
<path fill="none" stroke="black" d="M1225.68,-150.73C1230.37,-140.63 1236.35,-127.76 1242.33,-114.86"/>
<polygon fill="black" stroke="black" points="1245.44,-116.48 1246.47,-105.94 1239.09,-113.54 1245.44,-116.48"/>
</g>
</g>
</svg>
