<?xml version="1.0" encoding="UTF-8" standalone="no"?>
<!DOCTYPE svg PUBLIC "-//W3C//DTD SVG 1.1//EN"
 "http://www.w3.org/Graphics/SVG/1.1/DTD/svg11.dtd">
<!-- Generated by graphviz version 12.2.0 (20241103.1931)
 -->
<!-- Title: ast_IteratorDecl Pages: 1 -->
<svg width="1873pt" height="964pt"
 viewBox="0.00 0.00 1873.25 964.00" xmlns="http://www.w3.org/2000/svg" xmlns:xlink="http://www.w3.org/1999/xlink">
<g id="graph0" class="graph" transform="scale(1 1) rotate(0) translate(4 960)">
<title>ast_IteratorDecl</title>
<polygon fill="white" stroke="none" points="-4,4 -4,-960 1869.25,-960 1869.25,4 -4,4"/>
<!-- 1 -->
<g id="node1" class="node">
<title>1</title>
<polygon fill="none" stroke="black" points="917.88,-956 802.12,-956 802.12,-915 917.88,-915 917.88,-956"/>
<text text-anchor="middle" x="860" y="-938.7" font-family="Times New Roman,serif" font-size="14.00">NONTERMINAL</text>
<text text-anchor="middle" x="860" y="-922.2" font-family="Times New Roman,serif" font-size="14.00">type: Rule</text>
</g>
<!-- 2 -->
<g id="node2" class="node">
<title>2</title>
<polygon fill="none" stroke="black" points="611,-879 491.5,-821.5 611,-764 730.5,-821.5 611,-879"/>
<text text-anchor="middle" x="611" y="-832.95" font-family="Times New Roman,serif" font-size="14.00">TERMINAL</text>
<text text-anchor="middle" x="611" y="-816.45" font-family="Times New Roman,serif" font-size="14.00">type: name</text>
<text text-anchor="middle" x="611" y="-799.95" font-family="Times New Roman,serif" font-size="14.00">string: IteratorDecl</text>
</g>
<!-- 1&#45;&gt;2 -->
<g id="edge1" class="edge">
<title>1&#45;&gt;2</title>
<path fill="none" stroke="black" d="M815.77,-914.61C778.85,-898 725.5,-874 682.51,-854.67"/>
<polygon fill="black" stroke="black" points="684.04,-851.52 673.49,-850.61 681.17,-857.9 684.04,-851.52"/>
</g>
<!-- 3 -->
<g id="node3" class="node">
<title>3</title>
<ellipse fill="none" stroke="black" cx="798" cy="-821.5" rx="49.5" ry="28.99"/>
<text text-anchor="middle" x="798" y="-824.7" font-family="Times New Roman,serif" font-size="14.00">KEY</text>
<text text-anchor="middle" x="798" y="-808.2" font-family="Times New Roman,serif" font-size="14.00">string: ::=</text>
</g>
<!-- 1&#45;&gt;3 -->
<g id="edge2" class="edge">
<title>1&#45;&gt;3</title>
<path fill="none" stroke="black" d="M849.06,-914.73C840.55,-899.37 828.51,-877.62 818.26,-859.11"/>
<polygon fill="black" stroke="black" points="821.43,-857.59 813.52,-850.54 815.3,-860.98 821.43,-857.59"/>
</g>
<!-- 4 -->
<g id="node4" class="node">
<title>4</title>
<polygon fill="none" stroke="black" points="980.88,-842 865.12,-842 865.12,-801 980.88,-801 980.88,-842"/>
<text text-anchor="middle" x="923" y="-824.7" font-family="Times New Roman,serif" font-size="14.00">NONTERMINAL</text>
<text text-anchor="middle" x="923" y="-808.2" font-family="Times New Roman,serif" font-size="14.00">type: Alternative</text>
</g>
<!-- 1&#45;&gt;4 -->
<g id="edge3" class="edge">
<title>1&#45;&gt;4</title>
<path fill="none" stroke="black" d="M871.12,-914.73C880.82,-897.49 895.04,-872.2 906.14,-852.47"/>
<polygon fill="black" stroke="black" points="909.19,-854.2 911.04,-843.76 903.09,-850.76 909.19,-854.2"/>
</g>
<!-- 5 -->
<g id="node5" class="node">
<title>5</title>
<ellipse fill="none" stroke="black" cx="1040" cy="-821.5" rx="41.01" ry="28.99"/>
<text text-anchor="middle" x="1040" y="-824.7" font-family="Times New Roman,serif" font-size="14.00">KEY</text>
<text text-anchor="middle" x="1040" y="-808.2" font-family="Times New Roman,serif" font-size="14.00">string: ;</text>
</g>
<!-- 1&#45;&gt;5 -->
<g id="edge4" class="edge">
<title>1&#45;&gt;5</title>
<path fill="none" stroke="black" d="M918.23,-915.97C941.76,-906.92 968.41,-894.58 990,-879 998.74,-872.7 1007.02,-864.61 1014.24,-856.54"/>
<polygon fill="black" stroke="black" points="1016.83,-858.91 1020.65,-849.02 1011.5,-854.36 1016.83,-858.91"/>
</g>
<!-- 6 -->
<g id="node6" class="node">
<title>6</title>
<polygon fill="none" stroke="black" points="980.88,-728 865.12,-728 865.12,-687 980.88,-687 980.88,-728"/>
<text text-anchor="middle" x="923" y="-710.7" font-family="Times New Roman,serif" font-size="14.00">NONTERMINAL</text>
<text text-anchor="middle" x="923" y="-694.2" font-family="Times New Roman,serif" font-size="14.00">type: Sequence</text>
</g>
<!-- 4&#45;&gt;6 -->
<g id="edge5" class="edge">
<title>4&#45;&gt;6</title>
<path fill="none" stroke="black" d="M923,-800.73C923,-783.88 923,-759.37 923,-739.84"/>
<polygon fill="black" stroke="black" points="926.5,-739.96 923,-729.96 919.5,-739.96 926.5,-739.96"/>
</g>
<!-- 7 -->
<g id="node7" class="node">
<title>7</title>
<polygon fill="none" stroke="black" points="303,-651 185,-651 185,-610 303,-610 303,-651"/>
<text text-anchor="middle" x="244" y="-633.7" font-family="Times New Roman,serif" font-size="14.00">NONTERMINAL</text>
<text text-anchor="middle" x="244" y="-617.2" font-family="Times New Roman,serif" font-size="14.00">type: RuleElement</text>
</g>
<!-- 6&#45;&gt;7 -->
<g id="edge6" class="edge">
<title>6&#45;&gt;7</title>
<path fill="none" stroke="black" d="M864.82,-700.07C740.44,-686.34 449.11,-654.16 314.49,-639.29"/>
<polygon fill="black" stroke="black" points="314.96,-635.82 304.63,-638.2 314.19,-642.77 314.96,-635.82"/>
</g>
<!-- 8 -->
<g id="node8" class="node">
<title>8</title>
<polygon fill="none" stroke="black" points="555,-651 437,-651 437,-610 555,-610 555,-651"/>
<text text-anchor="middle" x="496" y="-633.7" font-family="Times New Roman,serif" font-size="14.00">NONTERMINAL</text>
<text text-anchor="middle" x="496" y="-617.2" font-family="Times New Roman,serif" font-size="14.00">type: RuleElement</text>
</g>
<!-- 6&#45;&gt;8 -->
<g id="edge7" class="edge">
<title>6&#45;&gt;8</title>
<path fill="none" stroke="black" d="M864.97,-696.31C787.36,-682.68 649.88,-658.53 566.43,-643.87"/>
<polygon fill="black" stroke="black" points="567.22,-640.46 556.77,-642.17 566.01,-647.35 567.22,-640.46"/>
</g>
<!-- 9 -->
<g id="node9" class="node">
<title>9</title>
<polygon fill="none" stroke="black" points="749,-651 631,-651 631,-610 749,-610 749,-651"/>
<text text-anchor="middle" x="690" y="-633.7" font-family="Times New Roman,serif" font-size="14.00">NONTERMINAL</text>
<text text-anchor="middle" x="690" y="-617.2" font-family="Times New Roman,serif" font-size="14.00">type: RuleElement</text>
</g>
<!-- 6&#45;&gt;9 -->
<g id="edge8" class="edge">
<title>6&#45;&gt;9</title>
<path fill="none" stroke="black" d="M864.81,-687.77C833.06,-677.55 793.53,-664.83 760.1,-654.06"/>
<polygon fill="black" stroke="black" points="761.51,-650.84 750.92,-651.11 759.36,-657.5 761.51,-650.84"/>
</g>
<!-- 10 -->
<g id="node10" class="node">
<title>10</title>
<polygon fill="none" stroke="black" points="914,-651 796,-651 796,-610 914,-610 914,-651"/>
<text text-anchor="middle" x="855" y="-633.7" font-family="Times New Roman,serif" font-size="14.00">NONTERMINAL</text>
<text text-anchor="middle" x="855" y="-617.2" font-family="Times New Roman,serif" font-size="14.00">type: RuleElement</text>
</g>
<!-- 6&#45;&gt;10 -->
<g id="edge9" class="edge">
<title>6&#45;&gt;10</title>
<path fill="none" stroke="black" d="M905.13,-686.79C897.62,-678.51 888.74,-668.71 880.55,-659.68"/>
<polygon fill="black" stroke="black" points="883.31,-657.51 874,-652.46 878.12,-662.21 883.31,-657.51"/>
</g>
<!-- 11 -->
<g id="node11" class="node">
<title>11</title>
<polygon fill="none" stroke="black" points="1120,-651 1002,-651 1002,-610 1120,-610 1120,-651"/>
<text text-anchor="middle" x="1061" y="-633.7" font-family="Times New Roman,serif" font-size="14.00">NONTERMINAL</text>
<text text-anchor="middle" x="1061" y="-617.2" font-family="Times New Roman,serif" font-size="14.00">type: RuleElement</text>
</g>
<!-- 6&#45;&gt;11 -->
<g id="edge10" class="edge">
<title>6&#45;&gt;11</title>
<path fill="none" stroke="black" d="M959.62,-686.6C976.46,-677.44 996.64,-666.48 1014.53,-656.75"/>
<polygon fill="black" stroke="black" points="1015.76,-660.07 1022.88,-652.22 1012.42,-653.92 1015.76,-660.07"/>
</g>
<!-- 12 -->
<g id="node12" class="node">
<title>12</title>
<polygon fill="none" stroke="black" points="1291,-651 1173,-651 1173,-610 1291,-610 1291,-651"/>
<text text-anchor="middle" x="1232" y="-633.7" font-family="Times New Roman,serif" font-size="14.00">NONTERMINAL</text>
<text text-anchor="middle" x="1232" y="-617.2" font-family="Times New Roman,serif" font-size="14.00">type: RuleElement</text>
</g>
<!-- 6&#45;&gt;12 -->
<g id="edge11" class="edge">
<title>6&#45;&gt;12</title>
<path fill="none" stroke="black" d="M981.12,-692.39C1032.31,-679.97 1107.01,-661.84 1161.58,-648.59"/>
<polygon fill="black" stroke="black" points="1162.2,-652.04 1171.09,-646.28 1160.55,-645.24 1162.2,-652.04"/>
</g>
<!-- 13 -->
<g id="node13" class="node">
<title>13</title>
<polygon fill="none" stroke="black" points="1444,-651 1326,-651 1326,-610 1444,-610 1444,-651"/>
<text text-anchor="middle" x="1385" y="-633.7" font-family="Times New Roman,serif" font-size="14.00">NONTERMINAL</text>
<text text-anchor="middle" x="1385" y="-617.2" font-family="Times New Roman,serif" font-size="14.00">type: RuleElement</text>
</g>
<!-- 6&#45;&gt;13 -->
<g id="edge12" class="edge">
<title>6&#45;&gt;13</title>
<path fill="none" stroke="black" d="M981.36,-699.37C1055.66,-689.95 1187.84,-672.09 1300,-651 1304.82,-650.09 1309.78,-649.11 1314.76,-648.07"/>
<polygon fill="black" stroke="black" points="1315.15,-651.57 1324.2,-646.06 1313.69,-644.72 1315.15,-651.57"/>
</g>
<!-- 14 -->
<g id="node14" class="node">
<title>14</title>
<polygon fill="none" stroke="black" points="1700,-651 1582,-651 1582,-610 1700,-610 1700,-651"/>
<text text-anchor="middle" x="1641" y="-633.7" font-family="Times New Roman,serif" font-size="14.00">NONTERMINAL</text>
<text text-anchor="middle" x="1641" y="-617.2" font-family="Times New Roman,serif" font-size="14.00">type: RuleElement</text>
</g>
<!-- 6&#45;&gt;14 -->
<g id="edge13" class="edge">
<title>6&#45;&gt;14</title>
<path fill="none" stroke="black" d="M981.15,-700.43C1111.9,-686.77 1428.71,-653.68 1570.43,-638.87"/>
<polygon fill="black" stroke="black" points="1570.46,-642.39 1580.05,-637.87 1569.74,-635.42 1570.46,-642.39"/>
</g>
<!-- 15 -->
<g id="node15" class="node">
<title>15</title>
<polygon fill="none" stroke="black" points="248.88,-574 133.12,-574 133.12,-533 248.88,-533 248.88,-574"/>
<text text-anchor="middle" x="191" y="-556.7" font-family="Times New Roman,serif" font-size="14.00">NONTERMINAL</text>
<text text-anchor="middle" x="191" y="-540.2" font-family="Times New Roman,serif" font-size="14.00">type: Element</text>
</g>
<!-- 7&#45;&gt;15 -->
<g id="edge14" class="edge">
<title>7&#45;&gt;15</title>
<path fill="none" stroke="black" d="M230.07,-609.79C224.4,-601.76 217.72,-592.31 211.51,-583.52"/>
<polygon fill="black" stroke="black" points="214.52,-581.72 205.89,-575.57 208.8,-585.76 214.52,-581.72"/>
</g>
<!-- 16 -->
<g id="node16" class="node">
<title>16</title>
<polygon fill="none" stroke="black" points="428.88,-574 313.12,-574 313.12,-533 428.88,-533 428.88,-574"/>
<text text-anchor="middle" x="371" y="-556.7" font-family="Times New Roman,serif" font-size="14.00">NONTERMINAL</text>
<text text-anchor="middle" x="371" y="-540.2" font-family="Times New Roman,serif" font-size="14.00">type: Element</text>
</g>
<!-- 8&#45;&gt;16 -->
<g id="edge15" class="edge">
<title>8&#45;&gt;16</title>
<path fill="none" stroke="black" d="M462.83,-609.6C447.86,-600.61 429.98,-589.89 413.99,-580.29"/>
<polygon fill="black" stroke="black" points="416,-577.42 405.62,-575.27 412.4,-583.42 416,-577.42"/>
</g>
<!-- 17 -->
<g id="node17" class="node">
<title>17</title>
<polygon fill="none" stroke="black" points="674.88,-574 559.12,-574 559.12,-533 674.88,-533 674.88,-574"/>
<text text-anchor="middle" x="617" y="-556.7" font-family="Times New Roman,serif" font-size="14.00">NONTERMINAL</text>
<text text-anchor="middle" x="617" y="-540.2" font-family="Times New Roman,serif" font-size="14.00">type: Element</text>
</g>
<!-- 9&#45;&gt;17 -->
<g id="edge16" class="edge">
<title>9&#45;&gt;17</title>
<path fill="none" stroke="black" d="M670.82,-609.79C662.67,-601.42 653.02,-591.51 644.16,-582.4"/>
<polygon fill="black" stroke="black" points="646.84,-580.14 637.36,-575.42 641.83,-585.03 646.84,-580.14"/>
</g>
<!-- 18 -->
<g id="node18" class="node">
<title>18</title>
<polygon fill="none" stroke="black" points="903.88,-574 788.12,-574 788.12,-533 903.88,-533 903.88,-574"/>
<text text-anchor="middle" x="846" y="-556.7" font-family="Times New Roman,serif" font-size="14.00">NONTERMINAL</text>
<text text-anchor="middle" x="846" y="-540.2" font-family="Times New Roman,serif" font-size="14.00">type: Optional</text>
</g>
<!-- 10&#45;&gt;18 -->
<g id="edge17" class="edge">
<title>10&#45;&gt;18</title>
<path fill="none" stroke="black" d="M852.64,-609.79C851.74,-602.36 850.71,-593.71 849.72,-585.49"/>
<polygon fill="black" stroke="black" points="853.23,-585.35 848.56,-575.84 846.28,-586.18 853.23,-585.35"/>
</g>
<!-- 19 -->
<g id="node19" class="node">
<title>19</title>
<polygon fill="none" stroke="black" points="1160.88,-574 1045.12,-574 1045.12,-533 1160.88,-533 1160.88,-574"/>
<text text-anchor="middle" x="1103" y="-556.7" font-family="Times New Roman,serif" font-size="14.00">NONTERMINAL</text>
<text text-anchor="middle" x="1103" y="-540.2" font-family="Times New Roman,serif" font-size="14.00">type: Element</text>
</g>
<!-- 11&#45;&gt;19 -->
<g id="edge18" class="edge">
<title>11&#45;&gt;19</title>
<path fill="none" stroke="black" d="M1072.04,-609.79C1076.39,-602.02 1081.49,-592.91 1086.28,-584.36"/>
<polygon fill="black" stroke="black" points="1089.32,-586.09 1091.15,-575.65 1083.21,-582.67 1089.32,-586.09"/>
</g>
<!-- 20 -->
<g id="node20" class="node">
<title>20</title>
<polygon fill="none" stroke="black" points="1322.88,-574 1207.12,-574 1207.12,-533 1322.88,-533 1322.88,-574"/>
<text text-anchor="middle" x="1265" y="-556.7" font-family="Times New Roman,serif" font-size="14.00">NONTERMINAL</text>
<text text-anchor="middle" x="1265" y="-540.2" font-family="Times New Roman,serif" font-size="14.00">type: Element</text>
</g>
<!-- 12&#45;&gt;20 -->
<g id="edge19" class="edge">
<title>12&#45;&gt;20</title>
<path fill="none" stroke="black" d="M1240.67,-609.79C1244.05,-602.1 1248.01,-593.11 1251.74,-584.65"/>
<polygon fill="black" stroke="black" points="1254.84,-586.28 1255.66,-575.72 1248.43,-583.46 1254.84,-586.28"/>
</g>
<!-- 21 -->
<g id="node21" class="node">
<title>21</title>
<polygon fill="none" stroke="black" points="1465.88,-574 1350.12,-574 1350.12,-533 1465.88,-533 1465.88,-574"/>
<text text-anchor="middle" x="1408" y="-556.7" font-family="Times New Roman,serif" font-size="14.00">NONTERMINAL</text>
<text text-anchor="middle" x="1408" y="-540.2" font-family="Times New Roman,serif" font-size="14.00">type: Element</text>
</g>
<!-- 13&#45;&gt;21 -->
<g id="edge20" class="edge">
<title>13&#45;&gt;21</title>
<path fill="none" stroke="black" d="M1391.04,-609.79C1393.35,-602.28 1396.04,-593.51 1398.58,-585.21"/>
<polygon fill="black" stroke="black" points="1401.89,-586.37 1401.47,-575.78 1395.2,-584.32 1401.89,-586.37"/>
</g>
<!-- 22 -->
<g id="node22" class="node">
<title>22</title>
<polygon fill="none" stroke="black" points="1754.88,-574 1639.12,-574 1639.12,-533 1754.88,-533 1754.88,-574"/>
<text text-anchor="middle" x="1697" y="-556.7" font-family="Times New Roman,serif" font-size="14.00">NONTERMINAL</text>
<text text-anchor="middle" x="1697" y="-540.2" font-family="Times New Roman,serif" font-size="14.00">type: Element</text>
</g>
<!-- 14&#45;&gt;22 -->
<g id="edge21" class="edge">
<title>14&#45;&gt;22</title>
<path fill="none" stroke="black" d="M1655.71,-609.79C1661.71,-601.76 1668.77,-592.31 1675.33,-583.52"/>
<polygon fill="black" stroke="black" points="1678.11,-585.65 1681.28,-575.55 1672.5,-581.47 1678.11,-585.65"/>
</g>
<!-- 23 -->
<g id="node23" class="node">
<title>23</title>
<polygon fill="none" stroke="black" points="103,-497 0,-439.5 103,-382 206,-439.5 103,-497"/>
<text text-anchor="middle" x="103" y="-450.95" font-family="Times New Roman,serif" font-size="14.00">TERMINAL</text>
<text text-anchor="middle" x="103" y="-434.45" font-family="Times New Roman,serif" font-size="14.00">type: key_name</text>
<text text-anchor="middle" x="103" y="-417.95" font-family="Times New Roman,serif" font-size="14.00">string: &#39;ITER&#39;</text>
</g>
<!-- 15&#45;&gt;23 -->
<g id="edge22" class="edge">
<title>15&#45;&gt;23</title>
<path fill="none" stroke="black" d="M175.47,-532.73C165.9,-520.56 153.18,-504.37 141.07,-488.96"/>
<polygon fill="black" stroke="black" points="143.91,-486.9 134.98,-481.2 138.41,-491.23 143.91,-486.9"/>
</g>
<!-- 24 -->
<g id="node24" class="node">
<title>24</title>
<polygon fill="none" stroke="black" points="329,-497 224.5,-439.5 329,-382 433.5,-439.5 329,-497"/>
<text text-anchor="middle" x="329" y="-450.95" font-family="Times New Roman,serif" font-size="14.00">TERMINAL</text>
<text text-anchor="middle" x="329" y="-434.45" font-family="Times New Roman,serif" font-size="14.00">type: name</text>
<text text-anchor="middle" x="329" y="-417.95" font-family="Times New Roman,serif" font-size="14.00">string: Identifier</text>
</g>
<!-- 16&#45;&gt;24 -->
<g id="edge23" class="edge">
<title>16&#45;&gt;24</title>
<path fill="none" stroke="black" d="M363.59,-532.73C359.91,-522.92 355.25,-510.51 350.56,-498"/>
<polygon fill="black" stroke="black" points="353.95,-497.07 347.16,-488.93 347.4,-499.53 353.95,-497.07"/>
</g>
<!-- 25 -->
<g id="node25" class="node">
<title>25</title>
<polygon fill="none" stroke="black" points="555,-497 452,-439.5 555,-382 658,-439.5 555,-497"/>
<text text-anchor="middle" x="555" y="-450.95" font-family="Times New Roman,serif" font-size="14.00">TERMINAL</text>
<text text-anchor="middle" x="555" y="-434.45" font-family="Times New Roman,serif" font-size="14.00">type: key_name</text>
<text text-anchor="middle" x="555" y="-417.95" font-family="Times New Roman,serif" font-size="14.00">string: &#39;(&#39;</text>
</g>
<!-- 17&#45;&gt;25 -->
<g id="edge24" class="edge">
<title>17&#45;&gt;25</title>
<path fill="none" stroke="black" d="M606.06,-532.73C600.02,-521.82 592.19,-507.69 584.49,-493.78"/>
<polygon fill="black" stroke="black" points="587.57,-492.12 579.67,-485.06 581.45,-495.51 587.57,-492.12"/>
</g>
<!-- 26 -->
<g id="node26" class="node">
<title>26</title>
<ellipse fill="none" stroke="black" cx="718" cy="-439.5" rx="41.54" ry="28.99"/>
<text text-anchor="middle" x="718" y="-442.7" font-family="Times New Roman,serif" font-size="14.00">KEY</text>
<text text-anchor="middle" x="718" y="-426.2" font-family="Times New Roman,serif" font-size="14.00">string: [</text>
</g>
<!-- 18&#45;&gt;26 -->
<g id="edge25" class="edge">
<title>18&#45;&gt;26</title>
<path fill="none" stroke="black" d="M814.77,-532.68C799.99,-522.71 782.46,-510 768,-497 760.13,-489.92 752.25,-481.69 745.15,-473.73"/>
<polygon fill="black" stroke="black" points="747.98,-471.66 738.78,-466.41 742.7,-476.25 747.98,-471.66"/>
</g>
<!-- 27 -->
<g id="node27" class="node">
<title>27</title>
<polygon fill="none" stroke="black" points="892.88,-460 777.12,-460 777.12,-419 892.88,-419 892.88,-460"/>
<text text-anchor="middle" x="835" y="-442.7" font-family="Times New Roman,serif" font-size="14.00">NONTERMINAL</text>
<text text-anchor="middle" x="835" y="-426.2" font-family="Times New Roman,serif" font-size="14.00">type: Alternative</text>
</g>
<!-- 18&#45;&gt;27 -->
<g id="edge26" class="edge">
<title>18&#45;&gt;27</title>
<path fill="none" stroke="black" d="M844.06,-532.73C842.4,-515.88 840,-491.37 838.08,-471.84"/>
<polygon fill="black" stroke="black" points="841.57,-471.56 837.11,-461.95 834.6,-472.25 841.57,-471.56"/>
</g>
<!-- 28 -->
<g id="node28" class="node">
<title>28</title>
<ellipse fill="none" stroke="black" cx="952" cy="-439.5" rx="41.54" ry="28.99"/>
<text text-anchor="middle" x="952" y="-442.7" font-family="Times New Roman,serif" font-size="14.00">KEY</text>
<text text-anchor="middle" x="952" y="-426.2" font-family="Times New Roman,serif" font-size="14.00">string: ]</text>
</g>
<!-- 18&#45;&gt;28 -->
<g id="edge27" class="edge">
<title>18&#45;&gt;28</title>
<path fill="none" stroke="black" d="M866.8,-532.52C877.49,-522.09 890.62,-509.04 902,-497 909.06,-489.53 916.49,-481.33 923.4,-473.55"/>
<polygon fill="black" stroke="black" points="925.94,-475.96 929.93,-466.14 920.69,-471.33 925.94,-475.96"/>
</g>
<!-- 29 -->
<g id="node29" class="node">
<title>29</title>
<polygon fill="none" stroke="black" points="1115,-497 1012,-439.5 1115,-382 1218,-439.5 1115,-497"/>
<text text-anchor="middle" x="1115" y="-450.95" font-family="Times New Roman,serif" font-size="14.00">TERMINAL</text>
<text text-anchor="middle" x="1115" y="-434.45" font-family="Times New Roman,serif" font-size="14.00">type: key_name</text>
<text text-anchor="middle" x="1115" y="-417.95" font-family="Times New Roman,serif" font-size="14.00">string: &#39;)&#39;</text>
</g>
<!-- 19&#45;&gt;29 -->
<g id="edge28" class="edge">
<title>19&#45;&gt;29</title>
<path fill="none" stroke="black" d="M1105.12,-532.73C1105.96,-524.89 1106.98,-515.37 1108.04,-505.48"/>
<polygon fill="black" stroke="black" points="1111.5,-506.03 1109.08,-495.72 1104.54,-505.29 1111.5,-506.03"/>
</g>
<!-- 30 -->
<g id="node30" class="node">
<title>30</title>
<polygon fill="none" stroke="black" points="1323,-497 1236.5,-439.5 1323,-382 1409.5,-439.5 1323,-497"/>
<text text-anchor="middle" x="1323" y="-450.95" font-family="Times New Roman,serif" font-size="14.00">TERMINAL</text>
<text text-anchor="middle" x="1323" y="-434.45" font-family="Times New Roman,serif" font-size="14.00">type: name</text>
<text text-anchor="middle" x="1323" y="-417.95" font-family="Times New Roman,serif" font-size="14.00">string: Block</text>
</g>
<!-- 20&#45;&gt;30 -->
<g id="edge29" class="edge">
<title>20&#45;&gt;30</title>
<path fill="none" stroke="black" d="M1275.24,-532.73C1280.99,-521.62 1288.48,-507.16 1295.81,-493"/>
<polygon fill="black" stroke="black" points="1298.91,-494.63 1300.4,-484.14 1292.69,-491.41 1298.91,-494.63"/>
</g>
<!-- 31 -->
<g id="node31" class="node">
<title>31</title>
<polygon fill="none" stroke="black" points="1514,-497 1427.5,-439.5 1514,-382 1600.5,-439.5 1514,-497"/>
<text text-anchor="middle" x="1514" y="-450.95" font-family="Times New Roman,serif" font-size="14.00">TERMINAL</text>
<text text-anchor="middle" x="1514" y="-434.45" font-family="Times New Roman,serif" font-size="14.00">type: name</text>
<text text-anchor="middle" x="1514" y="-417.95" font-family="Times New Roman,serif" font-size="14.00">string: Yield</text>
</g>
<!-- 21&#45;&gt;31 -->
<g id="edge30" class="edge">
<title>21&#45;&gt;31</title>
<path fill="none" stroke="black" d="M1426.71,-532.73C1439.58,-519.13 1457.18,-500.54 1473.2,-483.61"/>
<polygon fill="black" stroke="black" points="1475.55,-486.22 1479.88,-476.55 1470.46,-481.41 1475.55,-486.22"/>
</g>
<!-- 32 -->
<g id="node32" class="node">
<title>32</title>
<polygon fill="none" stroke="black" points="1742,-497 1618.75,-439.5 1742,-382 1865.25,-439.5 1742,-497"/>
<text text-anchor="middle" x="1742" y="-450.95" font-family="Times New Roman,serif" font-size="14.00">TERMINAL</text>
<text text-anchor="middle" x="1742" y="-434.45" font-family="Times New Roman,serif" font-size="14.00">type: key_name</text>
<text text-anchor="middle" x="1742" y="-417.95" font-family="Times New Roman,serif" font-size="14.00">string: &#39;END_ITER&#39;</text>
</g>
<!-- 22&#45;&gt;32 -->
<g id="edge31" class="edge">
<title>22&#45;&gt;32</title>
<path fill="none" stroke="black" d="M1704.94,-532.73C1708.77,-523.21 1713.58,-511.25 1718.45,-499.11"/>
<polygon fill="black" stroke="black" points="1721.68,-500.46 1722.16,-489.87 1715.19,-497.85 1721.68,-500.46"/>
</g>
<!-- 33 -->
<g id="node33" class="node">
<title>33</title>
<polygon fill="none" stroke="black" points="892.88,-346 777.12,-346 777.12,-305 892.88,-305 892.88,-346"/>
<text text-anchor="middle" x="835" y="-328.7" font-family="Times New Roman,serif" font-size="14.00">NONTERMINAL</text>
<text text-anchor="middle" x="835" y="-312.2" font-family="Times New Roman,serif" font-size="14.00">type: Sequence</text>
</g>
<!-- 27&#45;&gt;33 -->
<g id="edge32" class="edge">
<title>27&#45;&gt;33</title>
<path fill="none" stroke="black" d="M835,-418.73C835,-401.88 835,-377.37 835,-357.84"/>
<polygon fill="black" stroke="black" points="838.5,-357.96 835,-347.96 831.5,-357.96 838.5,-357.96"/>
</g>
<!-- 34 -->
<g id="node34" class="node">
<title>34</title>
<polygon fill="none" stroke="black" points="894,-269 776,-269 776,-228 894,-228 894,-269"/>
<text text-anchor="middle" x="835" y="-251.7" font-family="Times New Roman,serif" font-size="14.00">NONTERMINAL</text>
<text text-anchor="middle" x="835" y="-235.2" font-family="Times New Roman,serif" font-size="14.00">type: RuleElement</text>
</g>
<!-- 33&#45;&gt;34 -->
<g id="edge33" class="edge">
<title>33&#45;&gt;34</title>
<path fill="none" stroke="black" d="M835,-304.79C835,-297.45 835,-288.91 835,-280.78"/>
<polygon fill="black" stroke="black" points="838.5,-280.85 835,-270.85 831.5,-280.85 838.5,-280.85"/>
</g>
<!-- 35 -->
<g id="node35" class="node">
<title>35</title>
<polygon fill="none" stroke="black" points="892.88,-192 777.12,-192 777.12,-151 892.88,-151 892.88,-192"/>
<text text-anchor="middle" x="835" y="-174.7" font-family="Times New Roman,serif" font-size="14.00">NONTERMINAL</text>
<text text-anchor="middle" x="835" y="-158.2" font-family="Times New Roman,serif" font-size="14.00">type: Element</text>
</g>
<!-- 34&#45;&gt;35 -->
<g id="edge34" class="edge">
<title>34&#45;&gt;35</title>
<path fill="none" stroke="black" d="M835,-227.79C835,-220.45 835,-211.91 835,-203.78"/>
<polygon fill="black" stroke="black" points="838.5,-203.85 835,-193.85 831.5,-203.85 838.5,-203.85"/>
</g>
<!-- 36 -->
<g id="node36" class="node">
<title>36</title>
<polygon fill="none" stroke="black" points="835,-115 720,-57.5 835,0 950,-57.5 835,-115"/>
<text text-anchor="middle" x="835" y="-68.95" font-family="Times New Roman,serif" font-size="14.00">TERMINAL</text>
<text text-anchor="middle" x="835" y="-52.45" font-family="Times New Roman,serif" font-size="14.00">type: name</text>
<text text-anchor="middle" x="835" y="-35.95" font-family="Times New Roman,serif" font-size="14.00">string: Parameters</text>
</g>
<!-- 35&#45;&gt;36 -->
<g id="edge35" class="edge">
<title>35&#45;&gt;36</title>
<path fill="none" stroke="black" d="M835,-150.73C835,-143.67 835,-135.26 835,-126.43"/>
<polygon fill="black" stroke="black" points="838.5,-126.61 835,-116.61 831.5,-126.61 838.5,-126.61"/>
</g>
</g>
</svg>
