<?xml version="1.0" encoding="UTF-8" standalone="no"?>
<!DOCTYPE svg PUBLIC "-//W3C//DTD SVG 1.1//EN"
 "http://www.w3.org/Graphics/SVG/1.1/DTD/svg11.dtd">
<!-- Generated by graphviz version 12.2.0 (20241103.1931)
 -->
<!-- Title: ast_Alternative Pages: 1 -->
<svg width="710pt" height="907pt"
 viewBox="0.00 0.00 710.38 906.98" xmlns="http://www.w3.org/2000/svg" xmlns:xlink="http://www.w3.org/1999/xlink">
<g id="graph0" class="graph" transform="scale(1 1) rotate(0) translate(4 902.98)">
<title>ast_Alternative</title>
<polygon fill="white" stroke="none" points="-4,4 -4,-902.98 706.38,-902.98 706.38,4 -4,4"/>
<!-- 1 -->
<g id="node1" class="node">
<title>1</title>
<polygon fill="none" stroke="black" points="416.12,-898.98 300.38,-898.98 300.38,-857.98 416.12,-857.98 416.12,-898.98"/>
<text text-anchor="middle" x="358.25" y="-881.68" font-family="Times New Roman,serif" font-size="14.00">NONTERMINAL</text>
<text text-anchor="middle" x="358.25" y="-865.18" font-family="Times New Roman,serif" font-size="14.00">type: Rule</text>
</g>
<!-- 2 -->
<g id="node2" class="node">
<title>2</title>
<polygon fill="none" stroke="black" points="114.25,-821.98 0,-764.48 114.25,-706.98 228.5,-764.48 114.25,-821.98"/>
<text text-anchor="middle" x="114.25" y="-775.93" font-family="Times New Roman,serif" font-size="14.00">TERMINAL</text>
<text text-anchor="middle" x="114.25" y="-759.43" font-family="Times New Roman,serif" font-size="14.00">type: name</text>
<text text-anchor="middle" x="114.25" y="-742.93" font-family="Times New Roman,serif" font-size="14.00">string: Alternative</text>
</g>
<!-- 1&#45;&gt;2 -->
<g id="edge1" class="edge">
<title>1&#45;&gt;2</title>
<path fill="none" stroke="black" d="M314.91,-857.59C278.47,-840.86 225.72,-816.65 183.45,-797.24"/>
<polygon fill="black" stroke="black" points="185.14,-794.17 174.59,-793.18 182.22,-800.53 185.14,-794.17"/>
</g>
<!-- 3 -->
<g id="node3" class="node">
<title>3</title>
<ellipse fill="none" stroke="black" cx="296.25" cy="-764.48" rx="49.5" ry="28.99"/>
<text text-anchor="middle" x="296.25" y="-767.68" font-family="Times New Roman,serif" font-size="14.00">KEY</text>
<text text-anchor="middle" x="296.25" y="-751.18" font-family="Times New Roman,serif" font-size="14.00">string: ::=</text>
</g>
<!-- 1&#45;&gt;3 -->
<g id="edge2" class="edge">
<title>1&#45;&gt;3</title>
<path fill="none" stroke="black" d="M347.31,-857.72C338.8,-842.35 326.76,-820.61 316.51,-802.09"/>
<polygon fill="black" stroke="black" points="319.68,-800.57 311.77,-793.52 313.55,-803.96 319.68,-800.57"/>
</g>
<!-- 4 -->
<g id="node4" class="node">
<title>4</title>
<polygon fill="none" stroke="black" points="479.12,-784.98 363.38,-784.98 363.38,-743.98 479.12,-743.98 479.12,-784.98"/>
<text text-anchor="middle" x="421.25" y="-767.68" font-family="Times New Roman,serif" font-size="14.00">NONTERMINAL</text>
<text text-anchor="middle" x="421.25" y="-751.18" font-family="Times New Roman,serif" font-size="14.00">type: Alternative</text>
</g>
<!-- 1&#45;&gt;4 -->
<g id="edge3" class="edge">
<title>1&#45;&gt;4</title>
<path fill="none" stroke="black" d="M369.37,-857.72C379.07,-840.47 393.29,-815.19 404.39,-795.45"/>
<polygon fill="black" stroke="black" points="407.44,-797.18 409.29,-786.75 401.34,-793.75 407.44,-797.18"/>
</g>
<!-- 5 -->
<g id="node5" class="node">
<title>5</title>
<ellipse fill="none" stroke="black" cx="538.25" cy="-764.48" rx="41.01" ry="28.99"/>
<text text-anchor="middle" x="538.25" y="-767.68" font-family="Times New Roman,serif" font-size="14.00">KEY</text>
<text text-anchor="middle" x="538.25" y="-751.18" font-family="Times New Roman,serif" font-size="14.00">string: ;</text>
</g>
<!-- 1&#45;&gt;5 -->
<g id="edge4" class="edge">
<title>1&#45;&gt;5</title>
<path fill="none" stroke="black" d="M416.48,-858.95C440.01,-849.9 466.66,-837.56 488.25,-821.98 496.99,-815.68 505.27,-807.59 512.49,-799.52"/>
<polygon fill="black" stroke="black" points="515.08,-801.89 518.9,-792.01 509.75,-797.35 515.08,-801.89"/>
</g>
<!-- 6 -->
<g id="node6" class="node">
<title>6</title>
<polygon fill="none" stroke="black" points="479.12,-670.98 363.38,-670.98 363.38,-629.98 479.12,-629.98 479.12,-670.98"/>
<text text-anchor="middle" x="421.25" y="-653.68" font-family="Times New Roman,serif" font-size="14.00">NONTERMINAL</text>
<text text-anchor="middle" x="421.25" y="-637.18" font-family="Times New Roman,serif" font-size="14.00">type: Sequence</text>
</g>
<!-- 4&#45;&gt;6 -->
<g id="edge5" class="edge">
<title>4&#45;&gt;6</title>
<path fill="none" stroke="black" d="M421.25,-743.72C421.25,-726.87 421.25,-702.35 421.25,-682.82"/>
<polygon fill="black" stroke="black" points="424.75,-682.94 421.25,-672.94 417.75,-682.94 424.75,-682.94"/>
</g>
<!-- 7 -->
<g id="node7" class="node">
<title>7</title>
<polygon fill="none" stroke="black" points="480.25,-593.98 362.25,-593.98 362.25,-552.98 480.25,-552.98 480.25,-593.98"/>
<text text-anchor="middle" x="421.25" y="-576.68" font-family="Times New Roman,serif" font-size="14.00">NONTERMINAL</text>
<text text-anchor="middle" x="421.25" y="-560.18" font-family="Times New Roman,serif" font-size="14.00">type: RuleElement</text>
</g>
<!-- 6&#45;&gt;7 -->
<g id="edge6" class="edge">
<title>6&#45;&gt;7</title>
<path fill="none" stroke="black" d="M421.25,-629.78C421.25,-622.43 421.25,-613.89 421.25,-605.76"/>
<polygon fill="black" stroke="black" points="424.75,-605.83 421.25,-595.83 417.75,-605.83 424.75,-605.83"/>
</g>
<!-- 8 -->
<g id="node8" class="node">
<title>8</title>
<polygon fill="none" stroke="black" points="479.12,-516.98 363.38,-516.98 363.38,-475.98 479.12,-475.98 479.12,-516.98"/>
<text text-anchor="middle" x="421.25" y="-499.68" font-family="Times New Roman,serif" font-size="14.00">NONTERMINAL</text>
<text text-anchor="middle" x="421.25" y="-483.18" font-family="Times New Roman,serif" font-size="14.00">type: Iteration</text>
</g>
<!-- 7&#45;&gt;8 -->
<g id="edge7" class="edge">
<title>7&#45;&gt;8</title>
<path fill="none" stroke="black" d="M421.25,-552.78C421.25,-545.43 421.25,-536.89 421.25,-528.76"/>
<polygon fill="black" stroke="black" points="424.75,-528.83 421.25,-518.83 417.75,-528.83 424.75,-528.83"/>
</g>
<!-- 9 -->
<g id="node9" class="node">
<title>9</title>
<ellipse fill="none" stroke="black" cx="183.25" cy="-410.99" rx="43.13" ry="28.99"/>
<text text-anchor="middle" x="183.25" y="-414.19" font-family="Times New Roman,serif" font-size="14.00">KEY</text>
<text text-anchor="middle" x="183.25" y="-397.69" font-family="Times New Roman,serif" font-size="14.00">string: {</text>
</g>
<!-- 8&#45;&gt;9 -->
<g id="edge8" class="edge">
<title>8&#45;&gt;9</title>
<path fill="none" stroke="black" d="M363.22,-481.43C325.99,-471.63 276.98,-457.23 235.25,-439.98 232.08,-438.67 228.86,-437.23 225.64,-435.71"/>
<polygon fill="black" stroke="black" points="227.35,-432.65 216.84,-431.33 224.23,-438.92 227.35,-432.65"/>
</g>
<!-- 10 -->
<g id="node10" class="node">
<title>10</title>
<polygon fill="none" stroke="black" points="360.12,-431.49 244.38,-431.49 244.38,-390.49 360.12,-390.49 360.12,-431.49"/>
<text text-anchor="middle" x="302.25" y="-414.19" font-family="Times New Roman,serif" font-size="14.00">NONTERMINAL</text>
<text text-anchor="middle" x="302.25" y="-397.69" font-family="Times New Roman,serif" font-size="14.00">type: Alternative</text>
</g>
<!-- 8&#45;&gt;10 -->
<g id="edge9" class="edge">
<title>8&#45;&gt;10</title>
<path fill="none" stroke="black" d="M392.75,-475.48C376.85,-464.33 356.86,-450.31 339.71,-438.27"/>
<polygon fill="black" stroke="black" points="341.96,-435.57 331.76,-432.7 337.94,-441.3 341.96,-435.57"/>
</g>
<!-- 11 -->
<g id="node11" class="node">
<title>11</title>
<ellipse fill="none" stroke="black" cx="421.25" cy="-410.99" rx="43.13" ry="28.99"/>
<text text-anchor="middle" x="421.25" y="-414.19" font-family="Times New Roman,serif" font-size="14.00">KEY</text>
<text text-anchor="middle" x="421.25" y="-397.69" font-family="Times New Roman,serif" font-size="14.00">string: #</text>
</g>
<!-- 8&#45;&gt;11 -->
<g id="edge10" class="edge">
<title>8&#45;&gt;11</title>
<path fill="none" stroke="black" d="M421.25,-475.7C421.25,-468.4 421.25,-459.86 421.25,-451.44"/>
<polygon fill="black" stroke="black" points="424.75,-451.68 421.25,-441.68 417.75,-451.68 424.75,-451.68"/>
</g>
<!-- 12 -->
<g id="node12" class="node">
<title>12</title>
<polygon fill="none" stroke="black" points="598.12,-431.49 482.38,-431.49 482.38,-390.49 598.12,-390.49 598.12,-431.49"/>
<text text-anchor="middle" x="540.25" y="-414.19" font-family="Times New Roman,serif" font-size="14.00">NONTERMINAL</text>
<text text-anchor="middle" x="540.25" y="-397.69" font-family="Times New Roman,serif" font-size="14.00">type: Alternative</text>
</g>
<!-- 8&#45;&gt;12 -->
<g id="edge11" class="edge">
<title>8&#45;&gt;12</title>
<path fill="none" stroke="black" d="M449.75,-475.48C465.65,-464.33 485.64,-450.31 502.79,-438.27"/>
<polygon fill="black" stroke="black" points="504.56,-441.3 510.74,-432.7 500.54,-435.57 504.56,-441.3"/>
</g>
<!-- 13 -->
<g id="node13" class="node">
<title>13</title>
<ellipse fill="none" stroke="black" cx="659.25" cy="-410.99" rx="43.13" ry="28.99"/>
<text text-anchor="middle" x="659.25" y="-414.19" font-family="Times New Roman,serif" font-size="14.00">KEY</text>
<text text-anchor="middle" x="659.25" y="-397.69" font-family="Times New Roman,serif" font-size="14.00">string: }</text>
</g>
<!-- 8&#45;&gt;13 -->
<g id="edge12" class="edge">
<title>8&#45;&gt;13</title>
<path fill="none" stroke="black" d="M479.28,-481.43C516.51,-471.63 565.52,-457.23 607.25,-439.98 610.42,-438.67 613.64,-437.23 616.86,-435.71"/>
<polygon fill="black" stroke="black" points="618.27,-438.92 625.66,-431.33 615.15,-432.65 618.27,-438.92"/>
</g>
<!-- 14 -->
<g id="node14" class="node">
<title>14</title>
<polygon fill="none" stroke="black" points="360.12,-346 244.38,-346 244.38,-305 360.12,-305 360.12,-346"/>
<text text-anchor="middle" x="302.25" y="-328.7" font-family="Times New Roman,serif" font-size="14.00">NONTERMINAL</text>
<text text-anchor="middle" x="302.25" y="-312.2" font-family="Times New Roman,serif" font-size="14.00">type: Sequence</text>
</g>
<!-- 10&#45;&gt;14 -->
<g id="edge13" class="edge">
<title>10&#45;&gt;14</title>
<path fill="none" stroke="black" d="M302.25,-390.21C302.25,-380.5 302.25,-368.59 302.25,-357.7"/>
<polygon fill="black" stroke="black" points="305.75,-357.95 302.25,-347.95 298.75,-357.95 305.75,-357.95"/>
</g>
<!-- 15 -->
<g id="node15" class="node">
<title>15</title>
<polygon fill="none" stroke="black" points="598.12,-346 482.38,-346 482.38,-305 598.12,-305 598.12,-346"/>
<text text-anchor="middle" x="540.25" y="-328.7" font-family="Times New Roman,serif" font-size="14.00">NONTERMINAL</text>
<text text-anchor="middle" x="540.25" y="-312.2" font-family="Times New Roman,serif" font-size="14.00">type: Sequence</text>
</g>
<!-- 12&#45;&gt;15 -->
<g id="edge14" class="edge">
<title>12&#45;&gt;15</title>
<path fill="none" stroke="black" d="M540.25,-390.21C540.25,-380.5 540.25,-368.59 540.25,-357.7"/>
<polygon fill="black" stroke="black" points="543.75,-357.95 540.25,-347.95 536.75,-357.95 543.75,-357.95"/>
</g>
<!-- 16 -->
<g id="node16" class="node">
<title>16</title>
<polygon fill="none" stroke="black" points="361.25,-269 243.25,-269 243.25,-228 361.25,-228 361.25,-269"/>
<text text-anchor="middle" x="302.25" y="-251.7" font-family="Times New Roman,serif" font-size="14.00">NONTERMINAL</text>
<text text-anchor="middle" x="302.25" y="-235.2" font-family="Times New Roman,serif" font-size="14.00">type: RuleElement</text>
</g>
<!-- 14&#45;&gt;16 -->
<g id="edge15" class="edge">
<title>14&#45;&gt;16</title>
<path fill="none" stroke="black" d="M302.25,-304.79C302.25,-297.45 302.25,-288.91 302.25,-280.78"/>
<polygon fill="black" stroke="black" points="305.75,-280.85 302.25,-270.85 298.75,-280.85 305.75,-280.85"/>
</g>
<!-- 17 -->
<g id="node17" class="node">
<title>17</title>
<polygon fill="none" stroke="black" points="599.25,-269 481.25,-269 481.25,-228 599.25,-228 599.25,-269"/>
<text text-anchor="middle" x="540.25" y="-251.7" font-family="Times New Roman,serif" font-size="14.00">NONTERMINAL</text>
<text text-anchor="middle" x="540.25" y="-235.2" font-family="Times New Roman,serif" font-size="14.00">type: RuleElement</text>
</g>
<!-- 15&#45;&gt;17 -->
<g id="edge16" class="edge">
<title>15&#45;&gt;17</title>
<path fill="none" stroke="black" d="M540.25,-304.79C540.25,-297.45 540.25,-288.91 540.25,-280.78"/>
<polygon fill="black" stroke="black" points="543.75,-280.85 540.25,-270.85 536.75,-280.85 543.75,-280.85"/>
</g>
<!-- 18 -->
<g id="node18" class="node">
<title>18</title>
<polygon fill="none" stroke="black" points="360.12,-192 244.38,-192 244.38,-151 360.12,-151 360.12,-192"/>
<text text-anchor="middle" x="302.25" y="-174.7" font-family="Times New Roman,serif" font-size="14.00">NONTERMINAL</text>
<text text-anchor="middle" x="302.25" y="-158.2" font-family="Times New Roman,serif" font-size="14.00">type: Element</text>
</g>
<!-- 16&#45;&gt;18 -->
<g id="edge17" class="edge">
<title>16&#45;&gt;18</title>
<path fill="none" stroke="black" d="M302.25,-227.79C302.25,-220.45 302.25,-211.91 302.25,-203.78"/>
<polygon fill="black" stroke="black" points="305.75,-203.85 302.25,-193.85 298.75,-203.85 305.75,-203.85"/>
</g>
<!-- 19 -->
<g id="node19" class="node">
<title>19</title>
<polygon fill="none" stroke="black" points="598.12,-192 482.38,-192 482.38,-151 598.12,-151 598.12,-192"/>
<text text-anchor="middle" x="540.25" y="-174.7" font-family="Times New Roman,serif" font-size="14.00">NONTERMINAL</text>
<text text-anchor="middle" x="540.25" y="-158.2" font-family="Times New Roman,serif" font-size="14.00">type: Element</text>
</g>
<!-- 17&#45;&gt;19 -->
<g id="edge18" class="edge">
<title>17&#45;&gt;19</title>
<path fill="none" stroke="black" d="M540.25,-227.79C540.25,-220.45 540.25,-211.91 540.25,-203.78"/>
<polygon fill="black" stroke="black" points="543.75,-203.85 540.25,-193.85 536.75,-203.85 543.75,-203.85"/>
</g>
<!-- 20 -->
<g id="node20" class="node">
<title>20</title>
<polygon fill="none" stroke="black" points="302.25,-115 196.25,-57.5 302.25,0 408.25,-57.5 302.25,-115"/>
<text text-anchor="middle" x="302.25" y="-68.95" font-family="Times New Roman,serif" font-size="14.00">TERMINAL</text>
<text text-anchor="middle" x="302.25" y="-52.45" font-family="Times New Roman,serif" font-size="14.00">type: name</text>
<text text-anchor="middle" x="302.25" y="-35.95" font-family="Times New Roman,serif" font-size="14.00">string: Sequence</text>
</g>
<!-- 18&#45;&gt;20 -->
<g id="edge19" class="edge">
<title>18&#45;&gt;20</title>
<path fill="none" stroke="black" d="M302.25,-150.73C302.25,-143.67 302.25,-135.26 302.25,-126.43"/>
<polygon fill="black" stroke="black" points="305.75,-126.61 302.25,-116.61 298.75,-126.61 305.75,-126.61"/>
</g>
<!-- 21 -->
<g id="node21" class="node">
<title>21</title>
<polygon fill="none" stroke="black" points="540.25,-115 437.25,-57.5 540.25,0 643.25,-57.5 540.25,-115"/>
<text text-anchor="middle" x="540.25" y="-68.95" font-family="Times New Roman,serif" font-size="14.00">TERMINAL</text>
<text text-anchor="middle" x="540.25" y="-52.45" font-family="Times New Roman,serif" font-size="14.00">type: key_name</text>
<text text-anchor="middle" x="540.25" y="-35.95" font-family="Times New Roman,serif" font-size="14.00">string: &#39;|&#39;</text>
</g>
<!-- 19&#45;&gt;21 -->
<g id="edge20" class="edge">
<title>19&#45;&gt;21</title>
<path fill="none" stroke="black" d="M540.25,-150.73C540.25,-143.67 540.25,-135.26 540.25,-126.43"/>
<polygon fill="black" stroke="black" points="543.75,-126.61 540.25,-116.61 536.75,-126.61 543.75,-126.61"/>
</g>
</g>
</svg>
