<?xml version="1.0" encoding="UTF-8" standalone="no"?>
<!DOCTYPE svg PUBLIC "-//W3C//DTD SVG 1.1//EN"
 "http://www.w3.org/Graphics/SVG/1.1/DTD/svg11.dtd">
<!-- Generated by graphviz version 12.2.0 (20241103.1931)
 -->
<!-- Title: ast_RulesBlock Pages: 1 -->
<svg width="880pt" height="964pt"
 viewBox="0.00 0.00 880.38 964.00" xmlns="http://www.w3.org/2000/svg" xmlns:xlink="http://www.w3.org/1999/xlink">
<g id="graph0" class="graph" transform="scale(1 1) rotate(0) translate(4 960)">
<title>ast_RulesBlock</title>
<polygon fill="white" stroke="none" points="-4,4 -4,-960 876.38,-960 876.38,4 -4,4"/>
<!-- 1 -->
<g id="node1" class="node">
<title>1</title>
<polygon fill="none" stroke="black" points="422.12,-956 306.38,-956 306.38,-915 422.12,-915 422.12,-956"/>
<text text-anchor="middle" x="364.25" y="-938.7" font-family="Times New Roman,serif" font-size="14.00">NONTERMINAL</text>
<text text-anchor="middle" x="364.25" y="-922.2" font-family="Times New Roman,serif" font-size="14.00">type: Rule</text>
</g>
<!-- 2 -->
<g id="node2" class="node">
<title>2</title>
<polygon fill="none" stroke="black" points="117.25,-879 0,-821.5 117.25,-764 234.5,-821.5 117.25,-879"/>
<text text-anchor="middle" x="117.25" y="-832.95" font-family="Times New Roman,serif" font-size="14.00">TERMINAL</text>
<text text-anchor="middle" x="117.25" y="-816.45" font-family="Times New Roman,serif" font-size="14.00">type: name</text>
<text text-anchor="middle" x="117.25" y="-799.95" font-family="Times New Roman,serif" font-size="14.00">string: RulesBlock</text>
</g>
<!-- 1&#45;&gt;2 -->
<g id="edge1" class="edge">
<title>1&#45;&gt;2</title>
<path fill="none" stroke="black" d="M320.38,-914.61C283.62,-897.94 230.46,-873.83 187.74,-854.46"/>
<polygon fill="black" stroke="black" points="189.34,-851.34 178.78,-850.4 186.45,-857.72 189.34,-851.34"/>
</g>
<!-- 3 -->
<g id="node3" class="node">
<title>3</title>
<ellipse fill="none" stroke="black" cx="302.25" cy="-821.5" rx="49.5" ry="28.99"/>
<text text-anchor="middle" x="302.25" y="-824.7" font-family="Times New Roman,serif" font-size="14.00">KEY</text>
<text text-anchor="middle" x="302.25" y="-808.2" font-family="Times New Roman,serif" font-size="14.00">string: ::=</text>
</g>
<!-- 1&#45;&gt;3 -->
<g id="edge2" class="edge">
<title>1&#45;&gt;3</title>
<path fill="none" stroke="black" d="M353.31,-914.73C344.8,-899.37 332.76,-877.62 322.51,-859.11"/>
<polygon fill="black" stroke="black" points="325.68,-857.59 317.77,-850.54 319.55,-860.98 325.68,-857.59"/>
</g>
<!-- 4 -->
<g id="node4" class="node">
<title>4</title>
<polygon fill="none" stroke="black" points="485.12,-842 369.38,-842 369.38,-801 485.12,-801 485.12,-842"/>
<text text-anchor="middle" x="427.25" y="-824.7" font-family="Times New Roman,serif" font-size="14.00">NONTERMINAL</text>
<text text-anchor="middle" x="427.25" y="-808.2" font-family="Times New Roman,serif" font-size="14.00">type: Alternative</text>
</g>
<!-- 1&#45;&gt;4 -->
<g id="edge3" class="edge">
<title>1&#45;&gt;4</title>
<path fill="none" stroke="black" d="M375.37,-914.73C385.07,-897.49 399.29,-872.2 410.39,-852.47"/>
<polygon fill="black" stroke="black" points="413.44,-854.2 415.29,-843.76 407.34,-850.76 413.44,-854.2"/>
</g>
<!-- 5 -->
<g id="node5" class="node">
<title>5</title>
<ellipse fill="none" stroke="black" cx="544.25" cy="-821.5" rx="41.01" ry="28.99"/>
<text text-anchor="middle" x="544.25" y="-824.7" font-family="Times New Roman,serif" font-size="14.00">KEY</text>
<text text-anchor="middle" x="544.25" y="-808.2" font-family="Times New Roman,serif" font-size="14.00">string: ;</text>
</g>
<!-- 1&#45;&gt;5 -->
<g id="edge4" class="edge">
<title>1&#45;&gt;5</title>
<path fill="none" stroke="black" d="M422.48,-915.97C446.01,-906.92 472.66,-894.58 494.25,-879 502.99,-872.7 511.27,-864.61 518.49,-856.54"/>
<polygon fill="black" stroke="black" points="521.08,-858.91 524.9,-849.02 515.75,-854.36 521.08,-858.91"/>
</g>
<!-- 6 -->
<g id="node6" class="node">
<title>6</title>
<polygon fill="none" stroke="black" points="485.12,-728 369.38,-728 369.38,-687 485.12,-687 485.12,-728"/>
<text text-anchor="middle" x="427.25" y="-710.7" font-family="Times New Roman,serif" font-size="14.00">NONTERMINAL</text>
<text text-anchor="middle" x="427.25" y="-694.2" font-family="Times New Roman,serif" font-size="14.00">type: Sequence</text>
</g>
<!-- 4&#45;&gt;6 -->
<g id="edge5" class="edge">
<title>4&#45;&gt;6</title>
<path fill="none" stroke="black" d="M427.25,-800.73C427.25,-783.88 427.25,-759.37 427.25,-739.84"/>
<polygon fill="black" stroke="black" points="430.75,-739.96 427.25,-729.96 423.75,-739.96 430.75,-739.96"/>
</g>
<!-- 7 -->
<g id="node7" class="node">
<title>7</title>
<polygon fill="none" stroke="black" points="328.25,-651 210.25,-651 210.25,-610 328.25,-610 328.25,-651"/>
<text text-anchor="middle" x="269.25" y="-633.7" font-family="Times New Roman,serif" font-size="14.00">NONTERMINAL</text>
<text text-anchor="middle" x="269.25" y="-617.2" font-family="Times New Roman,serif" font-size="14.00">type: RuleElement</text>
</g>
<!-- 6&#45;&gt;7 -->
<g id="edge6" class="edge">
<title>6&#45;&gt;7</title>
<path fill="none" stroke="black" d="M385.32,-686.6C365.77,-677.32 342.3,-666.18 321.6,-656.35"/>
<polygon fill="black" stroke="black" points="323.27,-653.27 312.74,-652.14 320.27,-659.59 323.27,-653.27"/>
</g>
<!-- 8 -->
<g id="node8" class="node">
<title>8</title>
<polygon fill="none" stroke="black" points="486.25,-651 368.25,-651 368.25,-610 486.25,-610 486.25,-651"/>
<text text-anchor="middle" x="427.25" y="-633.7" font-family="Times New Roman,serif" font-size="14.00">NONTERMINAL</text>
<text text-anchor="middle" x="427.25" y="-617.2" font-family="Times New Roman,serif" font-size="14.00">type: RuleElement</text>
</g>
<!-- 6&#45;&gt;8 -->
<g id="edge7" class="edge">
<title>6&#45;&gt;8</title>
<path fill="none" stroke="black" d="M427.25,-686.79C427.25,-679.45 427.25,-670.91 427.25,-662.78"/>
<polygon fill="black" stroke="black" points="430.75,-662.85 427.25,-652.85 423.75,-662.85 430.75,-662.85"/>
</g>
<!-- 9 -->
<g id="node9" class="node">
<title>9</title>
<polygon fill="none" stroke="black" points="666.25,-651 548.25,-651 548.25,-610 666.25,-610 666.25,-651"/>
<text text-anchor="middle" x="607.25" y="-633.7" font-family="Times New Roman,serif" font-size="14.00">NONTERMINAL</text>
<text text-anchor="middle" x="607.25" y="-617.2" font-family="Times New Roman,serif" font-size="14.00">type: RuleElement</text>
</g>
<!-- 6&#45;&gt;9 -->
<g id="edge8" class="edge">
<title>6&#45;&gt;9</title>
<path fill="none" stroke="black" d="M475.01,-686.6C497.7,-677.15 525.01,-665.77 548.9,-655.81"/>
<polygon fill="black" stroke="black" points="549.98,-659.15 557.87,-652.08 547.29,-652.69 549.98,-659.15"/>
</g>
<!-- 10 -->
<g id="node10" class="node">
<title>10</title>
<polygon fill="none" stroke="black" points="283.12,-574 167.38,-574 167.38,-533 283.12,-533 283.12,-574"/>
<text text-anchor="middle" x="225.25" y="-556.7" font-family="Times New Roman,serif" font-size="14.00">NONTERMINAL</text>
<text text-anchor="middle" x="225.25" y="-540.2" font-family="Times New Roman,serif" font-size="14.00">type: Element</text>
</g>
<!-- 7&#45;&gt;10 -->
<g id="edge9" class="edge">
<title>7&#45;&gt;10</title>
<path fill="none" stroke="black" d="M257.69,-609.79C253.08,-601.93 247.67,-592.71 242.6,-584.08"/>
<polygon fill="black" stroke="black" points="245.73,-582.49 237.65,-575.64 239.69,-586.04 245.73,-582.49"/>
</g>
<!-- 11 -->
<g id="node11" class="node">
<title>11</title>
<polygon fill="none" stroke="black" points="485.12,-574 369.38,-574 369.38,-533 485.12,-533 485.12,-574"/>
<text text-anchor="middle" x="427.25" y="-556.7" font-family="Times New Roman,serif" font-size="14.00">NONTERMINAL</text>
<text text-anchor="middle" x="427.25" y="-540.2" font-family="Times New Roman,serif" font-size="14.00">type: Element</text>
</g>
<!-- 8&#45;&gt;11 -->
<g id="edge10" class="edge">
<title>8&#45;&gt;11</title>
<path fill="none" stroke="black" d="M427.25,-609.79C427.25,-602.45 427.25,-593.91 427.25,-585.78"/>
<polygon fill="black" stroke="black" points="430.75,-585.85 427.25,-575.85 423.75,-585.85 430.75,-585.85"/>
</g>
<!-- 12 -->
<g id="node12" class="node">
<title>12</title>
<polygon fill="none" stroke="black" points="708.12,-574 592.38,-574 592.38,-533 708.12,-533 708.12,-574"/>
<text text-anchor="middle" x="650.25" y="-556.7" font-family="Times New Roman,serif" font-size="14.00">NONTERMINAL</text>
<text text-anchor="middle" x="650.25" y="-540.2" font-family="Times New Roman,serif" font-size="14.00">type: Iteration</text>
</g>
<!-- 9&#45;&gt;12 -->
<g id="edge11" class="edge">
<title>9&#45;&gt;12</title>
<path fill="none" stroke="black" d="M618.55,-609.79C623.05,-601.93 628.34,-592.71 633.29,-584.08"/>
<polygon fill="black" stroke="black" points="636.19,-586.06 638.13,-575.65 630.12,-582.58 636.19,-586.06"/>
</g>
<!-- 13 -->
<g id="node13" class="node">
<title>13</title>
<polygon fill="none" stroke="black" points="203.25,-497 100.25,-439.5 203.25,-382 306.25,-439.5 203.25,-497"/>
<text text-anchor="middle" x="203.25" y="-450.95" font-family="Times New Roman,serif" font-size="14.00">TERMINAL</text>
<text text-anchor="middle" x="203.25" y="-434.45" font-family="Times New Roman,serif" font-size="14.00">type: key_name</text>
<text text-anchor="middle" x="203.25" y="-417.95" font-family="Times New Roman,serif" font-size="14.00">string: &#39;RULES&#39;</text>
</g>
<!-- 10&#45;&gt;13 -->
<g id="edge12" class="edge">
<title>10&#45;&gt;13</title>
<path fill="none" stroke="black" d="M221.37,-532.73C219.7,-524.25 217.65,-513.83 215.54,-503.07"/>
<polygon fill="black" stroke="black" points="218.98,-502.44 213.62,-493.3 212.11,-503.78 218.98,-502.44"/>
</g>
<!-- 14 -->
<g id="node14" class="node">
<title>14</title>
<polygon fill="none" stroke="black" points="427.25,-497 324.25,-439.5 427.25,-382 530.25,-439.5 427.25,-497"/>
<text text-anchor="middle" x="427.25" y="-450.95" font-family="Times New Roman,serif" font-size="14.00">TERMINAL</text>
<text text-anchor="middle" x="427.25" y="-434.45" font-family="Times New Roman,serif" font-size="14.00">type: key_name</text>
<text text-anchor="middle" x="427.25" y="-417.95" font-family="Times New Roman,serif" font-size="14.00">string: &#39;:&#39;</text>
</g>
<!-- 11&#45;&gt;14 -->
<g id="edge13" class="edge">
<title>11&#45;&gt;14</title>
<path fill="none" stroke="black" d="M427.25,-532.73C427.25,-525.67 427.25,-517.26 427.25,-508.43"/>
<polygon fill="black" stroke="black" points="430.75,-508.61 427.25,-498.61 423.75,-508.61 430.75,-508.61"/>
</g>
<!-- 15 -->
<g id="node15" class="node">
<title>15</title>
<ellipse fill="none" stroke="black" cx="591.25" cy="-439.5" rx="43.13" ry="28.99"/>
<text text-anchor="middle" x="591.25" y="-442.7" font-family="Times New Roman,serif" font-size="14.00">KEY</text>
<text text-anchor="middle" x="591.25" y="-426.2" font-family="Times New Roman,serif" font-size="14.00">string: {</text>
</g>
<!-- 12&#45;&gt;15 -->
<g id="edge14" class="edge">
<title>12&#45;&gt;15</title>
<path fill="none" stroke="black" d="M639.84,-532.73C631.78,-517.44 620.39,-495.82 610.67,-477.36"/>
<polygon fill="black" stroke="black" points="613.78,-475.77 606.03,-468.55 607.59,-479.03 613.78,-475.77"/>
</g>
<!-- 16 -->
<g id="node16" class="node">
<title>16</title>
<polygon fill="none" stroke="black" points="768.12,-460 652.38,-460 652.38,-419 768.12,-419 768.12,-460"/>
<text text-anchor="middle" x="710.25" y="-442.7" font-family="Times New Roman,serif" font-size="14.00">NONTERMINAL</text>
<text text-anchor="middle" x="710.25" y="-426.2" font-family="Times New Roman,serif" font-size="14.00">type: Alternative</text>
</g>
<!-- 12&#45;&gt;16 -->
<g id="edge15" class="edge">
<title>12&#45;&gt;16</title>
<path fill="none" stroke="black" d="M660.84,-532.73C670.08,-515.49 683.62,-490.2 694.2,-470.47"/>
<polygon fill="black" stroke="black" points="697.21,-472.25 698.85,-461.78 691.04,-468.94 697.21,-472.25"/>
</g>
<!-- 17 -->
<g id="node17" class="node">
<title>17</title>
<ellipse fill="none" stroke="black" cx="829.25" cy="-439.5" rx="43.13" ry="28.99"/>
<text text-anchor="middle" x="829.25" y="-442.7" font-family="Times New Roman,serif" font-size="14.00">KEY</text>
<text text-anchor="middle" x="829.25" y="-426.2" font-family="Times New Roman,serif" font-size="14.00">string: }</text>
</g>
<!-- 12&#45;&gt;17 -->
<g id="edge16" class="edge">
<title>12&#45;&gt;17</title>
<path fill="none" stroke="black" d="M708.57,-532.92C731.14,-523.87 756.48,-511.81 777.25,-497 786.27,-490.57 794.92,-482.35 802.48,-474.2"/>
<polygon fill="black" stroke="black" points="804.92,-476.73 808.94,-466.92 799.68,-472.08 804.92,-476.73"/>
</g>
<!-- 18 -->
<g id="node18" class="node">
<title>18</title>
<polygon fill="none" stroke="black" points="768.12,-346 652.38,-346 652.38,-305 768.12,-305 768.12,-346"/>
<text text-anchor="middle" x="710.25" y="-328.7" font-family="Times New Roman,serif" font-size="14.00">NONTERMINAL</text>
<text text-anchor="middle" x="710.25" y="-312.2" font-family="Times New Roman,serif" font-size="14.00">type: Sequence</text>
</g>
<!-- 16&#45;&gt;18 -->
<g id="edge17" class="edge">
<title>16&#45;&gt;18</title>
<path fill="none" stroke="black" d="M710.25,-418.73C710.25,-401.88 710.25,-377.37 710.25,-357.84"/>
<polygon fill="black" stroke="black" points="713.75,-357.96 710.25,-347.96 706.75,-357.96 713.75,-357.96"/>
</g>
<!-- 19 -->
<g id="node19" class="node">
<title>19</title>
<polygon fill="none" stroke="black" points="769.25,-269 651.25,-269 651.25,-228 769.25,-228 769.25,-269"/>
<text text-anchor="middle" x="710.25" y="-251.7" font-family="Times New Roman,serif" font-size="14.00">NONTERMINAL</text>
<text text-anchor="middle" x="710.25" y="-235.2" font-family="Times New Roman,serif" font-size="14.00">type: RuleElement</text>
</g>
<!-- 18&#45;&gt;19 -->
<g id="edge18" class="edge">
<title>18&#45;&gt;19</title>
<path fill="none" stroke="black" d="M710.25,-304.79C710.25,-297.45 710.25,-288.91 710.25,-280.78"/>
<polygon fill="black" stroke="black" points="713.75,-280.85 710.25,-270.85 706.75,-280.85 713.75,-280.85"/>
</g>
<!-- 20 -->
<g id="node20" class="node">
<title>20</title>
<polygon fill="none" stroke="black" points="768.12,-192 652.38,-192 652.38,-151 768.12,-151 768.12,-192"/>
<text text-anchor="middle" x="710.25" y="-174.7" font-family="Times New Roman,serif" font-size="14.00">NONTERMINAL</text>
<text text-anchor="middle" x="710.25" y="-158.2" font-family="Times New Roman,serif" font-size="14.00">type: Element</text>
</g>
<!-- 19&#45;&gt;20 -->
<g id="edge19" class="edge">
<title>19&#45;&gt;20</title>
<path fill="none" stroke="black" d="M710.25,-227.79C710.25,-220.45 710.25,-211.91 710.25,-203.78"/>
<polygon fill="black" stroke="black" points="713.75,-203.85 710.25,-193.85 706.75,-203.85 713.75,-203.85"/>
</g>
<!-- 21 -->
<g id="node21" class="node">
<title>21</title>
<polygon fill="none" stroke="black" points="710.25,-115 623.75,-57.5 710.25,0 796.75,-57.5 710.25,-115"/>
<text text-anchor="middle" x="710.25" y="-68.95" font-family="Times New Roman,serif" font-size="14.00">TERMINAL</text>
<text text-anchor="middle" x="710.25" y="-52.45" font-family="Times New Roman,serif" font-size="14.00">type: name</text>
<text text-anchor="middle" x="710.25" y="-35.95" font-family="Times New Roman,serif" font-size="14.00">string: Rule</text>
</g>
<!-- 20&#45;&gt;21 -->
<g id="edge20" class="edge">
<title>20&#45;&gt;21</title>
<path fill="none" stroke="black" d="M710.25,-150.73C710.25,-143.84 710.25,-135.65 710.25,-127.05"/>
<polygon fill="black" stroke="black" points="713.75,-127.09 710.25,-117.09 706.75,-127.09 713.75,-127.09"/>
</g>
</g>
</svg>
