<?xml version="1.0" encoding="UTF-8" standalone="no"?>
<!DOCTYPE svg PUBLIC "-//W3C//DTD SVG 1.1//EN"
 "http://www.w3.org/Graphics/SVG/1.1/DTD/svg11.dtd">
<!-- Generated by graphviz version 12.2.0 (20241103.1931)
 -->
<!-- Title: ast_LA Pages: 1 -->
<svg width="887pt" height="582pt"
 viewBox="0.00 0.00 886.50 582.00" xmlns="http://www.w3.org/2000/svg" xmlns:xlink="http://www.w3.org/1999/xlink">
<g id="graph0" class="graph" transform="scale(1 1) rotate(0) translate(4 578)">
<title>ast_LA</title>
<polygon fill="white" stroke="none" points="-4,4 -4,-578 882.5,-578 882.5,4 -4,4"/>
<!-- 1 -->
<g id="node1" class="node">
<title>1</title>
<polygon fill="none" stroke="black" points="406.12,-574 290.38,-574 290.38,-533 406.12,-533 406.12,-574"/>
<text text-anchor="middle" x="348.25" y="-556.7" font-family="Times New Roman,serif" font-size="14.00">NONTERMINAL</text>
<text text-anchor="middle" x="348.25" y="-540.2" font-family="Times New Roman,serif" font-size="14.00">type: Rule</text>
</g>
<!-- 2 -->
<g id="node2" class="node">
<title>2</title>
<polygon fill="none" stroke="black" points="132.25,-497 45.75,-439.5 132.25,-382 218.75,-439.5 132.25,-497"/>
<text text-anchor="middle" x="132.25" y="-450.95" font-family="Times New Roman,serif" font-size="14.00">TERMINAL</text>
<text text-anchor="middle" x="132.25" y="-434.45" font-family="Times New Roman,serif" font-size="14.00">type: name</text>
<text text-anchor="middle" x="132.25" y="-417.95" font-family="Times New Roman,serif" font-size="14.00">string: LA</text>
</g>
<!-- 1&#45;&gt;2 -->
<g id="edge1" class="edge">
<title>1&#45;&gt;2</title>
<path fill="none" stroke="black" d="M302.43,-532.59C279.84,-522.45 252.34,-509.62 228.25,-497 214.47,-489.78 199.86,-481.51 186.32,-473.58"/>
<polygon fill="black" stroke="black" points="188.36,-470.72 177.97,-468.64 184.8,-476.74 188.36,-470.72"/>
</g>
<!-- 3 -->
<g id="node3" class="node">
<title>3</title>
<ellipse fill="none" stroke="black" cx="286.25" cy="-439.5" rx="49.5" ry="28.99"/>
<text text-anchor="middle" x="286.25" y="-442.7" font-family="Times New Roman,serif" font-size="14.00">KEY</text>
<text text-anchor="middle" x="286.25" y="-426.2" font-family="Times New Roman,serif" font-size="14.00">string: ::=</text>
</g>
<!-- 1&#45;&gt;3 -->
<g id="edge2" class="edge">
<title>1&#45;&gt;3</title>
<path fill="none" stroke="black" d="M337.31,-532.73C328.8,-517.37 316.76,-495.62 306.51,-477.11"/>
<polygon fill="black" stroke="black" points="309.68,-475.59 301.77,-468.54 303.55,-478.98 309.68,-475.59"/>
</g>
<!-- 4 -->
<g id="node4" class="node">
<title>4</title>
<polygon fill="none" stroke="black" points="469.12,-460 353.38,-460 353.38,-419 469.12,-419 469.12,-460"/>
<text text-anchor="middle" x="411.25" y="-442.7" font-family="Times New Roman,serif" font-size="14.00">NONTERMINAL</text>
<text text-anchor="middle" x="411.25" y="-426.2" font-family="Times New Roman,serif" font-size="14.00">type: Alternative</text>
</g>
<!-- 1&#45;&gt;4 -->
<g id="edge3" class="edge">
<title>1&#45;&gt;4</title>
<path fill="none" stroke="black" d="M359.37,-532.73C369.07,-515.49 383.29,-490.2 394.39,-470.47"/>
<polygon fill="black" stroke="black" points="397.44,-472.2 399.29,-461.76 391.34,-468.76 397.44,-472.2"/>
</g>
<!-- 5 -->
<g id="node5" class="node">
<title>5</title>
<ellipse fill="none" stroke="black" cx="528.25" cy="-439.5" rx="41.01" ry="28.99"/>
<text text-anchor="middle" x="528.25" y="-442.7" font-family="Times New Roman,serif" font-size="14.00">KEY</text>
<text text-anchor="middle" x="528.25" y="-426.2" font-family="Times New Roman,serif" font-size="14.00">string: ;</text>
</g>
<!-- 1&#45;&gt;5 -->
<g id="edge4" class="edge">
<title>1&#45;&gt;5</title>
<path fill="none" stroke="black" d="M406.48,-533.97C430.01,-524.92 456.66,-512.58 478.25,-497 486.99,-490.7 495.27,-482.61 502.49,-474.54"/>
<polygon fill="black" stroke="black" points="505.08,-476.91 508.9,-467.02 499.75,-472.36 505.08,-476.91"/>
</g>
<!-- 6 -->
<g id="node6" class="node">
<title>6</title>
<polygon fill="none" stroke="black" points="469.12,-346 353.38,-346 353.38,-305 469.12,-305 469.12,-346"/>
<text text-anchor="middle" x="411.25" y="-328.7" font-family="Times New Roman,serif" font-size="14.00">NONTERMINAL</text>
<text text-anchor="middle" x="411.25" y="-312.2" font-family="Times New Roman,serif" font-size="14.00">type: Sequence</text>
</g>
<!-- 4&#45;&gt;6 -->
<g id="edge5" class="edge">
<title>4&#45;&gt;6</title>
<path fill="none" stroke="black" d="M411.25,-418.73C411.25,-401.88 411.25,-377.37 411.25,-357.84"/>
<polygon fill="black" stroke="black" points="414.75,-357.96 411.25,-347.96 407.75,-357.96 414.75,-357.96"/>
</g>
<!-- 7 -->
<g id="node7" class="node">
<title>7</title>
<polygon fill="none" stroke="black" points="247.25,-269 129.25,-269 129.25,-228 247.25,-228 247.25,-269"/>
<text text-anchor="middle" x="188.25" y="-251.7" font-family="Times New Roman,serif" font-size="14.00">NONTERMINAL</text>
<text text-anchor="middle" x="188.25" y="-235.2" font-family="Times New Roman,serif" font-size="14.00">type: RuleElement</text>
</g>
<!-- 6&#45;&gt;7 -->
<g id="edge6" class="edge">
<title>6&#45;&gt;7</title>
<path fill="none" stroke="black" d="M352.95,-304.89C323.86,-295.11 288.46,-283.2 257.94,-272.94"/>
<polygon fill="black" stroke="black" points="259.4,-269.74 248.81,-269.87 257.17,-276.37 259.4,-269.74"/>
</g>
<!-- 8 -->
<g id="node8" class="node">
<title>8</title>
<polygon fill="none" stroke="black" points="402.25,-269 284.25,-269 284.25,-228 402.25,-228 402.25,-269"/>
<text text-anchor="middle" x="343.25" y="-251.7" font-family="Times New Roman,serif" font-size="14.00">NONTERMINAL</text>
<text text-anchor="middle" x="343.25" y="-235.2" font-family="Times New Roman,serif" font-size="14.00">type: RuleElement</text>
</g>
<!-- 6&#45;&gt;8 -->
<g id="edge7" class="edge">
<title>6&#45;&gt;8</title>
<path fill="none" stroke="black" d="M393.38,-304.79C385.87,-296.51 376.99,-286.71 368.8,-277.68"/>
<polygon fill="black" stroke="black" points="371.56,-275.51 362.25,-270.46 366.37,-280.21 371.56,-275.51"/>
</g>
<!-- 9 -->
<g id="node9" class="node">
<title>9</title>
<polygon fill="none" stroke="black" points="574.25,-269 456.25,-269 456.25,-228 574.25,-228 574.25,-269"/>
<text text-anchor="middle" x="515.25" y="-251.7" font-family="Times New Roman,serif" font-size="14.00">NONTERMINAL</text>
<text text-anchor="middle" x="515.25" y="-235.2" font-family="Times New Roman,serif" font-size="14.00">type: RuleElement</text>
</g>
<!-- 6&#45;&gt;9 -->
<g id="edge8" class="edge">
<title>6&#45;&gt;9</title>
<path fill="none" stroke="black" d="M438.85,-304.6C450.95,-295.87 465.34,-285.49 478.35,-276.11"/>
<polygon fill="black" stroke="black" points="480.23,-279.07 486.3,-270.38 476.14,-273.39 480.23,-279.07"/>
</g>
<!-- 10 -->
<g id="node10" class="node">
<title>10</title>
<polygon fill="none" stroke="black" points="777.25,-269 659.25,-269 659.25,-228 777.25,-228 777.25,-269"/>
<text text-anchor="middle" x="718.25" y="-251.7" font-family="Times New Roman,serif" font-size="14.00">NONTERMINAL</text>
<text text-anchor="middle" x="718.25" y="-235.2" font-family="Times New Roman,serif" font-size="14.00">type: RuleElement</text>
</g>
<!-- 6&#45;&gt;10 -->
<g id="edge9" class="edge">
<title>6&#45;&gt;10</title>
<path fill="none" stroke="black" d="M469.36,-310.3C520.1,-297.91 593.88,-279.88 647.93,-266.68"/>
<polygon fill="black" stroke="black" points="648.46,-270.15 657.34,-264.38 646.8,-263.35 648.46,-270.15"/>
</g>
<!-- 11 -->
<g id="node11" class="node">
<title>11</title>
<polygon fill="none" stroke="black" points="208.12,-192 92.38,-192 92.38,-151 208.12,-151 208.12,-192"/>
<text text-anchor="middle" x="150.25" y="-174.7" font-family="Times New Roman,serif" font-size="14.00">NONTERMINAL</text>
<text text-anchor="middle" x="150.25" y="-158.2" font-family="Times New Roman,serif" font-size="14.00">type: Element</text>
</g>
<!-- 7&#45;&gt;11 -->
<g id="edge10" class="edge">
<title>7&#45;&gt;11</title>
<path fill="none" stroke="black" d="M178.27,-227.79C174.33,-220.02 169.71,-210.91 165.38,-202.36"/>
<polygon fill="black" stroke="black" points="168.63,-201.02 160.98,-193.68 162.38,-204.19 168.63,-201.02"/>
</g>
<!-- 12 -->
<g id="node12" class="node">
<title>12</title>
<polygon fill="none" stroke="black" points="383.12,-192 267.38,-192 267.38,-151 383.12,-151 383.12,-192"/>
<text text-anchor="middle" x="325.25" y="-174.7" font-family="Times New Roman,serif" font-size="14.00">NONTERMINAL</text>
<text text-anchor="middle" x="325.25" y="-158.2" font-family="Times New Roman,serif" font-size="14.00">type: Element</text>
</g>
<!-- 8&#45;&gt;12 -->
<g id="edge11" class="edge">
<title>8&#45;&gt;12</title>
<path fill="none" stroke="black" d="M338.52,-227.79C336.74,-220.36 334.66,-211.71 332.69,-203.49"/>
<polygon fill="black" stroke="black" points="336.1,-202.71 330.36,-193.81 329.29,-204.35 336.1,-202.71"/>
</g>
<!-- 13 -->
<g id="node13" class="node">
<title>13</title>
<polygon fill="none" stroke="black" points="582.12,-192 466.38,-192 466.38,-151 582.12,-151 582.12,-192"/>
<text text-anchor="middle" x="524.25" y="-174.7" font-family="Times New Roman,serif" font-size="14.00">NONTERMINAL</text>
<text text-anchor="middle" x="524.25" y="-158.2" font-family="Times New Roman,serif" font-size="14.00">type: Element</text>
</g>
<!-- 9&#45;&gt;13 -->
<g id="edge12" class="edge">
<title>9&#45;&gt;13</title>
<path fill="none" stroke="black" d="M517.61,-227.79C518.51,-220.36 519.54,-211.71 520.53,-203.49"/>
<polygon fill="black" stroke="black" points="523.97,-204.18 521.69,-193.84 517.02,-203.35 523.97,-204.18"/>
</g>
<!-- 14 -->
<g id="node14" class="node">
<title>14</title>
<polygon fill="none" stroke="black" points="801.12,-192 685.38,-192 685.38,-151 801.12,-151 801.12,-192"/>
<text text-anchor="middle" x="743.25" y="-174.7" font-family="Times New Roman,serif" font-size="14.00">NONTERMINAL</text>
<text text-anchor="middle" x="743.25" y="-158.2" font-family="Times New Roman,serif" font-size="14.00">type: Element</text>
</g>
<!-- 10&#45;&gt;14 -->
<g id="edge13" class="edge">
<title>10&#45;&gt;14</title>
<path fill="none" stroke="black" d="M724.82,-227.79C727.32,-220.28 730.25,-211.51 733.01,-203.21"/>
<polygon fill="black" stroke="black" points="736.32,-204.36 736.16,-193.77 729.68,-202.15 736.32,-204.36"/>
</g>
<!-- 15 -->
<g id="node15" class="node">
<title>15</title>
<polygon fill="none" stroke="black" points="108.25,-115 0,-57.5 108.25,0 216.5,-57.5 108.25,-115"/>
<text text-anchor="middle" x="108.25" y="-68.95" font-family="Times New Roman,serif" font-size="14.00">TERMINAL</text>
<text text-anchor="middle" x="108.25" y="-52.45" font-family="Times New Roman,serif" font-size="14.00">type: key_name</text>
<text text-anchor="middle" x="108.25" y="-35.95" font-family="Times New Roman,serif" font-size="14.00">string: &#39;REPEAT&#39;</text>
</g>
<!-- 11&#45;&gt;15 -->
<g id="edge14" class="edge">
<title>11&#45;&gt;15</title>
<path fill="none" stroke="black" d="M142.84,-150.73C139.23,-141.12 134.69,-129 130.09,-116.74"/>
<polygon fill="black" stroke="black" points="133.38,-115.54 126.59,-107.41 126.82,-118 133.38,-115.54"/>
</g>
<!-- 16 -->
<g id="node16" class="node">
<title>16</title>
<polygon fill="none" stroke="black" points="321.25,-115 234.75,-57.5 321.25,0 407.75,-57.5 321.25,-115"/>
<text text-anchor="middle" x="321.25" y="-68.95" font-family="Times New Roman,serif" font-size="14.00">TERMINAL</text>
<text text-anchor="middle" x="321.25" y="-52.45" font-family="Times New Roman,serif" font-size="14.00">type: name</text>
<text text-anchor="middle" x="321.25" y="-35.95" font-family="Times New Roman,serif" font-size="14.00">string: Block</text>
</g>
<!-- 12&#45;&gt;16 -->
<g id="edge15" class="edge">
<title>12&#45;&gt;16</title>
<path fill="none" stroke="black" d="M324.54,-150.73C324.28,-143.41 323.97,-134.64 323.64,-125.46"/>
<polygon fill="black" stroke="black" points="327.15,-125.51 323.29,-115.65 320.15,-125.76 327.15,-125.51"/>
</g>
<!-- 17 -->
<g id="node17" class="node">
<title>17</title>
<polygon fill="none" stroke="black" points="529.25,-115 426.25,-57.5 529.25,0 632.25,-57.5 529.25,-115"/>
<text text-anchor="middle" x="529.25" y="-68.95" font-family="Times New Roman,serif" font-size="14.00">TERMINAL</text>
<text text-anchor="middle" x="529.25" y="-52.45" font-family="Times New Roman,serif" font-size="14.00">type: key_name</text>
<text text-anchor="middle" x="529.25" y="-35.95" font-family="Times New Roman,serif" font-size="14.00">string: &#39;UNTIL&#39;</text>
</g>
<!-- 13&#45;&gt;17 -->
<g id="edge16" class="edge">
<title>13&#45;&gt;17</title>
<path fill="none" stroke="black" d="M525.13,-150.73C525.46,-143.41 525.85,-134.64 526.26,-125.46"/>
<polygon fill="black" stroke="black" points="529.75,-125.79 526.7,-115.65 522.76,-125.48 529.75,-125.79"/>
</g>
<!-- 18 -->
<g id="node18" class="node">
<title>18</title>
<polygon fill="none" stroke="black" points="764.25,-115 650,-57.5 764.25,0 878.5,-57.5 764.25,-115"/>
<text text-anchor="middle" x="764.25" y="-68.95" font-family="Times New Roman,serif" font-size="14.00">TERMINAL</text>
<text text-anchor="middle" x="764.25" y="-52.45" font-family="Times New Roman,serif" font-size="14.00">type: name</text>
<text text-anchor="middle" x="764.25" y="-35.95" font-family="Times New Roman,serif" font-size="14.00">string: Expression</text>
</g>
<!-- 14&#45;&gt;18 -->
<g id="edge17" class="edge">
<title>14&#45;&gt;18</title>
<path fill="none" stroke="black" d="M746.96,-150.73C748.53,-142.34 750.46,-132.05 752.45,-121.43"/>
<polygon fill="black" stroke="black" points="755.86,-122.25 754.26,-111.78 748.98,-120.96 755.86,-122.25"/>
</g>
</g>
</svg>
