<?xml version="1.0" encoding="UTF-8" standalone="no"?>
<!DOCTYPE svg PUBLIC "-//W3C//DTD SVG 1.1//EN"
 "http://www.w3.org/Graphics/SVG/1.1/DTD/svg11.dtd">
<!-- Generated by graphviz version 12.2.0 (20241103.1931)
 -->
<!-- Title: ast_Iteration Pages: 1 -->
<svg width="1020pt" height="964pt"
 viewBox="0.00 0.00 1020.00 964.00" xmlns="http://www.w3.org/2000/svg" xmlns:xlink="http://www.w3.org/1999/xlink">
<g id="graph0" class="graph" transform="scale(1 1) rotate(0) translate(4 960)">
<title>ast_Iteration</title>
<polygon fill="white" stroke="none" points="-4,4 -4,-960 1016,-960 1016,4 -4,4"/>
<!-- 1 -->
<g id="node1" class="node">
<title>1</title>
<polygon fill="none" stroke="black" points="461.88,-956 346.12,-956 346.12,-915 461.88,-915 461.88,-956"/>
<text text-anchor="middle" x="404" y="-938.7" font-family="Times New Roman,serif" font-size="14.00">NONTERMINAL</text>
<text text-anchor="middle" x="404" y="-922.2" font-family="Times New Roman,serif" font-size="14.00">type: Rule</text>
</g>
<!-- 2 -->
<g id="node2" class="node">
<title>2</title>
<polygon fill="none" stroke="black" points="175,-879 75,-821.5 175,-764 275,-821.5 175,-879"/>
<text text-anchor="middle" x="175" y="-832.95" font-family="Times New Roman,serif" font-size="14.00">TERMINAL</text>
<text text-anchor="middle" x="175" y="-816.45" font-family="Times New Roman,serif" font-size="14.00">type: name</text>
<text text-anchor="middle" x="175" y="-799.95" font-family="Times New Roman,serif" font-size="14.00">string: Iteration</text>
</g>
<!-- 1&#45;&gt;2 -->
<g id="edge1" class="edge">
<title>1&#45;&gt;2</title>
<path fill="none" stroke="black" d="M359.61,-914.54C336.88,-904.18 308.84,-891.17 284,-879 268.54,-871.42 251.97,-863 236.55,-855.02"/>
<polygon fill="black" stroke="black" points="238.43,-852.05 227.94,-850.55 235.2,-858.26 238.43,-852.05"/>
</g>
<!-- 3 -->
<g id="node3" class="node">
<title>3</title>
<ellipse fill="none" stroke="black" cx="342" cy="-821.5" rx="49.5" ry="28.99"/>
<text text-anchor="middle" x="342" y="-824.7" font-family="Times New Roman,serif" font-size="14.00">KEY</text>
<text text-anchor="middle" x="342" y="-808.2" font-family="Times New Roman,serif" font-size="14.00">string: ::=</text>
</g>
<!-- 1&#45;&gt;3 -->
<g id="edge2" class="edge">
<title>1&#45;&gt;3</title>
<path fill="none" stroke="black" d="M393.06,-914.73C384.55,-899.37 372.51,-877.62 362.26,-859.11"/>
<polygon fill="black" stroke="black" points="365.43,-857.59 357.52,-850.54 359.3,-860.98 365.43,-857.59"/>
</g>
<!-- 4 -->
<g id="node4" class="node">
<title>4</title>
<polygon fill="none" stroke="black" points="524.88,-842 409.12,-842 409.12,-801 524.88,-801 524.88,-842"/>
<text text-anchor="middle" x="467" y="-824.7" font-family="Times New Roman,serif" font-size="14.00">NONTERMINAL</text>
<text text-anchor="middle" x="467" y="-808.2" font-family="Times New Roman,serif" font-size="14.00">type: Alternative</text>
</g>
<!-- 1&#45;&gt;4 -->
<g id="edge3" class="edge">
<title>1&#45;&gt;4</title>
<path fill="none" stroke="black" d="M415.12,-914.73C424.82,-897.49 439.04,-872.2 450.14,-852.47"/>
<polygon fill="black" stroke="black" points="453.19,-854.2 455.04,-843.76 447.09,-850.76 453.19,-854.2"/>
</g>
<!-- 5 -->
<g id="node5" class="node">
<title>5</title>
<ellipse fill="none" stroke="black" cx="584" cy="-821.5" rx="41.01" ry="28.99"/>
<text text-anchor="middle" x="584" y="-824.7" font-family="Times New Roman,serif" font-size="14.00">KEY</text>
<text text-anchor="middle" x="584" y="-808.2" font-family="Times New Roman,serif" font-size="14.00">string: ;</text>
</g>
<!-- 1&#45;&gt;5 -->
<g id="edge4" class="edge">
<title>1&#45;&gt;5</title>
<path fill="none" stroke="black" d="M462.23,-915.97C485.76,-906.92 512.41,-894.58 534,-879 542.74,-872.7 551.02,-864.61 558.24,-856.54"/>
<polygon fill="black" stroke="black" points="560.83,-858.91 564.65,-849.02 555.5,-854.36 560.83,-858.91"/>
</g>
<!-- 6 -->
<g id="node6" class="node">
<title>6</title>
<polygon fill="none" stroke="black" points="524.88,-728 409.12,-728 409.12,-687 524.88,-687 524.88,-728"/>
<text text-anchor="middle" x="467" y="-710.7" font-family="Times New Roman,serif" font-size="14.00">NONTERMINAL</text>
<text text-anchor="middle" x="467" y="-694.2" font-family="Times New Roman,serif" font-size="14.00">type: Sequence</text>
</g>
<!-- 4&#45;&gt;6 -->
<g id="edge5" class="edge">
<title>4&#45;&gt;6</title>
<path fill="none" stroke="black" d="M467,-800.73C467,-783.88 467,-759.37 467,-739.84"/>
<polygon fill="black" stroke="black" points="470.5,-739.96 467,-729.96 463.5,-739.96 470.5,-739.96"/>
</g>
<!-- 7 -->
<g id="node7" class="node">
<title>7</title>
<polygon fill="none" stroke="black" points="279,-651 161,-651 161,-610 279,-610 279,-651"/>
<text text-anchor="middle" x="220" y="-633.7" font-family="Times New Roman,serif" font-size="14.00">NONTERMINAL</text>
<text text-anchor="middle" x="220" y="-617.2" font-family="Times New Roman,serif" font-size="14.00">type: RuleElement</text>
</g>
<!-- 6&#45;&gt;7 -->
<g id="edge6" class="edge">
<title>6&#45;&gt;7</title>
<path fill="none" stroke="black" d="M408.78,-688.82C373.21,-678.02 327.5,-664.14 289.97,-652.75"/>
<polygon fill="black" stroke="black" points="291.15,-649.45 280.57,-649.89 289.12,-656.14 291.15,-649.45"/>
</g>
<!-- 8 -->
<g id="node8" class="node">
<title>8</title>
<polygon fill="none" stroke="black" points="440,-651 322,-651 322,-610 440,-610 440,-651"/>
<text text-anchor="middle" x="381" y="-633.7" font-family="Times New Roman,serif" font-size="14.00">NONTERMINAL</text>
<text text-anchor="middle" x="381" y="-617.2" font-family="Times New Roman,serif" font-size="14.00">type: RuleElement</text>
</g>
<!-- 6&#45;&gt;8 -->
<g id="edge7" class="edge">
<title>6&#45;&gt;8</title>
<path fill="none" stroke="black" d="M444.4,-686.79C434.61,-678.25 422.97,-668.1 412.36,-658.84"/>
<polygon fill="black" stroke="black" points="414.72,-656.26 404.88,-652.33 410.12,-661.54 414.72,-656.26"/>
</g>
<!-- 9 -->
<g id="node9" class="node">
<title>9</title>
<polygon fill="none" stroke="black" points="610,-651 492,-651 492,-610 610,-610 610,-651"/>
<text text-anchor="middle" x="551" y="-633.7" font-family="Times New Roman,serif" font-size="14.00">NONTERMINAL</text>
<text text-anchor="middle" x="551" y="-617.2" font-family="Times New Roman,serif" font-size="14.00">type: RuleElement</text>
</g>
<!-- 6&#45;&gt;9 -->
<g id="edge8" class="edge">
<title>6&#45;&gt;9</title>
<path fill="none" stroke="black" d="M489.07,-686.79C498.64,-678.25 510.01,-668.1 520.37,-658.84"/>
<polygon fill="black" stroke="black" points="522.53,-661.61 527.66,-652.34 517.87,-656.39 522.53,-661.61"/>
</g>
<!-- 10 -->
<g id="node10" class="node">
<title>10</title>
<polygon fill="none" stroke="black" points="764,-651 646,-651 646,-610 764,-610 764,-651"/>
<text text-anchor="middle" x="705" y="-633.7" font-family="Times New Roman,serif" font-size="14.00">NONTERMINAL</text>
<text text-anchor="middle" x="705" y="-617.2" font-family="Times New Roman,serif" font-size="14.00">type: RuleElement</text>
</g>
<!-- 6&#45;&gt;10 -->
<g id="edge9" class="edge">
<title>6&#45;&gt;10</title>
<path fill="none" stroke="black" d="M525.22,-688.15C558.4,-677.7 600.18,-664.53 635.12,-653.52"/>
<polygon fill="black" stroke="black" points="635.8,-656.98 644.28,-650.63 633.69,-650.3 635.8,-656.98"/>
</g>
<!-- 11 -->
<g id="node11" class="node">
<title>11</title>
<polygon fill="none" stroke="black" points="228.88,-574 113.12,-574 113.12,-533 228.88,-533 228.88,-574"/>
<text text-anchor="middle" x="171" y="-556.7" font-family="Times New Roman,serif" font-size="14.00">NONTERMINAL</text>
<text text-anchor="middle" x="171" y="-540.2" font-family="Times New Roman,serif" font-size="14.00">type: Element</text>
</g>
<!-- 7&#45;&gt;11 -->
<g id="edge10" class="edge">
<title>7&#45;&gt;11</title>
<path fill="none" stroke="black" d="M207.13,-609.79C201.93,-601.85 195.84,-592.51 190.14,-583.8"/>
<polygon fill="black" stroke="black" points="193.19,-582.06 184.79,-575.6 187.33,-585.89 193.19,-582.06"/>
</g>
<!-- 12 -->
<g id="node12" class="node">
<title>12</title>
<polygon fill="none" stroke="black" points="429.88,-574 314.12,-574 314.12,-533 429.88,-533 429.88,-574"/>
<text text-anchor="middle" x="372" y="-556.7" font-family="Times New Roman,serif" font-size="14.00">NONTERMINAL</text>
<text text-anchor="middle" x="372" y="-540.2" font-family="Times New Roman,serif" font-size="14.00">type: Element</text>
</g>
<!-- 8&#45;&gt;12 -->
<g id="edge11" class="edge">
<title>8&#45;&gt;12</title>
<path fill="none" stroke="black" d="M378.64,-609.79C377.74,-602.36 376.71,-593.71 375.72,-585.49"/>
<polygon fill="black" stroke="black" points="379.23,-585.35 374.56,-575.84 372.28,-586.18 379.23,-585.35"/>
</g>
<!-- 13 -->
<g id="node13" class="node">
<title>13</title>
<polygon fill="none" stroke="black" points="627.88,-574 512.12,-574 512.12,-533 627.88,-533 627.88,-574"/>
<text text-anchor="middle" x="570" y="-556.7" font-family="Times New Roman,serif" font-size="14.00">NONTERMINAL</text>
<text text-anchor="middle" x="570" y="-540.2" font-family="Times New Roman,serif" font-size="14.00">type: Optional</text>
</g>
<!-- 9&#45;&gt;13 -->
<g id="edge12" class="edge">
<title>9&#45;&gt;13</title>
<path fill="none" stroke="black" d="M555.99,-609.79C557.88,-602.36 560.07,-593.71 562.15,-585.49"/>
<polygon fill="black" stroke="black" points="565.54,-586.35 564.6,-575.8 558.76,-584.64 565.54,-586.35"/>
</g>
<!-- 14 -->
<g id="node14" class="node">
<title>14</title>
<polygon fill="none" stroke="black" points="771.88,-574 656.12,-574 656.12,-533 771.88,-533 771.88,-574"/>
<text text-anchor="middle" x="714" y="-556.7" font-family="Times New Roman,serif" font-size="14.00">NONTERMINAL</text>
<text text-anchor="middle" x="714" y="-540.2" font-family="Times New Roman,serif" font-size="14.00">type: Element</text>
</g>
<!-- 10&#45;&gt;14 -->
<g id="edge13" class="edge">
<title>10&#45;&gt;14</title>
<path fill="none" stroke="black" d="M707.36,-609.79C708.26,-602.36 709.29,-593.71 710.28,-585.49"/>
<polygon fill="black" stroke="black" points="713.72,-586.18 711.44,-575.84 706.77,-585.35 713.72,-586.18"/>
</g>
<!-- 15 -->
<g id="node15" class="node">
<title>15</title>
<polygon fill="none" stroke="black" points="103,-497 0,-439.5 103,-382 206,-439.5 103,-497"/>
<text text-anchor="middle" x="103" y="-450.95" font-family="Times New Roman,serif" font-size="14.00">TERMINAL</text>
<text text-anchor="middle" x="103" y="-434.45" font-family="Times New Roman,serif" font-size="14.00">type: key_name</text>
<text text-anchor="middle" x="103" y="-417.95" font-family="Times New Roman,serif" font-size="14.00">string: &#39;{&#39;</text>
</g>
<!-- 11&#45;&gt;15 -->
<g id="edge14" class="edge">
<title>11&#45;&gt;15</title>
<path fill="none" stroke="black" d="M159,-532.73C152.18,-521.51 143.3,-506.88 134.63,-492.59"/>
<polygon fill="black" stroke="black" points="137.65,-490.83 129.47,-484.09 131.67,-494.46 137.65,-490.83"/>
</g>
<!-- 16 -->
<g id="node16" class="node">
<title>16</title>
<polygon fill="none" stroke="black" points="338,-497 223.75,-439.5 338,-382 452.25,-439.5 338,-497"/>
<text text-anchor="middle" x="338" y="-450.95" font-family="Times New Roman,serif" font-size="14.00">TERMINAL</text>
<text text-anchor="middle" x="338" y="-434.45" font-family="Times New Roman,serif" font-size="14.00">type: name</text>
<text text-anchor="middle" x="338" y="-417.95" font-family="Times New Roman,serif" font-size="14.00">string: Alternative</text>
</g>
<!-- 12&#45;&gt;16 -->
<g id="edge15" class="edge">
<title>12&#45;&gt;16</title>
<path fill="none" stroke="black" d="M366,-532.73C363.23,-523.6 359.77,-512.21 356.24,-500.58"/>
<polygon fill="black" stroke="black" points="359.69,-499.9 353.44,-491.35 352.99,-501.93 359.69,-499.9"/>
</g>
<!-- 17 -->
<g id="node17" class="node">
<title>17</title>
<ellipse fill="none" stroke="black" cx="512" cy="-439.5" rx="41.54" ry="28.99"/>
<text text-anchor="middle" x="512" y="-442.7" font-family="Times New Roman,serif" font-size="14.00">KEY</text>
<text text-anchor="middle" x="512" y="-426.2" font-family="Times New Roman,serif" font-size="14.00">string: [</text>
</g>
<!-- 13&#45;&gt;17 -->
<g id="edge16" class="edge">
<title>13&#45;&gt;17</title>
<path fill="none" stroke="black" d="M559.76,-532.73C551.84,-517.44 540.65,-495.82 531.09,-477.36"/>
<polygon fill="black" stroke="black" points="534.24,-475.83 526.53,-468.56 528.02,-479.05 534.24,-475.83"/>
</g>
<!-- 18 -->
<g id="node18" class="node">
<title>18</title>
<polygon fill="none" stroke="black" points="686.88,-460 571.12,-460 571.12,-419 686.88,-419 686.88,-460"/>
<text text-anchor="middle" x="629" y="-442.7" font-family="Times New Roman,serif" font-size="14.00">NONTERMINAL</text>
<text text-anchor="middle" x="629" y="-426.2" font-family="Times New Roman,serif" font-size="14.00">type: Alternative</text>
</g>
<!-- 13&#45;&gt;18 -->
<g id="edge17" class="edge">
<title>13&#45;&gt;18</title>
<path fill="none" stroke="black" d="M580.41,-532.73C589.5,-515.49 602.82,-490.2 613.21,-470.47"/>
<polygon fill="black" stroke="black" points="616.22,-472.26 617.79,-461.78 610.03,-469 616.22,-472.26"/>
</g>
<!-- 19 -->
<g id="node19" class="node">
<title>19</title>
<ellipse fill="none" stroke="black" cx="746" cy="-439.5" rx="41.54" ry="28.99"/>
<text text-anchor="middle" x="746" y="-442.7" font-family="Times New Roman,serif" font-size="14.00">KEY</text>
<text text-anchor="middle" x="746" y="-426.2" font-family="Times New Roman,serif" font-size="14.00">string: ]</text>
</g>
<!-- 13&#45;&gt;19 -->
<g id="edge18" class="edge">
<title>13&#45;&gt;19</title>
<path fill="none" stroke="black" d="M628.32,-532.93C650.65,-523.91 675.63,-511.87 696,-497 704.7,-490.65 712.97,-482.54 720.19,-474.47"/>
<polygon fill="black" stroke="black" points="722.77,-476.84 726.6,-466.96 717.45,-472.3 722.77,-476.84"/>
</g>
<!-- 20 -->
<g id="node20" class="node">
<title>20</title>
<polygon fill="none" stroke="black" points="909,-497 806,-439.5 909,-382 1012,-439.5 909,-497"/>
<text text-anchor="middle" x="909" y="-450.95" font-family="Times New Roman,serif" font-size="14.00">TERMINAL</text>
<text text-anchor="middle" x="909" y="-434.45" font-family="Times New Roman,serif" font-size="14.00">type: key_name</text>
<text text-anchor="middle" x="909" y="-417.95" font-family="Times New Roman,serif" font-size="14.00">string: &#39;}&#39;</text>
</g>
<!-- 14&#45;&gt;20 -->
<g id="edge19" class="edge">
<title>14&#45;&gt;20</title>
<path fill="none" stroke="black" d="M748.41,-532.73C776.28,-516.73 816.19,-493.81 849.25,-474.82"/>
<polygon fill="black" stroke="black" points="850.58,-478.09 857.51,-470.07 847.1,-472.02 850.58,-478.09"/>
</g>
<!-- 21 -->
<g id="node21" class="node">
<title>21</title>
<polygon fill="none" stroke="black" points="686.88,-346 571.12,-346 571.12,-305 686.88,-305 686.88,-346"/>
<text text-anchor="middle" x="629" y="-328.7" font-family="Times New Roman,serif" font-size="14.00">NONTERMINAL</text>
<text text-anchor="middle" x="629" y="-312.2" font-family="Times New Roman,serif" font-size="14.00">type: Sequence</text>
</g>
<!-- 18&#45;&gt;21 -->
<g id="edge20" class="edge">
<title>18&#45;&gt;21</title>
<path fill="none" stroke="black" d="M629,-418.73C629,-401.88 629,-377.37 629,-357.84"/>
<polygon fill="black" stroke="black" points="632.5,-357.96 629,-347.96 625.5,-357.96 632.5,-357.96"/>
</g>
<!-- 22 -->
<g id="node22" class="node">
<title>22</title>
<polygon fill="none" stroke="black" points="620,-269 502,-269 502,-228 620,-228 620,-269"/>
<text text-anchor="middle" x="561" y="-251.7" font-family="Times New Roman,serif" font-size="14.00">NONTERMINAL</text>
<text text-anchor="middle" x="561" y="-235.2" font-family="Times New Roman,serif" font-size="14.00">type: RuleElement</text>
</g>
<!-- 21&#45;&gt;22 -->
<g id="edge21" class="edge">
<title>21&#45;&gt;22</title>
<path fill="none" stroke="black" d="M611.13,-304.79C603.62,-296.51 594.74,-286.71 586.55,-277.68"/>
<polygon fill="black" stroke="black" points="589.31,-275.51 580,-270.46 584.12,-280.21 589.31,-275.51"/>
</g>
<!-- 23 -->
<g id="node23" class="node">
<title>23</title>
<polygon fill="none" stroke="black" points="768,-269 650,-269 650,-228 768,-228 768,-269"/>
<text text-anchor="middle" x="709" y="-251.7" font-family="Times New Roman,serif" font-size="14.00">NONTERMINAL</text>
<text text-anchor="middle" x="709" y="-235.2" font-family="Times New Roman,serif" font-size="14.00">type: RuleElement</text>
</g>
<!-- 21&#45;&gt;23 -->
<g id="edge22" class="edge">
<title>21&#45;&gt;23</title>
<path fill="none" stroke="black" d="M650.02,-304.79C659.04,-296.34 669.74,-286.3 679.54,-277.12"/>
<polygon fill="black" stroke="black" points="681.84,-279.76 686.74,-270.37 677.05,-274.66 681.84,-279.76"/>
</g>
<!-- 24 -->
<g id="node24" class="node">
<title>24</title>
<polygon fill="none" stroke="black" points="593.88,-192 478.12,-192 478.12,-151 593.88,-151 593.88,-192"/>
<text text-anchor="middle" x="536" y="-174.7" font-family="Times New Roman,serif" font-size="14.00">NONTERMINAL</text>
<text text-anchor="middle" x="536" y="-158.2" font-family="Times New Roman,serif" font-size="14.00">type: Element</text>
</g>
<!-- 22&#45;&gt;24 -->
<g id="edge23" class="edge">
<title>22&#45;&gt;24</title>
<path fill="none" stroke="black" d="M554.43,-227.79C551.93,-220.28 549,-211.51 546.24,-203.21"/>
<polygon fill="black" stroke="black" points="549.57,-202.15 543.09,-193.77 542.93,-204.36 549.57,-202.15"/>
</g>
<!-- 25 -->
<g id="node25" class="node">
<title>25</title>
<polygon fill="none" stroke="black" points="772.88,-192 657.12,-192 657.12,-151 772.88,-151 772.88,-192"/>
<text text-anchor="middle" x="715" y="-174.7" font-family="Times New Roman,serif" font-size="14.00">NONTERMINAL</text>
<text text-anchor="middle" x="715" y="-158.2" font-family="Times New Roman,serif" font-size="14.00">type: Element</text>
</g>
<!-- 23&#45;&gt;25 -->
<g id="edge24" class="edge">
<title>23&#45;&gt;25</title>
<path fill="none" stroke="black" d="M710.58,-227.79C711.16,-220.45 711.85,-211.91 712.5,-203.78"/>
<polygon fill="black" stroke="black" points="715.98,-204.09 713.29,-193.84 709.01,-203.53 715.98,-204.09"/>
</g>
<!-- 26 -->
<g id="node26" class="node">
<title>26</title>
<polygon fill="none" stroke="black" points="487,-115 384,-57.5 487,0 590,-57.5 487,-115"/>
<text text-anchor="middle" x="487" y="-68.95" font-family="Times New Roman,serif" font-size="14.00">TERMINAL</text>
<text text-anchor="middle" x="487" y="-52.45" font-family="Times New Roman,serif" font-size="14.00">type: key_name</text>
<text text-anchor="middle" x="487" y="-35.95" font-family="Times New Roman,serif" font-size="14.00">string: &#39;#&#39;</text>
</g>
<!-- 24&#45;&gt;26 -->
<g id="edge25" class="edge">
<title>24&#45;&gt;26</title>
<path fill="none" stroke="black" d="M527.35,-150.73C522.89,-140.53 517.19,-127.5 511.49,-114.48"/>
<polygon fill="black" stroke="black" points="514.77,-113.24 507.55,-105.48 508.36,-116.04 514.77,-113.24"/>
</g>
<!-- 27 -->
<g id="node27" class="node">
<title>27</title>
<polygon fill="none" stroke="black" points="722,-115 607.75,-57.5 722,0 836.25,-57.5 722,-115"/>
<text text-anchor="middle" x="722" y="-68.95" font-family="Times New Roman,serif" font-size="14.00">TERMINAL</text>
<text text-anchor="middle" x="722" y="-52.45" font-family="Times New Roman,serif" font-size="14.00">type: name</text>
<text text-anchor="middle" x="722" y="-35.95" font-family="Times New Roman,serif" font-size="14.00">string: Alternative</text>
</g>
<!-- 25&#45;&gt;27 -->
<g id="edge26" class="edge">
<title>25&#45;&gt;27</title>
<path fill="none" stroke="black" d="M716.24,-150.73C716.7,-143.32 717.25,-134.43 717.84,-125.13"/>
<polygon fill="black" stroke="black" points="721.33,-125.36 718.46,-115.16 714.34,-124.93 721.33,-125.36"/>
</g>
</g>
</svg>
