<?xml version="1.0" encoding="UTF-8" standalone="no"?>
<!DOCTYPE svg PUBLIC "-//W3C//DTD SVG 1.1//EN"
 "http://www.w3.org/Graphics/SVG/1.1/DTD/svg11.dtd">
<!-- Generated by graphviz version 12.2.0 (20241103.1931)
 -->
<!-- Title: ast_Range Pages: 1 -->
<svg width="870pt" height="582pt"
 viewBox="0.00 0.00 870.25 582.00" xmlns="http://www.w3.org/2000/svg" xmlns:xlink="http://www.w3.org/1999/xlink">
<g id="graph0" class="graph" transform="scale(1 1) rotate(0) translate(4 578)">
<title>ast_Range</title>
<polygon fill="white" stroke="none" points="-4,4 -4,-578 866.25,-578 866.25,4 -4,4"/>
<!-- 1 -->
<g id="node1" class="node">
<title>1</title>
<polygon fill="none" stroke="black" points="411.88,-574 296.12,-574 296.12,-533 411.88,-533 411.88,-574"/>
<text text-anchor="middle" x="354" y="-556.7" font-family="Times New Roman,serif" font-size="14.00">NONTERMINAL</text>
<text text-anchor="middle" x="354" y="-540.2" font-family="Times New Roman,serif" font-size="14.00">type: Rule</text>
</g>
<!-- 2 -->
<g id="node2" class="node">
<title>2</title>
<polygon fill="none" stroke="black" points="136,-497 47.25,-439.5 136,-382 224.75,-439.5 136,-497"/>
<text text-anchor="middle" x="136" y="-450.95" font-family="Times New Roman,serif" font-size="14.00">TERMINAL</text>
<text text-anchor="middle" x="136" y="-434.45" font-family="Times New Roman,serif" font-size="14.00">type: name</text>
<text text-anchor="middle" x="136" y="-417.95" font-family="Times New Roman,serif" font-size="14.00">string: Range</text>
</g>
<!-- 1&#45;&gt;2 -->
<g id="edge1" class="edge">
<title>1&#45;&gt;2</title>
<path fill="none" stroke="black" d="M308.52,-532.63C285.89,-522.44 258.25,-509.57 234,-497 219.97,-489.73 205.08,-481.45 191.25,-473.51"/>
<polygon fill="black" stroke="black" points="193.11,-470.54 182.71,-468.56 189.61,-476.6 193.11,-470.54"/>
</g>
<!-- 3 -->
<g id="node3" class="node">
<title>3</title>
<ellipse fill="none" stroke="black" cx="292" cy="-439.5" rx="49.5" ry="28.99"/>
<text text-anchor="middle" x="292" y="-442.7" font-family="Times New Roman,serif" font-size="14.00">KEY</text>
<text text-anchor="middle" x="292" y="-426.2" font-family="Times New Roman,serif" font-size="14.00">string: ::=</text>
</g>
<!-- 1&#45;&gt;3 -->
<g id="edge2" class="edge">
<title>1&#45;&gt;3</title>
<path fill="none" stroke="black" d="M343.06,-532.73C334.55,-517.37 322.51,-495.62 312.26,-477.11"/>
<polygon fill="black" stroke="black" points="315.43,-475.59 307.52,-468.54 309.3,-478.98 315.43,-475.59"/>
</g>
<!-- 4 -->
<g id="node4" class="node">
<title>4</title>
<polygon fill="none" stroke="black" points="474.88,-460 359.12,-460 359.12,-419 474.88,-419 474.88,-460"/>
<text text-anchor="middle" x="417" y="-442.7" font-family="Times New Roman,serif" font-size="14.00">NONTERMINAL</text>
<text text-anchor="middle" x="417" y="-426.2" font-family="Times New Roman,serif" font-size="14.00">type: Alternative</text>
</g>
<!-- 1&#45;&gt;4 -->
<g id="edge3" class="edge">
<title>1&#45;&gt;4</title>
<path fill="none" stroke="black" d="M365.12,-532.73C374.82,-515.49 389.04,-490.2 400.14,-470.47"/>
<polygon fill="black" stroke="black" points="403.19,-472.2 405.04,-461.76 397.09,-468.76 403.19,-472.2"/>
</g>
<!-- 5 -->
<g id="node5" class="node">
<title>5</title>
<ellipse fill="none" stroke="black" cx="534" cy="-439.5" rx="41.01" ry="28.99"/>
<text text-anchor="middle" x="534" y="-442.7" font-family="Times New Roman,serif" font-size="14.00">KEY</text>
<text text-anchor="middle" x="534" y="-426.2" font-family="Times New Roman,serif" font-size="14.00">string: ;</text>
</g>
<!-- 1&#45;&gt;5 -->
<g id="edge4" class="edge">
<title>1&#45;&gt;5</title>
<path fill="none" stroke="black" d="M412.23,-533.97C435.76,-524.92 462.41,-512.58 484,-497 492.74,-490.7 501.02,-482.61 508.24,-474.54"/>
<polygon fill="black" stroke="black" points="510.83,-476.91 514.65,-467.02 505.5,-472.36 510.83,-476.91"/>
</g>
<!-- 6 -->
<g id="node6" class="node">
<title>6</title>
<polygon fill="none" stroke="black" points="474.88,-346 359.12,-346 359.12,-305 474.88,-305 474.88,-346"/>
<text text-anchor="middle" x="417" y="-328.7" font-family="Times New Roman,serif" font-size="14.00">NONTERMINAL</text>
<text text-anchor="middle" x="417" y="-312.2" font-family="Times New Roman,serif" font-size="14.00">type: Sequence</text>
</g>
<!-- 4&#45;&gt;6 -->
<g id="edge5" class="edge">
<title>4&#45;&gt;6</title>
<path fill="none" stroke="black" d="M417,-418.73C417,-401.88 417,-377.37 417,-357.84"/>
<polygon fill="black" stroke="black" points="420.5,-357.96 417,-347.96 413.5,-357.96 420.5,-357.96"/>
</g>
<!-- 7 -->
<g id="node7" class="node">
<title>7</title>
<polygon fill="none" stroke="black" points="251,-269 133,-269 133,-228 251,-228 251,-269"/>
<text text-anchor="middle" x="192" y="-251.7" font-family="Times New Roman,serif" font-size="14.00">NONTERMINAL</text>
<text text-anchor="middle" x="192" y="-235.2" font-family="Times New Roman,serif" font-size="14.00">type: RuleElement</text>
</g>
<!-- 6&#45;&gt;7 -->
<g id="edge6" class="edge">
<title>6&#45;&gt;7</title>
<path fill="none" stroke="black" d="M358.76,-305.09C329.18,-295.23 293.01,-283.17 261.93,-272.81"/>
<polygon fill="black" stroke="black" points="263.2,-269.54 252.6,-269.7 260.98,-276.18 263.2,-269.54"/>
</g>
<!-- 8 -->
<g id="node8" class="node">
<title>8</title>
<polygon fill="none" stroke="black" points="408,-269 290,-269 290,-228 408,-228 408,-269"/>
<text text-anchor="middle" x="349" y="-251.7" font-family="Times New Roman,serif" font-size="14.00">NONTERMINAL</text>
<text text-anchor="middle" x="349" y="-235.2" font-family="Times New Roman,serif" font-size="14.00">type: RuleElement</text>
</g>
<!-- 6&#45;&gt;8 -->
<g id="edge7" class="edge">
<title>6&#45;&gt;8</title>
<path fill="none" stroke="black" d="M399.13,-304.79C391.62,-296.51 382.74,-286.71 374.55,-277.68"/>
<polygon fill="black" stroke="black" points="377.31,-275.51 368,-270.46 372.12,-280.21 377.31,-275.51"/>
</g>
<!-- 9 -->
<g id="node9" class="node">
<title>9</title>
<polygon fill="none" stroke="black" points="586,-269 468,-269 468,-228 586,-228 586,-269"/>
<text text-anchor="middle" x="527" y="-251.7" font-family="Times New Roman,serif" font-size="14.00">NONTERMINAL</text>
<text text-anchor="middle" x="527" y="-235.2" font-family="Times New Roman,serif" font-size="14.00">type: RuleElement</text>
</g>
<!-- 6&#45;&gt;9 -->
<g id="edge8" class="edge">
<title>6&#45;&gt;9</title>
<path fill="none" stroke="black" d="M446.19,-304.6C459.12,-295.78 474.51,-285.29 488.37,-275.84"/>
<polygon fill="black" stroke="black" points="490.13,-278.87 496.42,-270.35 486.19,-273.09 490.13,-278.87"/>
</g>
<!-- 10 -->
<g id="node10" class="node">
<title>10</title>
<polygon fill="none" stroke="black" points="785,-269 667,-269 667,-228 785,-228 785,-269"/>
<text text-anchor="middle" x="726" y="-251.7" font-family="Times New Roman,serif" font-size="14.00">NONTERMINAL</text>
<text text-anchor="middle" x="726" y="-235.2" font-family="Times New Roman,serif" font-size="14.00">type: RuleElement</text>
</g>
<!-- 6&#45;&gt;10 -->
<g id="edge9" class="edge">
<title>6&#45;&gt;10</title>
<path fill="none" stroke="black" d="M475.12,-310.39C526.31,-297.97 601.01,-279.84 655.58,-266.59"/>
<polygon fill="black" stroke="black" points="656.2,-270.04 665.09,-264.28 654.55,-263.24 656.2,-270.04"/>
</g>
<!-- 11 -->
<g id="node11" class="node">
<title>11</title>
<polygon fill="none" stroke="black" points="207.88,-192 92.12,-192 92.12,-151 207.88,-151 207.88,-192"/>
<text text-anchor="middle" x="150" y="-174.7" font-family="Times New Roman,serif" font-size="14.00">NONTERMINAL</text>
<text text-anchor="middle" x="150" y="-158.2" font-family="Times New Roman,serif" font-size="14.00">type: Element</text>
</g>
<!-- 7&#45;&gt;11 -->
<g id="edge10" class="edge">
<title>7&#45;&gt;11</title>
<path fill="none" stroke="black" d="M180.96,-227.79C176.61,-220.02 171.51,-210.91 166.72,-202.36"/>
<polygon fill="black" stroke="black" points="169.79,-200.67 161.85,-193.65 163.68,-204.09 169.79,-200.67"/>
</g>
<!-- 12 -->
<g id="node12" class="node">
<title>12</title>
<polygon fill="none" stroke="black" points="385.88,-192 270.12,-192 270.12,-151 385.88,-151 385.88,-192"/>
<text text-anchor="middle" x="328" y="-174.7" font-family="Times New Roman,serif" font-size="14.00">NONTERMINAL</text>
<text text-anchor="middle" x="328" y="-158.2" font-family="Times New Roman,serif" font-size="14.00">type: Element</text>
</g>
<!-- 8&#45;&gt;12 -->
<g id="edge11" class="edge">
<title>8&#45;&gt;12</title>
<path fill="none" stroke="black" d="M343.48,-227.79C341.38,-220.28 338.92,-211.51 336.6,-203.21"/>
<polygon fill="black" stroke="black" points="340.03,-202.48 333.96,-193.79 333.29,-204.37 340.03,-202.48"/>
</g>
<!-- 13 -->
<g id="node13" class="node">
<title>13</title>
<polygon fill="none" stroke="black" points="594.88,-192 479.12,-192 479.12,-151 594.88,-151 594.88,-192"/>
<text text-anchor="middle" x="537" y="-174.7" font-family="Times New Roman,serif" font-size="14.00">NONTERMINAL</text>
<text text-anchor="middle" x="537" y="-158.2" font-family="Times New Roman,serif" font-size="14.00">type: Element</text>
</g>
<!-- 9&#45;&gt;13 -->
<g id="edge12" class="edge">
<title>9&#45;&gt;13</title>
<path fill="none" stroke="black" d="M529.63,-227.79C530.62,-220.36 531.77,-211.71 532.87,-203.49"/>
<polygon fill="black" stroke="black" points="536.3,-204.21 534.16,-193.83 529.36,-203.28 536.3,-204.21"/>
</g>
<!-- 14 -->
<g id="node14" class="node">
<title>14</title>
<polygon fill="none" stroke="black" points="804.88,-192 689.12,-192 689.12,-151 804.88,-151 804.88,-192"/>
<text text-anchor="middle" x="747" y="-174.7" font-family="Times New Roman,serif" font-size="14.00">NONTERMINAL</text>
<text text-anchor="middle" x="747" y="-158.2" font-family="Times New Roman,serif" font-size="14.00">type: Element</text>
</g>
<!-- 10&#45;&gt;14 -->
<g id="edge13" class="edge">
<title>10&#45;&gt;14</title>
<path fill="none" stroke="black" d="M731.52,-227.79C733.62,-220.28 736.08,-211.51 738.4,-203.21"/>
<polygon fill="black" stroke="black" points="741.71,-204.37 741.04,-193.79 734.97,-202.48 741.71,-204.37"/>
</g>
<!-- 15 -->
<g id="node15" class="node">
<title>15</title>
<polygon fill="none" stroke="black" points="103,-115 0,-57.5 103,0 206,-57.5 103,-115"/>
<text text-anchor="middle" x="103" y="-68.95" font-family="Times New Roman,serif" font-size="14.00">TERMINAL</text>
<text text-anchor="middle" x="103" y="-52.45" font-family="Times New Roman,serif" font-size="14.00">type: key_name</text>
<text text-anchor="middle" x="103" y="-35.95" font-family="Times New Roman,serif" font-size="14.00">string: &#39;FROM&#39;</text>
</g>
<!-- 11&#45;&gt;15 -->
<g id="edge14" class="edge">
<title>11&#45;&gt;15</title>
<path fill="none" stroke="black" d="M141.71,-150.73C137.46,-140.63 132.06,-127.76 126.65,-114.86"/>
<polygon fill="black" stroke="black" points="130.01,-113.83 122.92,-105.96 123.56,-116.54 130.01,-113.83"/>
</g>
<!-- 16 -->
<g id="node16" class="node">
<title>16</title>
<polygon fill="none" stroke="black" points="323,-115 223.75,-57.5 323,0 422.25,-57.5 323,-115"/>
<text text-anchor="middle" x="323" y="-68.95" font-family="Times New Roman,serif" font-size="14.00">TERMINAL</text>
<text text-anchor="middle" x="323" y="-52.45" font-family="Times New Roman,serif" font-size="14.00">type: name</text>
<text text-anchor="middle" x="323" y="-35.95" font-family="Times New Roman,serif" font-size="14.00">string: Number</text>
</g>
<!-- 12&#45;&gt;16 -->
<g id="edge15" class="edge">
<title>12&#45;&gt;16</title>
<path fill="none" stroke="black" d="M327.12,-150.73C326.79,-143.41 326.4,-134.64 325.99,-125.46"/>
<polygon fill="black" stroke="black" points="329.49,-125.48 325.55,-115.65 322.5,-125.79 329.49,-125.48"/>
</g>
<!-- 17 -->
<g id="node17" class="node">
<title>17</title>
<polygon fill="none" stroke="black" points="543,-115 440,-57.5 543,0 646,-57.5 543,-115"/>
<text text-anchor="middle" x="543" y="-68.95" font-family="Times New Roman,serif" font-size="14.00">TERMINAL</text>
<text text-anchor="middle" x="543" y="-52.45" font-family="Times New Roman,serif" font-size="14.00">type: key_name</text>
<text text-anchor="middle" x="543" y="-35.95" font-family="Times New Roman,serif" font-size="14.00">string: &#39;TO&#39;</text>
</g>
<!-- 13&#45;&gt;17 -->
<g id="edge16" class="edge">
<title>13&#45;&gt;17</title>
<path fill="none" stroke="black" d="M538.06,-150.73C538.46,-143.32 538.93,-134.43 539.43,-125.13"/>
<polygon fill="black" stroke="black" points="542.92,-125.34 539.96,-115.16 535.93,-124.96 542.92,-125.34"/>
</g>
<!-- 18 -->
<g id="node18" class="node">
<title>18</title>
<polygon fill="none" stroke="black" points="763,-115 663.75,-57.5 763,0 862.25,-57.5 763,-115"/>
<text text-anchor="middle" x="763" y="-68.95" font-family="Times New Roman,serif" font-size="14.00">TERMINAL</text>
<text text-anchor="middle" x="763" y="-52.45" font-family="Times New Roman,serif" font-size="14.00">type: name</text>
<text text-anchor="middle" x="763" y="-35.95" font-family="Times New Roman,serif" font-size="14.00">string: Number</text>
</g>
<!-- 14&#45;&gt;18 -->
<g id="edge17" class="edge">
<title>14&#45;&gt;18</title>
<path fill="none" stroke="black" d="M749.82,-150.73C751,-142.53 752.43,-132.5 753.91,-122.11"/>
<polygon fill="black" stroke="black" points="757.37,-122.66 755.32,-112.27 750.44,-121.67 757.37,-122.66"/>
</g>
</g>
</svg>
