<?xml version="1.0" encoding="UTF-8" standalone="no"?>
<!DOCTYPE svg PUBLIC "-//W3C//DTD SVG 1.1//EN"
 "http://www.w3.org/Graphics/SVG/1.1/DTD/svg11.dtd">
<!-- Generated by graphviz version 12.2.0 (20241103.1931)
 -->
<!-- Title: ast_Select Pages: 1 -->
<svg width="856pt" height="582pt"
 viewBox="0.00 0.00 855.75 582.00" xmlns="http://www.w3.org/2000/svg" xmlns:xlink="http://www.w3.org/1999/xlink">
<g id="graph0" class="graph" transform="scale(1 1) rotate(0) translate(4 578)">
<title>ast_Select</title>
<polygon fill="white" stroke="none" points="-4,4 -4,-578 851.75,-578 851.75,4 -4,4"/>
<!-- 1 -->
<g id="node1" class="node">
<title>1</title>
<polygon fill="none" stroke="black" points="422.12,-574 306.38,-574 306.38,-533 422.12,-533 422.12,-574"/>
<text text-anchor="middle" x="364.25" y="-556.7" font-family="Times New Roman,serif" font-size="14.00">NONTERMINAL</text>
<text text-anchor="middle" x="364.25" y="-540.2" font-family="Times New Roman,serif" font-size="14.00">type: Rule</text>
</g>
<!-- 2 -->
<g id="node2" class="node">
<title>2</title>
<polygon fill="none" stroke="black" points="147.25,-497 60,-439.5 147.25,-382 234.5,-439.5 147.25,-497"/>
<text text-anchor="middle" x="147.25" y="-450.95" font-family="Times New Roman,serif" font-size="14.00">TERMINAL</text>
<text text-anchor="middle" x="147.25" y="-434.45" font-family="Times New Roman,serif" font-size="14.00">type: name</text>
<text text-anchor="middle" x="147.25" y="-417.95" font-family="Times New Roman,serif" font-size="14.00">string: Select</text>
</g>
<!-- 1&#45;&gt;2 -->
<g id="edge1" class="edge">
<title>1&#45;&gt;2</title>
<path fill="none" stroke="black" d="M318.46,-532.54C295.87,-522.39 268.37,-509.57 244.25,-497 230.34,-489.75 215.59,-481.48 201.91,-473.54"/>
<polygon fill="black" stroke="black" points="203.86,-470.63 193.46,-468.6 200.33,-476.67 203.86,-470.63"/>
</g>
<!-- 3 -->
<g id="node3" class="node">
<title>3</title>
<ellipse fill="none" stroke="black" cx="302.25" cy="-439.5" rx="49.5" ry="28.99"/>
<text text-anchor="middle" x="302.25" y="-442.7" font-family="Times New Roman,serif" font-size="14.00">KEY</text>
<text text-anchor="middle" x="302.25" y="-426.2" font-family="Times New Roman,serif" font-size="14.00">string: ::=</text>
</g>
<!-- 1&#45;&gt;3 -->
<g id="edge2" class="edge">
<title>1&#45;&gt;3</title>
<path fill="none" stroke="black" d="M353.31,-532.73C344.8,-517.37 332.76,-495.62 322.51,-477.11"/>
<polygon fill="black" stroke="black" points="325.68,-475.59 317.77,-468.54 319.55,-478.98 325.68,-475.59"/>
</g>
<!-- 4 -->
<g id="node4" class="node">
<title>4</title>
<polygon fill="none" stroke="black" points="485.12,-460 369.38,-460 369.38,-419 485.12,-419 485.12,-460"/>
<text text-anchor="middle" x="427.25" y="-442.7" font-family="Times New Roman,serif" font-size="14.00">NONTERMINAL</text>
<text text-anchor="middle" x="427.25" y="-426.2" font-family="Times New Roman,serif" font-size="14.00">type: Alternative</text>
</g>
<!-- 1&#45;&gt;4 -->
<g id="edge3" class="edge">
<title>1&#45;&gt;4</title>
<path fill="none" stroke="black" d="M375.37,-532.73C385.07,-515.49 399.29,-490.2 410.39,-470.47"/>
<polygon fill="black" stroke="black" points="413.44,-472.2 415.29,-461.76 407.34,-468.76 413.44,-472.2"/>
</g>
<!-- 5 -->
<g id="node5" class="node">
<title>5</title>
<ellipse fill="none" stroke="black" cx="544.25" cy="-439.5" rx="41.01" ry="28.99"/>
<text text-anchor="middle" x="544.25" y="-442.7" font-family="Times New Roman,serif" font-size="14.00">KEY</text>
<text text-anchor="middle" x="544.25" y="-426.2" font-family="Times New Roman,serif" font-size="14.00">string: ;</text>
</g>
<!-- 1&#45;&gt;5 -->
<g id="edge4" class="edge">
<title>1&#45;&gt;5</title>
<path fill="none" stroke="black" d="M422.48,-533.97C446.01,-524.92 472.66,-512.58 494.25,-497 502.99,-490.7 511.27,-482.61 518.49,-474.54"/>
<polygon fill="black" stroke="black" points="521.08,-476.91 524.9,-467.02 515.75,-472.36 521.08,-476.91"/>
</g>
<!-- 6 -->
<g id="node6" class="node">
<title>6</title>
<polygon fill="none" stroke="black" points="485.12,-346 369.38,-346 369.38,-305 485.12,-305 485.12,-346"/>
<text text-anchor="middle" x="427.25" y="-328.7" font-family="Times New Roman,serif" font-size="14.00">NONTERMINAL</text>
<text text-anchor="middle" x="427.25" y="-312.2" font-family="Times New Roman,serif" font-size="14.00">type: Sequence</text>
</g>
<!-- 4&#45;&gt;6 -->
<g id="edge5" class="edge">
<title>4&#45;&gt;6</title>
<path fill="none" stroke="black" d="M427.25,-418.73C427.25,-401.88 427.25,-377.37 427.25,-357.84"/>
<polygon fill="black" stroke="black" points="430.75,-357.96 427.25,-347.96 423.75,-357.96 430.75,-357.96"/>
</g>
<!-- 7 -->
<g id="node7" class="node">
<title>7</title>
<polygon fill="none" stroke="black" points="260.25,-269 142.25,-269 142.25,-228 260.25,-228 260.25,-269"/>
<text text-anchor="middle" x="201.25" y="-251.7" font-family="Times New Roman,serif" font-size="14.00">NONTERMINAL</text>
<text text-anchor="middle" x="201.25" y="-235.2" font-family="Times New Roman,serif" font-size="14.00">type: RuleElement</text>
</g>
<!-- 6&#45;&gt;7 -->
<g id="edge6" class="edge">
<title>6&#45;&gt;7</title>
<path fill="none" stroke="black" d="M369.05,-305.19C339.22,-295.29 302.66,-283.15 271.29,-272.74"/>
<polygon fill="black" stroke="black" points="272.46,-269.44 261.87,-269.62 270.26,-276.09 272.46,-269.44"/>
</g>
<!-- 8 -->
<g id="node8" class="node">
<title>8</title>
<polygon fill="none" stroke="black" points="418.25,-269 300.25,-269 300.25,-228 418.25,-228 418.25,-269"/>
<text text-anchor="middle" x="359.25" y="-251.7" font-family="Times New Roman,serif" font-size="14.00">NONTERMINAL</text>
<text text-anchor="middle" x="359.25" y="-235.2" font-family="Times New Roman,serif" font-size="14.00">type: RuleElement</text>
</g>
<!-- 6&#45;&gt;8 -->
<g id="edge7" class="edge">
<title>6&#45;&gt;8</title>
<path fill="none" stroke="black" d="M409.38,-304.79C401.87,-296.51 392.99,-286.71 384.8,-277.68"/>
<polygon fill="black" stroke="black" points="387.56,-275.51 378.25,-270.46 382.37,-280.21 387.56,-275.51"/>
</g>
<!-- 9 -->
<g id="node9" class="node">
<title>9</title>
<polygon fill="none" stroke="black" points="596.25,-269 478.25,-269 478.25,-228 596.25,-228 596.25,-269"/>
<text text-anchor="middle" x="537.25" y="-251.7" font-family="Times New Roman,serif" font-size="14.00">NONTERMINAL</text>
<text text-anchor="middle" x="537.25" y="-235.2" font-family="Times New Roman,serif" font-size="14.00">type: RuleElement</text>
</g>
<!-- 6&#45;&gt;9 -->
<g id="edge8" class="edge">
<title>6&#45;&gt;9</title>
<path fill="none" stroke="black" d="M456.44,-304.6C469.37,-295.78 484.76,-285.29 498.62,-275.84"/>
<polygon fill="black" stroke="black" points="500.38,-278.87 506.67,-270.35 496.44,-273.09 500.38,-278.87"/>
</g>
<!-- 10 -->
<g id="node10" class="node">
<title>10</title>
<polygon fill="none" stroke="black" points="789.25,-269 671.25,-269 671.25,-228 789.25,-228 789.25,-269"/>
<text text-anchor="middle" x="730.25" y="-251.7" font-family="Times New Roman,serif" font-size="14.00">NONTERMINAL</text>
<text text-anchor="middle" x="730.25" y="-235.2" font-family="Times New Roman,serif" font-size="14.00">type: RuleElement</text>
</g>
<!-- 6&#45;&gt;10 -->
<g id="edge9" class="edge">
<title>6&#45;&gt;10</title>
<path fill="none" stroke="black" d="M485.31,-310.13C535.05,-297.82 606.82,-280.05 659.82,-266.93"/>
<polygon fill="black" stroke="black" points="660.5,-270.37 669.36,-264.57 658.81,-263.58 660.5,-270.37"/>
</g>
<!-- 11 -->
<g id="node11" class="node">
<title>11</title>
<polygon fill="none" stroke="black" points="215.12,-192 99.38,-192 99.38,-151 215.12,-151 215.12,-192"/>
<text text-anchor="middle" x="157.25" y="-174.7" font-family="Times New Roman,serif" font-size="14.00">NONTERMINAL</text>
<text text-anchor="middle" x="157.25" y="-158.2" font-family="Times New Roman,serif" font-size="14.00">type: Element</text>
</g>
<!-- 7&#45;&gt;11 -->
<g id="edge10" class="edge">
<title>7&#45;&gt;11</title>
<path fill="none" stroke="black" d="M189.69,-227.79C185.08,-219.93 179.67,-210.71 174.6,-202.08"/>
<polygon fill="black" stroke="black" points="177.73,-200.49 169.65,-193.64 171.69,-204.04 177.73,-200.49"/>
</g>
<!-- 12 -->
<g id="node12" class="node">
<title>12</title>
<polygon fill="none" stroke="black" points="396.12,-192 280.38,-192 280.38,-151 396.12,-151 396.12,-192"/>
<text text-anchor="middle" x="338.25" y="-174.7" font-family="Times New Roman,serif" font-size="14.00">NONTERMINAL</text>
<text text-anchor="middle" x="338.25" y="-158.2" font-family="Times New Roman,serif" font-size="14.00">type: Element</text>
</g>
<!-- 8&#45;&gt;12 -->
<g id="edge11" class="edge">
<title>8&#45;&gt;12</title>
<path fill="none" stroke="black" d="M353.73,-227.79C351.63,-220.28 349.17,-211.51 346.85,-203.21"/>
<polygon fill="black" stroke="black" points="350.28,-202.48 344.21,-193.79 343.54,-204.37 350.28,-202.48"/>
</g>
<!-- 13 -->
<g id="node13" class="node">
<title>13</title>
<polygon fill="none" stroke="black" points="605.12,-192 489.38,-192 489.38,-151 605.12,-151 605.12,-192"/>
<text text-anchor="middle" x="547.25" y="-174.7" font-family="Times New Roman,serif" font-size="14.00">NONTERMINAL</text>
<text text-anchor="middle" x="547.25" y="-158.2" font-family="Times New Roman,serif" font-size="14.00">type: Element</text>
</g>
<!-- 9&#45;&gt;13 -->
<g id="edge12" class="edge">
<title>9&#45;&gt;13</title>
<path fill="none" stroke="black" d="M539.88,-227.79C540.87,-220.36 542.02,-211.71 543.12,-203.49"/>
<polygon fill="black" stroke="black" points="546.55,-204.21 544.41,-193.83 539.61,-203.28 546.55,-204.21"/>
</g>
<!-- 14 -->
<g id="node14" class="node">
<title>14</title>
<polygon fill="none" stroke="black" points="806.12,-192 690.38,-192 690.38,-151 806.12,-151 806.12,-192"/>
<text text-anchor="middle" x="748.25" y="-174.7" font-family="Times New Roman,serif" font-size="14.00">NONTERMINAL</text>
<text text-anchor="middle" x="748.25" y="-158.2" font-family="Times New Roman,serif" font-size="14.00">type: Element</text>
</g>
<!-- 10&#45;&gt;14 -->
<g id="edge13" class="edge">
<title>10&#45;&gt;14</title>
<path fill="none" stroke="black" d="M734.98,-227.79C736.76,-220.36 738.84,-211.71 740.81,-203.49"/>
<polygon fill="black" stroke="black" points="744.21,-204.35 743.14,-193.81 737.4,-202.71 744.21,-204.35"/>
</g>
<!-- 15 -->
<g id="node15" class="node">
<title>15</title>
<polygon fill="none" stroke="black" points="108.25,-115 0,-57.5 108.25,0 216.5,-57.5 108.25,-115"/>
<text text-anchor="middle" x="108.25" y="-68.95" font-family="Times New Roman,serif" font-size="14.00">TERMINAL</text>
<text text-anchor="middle" x="108.25" y="-52.45" font-family="Times New Roman,serif" font-size="14.00">type: key_name</text>
<text text-anchor="middle" x="108.25" y="-35.95" font-family="Times New Roman,serif" font-size="14.00">string: &#39;SELECT&#39;</text>
</g>
<!-- 11&#45;&gt;15 -->
<g id="edge14" class="edge">
<title>11&#45;&gt;15</title>
<path fill="none" stroke="black" d="M148.6,-150.73C144.18,-140.63 138.55,-127.76 132.91,-114.86"/>
<polygon fill="black" stroke="black" points="136.23,-113.71 129.01,-105.95 129.81,-116.52 136.23,-113.71"/>
</g>
<!-- 16 -->
<g id="node16" class="node">
<title>16</title>
<polygon fill="none" stroke="black" points="333.25,-115 234.75,-57.5 333.25,0 431.75,-57.5 333.25,-115"/>
<text text-anchor="middle" x="333.25" y="-68.95" font-family="Times New Roman,serif" font-size="14.00">TERMINAL</text>
<text text-anchor="middle" x="333.25" y="-52.45" font-family="Times New Roman,serif" font-size="14.00">type: name</text>
<text text-anchor="middle" x="333.25" y="-35.95" font-family="Times New Roman,serif" font-size="14.00">string: Variable</text>
</g>
<!-- 12&#45;&gt;16 -->
<g id="edge15" class="edge">
<title>12&#45;&gt;16</title>
<path fill="none" stroke="black" d="M337.37,-150.73C337.04,-143.32 336.64,-134.43 336.22,-125.13"/>
<polygon fill="black" stroke="black" points="339.72,-125 335.78,-115.16 332.73,-125.31 339.72,-125"/>
</g>
<!-- 17 -->
<g id="node17" class="node">
<title>17</title>
<polygon fill="none" stroke="black" points="553.25,-115 450.25,-57.5 553.25,0 656.25,-57.5 553.25,-115"/>
<text text-anchor="middle" x="553.25" y="-68.95" font-family="Times New Roman,serif" font-size="14.00">TERMINAL</text>
<text text-anchor="middle" x="553.25" y="-52.45" font-family="Times New Roman,serif" font-size="14.00">type: key_name</text>
<text text-anchor="middle" x="553.25" y="-35.95" font-family="Times New Roman,serif" font-size="14.00">string: &#39;IN&#39;</text>
</g>
<!-- 13&#45;&gt;17 -->
<g id="edge16" class="edge">
<title>13&#45;&gt;17</title>
<path fill="none" stroke="black" d="M548.31,-150.73C548.71,-143.32 549.18,-134.43 549.68,-125.13"/>
<polygon fill="black" stroke="black" points="553.17,-125.34 550.21,-115.16 546.18,-124.96 553.17,-125.34"/>
</g>
<!-- 18 -->
<g id="node18" class="node">
<title>18</title>
<polygon fill="none" stroke="black" points="761.25,-115 674.75,-57.5 761.25,0 847.75,-57.5 761.25,-115"/>
<text text-anchor="middle" x="761.25" y="-68.95" font-family="Times New Roman,serif" font-size="14.00">TERMINAL</text>
<text text-anchor="middle" x="761.25" y="-52.45" font-family="Times New Roman,serif" font-size="14.00">type: name</text>
<text text-anchor="middle" x="761.25" y="-35.95" font-family="Times New Roman,serif" font-size="14.00">string: Set</text>
</g>
<!-- 14&#45;&gt;18 -->
<g id="edge17" class="edge">
<title>14&#45;&gt;18</title>
<path fill="none" stroke="black" d="M750.54,-150.73C751.49,-142.62 752.64,-132.72 753.83,-122.46"/>
<polygon fill="black" stroke="black" points="757.28,-123.09 754.95,-112.75 750.32,-122.28 757.28,-123.09"/>
</g>
</g>
</svg>
