<?xml version="1.0" encoding="UTF-8" standalone="no"?>
<!DOCTYPE svg PUBLIC "-//W3C//DTD SVG 1.1//EN"
 "http://www.w3.org/Graphics/SVG/1.1/DTD/svg11.dtd">
<!-- Generated by graphviz version 12.2.0 (20241103.1931)
 -->
<!-- Title: ast_Output Pages: 1 -->
<svg width="593pt" height="582pt"
 viewBox="0.00 0.00 593.00 582.00" xmlns="http://www.w3.org/2000/svg" xmlns:xlink="http://www.w3.org/1999/xlink">
<g id="graph0" class="graph" transform="scale(1 1) rotate(0) translate(4 578)">
<title>ast_Output</title>
<polygon fill="white" stroke="none" points="-4,4 -4,-578 589,-578 589,4 -4,4"/>
<!-- 1 -->
<g id="node1" class="node">
<title>1</title>
<polygon fill="none" stroke="black" points="370.62,-574 254.88,-574 254.88,-533 370.62,-533 370.62,-574"/>
<text text-anchor="middle" x="312.75" y="-556.7" font-family="Times New Roman,serif" font-size="14.00">NONTERMINAL</text>
<text text-anchor="middle" x="312.75" y="-540.2" font-family="Times New Roman,serif" font-size="14.00">type: Rule</text>
</g>
<!-- 2 -->
<g id="node2" class="node">
<title>2</title>
<polygon fill="none" stroke="black" points="91.75,-497 0,-439.5 91.75,-382 183.5,-439.5 91.75,-497"/>
<text text-anchor="middle" x="91.75" y="-450.95" font-family="Times New Roman,serif" font-size="14.00">TERMINAL</text>
<text text-anchor="middle" x="91.75" y="-434.45" font-family="Times New Roman,serif" font-size="14.00">type: name</text>
<text text-anchor="middle" x="91.75" y="-417.95" font-family="Times New Roman,serif" font-size="14.00">string: Output</text>
</g>
<!-- 1&#45;&gt;2 -->
<g id="edge1" class="edge">
<title>1&#45;&gt;2</title>
<path fill="none" stroke="black" d="M267.62,-532.62C244.96,-522.38 217.19,-509.46 192.75,-497 178.28,-489.62 162.88,-481.27 148.57,-473.29"/>
<polygon fill="black" stroke="black" points="150.62,-470.43 140.19,-468.59 147.2,-476.53 150.62,-470.43"/>
</g>
<!-- 3 -->
<g id="node3" class="node">
<title>3</title>
<ellipse fill="none" stroke="black" cx="250.75" cy="-439.5" rx="49.5" ry="28.99"/>
<text text-anchor="middle" x="250.75" y="-442.7" font-family="Times New Roman,serif" font-size="14.00">KEY</text>
<text text-anchor="middle" x="250.75" y="-426.2" font-family="Times New Roman,serif" font-size="14.00">string: ::=</text>
</g>
<!-- 1&#45;&gt;3 -->
<g id="edge2" class="edge">
<title>1&#45;&gt;3</title>
<path fill="none" stroke="black" d="M301.81,-532.73C293.3,-517.37 281.26,-495.62 271.01,-477.11"/>
<polygon fill="black" stroke="black" points="274.18,-475.59 266.27,-468.54 268.05,-478.98 274.18,-475.59"/>
</g>
<!-- 4 -->
<g id="node4" class="node">
<title>4</title>
<polygon fill="none" stroke="black" points="433.62,-460 317.88,-460 317.88,-419 433.62,-419 433.62,-460"/>
<text text-anchor="middle" x="375.75" y="-442.7" font-family="Times New Roman,serif" font-size="14.00">NONTERMINAL</text>
<text text-anchor="middle" x="375.75" y="-426.2" font-family="Times New Roman,serif" font-size="14.00">type: Alternative</text>
</g>
<!-- 1&#45;&gt;4 -->
<g id="edge3" class="edge">
<title>1&#45;&gt;4</title>
<path fill="none" stroke="black" d="M323.87,-532.73C333.57,-515.49 347.79,-490.2 358.89,-470.47"/>
<polygon fill="black" stroke="black" points="361.94,-472.2 363.79,-461.76 355.84,-468.76 361.94,-472.2"/>
</g>
<!-- 5 -->
<g id="node5" class="node">
<title>5</title>
<ellipse fill="none" stroke="black" cx="492.75" cy="-439.5" rx="41.01" ry="28.99"/>
<text text-anchor="middle" x="492.75" y="-442.7" font-family="Times New Roman,serif" font-size="14.00">KEY</text>
<text text-anchor="middle" x="492.75" y="-426.2" font-family="Times New Roman,serif" font-size="14.00">string: ;</text>
</g>
<!-- 1&#45;&gt;5 -->
<g id="edge4" class="edge">
<title>1&#45;&gt;5</title>
<path fill="none" stroke="black" d="M370.98,-533.97C394.51,-524.92 421.16,-512.58 442.75,-497 451.49,-490.7 459.77,-482.61 466.99,-474.54"/>
<polygon fill="black" stroke="black" points="469.58,-476.91 473.4,-467.02 464.25,-472.36 469.58,-476.91"/>
</g>
<!-- 6 -->
<g id="node6" class="node">
<title>6</title>
<polygon fill="none" stroke="black" points="433.62,-346 317.88,-346 317.88,-305 433.62,-305 433.62,-346"/>
<text text-anchor="middle" x="375.75" y="-328.7" font-family="Times New Roman,serif" font-size="14.00">NONTERMINAL</text>
<text text-anchor="middle" x="375.75" y="-312.2" font-family="Times New Roman,serif" font-size="14.00">type: Sequence</text>
</g>
<!-- 4&#45;&gt;6 -->
<g id="edge5" class="edge">
<title>4&#45;&gt;6</title>
<path fill="none" stroke="black" d="M375.75,-418.73C375.75,-401.88 375.75,-377.37 375.75,-357.84"/>
<polygon fill="black" stroke="black" points="379.25,-357.96 375.75,-347.96 372.25,-357.96 379.25,-357.96"/>
</g>
<!-- 7 -->
<g id="node7" class="node">
<title>7</title>
<polygon fill="none" stroke="black" points="366.75,-269 248.75,-269 248.75,-228 366.75,-228 366.75,-269"/>
<text text-anchor="middle" x="307.75" y="-251.7" font-family="Times New Roman,serif" font-size="14.00">NONTERMINAL</text>
<text text-anchor="middle" x="307.75" y="-235.2" font-family="Times New Roman,serif" font-size="14.00">type: RuleElement</text>
</g>
<!-- 6&#45;&gt;7 -->
<g id="edge6" class="edge">
<title>6&#45;&gt;7</title>
<path fill="none" stroke="black" d="M357.88,-304.79C350.37,-296.51 341.49,-286.71 333.3,-277.68"/>
<polygon fill="black" stroke="black" points="336.06,-275.51 326.75,-270.46 330.87,-280.21 336.06,-275.51"/>
</g>
<!-- 8 -->
<g id="node8" class="node">
<title>8</title>
<polygon fill="none" stroke="black" points="515.75,-269 397.75,-269 397.75,-228 515.75,-228 515.75,-269"/>
<text text-anchor="middle" x="456.75" y="-251.7" font-family="Times New Roman,serif" font-size="14.00">NONTERMINAL</text>
<text text-anchor="middle" x="456.75" y="-235.2" font-family="Times New Roman,serif" font-size="14.00">type: RuleElement</text>
</g>
<!-- 6&#45;&gt;8 -->
<g id="edge7" class="edge">
<title>6&#45;&gt;8</title>
<path fill="none" stroke="black" d="M397.03,-304.79C406.17,-296.34 417,-286.3 426.92,-277.12"/>
<polygon fill="black" stroke="black" points="429.26,-279.72 434.22,-270.36 424.5,-274.59 429.26,-279.72"/>
</g>
<!-- 9 -->
<g id="node9" class="node">
<title>9</title>
<polygon fill="none" stroke="black" points="338.62,-192 222.88,-192 222.88,-151 338.62,-151 338.62,-192"/>
<text text-anchor="middle" x="280.75" y="-174.7" font-family="Times New Roman,serif" font-size="14.00">NONTERMINAL</text>
<text text-anchor="middle" x="280.75" y="-158.2" font-family="Times New Roman,serif" font-size="14.00">type: Element</text>
</g>
<!-- 7&#45;&gt;9 -->
<g id="edge8" class="edge">
<title>7&#45;&gt;9</title>
<path fill="none" stroke="black" d="M300.66,-227.79C297.92,-220.19 294.72,-211.31 291.7,-202.93"/>
<polygon fill="black" stroke="black" points="295.08,-201.98 288.4,-193.76 288.5,-204.35 295.08,-201.98"/>
</g>
<!-- 10 -->
<g id="node10" class="node">
<title>10</title>
<polygon fill="none" stroke="black" points="521.62,-192 405.88,-192 405.88,-151 521.62,-151 521.62,-192"/>
<text text-anchor="middle" x="463.75" y="-174.7" font-family="Times New Roman,serif" font-size="14.00">NONTERMINAL</text>
<text text-anchor="middle" x="463.75" y="-158.2" font-family="Times New Roman,serif" font-size="14.00">type: Element</text>
</g>
<!-- 8&#45;&gt;10 -->
<g id="edge9" class="edge">
<title>8&#45;&gt;10</title>
<path fill="none" stroke="black" d="M458.59,-227.79C459.28,-220.45 460.07,-211.91 460.83,-203.78"/>
<polygon fill="black" stroke="black" points="464.31,-204.12 461.76,-193.84 457.34,-203.47 464.31,-204.12"/>
</g>
<!-- 11 -->
<g id="node11" class="node">
<title>11</title>
<polygon fill="none" stroke="black" points="226.75,-115 114.75,-57.5 226.75,0 338.75,-57.5 226.75,-115"/>
<text text-anchor="middle" x="226.75" y="-68.95" font-family="Times New Roman,serif" font-size="14.00">TERMINAL</text>
<text text-anchor="middle" x="226.75" y="-52.45" font-family="Times New Roman,serif" font-size="14.00">type: key_name</text>
<text text-anchor="middle" x="226.75" y="-35.95" font-family="Times New Roman,serif" font-size="14.00">string: &#39;OUTPUT&#39;</text>
</g>
<!-- 9&#45;&gt;11 -->
<g id="edge10" class="edge">
<title>9&#45;&gt;11</title>
<path fill="none" stroke="black" d="M271.22,-150.73C266.25,-140.43 259.9,-127.25 253.56,-114.1"/>
<polygon fill="black" stroke="black" points="256.89,-112.94 249.39,-105.46 250.58,-115.98 256.89,-112.94"/>
</g>
<!-- 12 -->
<g id="node12" class="node">
<title>12</title>
<polygon fill="none" stroke="black" points="470.75,-115 356.5,-57.5 470.75,0 585,-57.5 470.75,-115"/>
<text text-anchor="middle" x="470.75" y="-68.95" font-family="Times New Roman,serif" font-size="14.00">TERMINAL</text>
<text text-anchor="middle" x="470.75" y="-52.45" font-family="Times New Roman,serif" font-size="14.00">type: name</text>
<text text-anchor="middle" x="470.75" y="-35.95" font-family="Times New Roman,serif" font-size="14.00">string: Expression</text>
</g>
<!-- 10&#45;&gt;12 -->
<g id="edge11" class="edge">
<title>10&#45;&gt;12</title>
<path fill="none" stroke="black" d="M464.99,-150.73C465.45,-143.32 466,-134.43 466.59,-125.13"/>
<polygon fill="black" stroke="black" points="470.08,-125.36 467.21,-115.16 463.09,-124.93 470.08,-125.36"/>
</g>
</g>
</svg>
