<?xml version="1.0" encoding="UTF-8" standalone="no"?>
<!DOCTYPE svg PUBLIC "-//W3C//DTD SVG 1.1//EN"
 "http://www.w3.org/Graphics/SVG/1.1/DTD/svg11.dtd">
<!-- Generated by graphviz version 12.2.0 (20241103.1931)
 -->
<!-- Title: ast_Terminal Pages: 1 -->
<svg width="841pt" height="582pt"
 viewBox="0.00 0.00 841.00 582.00" xmlns="http://www.w3.org/2000/svg" xmlns:xlink="http://www.w3.org/1999/xlink">
<g id="graph0" class="graph" transform="scale(1 1) rotate(0) translate(4 578)">
<title>ast_Terminal</title>
<polygon fill="white" stroke="none" points="-4,4 -4,-578 837,-578 837,4 -4,4"/>
<!-- 1 -->
<g id="node1" class="node">
<title>1</title>
<polygon fill="none" stroke="black" points="392.88,-574 277.12,-574 277.12,-533 392.88,-533 392.88,-574"/>
<text text-anchor="middle" x="335" y="-556.7" font-family="Times New Roman,serif" font-size="14.00">NONTERMINAL</text>
<text text-anchor="middle" x="335" y="-540.2" font-family="Times New Roman,serif" font-size="14.00">type: Rule</text>
</g>
<!-- 2 -->
<g id="node2" class="node">
<title>2</title>
<polygon fill="none" stroke="black" points="103,-497 0,-439.5 103,-382 206,-439.5 103,-497"/>
<text text-anchor="middle" x="103" y="-450.95" font-family="Times New Roman,serif" font-size="14.00">TERMINAL</text>
<text text-anchor="middle" x="103" y="-434.45" font-family="Times New Roman,serif" font-size="14.00">type: name</text>
<text text-anchor="middle" x="103" y="-417.95" font-family="Times New Roman,serif" font-size="14.00">string: Terminal</text>
</g>
<!-- 1&#45;&gt;2 -->
<g id="edge1" class="edge">
<title>1&#45;&gt;2</title>
<path fill="none" stroke="black" d="M290.95,-532.56C268.18,-522.15 240.01,-509.09 215,-497 199.16,-489.34 182.16,-480.89 166.31,-472.91"/>
<polygon fill="black" stroke="black" points="167.94,-469.81 157.44,-468.43 164.78,-476.06 167.94,-469.81"/>
</g>
<!-- 3 -->
<g id="node3" class="node">
<title>3</title>
<ellipse fill="none" stroke="black" cx="273" cy="-439.5" rx="49.5" ry="28.99"/>
<text text-anchor="middle" x="273" y="-442.7" font-family="Times New Roman,serif" font-size="14.00">KEY</text>
<text text-anchor="middle" x="273" y="-426.2" font-family="Times New Roman,serif" font-size="14.00">string: ::=</text>
</g>
<!-- 1&#45;&gt;3 -->
<g id="edge2" class="edge">
<title>1&#45;&gt;3</title>
<path fill="none" stroke="black" d="M324.06,-532.73C315.55,-517.37 303.51,-495.62 293.26,-477.11"/>
<polygon fill="black" stroke="black" points="296.43,-475.59 288.52,-468.54 290.3,-478.98 296.43,-475.59"/>
</g>
<!-- 4 -->
<g id="node4" class="node">
<title>4</title>
<polygon fill="none" stroke="black" points="455.88,-460 340.12,-460 340.12,-419 455.88,-419 455.88,-460"/>
<text text-anchor="middle" x="398" y="-442.7" font-family="Times New Roman,serif" font-size="14.00">NONTERMINAL</text>
<text text-anchor="middle" x="398" y="-426.2" font-family="Times New Roman,serif" font-size="14.00">type: Alternative</text>
</g>
<!-- 1&#45;&gt;4 -->
<g id="edge3" class="edge">
<title>1&#45;&gt;4</title>
<path fill="none" stroke="black" d="M346.12,-532.73C355.82,-515.49 370.04,-490.2 381.14,-470.47"/>
<polygon fill="black" stroke="black" points="384.19,-472.2 386.04,-461.76 378.09,-468.76 384.19,-472.2"/>
</g>
<!-- 5 -->
<g id="node5" class="node">
<title>5</title>
<ellipse fill="none" stroke="black" cx="515" cy="-439.5" rx="41.01" ry="28.99"/>
<text text-anchor="middle" x="515" y="-442.7" font-family="Times New Roman,serif" font-size="14.00">KEY</text>
<text text-anchor="middle" x="515" y="-426.2" font-family="Times New Roman,serif" font-size="14.00">string: ;</text>
</g>
<!-- 1&#45;&gt;5 -->
<g id="edge4" class="edge">
<title>1&#45;&gt;5</title>
<path fill="none" stroke="black" d="M393.23,-533.97C416.76,-524.92 443.41,-512.58 465,-497 473.74,-490.7 482.02,-482.61 489.24,-474.54"/>
<polygon fill="black" stroke="black" points="491.83,-476.91 495.65,-467.02 486.5,-472.36 491.83,-476.91"/>
</g>
<!-- 6 -->
<g id="node6" class="node">
<title>6</title>
<polygon fill="none" stroke="black" points="455.88,-346 340.12,-346 340.12,-305 455.88,-305 455.88,-346"/>
<text text-anchor="middle" x="398" y="-328.7" font-family="Times New Roman,serif" font-size="14.00">NONTERMINAL</text>
<text text-anchor="middle" x="398" y="-312.2" font-family="Times New Roman,serif" font-size="14.00">type: Sequence</text>
</g>
<!-- 4&#45;&gt;6 -->
<g id="edge5" class="edge">
<title>4&#45;&gt;6</title>
<path fill="none" stroke="black" d="M398,-418.73C398,-401.88 398,-377.37 398,-357.84"/>
<polygon fill="black" stroke="black" points="401.5,-357.96 398,-347.96 394.5,-357.96 401.5,-357.96"/>
</g>
<!-- 7 -->
<g id="node7" class="node">
<title>7</title>
<polygon fill="none" stroke="black" points="310,-269 192,-269 192,-228 310,-228 310,-269"/>
<text text-anchor="middle" x="251" y="-251.7" font-family="Times New Roman,serif" font-size="14.00">NONTERMINAL</text>
<text text-anchor="middle" x="251" y="-235.2" font-family="Times New Roman,serif" font-size="14.00">type: RuleElement</text>
</g>
<!-- 6&#45;&gt;7 -->
<g id="edge6" class="edge">
<title>6&#45;&gt;7</title>
<path fill="none" stroke="black" d="M358.99,-304.6C340.97,-295.4 319.36,-284.38 300.23,-274.62"/>
<polygon fill="black" stroke="black" points="302.04,-271.61 291.54,-270.18 298.85,-277.85 302.04,-271.61"/>
</g>
<!-- 8 -->
<g id="node8" class="node">
<title>8</title>
<polygon fill="none" stroke="black" points="457,-269 339,-269 339,-228 457,-228 457,-269"/>
<text text-anchor="middle" x="398" y="-251.7" font-family="Times New Roman,serif" font-size="14.00">NONTERMINAL</text>
<text text-anchor="middle" x="398" y="-235.2" font-family="Times New Roman,serif" font-size="14.00">type: RuleElement</text>
</g>
<!-- 6&#45;&gt;8 -->
<g id="edge7" class="edge">
<title>6&#45;&gt;8</title>
<path fill="none" stroke="black" d="M398,-304.79C398,-297.45 398,-288.91 398,-280.78"/>
<polygon fill="black" stroke="black" points="401.5,-280.85 398,-270.85 394.5,-280.85 401.5,-280.85"/>
</g>
<!-- 9 -->
<g id="node9" class="node">
<title>9</title>
<polygon fill="none" stroke="black" points="664,-269 546,-269 546,-228 664,-228 664,-269"/>
<text text-anchor="middle" x="605" y="-251.7" font-family="Times New Roman,serif" font-size="14.00">NONTERMINAL</text>
<text text-anchor="middle" x="605" y="-235.2" font-family="Times New Roman,serif" font-size="14.00">type: RuleElement</text>
</g>
<!-- 6&#45;&gt;9 -->
<g id="edge8" class="edge">
<title>6&#45;&gt;9</title>
<path fill="none" stroke="black" d="M452.93,-304.6C479.36,-295.02 511.27,-283.46 539.01,-273.41"/>
<polygon fill="black" stroke="black" points="540.18,-276.71 548.39,-270.01 537.8,-270.13 540.18,-276.71"/>
</g>
<!-- 10 -->
<g id="node10" class="node">
<title>10</title>
<polygon fill="none" stroke="black" points="286.88,-192 171.12,-192 171.12,-151 286.88,-151 286.88,-192"/>
<text text-anchor="middle" x="229" y="-174.7" font-family="Times New Roman,serif" font-size="14.00">NONTERMINAL</text>
<text text-anchor="middle" x="229" y="-158.2" font-family="Times New Roman,serif" font-size="14.00">type: Element</text>
</g>
<!-- 7&#45;&gt;10 -->
<g id="edge9" class="edge">
<title>7&#45;&gt;10</title>
<path fill="none" stroke="black" d="M245.22,-227.79C243.01,-220.28 240.44,-211.51 238.01,-203.21"/>
<polygon fill="black" stroke="black" points="241.42,-202.4 235.24,-193.79 234.7,-204.37 241.42,-202.4"/>
</g>
<!-- 11 -->
<g id="node11" class="node">
<title>11</title>
<polygon fill="none" stroke="black" points="455.88,-192 340.12,-192 340.12,-151 455.88,-151 455.88,-192"/>
<text text-anchor="middle" x="398" y="-174.7" font-family="Times New Roman,serif" font-size="14.00">NONTERMINAL</text>
<text text-anchor="middle" x="398" y="-158.2" font-family="Times New Roman,serif" font-size="14.00">type: Element</text>
</g>
<!-- 8&#45;&gt;11 -->
<g id="edge10" class="edge">
<title>8&#45;&gt;11</title>
<path fill="none" stroke="black" d="M398,-227.79C398,-220.45 398,-211.91 398,-203.78"/>
<polygon fill="black" stroke="black" points="401.5,-203.85 398,-193.85 394.5,-203.85 401.5,-203.85"/>
</g>
<!-- 12 -->
<g id="node12" class="node">
<title>12</title>
<polygon fill="none" stroke="black" points="697.88,-192 582.12,-192 582.12,-151 697.88,-151 697.88,-192"/>
<text text-anchor="middle" x="640" y="-174.7" font-family="Times New Roman,serif" font-size="14.00">NONTERMINAL</text>
<text text-anchor="middle" x="640" y="-158.2" font-family="Times New Roman,serif" font-size="14.00">type: Element</text>
</g>
<!-- 9&#45;&gt;12 -->
<g id="edge11" class="edge">
<title>9&#45;&gt;12</title>
<path fill="none" stroke="black" d="M614.2,-227.79C617.78,-220.1 621.98,-211.11 625.93,-202.65"/>
<polygon fill="black" stroke="black" points="629.05,-204.25 630.1,-193.71 622.7,-201.29 629.05,-204.25"/>
</g>
<!-- 13 -->
<g id="node13" class="node">
<title>13</title>
<ellipse fill="none" stroke="black" cx="218" cy="-57.5" rx="59.04" ry="28.99"/>
<text text-anchor="middle" x="218" y="-60.7" font-family="Times New Roman,serif" font-size="14.00">KEY</text>
<text text-anchor="middle" x="218" y="-44.2" font-family="Times New Roman,serif" font-size="14.00">string: None</text>
</g>
<!-- 10&#45;&gt;13 -->
<g id="edge12" class="edge">
<title>10&#45;&gt;13</title>
<path fill="none" stroke="black" d="M227.06,-150.73C225.63,-136.21 223.65,-115.98 221.9,-98.17"/>
<polygon fill="black" stroke="black" points="225.4,-98.01 220.94,-88.4 218.43,-98.7 225.4,-98.01"/>
</g>
<!-- 14 -->
<g id="node14" class="node">
<title>14</title>
<polygon fill="none" stroke="black" points="398,-115 295,-57.5 398,0 501,-57.5 398,-115"/>
<text text-anchor="middle" x="398" y="-68.95" font-family="Times New Roman,serif" font-size="14.00">TERMINAL</text>
<text text-anchor="middle" x="398" y="-52.45" font-family="Times New Roman,serif" font-size="14.00">type: key_name</text>
<text text-anchor="middle" x="398" y="-35.95" font-family="Times New Roman,serif" font-size="14.00">string: &#39;::=&#39;</text>
</g>
<!-- 11&#45;&gt;14 -->
<g id="edge13" class="edge">
<title>11&#45;&gt;14</title>
<path fill="none" stroke="black" d="M398,-150.73C398,-143.67 398,-135.26 398,-126.43"/>
<polygon fill="black" stroke="black" points="401.5,-126.61 398,-116.61 394.5,-126.61 401.5,-126.61"/>
</g>
<!-- 15 -->
<g id="node15" class="node">
<title>15</title>
<polygon fill="none" stroke="black" points="676,-115 519,-57.5 676,0 833,-57.5 676,-115"/>
<text text-anchor="middle" x="676" y="-68.95" font-family="Times New Roman,serif" font-size="14.00">TERMINAL</text>
<text text-anchor="middle" x="676" y="-52.45" font-family="Times New Roman,serif" font-size="14.00">type: name</text>
<text text-anchor="middle" x="676" y="-35.95" font-family="Times New Roman,serif" font-size="14.00">string: regular_expression</text>
</g>
<!-- 12&#45;&gt;15 -->
<g id="edge14" class="edge">
<title>12&#45;&gt;15</title>
<path fill="none" stroke="black" d="M646.35,-150.73C649.17,-141.98 652.65,-131.15 656.22,-120.03"/>
<polygon fill="black" stroke="black" points="659.47,-121.37 659.2,-110.77 652.81,-119.22 659.47,-121.37"/>
</g>
</g>
</svg>
