<?xml version="1.0" encoding="UTF-8" standalone="no"?>
<!DOCTYPE svg PUBLIC "-//W3C//DTD SVG 1.1//EN"
 "http://www.w3.org/Graphics/SVG/1.1/DTD/svg11.dtd">
<!-- Generated by graphviz version 12.2.0 (20241103.1931)
 -->
<!-- Title: ast_KeysBlock Pages: 1 -->
<svg width="1242pt" height="964pt"
 viewBox="0.00 0.00 1242.00 964.00" xmlns="http://www.w3.org/2000/svg" xmlns:xlink="http://www.w3.org/1999/xlink">
<g id="graph0" class="graph" transform="scale(1 1) rotate(0) translate(4 960)">
<title>ast_KeysBlock</title>
<polygon fill="white" stroke="none" points="-4,4 -4,-960 1238,-960 1238,4 -4,4"/>
<!-- 1 -->
<g id="node1" class="node">
<title>1</title>
<polygon fill="none" stroke="black" points="543.88,-956 428.12,-956 428.12,-915 543.88,-915 543.88,-956"/>
<text text-anchor="middle" x="486" y="-938.7" font-family="Times New Roman,serif" font-size="14.00">NONTERMINAL</text>
<text text-anchor="middle" x="486" y="-922.2" font-family="Times New Roman,serif" font-size="14.00">type: Rule</text>
</g>
<!-- 2 -->
<g id="node2" class="node">
<title>2</title>
<polygon fill="none" stroke="black" points="242,-879 127.75,-821.5 242,-764 356.25,-821.5 242,-879"/>
<text text-anchor="middle" x="242" y="-832.95" font-family="Times New Roman,serif" font-size="14.00">TERMINAL</text>
<text text-anchor="middle" x="242" y="-816.45" font-family="Times New Roman,serif" font-size="14.00">type: name</text>
<text text-anchor="middle" x="242" y="-799.95" font-family="Times New Roman,serif" font-size="14.00">string: KeysBlock</text>
</g>
<!-- 1&#45;&gt;2 -->
<g id="edge1" class="edge">
<title>1&#45;&gt;2</title>
<path fill="none" stroke="black" d="M442.66,-914.61C406.22,-897.88 353.47,-873.67 311.2,-854.26"/>
<polygon fill="black" stroke="black" points="312.89,-851.19 302.34,-850.2 309.97,-857.55 312.89,-851.19"/>
</g>
<!-- 3 -->
<g id="node3" class="node">
<title>3</title>
<ellipse fill="none" stroke="black" cx="424" cy="-821.5" rx="49.5" ry="28.99"/>
<text text-anchor="middle" x="424" y="-824.7" font-family="Times New Roman,serif" font-size="14.00">KEY</text>
<text text-anchor="middle" x="424" y="-808.2" font-family="Times New Roman,serif" font-size="14.00">string: ::=</text>
</g>
<!-- 1&#45;&gt;3 -->
<g id="edge2" class="edge">
<title>1&#45;&gt;3</title>
<path fill="none" stroke="black" d="M475.06,-914.73C466.55,-899.37 454.51,-877.62 444.26,-859.11"/>
<polygon fill="black" stroke="black" points="447.43,-857.59 439.52,-850.54 441.3,-860.98 447.43,-857.59"/>
</g>
<!-- 4 -->
<g id="node4" class="node">
<title>4</title>
<polygon fill="none" stroke="black" points="606.88,-842 491.12,-842 491.12,-801 606.88,-801 606.88,-842"/>
<text text-anchor="middle" x="549" y="-824.7" font-family="Times New Roman,serif" font-size="14.00">NONTERMINAL</text>
<text text-anchor="middle" x="549" y="-808.2" font-family="Times New Roman,serif" font-size="14.00">type: Alternative</text>
</g>
<!-- 1&#45;&gt;4 -->
<g id="edge3" class="edge">
<title>1&#45;&gt;4</title>
<path fill="none" stroke="black" d="M497.12,-914.73C506.82,-897.49 521.04,-872.2 532.14,-852.47"/>
<polygon fill="black" stroke="black" points="535.19,-854.2 537.04,-843.76 529.09,-850.76 535.19,-854.2"/>
</g>
<!-- 5 -->
<g id="node5" class="node">
<title>5</title>
<ellipse fill="none" stroke="black" cx="666" cy="-821.5" rx="41.01" ry="28.99"/>
<text text-anchor="middle" x="666" y="-824.7" font-family="Times New Roman,serif" font-size="14.00">KEY</text>
<text text-anchor="middle" x="666" y="-808.2" font-family="Times New Roman,serif" font-size="14.00">string: ;</text>
</g>
<!-- 1&#45;&gt;5 -->
<g id="edge4" class="edge">
<title>1&#45;&gt;5</title>
<path fill="none" stroke="black" d="M544.23,-915.97C567.76,-906.92 594.41,-894.58 616,-879 624.74,-872.7 633.02,-864.61 640.24,-856.54"/>
<polygon fill="black" stroke="black" points="642.83,-858.91 646.65,-849.02 637.5,-854.36 642.83,-858.91"/>
</g>
<!-- 6 -->
<g id="node6" class="node">
<title>6</title>
<polygon fill="none" stroke="black" points="606.88,-728 491.12,-728 491.12,-687 606.88,-687 606.88,-728"/>
<text text-anchor="middle" x="549" y="-710.7" font-family="Times New Roman,serif" font-size="14.00">NONTERMINAL</text>
<text text-anchor="middle" x="549" y="-694.2" font-family="Times New Roman,serif" font-size="14.00">type: Sequence</text>
</g>
<!-- 4&#45;&gt;6 -->
<g id="edge5" class="edge">
<title>4&#45;&gt;6</title>
<path fill="none" stroke="black" d="M549,-800.73C549,-783.88 549,-759.37 549,-739.84"/>
<polygon fill="black" stroke="black" points="552.5,-739.96 549,-729.96 545.5,-739.96 552.5,-739.96"/>
</g>
<!-- 7 -->
<g id="node7" class="node">
<title>7</title>
<polygon fill="none" stroke="black" points="310,-651 192,-651 192,-610 310,-610 310,-651"/>
<text text-anchor="middle" x="251" y="-633.7" font-family="Times New Roman,serif" font-size="14.00">NONTERMINAL</text>
<text text-anchor="middle" x="251" y="-617.2" font-family="Times New Roman,serif" font-size="14.00">type: RuleElement</text>
</g>
<!-- 6&#45;&gt;7 -->
<g id="edge6" class="edge">
<title>6&#45;&gt;7</title>
<path fill="none" stroke="black" d="M490.84,-691.86C442.31,-679.65 373,-662.21 321.36,-649.21"/>
<polygon fill="black" stroke="black" points="322.31,-645.84 311.76,-646.79 320.6,-652.63 322.31,-645.84"/>
</g>
<!-- 8 -->
<g id="node8" class="node">
<title>8</title>
<polygon fill="none" stroke="black" points="468,-651 350,-651 350,-610 468,-610 468,-651"/>
<text text-anchor="middle" x="409" y="-633.7" font-family="Times New Roman,serif" font-size="14.00">NONTERMINAL</text>
<text text-anchor="middle" x="409" y="-617.2" font-family="Times New Roman,serif" font-size="14.00">type: RuleElement</text>
</g>
<!-- 6&#45;&gt;8 -->
<g id="edge7" class="edge">
<title>6&#45;&gt;8</title>
<path fill="none" stroke="black" d="M511.85,-686.6C494.84,-677.49 474.49,-666.58 456.39,-656.89"/>
<polygon fill="black" stroke="black" points="458.13,-653.85 447.66,-652.21 454.82,-660.02 458.13,-653.85"/>
</g>
<!-- 9 -->
<g id="node9" class="node">
<title>9</title>
<polygon fill="none" stroke="black" points="656,-651 538,-651 538,-610 656,-610 656,-651"/>
<text text-anchor="middle" x="597" y="-633.7" font-family="Times New Roman,serif" font-size="14.00">NONTERMINAL</text>
<text text-anchor="middle" x="597" y="-617.2" font-family="Times New Roman,serif" font-size="14.00">type: RuleElement</text>
</g>
<!-- 6&#45;&gt;9 -->
<g id="edge8" class="edge">
<title>6&#45;&gt;9</title>
<path fill="none" stroke="black" d="M561.61,-686.79C566.7,-678.85 572.67,-669.51 578.25,-660.8"/>
<polygon fill="black" stroke="black" points="581.05,-662.92 583.49,-652.61 575.15,-659.14 581.05,-662.92"/>
</g>
<!-- 10 -->
<g id="node10" class="node">
<title>10</title>
<polygon fill="none" stroke="black" points="862,-651 744,-651 744,-610 862,-610 862,-651"/>
<text text-anchor="middle" x="803" y="-633.7" font-family="Times New Roman,serif" font-size="14.00">NONTERMINAL</text>
<text text-anchor="middle" x="803" y="-617.2" font-family="Times New Roman,serif" font-size="14.00">type: RuleElement</text>
</g>
<!-- 6&#45;&gt;10 -->
<g id="edge9" class="edge">
<title>6&#45;&gt;10</title>
<path fill="none" stroke="black" d="M607.27,-689.29C644.62,-678.26 693.33,-663.88 732.8,-652.23"/>
<polygon fill="black" stroke="black" points="733.63,-655.63 742.23,-649.45 731.64,-648.92 733.63,-655.63"/>
</g>
<!-- 11 -->
<g id="node11" class="node">
<title>11</title>
<polygon fill="none" stroke="black" points="264.88,-574 149.12,-574 149.12,-533 264.88,-533 264.88,-574"/>
<text text-anchor="middle" x="207" y="-556.7" font-family="Times New Roman,serif" font-size="14.00">NONTERMINAL</text>
<text text-anchor="middle" x="207" y="-540.2" font-family="Times New Roman,serif" font-size="14.00">type: Element</text>
</g>
<!-- 7&#45;&gt;11 -->
<g id="edge10" class="edge">
<title>7&#45;&gt;11</title>
<path fill="none" stroke="black" d="M239.44,-609.79C234.83,-601.93 229.42,-592.71 224.35,-584.08"/>
<polygon fill="black" stroke="black" points="227.48,-582.49 219.4,-575.64 221.44,-586.04 227.48,-582.49"/>
</g>
<!-- 12 -->
<g id="node12" class="node">
<title>12</title>
<polygon fill="none" stroke="black" points="432.88,-574 317.12,-574 317.12,-533 432.88,-533 432.88,-574"/>
<text text-anchor="middle" x="375" y="-556.7" font-family="Times New Roman,serif" font-size="14.00">NONTERMINAL</text>
<text text-anchor="middle" x="375" y="-540.2" font-family="Times New Roman,serif" font-size="14.00">type: Element</text>
</g>
<!-- 8&#45;&gt;12 -->
<g id="edge11" class="edge">
<title>8&#45;&gt;12</title>
<path fill="none" stroke="black" d="M400.07,-609.79C396.58,-602.1 392.51,-593.11 388.67,-584.65"/>
<polygon fill="black" stroke="black" points="391.93,-583.38 384.62,-575.71 385.56,-586.27 391.93,-583.38"/>
</g>
<!-- 13 -->
<g id="node13" class="node">
<title>13</title>
<polygon fill="none" stroke="black" points="726.88,-574 611.12,-574 611.12,-533 726.88,-533 726.88,-574"/>
<text text-anchor="middle" x="669" y="-556.7" font-family="Times New Roman,serif" font-size="14.00">NONTERMINAL</text>
<text text-anchor="middle" x="669" y="-540.2" font-family="Times New Roman,serif" font-size="14.00">type: Iteration</text>
</g>
<!-- 9&#45;&gt;13 -->
<g id="edge12" class="edge">
<title>9&#45;&gt;13</title>
<path fill="none" stroke="black" d="M615.92,-609.79C623.96,-601.42 633.47,-591.51 642.21,-582.4"/>
<polygon fill="black" stroke="black" points="644.51,-585.06 648.91,-575.43 639.46,-580.22 644.51,-585.06"/>
</g>
<!-- 14 -->
<g id="node14" class="node">
<title>14</title>
<polygon fill="none" stroke="black" points="896.88,-574 781.12,-574 781.12,-533 896.88,-533 896.88,-574"/>
<text text-anchor="middle" x="839" y="-556.7" font-family="Times New Roman,serif" font-size="14.00">NONTERMINAL</text>
<text text-anchor="middle" x="839" y="-540.2" font-family="Times New Roman,serif" font-size="14.00">type: Element</text>
</g>
<!-- 10&#45;&gt;14 -->
<g id="edge13" class="edge">
<title>10&#45;&gt;14</title>
<path fill="none" stroke="black" d="M812.46,-609.79C816.15,-602.1 820.46,-593.11 824.53,-584.65"/>
<polygon fill="black" stroke="black" points="827.65,-586.23 828.82,-575.7 821.34,-583.2 827.65,-586.23"/>
</g>
<!-- 15 -->
<g id="node15" class="node">
<title>15</title>
<polygon fill="none" stroke="black" points="103,-497 0,-439.5 103,-382 206,-439.5 103,-497"/>
<text text-anchor="middle" x="103" y="-450.95" font-family="Times New Roman,serif" font-size="14.00">TERMINAL</text>
<text text-anchor="middle" x="103" y="-434.45" font-family="Times New Roman,serif" font-size="14.00">type: key_name</text>
<text text-anchor="middle" x="103" y="-417.95" font-family="Times New Roman,serif" font-size="14.00">string: &#39;KEYS&#39;</text>
</g>
<!-- 11&#45;&gt;15 -->
<g id="edge14" class="edge">
<title>11&#45;&gt;15</title>
<path fill="none" stroke="black" d="M188.65,-532.73C176.63,-519.79 160.41,-502.33 145.32,-486.08"/>
<polygon fill="black" stroke="black" points="147.96,-483.77 138.59,-478.83 142.83,-488.54 147.96,-483.77"/>
</g>
<!-- 16 -->
<g id="node16" class="node">
<title>16</title>
<polygon fill="none" stroke="black" points="327,-497 224,-439.5 327,-382 430,-439.5 327,-497"/>
<text text-anchor="middle" x="327" y="-450.95" font-family="Times New Roman,serif" font-size="14.00">TERMINAL</text>
<text text-anchor="middle" x="327" y="-434.45" font-family="Times New Roman,serif" font-size="14.00">type: key_name</text>
<text text-anchor="middle" x="327" y="-417.95" font-family="Times New Roman,serif" font-size="14.00">string: &#39;:&#39;</text>
</g>
<!-- 12&#45;&gt;16 -->
<g id="edge15" class="edge">
<title>12&#45;&gt;16</title>
<path fill="none" stroke="black" d="M366.53,-532.73C362.15,-522.53 356.57,-509.5 350.99,-496.48"/>
<polygon fill="black" stroke="black" points="354.29,-495.3 347.14,-487.48 347.86,-498.06 354.29,-495.3"/>
</g>
<!-- 17 -->
<g id="node17" class="node">
<title>17</title>
<ellipse fill="none" stroke="black" cx="491" cy="-439.5" rx="43.13" ry="28.99"/>
<text text-anchor="middle" x="491" y="-442.7" font-family="Times New Roman,serif" font-size="14.00">KEY</text>
<text text-anchor="middle" x="491" y="-426.2" font-family="Times New Roman,serif" font-size="14.00">string: {</text>
</g>
<!-- 13&#45;&gt;17 -->
<g id="edge16" class="edge">
<title>13&#45;&gt;17</title>
<path fill="none" stroke="black" d="M610.83,-532.72C588.52,-523.67 563.51,-511.67 543,-497 533.99,-490.55 525.34,-482.34 517.78,-474.18"/>
<polygon fill="black" stroke="black" points="520.58,-472.06 511.33,-466.91 515.35,-476.71 520.58,-472.06"/>
</g>
<!-- 18 -->
<g id="node18" class="node">
<title>18</title>
<polygon fill="none" stroke="black" points="667.88,-460 552.12,-460 552.12,-419 667.88,-419 667.88,-460"/>
<text text-anchor="middle" x="610" y="-442.7" font-family="Times New Roman,serif" font-size="14.00">NONTERMINAL</text>
<text text-anchor="middle" x="610" y="-426.2" font-family="Times New Roman,serif" font-size="14.00">type: Alternative</text>
</g>
<!-- 13&#45;&gt;18 -->
<g id="edge17" class="edge">
<title>13&#45;&gt;18</title>
<path fill="none" stroke="black" d="M658.59,-532.73C649.5,-515.49 636.18,-490.2 625.79,-470.47"/>
<polygon fill="black" stroke="black" points="628.97,-469 621.21,-461.78 622.78,-472.26 628.97,-469"/>
</g>
<!-- 19 -->
<g id="node19" class="node">
<title>19</title>
<ellipse fill="none" stroke="black" cx="729" cy="-439.5" rx="43.13" ry="28.99"/>
<text text-anchor="middle" x="729" y="-442.7" font-family="Times New Roman,serif" font-size="14.00">KEY</text>
<text text-anchor="middle" x="729" y="-426.2" font-family="Times New Roman,serif" font-size="14.00">string: #</text>
</g>
<!-- 13&#45;&gt;19 -->
<g id="edge18" class="edge">
<title>13&#45;&gt;19</title>
<path fill="none" stroke="black" d="M679.59,-532.73C687.82,-517.37 699.47,-495.62 709.39,-477.11"/>
<polygon fill="black" stroke="black" points="712.34,-479.01 713.98,-468.55 706.17,-475.71 712.34,-479.01"/>
</g>
<!-- 20 -->
<g id="node20" class="node">
<title>20</title>
<polygon fill="none" stroke="black" points="905.88,-460 790.12,-460 790.12,-419 905.88,-419 905.88,-460"/>
<text text-anchor="middle" x="848" y="-442.7" font-family="Times New Roman,serif" font-size="14.00">NONTERMINAL</text>
<text text-anchor="middle" x="848" y="-426.2" font-family="Times New Roman,serif" font-size="14.00">type: Alternative</text>
</g>
<!-- 13&#45;&gt;20 -->
<g id="edge19" class="edge">
<title>13&#45;&gt;20</title>
<path fill="none" stroke="black" d="M715.33,-532.61C736.05,-522.94 760.4,-510.5 781,-497 793.95,-488.51 807.2,-477.84 818.45,-468.06"/>
<polygon fill="black" stroke="black" points="820.72,-470.73 825.88,-461.48 816.08,-465.49 820.72,-470.73"/>
</g>
<!-- 21 -->
<g id="node21" class="node">
<title>21</title>
<ellipse fill="none" stroke="black" cx="967" cy="-439.5" rx="43.13" ry="28.99"/>
<text text-anchor="middle" x="967" y="-442.7" font-family="Times New Roman,serif" font-size="14.00">KEY</text>
<text text-anchor="middle" x="967" y="-426.2" font-family="Times New Roman,serif" font-size="14.00">string: }</text>
</g>
<!-- 13&#45;&gt;21 -->
<g id="edge20" class="edge">
<title>13&#45;&gt;21</title>
<path fill="none" stroke="black" d="M727.29,-541.25C794.78,-527.92 898.82,-506.36 915,-497 924.85,-491.3 933.91,-483.12 941.62,-474.75"/>
<polygon fill="black" stroke="black" points="944.25,-477.05 948.14,-467.2 938.96,-472.48 944.25,-477.05"/>
</g>
<!-- 22 -->
<g id="node22" class="node">
<title>22</title>
<polygon fill="none" stroke="black" points="1131,-497 1028,-439.5 1131,-382 1234,-439.5 1131,-497"/>
<text text-anchor="middle" x="1131" y="-450.95" font-family="Times New Roman,serif" font-size="14.00">TERMINAL</text>
<text text-anchor="middle" x="1131" y="-434.45" font-family="Times New Roman,serif" font-size="14.00">type: key_name</text>
<text text-anchor="middle" x="1131" y="-417.95" font-family="Times New Roman,serif" font-size="14.00">string: &#39;.&#39;</text>
</g>
<!-- 14&#45;&gt;22 -->
<g id="edge21" class="edge">
<title>14&#45;&gt;22</title>
<path fill="none" stroke="black" d="M897.01,-537.29C932.71,-527.28 979.12,-513.08 1019,-497 1035.81,-490.22 1053.53,-481.88 1069.79,-473.71"/>
<polygon fill="black" stroke="black" points="1071.03,-477 1078.35,-469.34 1067.85,-470.77 1071.03,-477"/>
</g>
<!-- 23 -->
<g id="node23" class="node">
<title>23</title>
<polygon fill="none" stroke="black" points="667.88,-346 552.12,-346 552.12,-305 667.88,-305 667.88,-346"/>
<text text-anchor="middle" x="610" y="-328.7" font-family="Times New Roman,serif" font-size="14.00">NONTERMINAL</text>
<text text-anchor="middle" x="610" y="-312.2" font-family="Times New Roman,serif" font-size="14.00">type: Sequence</text>
</g>
<!-- 18&#45;&gt;23 -->
<g id="edge22" class="edge">
<title>18&#45;&gt;23</title>
<path fill="none" stroke="black" d="M610,-418.73C610,-401.88 610,-377.37 610,-357.84"/>
<polygon fill="black" stroke="black" points="613.5,-357.96 610,-347.96 606.5,-357.96 613.5,-357.96"/>
</g>
<!-- 24 -->
<g id="node24" class="node">
<title>24</title>
<polygon fill="none" stroke="black" points="905.88,-346 790.12,-346 790.12,-305 905.88,-305 905.88,-346"/>
<text text-anchor="middle" x="848" y="-328.7" font-family="Times New Roman,serif" font-size="14.00">NONTERMINAL</text>
<text text-anchor="middle" x="848" y="-312.2" font-family="Times New Roman,serif" font-size="14.00">type: Sequence</text>
</g>
<!-- 20&#45;&gt;24 -->
<g id="edge23" class="edge">
<title>20&#45;&gt;24</title>
<path fill="none" stroke="black" d="M848,-418.73C848,-401.88 848,-377.37 848,-357.84"/>
<polygon fill="black" stroke="black" points="851.5,-357.96 848,-347.96 844.5,-357.96 851.5,-357.96"/>
</g>
<!-- 25 -->
<g id="node25" class="node">
<title>25</title>
<polygon fill="none" stroke="black" points="669,-269 551,-269 551,-228 669,-228 669,-269"/>
<text text-anchor="middle" x="610" y="-251.7" font-family="Times New Roman,serif" font-size="14.00">NONTERMINAL</text>
<text text-anchor="middle" x="610" y="-235.2" font-family="Times New Roman,serif" font-size="14.00">type: RuleElement</text>
</g>
<!-- 23&#45;&gt;25 -->
<g id="edge24" class="edge">
<title>23&#45;&gt;25</title>
<path fill="none" stroke="black" d="M610,-304.79C610,-297.45 610,-288.91 610,-280.78"/>
<polygon fill="black" stroke="black" points="613.5,-280.85 610,-270.85 606.5,-280.85 613.5,-280.85"/>
</g>
<!-- 26 -->
<g id="node26" class="node">
<title>26</title>
<polygon fill="none" stroke="black" points="907,-269 789,-269 789,-228 907,-228 907,-269"/>
<text text-anchor="middle" x="848" y="-251.7" font-family="Times New Roman,serif" font-size="14.00">NONTERMINAL</text>
<text text-anchor="middle" x="848" y="-235.2" font-family="Times New Roman,serif" font-size="14.00">type: RuleElement</text>
</g>
<!-- 24&#45;&gt;26 -->
<g id="edge25" class="edge">
<title>24&#45;&gt;26</title>
<path fill="none" stroke="black" d="M848,-304.79C848,-297.45 848,-288.91 848,-280.78"/>
<polygon fill="black" stroke="black" points="851.5,-280.85 848,-270.85 844.5,-280.85 851.5,-280.85"/>
</g>
<!-- 27 -->
<g id="node27" class="node">
<title>27</title>
<polygon fill="none" stroke="black" points="667.88,-192 552.12,-192 552.12,-151 667.88,-151 667.88,-192"/>
<text text-anchor="middle" x="610" y="-174.7" font-family="Times New Roman,serif" font-size="14.00">NONTERMINAL</text>
<text text-anchor="middle" x="610" y="-158.2" font-family="Times New Roman,serif" font-size="14.00">type: Element</text>
</g>
<!-- 25&#45;&gt;27 -->
<g id="edge26" class="edge">
<title>25&#45;&gt;27</title>
<path fill="none" stroke="black" d="M610,-227.79C610,-220.45 610,-211.91 610,-203.78"/>
<polygon fill="black" stroke="black" points="613.5,-203.85 610,-193.85 606.5,-203.85 613.5,-203.85"/>
</g>
<!-- 28 -->
<g id="node28" class="node">
<title>28</title>
<polygon fill="none" stroke="black" points="905.88,-192 790.12,-192 790.12,-151 905.88,-151 905.88,-192"/>
<text text-anchor="middle" x="848" y="-174.7" font-family="Times New Roman,serif" font-size="14.00">NONTERMINAL</text>
<text text-anchor="middle" x="848" y="-158.2" font-family="Times New Roman,serif" font-size="14.00">type: Element</text>
</g>
<!-- 26&#45;&gt;28 -->
<g id="edge27" class="edge">
<title>26&#45;&gt;28</title>
<path fill="none" stroke="black" d="M848,-227.79C848,-220.45 848,-211.91 848,-203.78"/>
<polygon fill="black" stroke="black" points="851.5,-203.85 848,-193.85 844.5,-203.85 851.5,-203.85"/>
</g>
<!-- 29 -->
<g id="node29" class="node">
<title>29</title>
<polygon fill="none" stroke="black" points="610,-115 499.5,-57.5 610,0 720.5,-57.5 610,-115"/>
<text text-anchor="middle" x="610" y="-68.95" font-family="Times New Roman,serif" font-size="14.00">TERMINAL</text>
<text text-anchor="middle" x="610" y="-52.45" font-family="Times New Roman,serif" font-size="14.00">type: name</text>
<text text-anchor="middle" x="610" y="-35.95" font-family="Times New Roman,serif" font-size="14.00">string: key_name</text>
</g>
<!-- 27&#45;&gt;29 -->
<g id="edge28" class="edge">
<title>27&#45;&gt;29</title>
<path fill="none" stroke="black" d="M610,-150.73C610,-143.67 610,-135.26 610,-126.43"/>
<polygon fill="black" stroke="black" points="613.5,-126.61 610,-116.61 606.5,-126.61 613.5,-126.61"/>
</g>
<!-- 30 -->
<g id="node30" class="node">
<title>30</title>
<polygon fill="none" stroke="black" points="848,-115 745,-57.5 848,0 951,-57.5 848,-115"/>
<text text-anchor="middle" x="848" y="-68.95" font-family="Times New Roman,serif" font-size="14.00">TERMINAL</text>
<text text-anchor="middle" x="848" y="-52.45" font-family="Times New Roman,serif" font-size="14.00">type: key_name</text>
<text text-anchor="middle" x="848" y="-35.95" font-family="Times New Roman,serif" font-size="14.00">string: &#39;;&#39;</text>
</g>
<!-- 28&#45;&gt;30 -->
<g id="edge29" class="edge">
<title>28&#45;&gt;30</title>
<path fill="none" stroke="black" d="M848,-150.73C848,-143.67 848,-135.26 848,-126.43"/>
<polygon fill="black" stroke="black" points="851.5,-126.61 848,-116.61 844.5,-126.61 851.5,-126.61"/>
</g>
</g>
</svg>
