<?xml version="1.0" encoding="UTF-8" standalone="no"?>
<!DOCTYPE svg PUBLIC "-//W3C//DTD SVG 1.1//EN"
 "http://www.w3.org/Graphics/SVG/1.1/DTD/svg11.dtd">
<!-- Generated by graphviz version 12.2.0 (20241103.1931)
 -->
<!-- Title: ast_ArrayDecl Pages: 1 -->
<svg width="1863pt" height="599pt"
 viewBox="0.00 0.00 1862.50 598.98" xmlns="http://www.w3.org/2000/svg" xmlns:xlink="http://www.w3.org/1999/xlink">
<g id="graph0" class="graph" transform="scale(1 1) rotate(0) translate(4 594.98)">
<title>ast_ArrayDecl</title>
<polygon fill="white" stroke="none" points="-4,4 -4,-594.98 1858.5,-594.98 1858.5,4 -4,4"/>
<!-- 1 -->
<g id="node1" class="node">
<title>1</title>
<polygon fill="none" stroke="black" points="919.12,-590.98 803.38,-590.98 803.38,-549.98 919.12,-549.98 919.12,-590.98"/>
<text text-anchor="middle" x="861.25" y="-573.68" font-family="Times New Roman,serif" font-size="14.00">NONTERMINAL</text>
<text text-anchor="middle" x="861.25" y="-557.18" font-family="Times New Roman,serif" font-size="14.00">type: Rule</text>
</g>
<!-- 2 -->
<g id="node2" class="node">
<title>2</title>
<polygon fill="none" stroke="black" points="621.25,-513.98 510.75,-456.48 621.25,-398.98 731.75,-456.48 621.25,-513.98"/>
<text text-anchor="middle" x="621.25" y="-467.93" font-family="Times New Roman,serif" font-size="14.00">TERMINAL</text>
<text text-anchor="middle" x="621.25" y="-451.43" font-family="Times New Roman,serif" font-size="14.00">type: name</text>
<text text-anchor="middle" x="621.25" y="-434.93" font-family="Times New Roman,serif" font-size="14.00">string: ArrayDecl</text>
</g>
<!-- 1&#45;&gt;2 -->
<g id="edge1" class="edge">
<title>1&#45;&gt;2</title>
<path fill="none" stroke="black" d="M817.89,-549.52C795.07,-538.98 766.63,-525.82 741.25,-513.98 724.16,-506.01 705.71,-497.35 688.54,-489.26"/>
<polygon fill="black" stroke="black" points="690.5,-486.32 679.96,-485.22 687.51,-492.65 690.5,-486.32"/>
</g>
<!-- 3 -->
<g id="node3" class="node">
<title>3</title>
<ellipse fill="none" stroke="black" cx="799.25" cy="-456.48" rx="49.5" ry="28.99"/>
<text text-anchor="middle" x="799.25" y="-459.68" font-family="Times New Roman,serif" font-size="14.00">KEY</text>
<text text-anchor="middle" x="799.25" y="-443.18" font-family="Times New Roman,serif" font-size="14.00">string: ::=</text>
</g>
<!-- 1&#45;&gt;3 -->
<g id="edge2" class="edge">
<title>1&#45;&gt;3</title>
<path fill="none" stroke="black" d="M850.31,-549.72C841.8,-534.35 829.76,-512.61 819.51,-494.09"/>
<polygon fill="black" stroke="black" points="822.68,-492.57 814.77,-485.52 816.55,-495.96 822.68,-492.57"/>
</g>
<!-- 4 -->
<g id="node4" class="node">
<title>4</title>
<polygon fill="none" stroke="black" points="982.12,-476.98 866.38,-476.98 866.38,-435.98 982.12,-435.98 982.12,-476.98"/>
<text text-anchor="middle" x="924.25" y="-459.68" font-family="Times New Roman,serif" font-size="14.00">NONTERMINAL</text>
<text text-anchor="middle" x="924.25" y="-443.18" font-family="Times New Roman,serif" font-size="14.00">type: Alternative</text>
</g>
<!-- 1&#45;&gt;4 -->
<g id="edge3" class="edge">
<title>1&#45;&gt;4</title>
<path fill="none" stroke="black" d="M872.37,-549.72C882.07,-532.47 896.29,-507.19 907.39,-487.45"/>
<polygon fill="black" stroke="black" points="910.44,-489.18 912.29,-478.75 904.34,-485.75 910.44,-489.18"/>
</g>
<!-- 5 -->
<g id="node5" class="node">
<title>5</title>
<ellipse fill="none" stroke="black" cx="1041.25" cy="-456.48" rx="41.01" ry="28.99"/>
<text text-anchor="middle" x="1041.25" y="-459.68" font-family="Times New Roman,serif" font-size="14.00">KEY</text>
<text text-anchor="middle" x="1041.25" y="-443.18" font-family="Times New Roman,serif" font-size="14.00">string: ;</text>
</g>
<!-- 1&#45;&gt;5 -->
<g id="edge4" class="edge">
<title>1&#45;&gt;5</title>
<path fill="none" stroke="black" d="M919.48,-550.95C943.01,-541.9 969.66,-529.56 991.25,-513.98 999.99,-507.68 1008.27,-499.59 1015.49,-491.52"/>
<polygon fill="black" stroke="black" points="1018.08,-493.89 1021.9,-484.01 1012.75,-489.35 1018.08,-493.89"/>
</g>
<!-- 6 -->
<g id="node6" class="node">
<title>6</title>
<polygon fill="none" stroke="black" points="636.12,-354.49 520.38,-354.49 520.38,-313.49 636.12,-313.49 636.12,-354.49"/>
<text text-anchor="middle" x="578.25" y="-337.19" font-family="Times New Roman,serif" font-size="14.00">NONTERMINAL</text>
<text text-anchor="middle" x="578.25" y="-320.69" font-family="Times New Roman,serif" font-size="14.00">type: Sequence</text>
</g>
<!-- 4&#45;&gt;6 -->
<g id="edge5" class="edge">
<title>4&#45;&gt;6</title>
<path fill="none" stroke="black" d="M905.81,-435.7C893.26,-423.37 875.63,-408.16 857.25,-398.98 790.56,-365.69 706.23,-349.44 647.84,-341.69"/>
<polygon fill="black" stroke="black" points="648.38,-338.24 638.02,-340.45 647.5,-345.18 648.38,-338.24"/>
</g>
<!-- 7 -->
<g id="node7" class="node">
<title>7</title>
<ellipse fill="none" stroke="black" cx="924.25" cy="-333.99" rx="40.48" ry="28.99"/>
<text text-anchor="middle" x="924.25" y="-337.19" font-family="Times New Roman,serif" font-size="14.00">KEY</text>
<text text-anchor="middle" x="924.25" y="-320.69" font-family="Times New Roman,serif" font-size="14.00">string: |</text>
</g>
<!-- 4&#45;&gt;7 -->
<g id="edge6" class="edge">
<title>4&#45;&gt;7</title>
<path fill="none" stroke="black" d="M924.25,-435.59C924.25,-418.97 924.25,-394.77 924.25,-374.28"/>
<polygon fill="black" stroke="black" points="927.75,-374.55 924.25,-364.55 920.75,-374.55 927.75,-374.55"/>
</g>
<!-- 8 -->
<g id="node8" class="node">
<title>8</title>
<polygon fill="none" stroke="black" points="1328.12,-354.49 1212.38,-354.49 1212.38,-313.49 1328.12,-313.49 1328.12,-354.49"/>
<text text-anchor="middle" x="1270.25" y="-337.19" font-family="Times New Roman,serif" font-size="14.00">NONTERMINAL</text>
<text text-anchor="middle" x="1270.25" y="-320.69" font-family="Times New Roman,serif" font-size="14.00">type: Sequence</text>
</g>
<!-- 4&#45;&gt;8 -->
<g id="edge7" class="edge">
<title>4&#45;&gt;8</title>
<path fill="none" stroke="black" d="M942.69,-435.7C955.24,-423.37 972.87,-408.16 991.25,-398.98 1057.94,-365.69 1142.27,-349.44 1200.66,-341.69"/>
<polygon fill="black" stroke="black" points="1201,-345.18 1210.48,-340.45 1200.12,-338.24 1201,-345.18"/>
</g>
<!-- 9 -->
<g id="node9" class="node">
<title>9</title>
<polygon fill="none" stroke="black" points="310.25,-269 192.25,-269 192.25,-228 310.25,-228 310.25,-269"/>
<text text-anchor="middle" x="251.25" y="-251.7" font-family="Times New Roman,serif" font-size="14.00">NONTERMINAL</text>
<text text-anchor="middle" x="251.25" y="-235.2" font-family="Times New Roman,serif" font-size="14.00">type: RuleElement</text>
</g>
<!-- 6&#45;&gt;9 -->
<g id="edge8" class="edge">
<title>6&#45;&gt;9</title>
<path fill="none" stroke="black" d="M520.17,-318.16C464.73,-304.01 381.12,-282.66 321.86,-267.53"/>
<polygon fill="black" stroke="black" points="322.75,-264.14 312.19,-265.06 321.02,-270.93 322.75,-264.14"/>
</g>
<!-- 10 -->
<g id="node10" class="node">
<title>10</title>
<polygon fill="none" stroke="black" points="471.25,-269 353.25,-269 353.25,-228 471.25,-228 471.25,-269"/>
<text text-anchor="middle" x="412.25" y="-251.7" font-family="Times New Roman,serif" font-size="14.00">NONTERMINAL</text>
<text text-anchor="middle" x="412.25" y="-235.2" font-family="Times New Roman,serif" font-size="14.00">type: RuleElement</text>
</g>
<!-- 6&#45;&gt;10 -->
<g id="edge9" class="edge">
<title>6&#45;&gt;10</title>
<path fill="none" stroke="black" d="M538.49,-312.99C515.58,-301.47 486.57,-286.88 462.13,-274.59"/>
<polygon fill="black" stroke="black" points="463.83,-271.53 453.33,-270.16 460.69,-277.78 463.83,-271.53"/>
</g>
<!-- 11 -->
<g id="node11" class="node">
<title>11</title>
<polygon fill="none" stroke="black" points="637.25,-269 519.25,-269 519.25,-228 637.25,-228 637.25,-269"/>
<text text-anchor="middle" x="578.25" y="-251.7" font-family="Times New Roman,serif" font-size="14.00">NONTERMINAL</text>
<text text-anchor="middle" x="578.25" y="-235.2" font-family="Times New Roman,serif" font-size="14.00">type: RuleElement</text>
</g>
<!-- 6&#45;&gt;11 -->
<g id="edge10" class="edge">
<title>6&#45;&gt;11</title>
<path fill="none" stroke="black" d="M578.25,-313.21C578.25,-303.5 578.25,-291.59 578.25,-280.7"/>
<polygon fill="black" stroke="black" points="581.75,-280.95 578.25,-270.95 574.75,-280.95 581.75,-280.95"/>
</g>
<!-- 12 -->
<g id="node12" class="node">
<title>12</title>
<polygon fill="none" stroke="black" points="796.25,-269 678.25,-269 678.25,-228 796.25,-228 796.25,-269"/>
<text text-anchor="middle" x="737.25" y="-251.7" font-family="Times New Roman,serif" font-size="14.00">NONTERMINAL</text>
<text text-anchor="middle" x="737.25" y="-235.2" font-family="Times New Roman,serif" font-size="14.00">type: RuleElement</text>
</g>
<!-- 6&#45;&gt;12 -->
<g id="edge11" class="edge">
<title>6&#45;&gt;12</title>
<path fill="none" stroke="black" d="M616.33,-312.99C638.18,-301.52 665.82,-287.01 689.16,-274.75"/>
<polygon fill="black" stroke="black" points="690.63,-277.93 697.86,-270.18 687.38,-271.73 690.63,-277.93"/>
</g>
<!-- 13 -->
<g id="node13" class="node">
<title>13</title>
<polygon fill="none" stroke="black" points="1142.25,-269 1024.25,-269 1024.25,-228 1142.25,-228 1142.25,-269"/>
<text text-anchor="middle" x="1083.25" y="-251.7" font-family="Times New Roman,serif" font-size="14.00">NONTERMINAL</text>
<text text-anchor="middle" x="1083.25" y="-235.2" font-family="Times New Roman,serif" font-size="14.00">type: RuleElement</text>
</g>
<!-- 8&#45;&gt;13 -->
<g id="edge12" class="edge">
<title>8&#45;&gt;13</title>
<path fill="none" stroke="black" d="M1225.46,-312.99C1199.3,-301.31 1166.09,-286.49 1138.34,-274.1"/>
<polygon fill="black" stroke="black" points="1139.94,-270.98 1129.38,-270.1 1137.09,-277.37 1139.94,-270.98"/>
</g>
<!-- 14 -->
<g id="node14" class="node">
<title>14</title>
<polygon fill="none" stroke="black" points="1329.25,-269 1211.25,-269 1211.25,-228 1329.25,-228 1329.25,-269"/>
<text text-anchor="middle" x="1270.25" y="-251.7" font-family="Times New Roman,serif" font-size="14.00">NONTERMINAL</text>
<text text-anchor="middle" x="1270.25" y="-235.2" font-family="Times New Roman,serif" font-size="14.00">type: RuleElement</text>
</g>
<!-- 8&#45;&gt;14 -->
<g id="edge13" class="edge">
<title>8&#45;&gt;14</title>
<path fill="none" stroke="black" d="M1270.25,-313.21C1270.25,-303.5 1270.25,-291.59 1270.25,-280.7"/>
<polygon fill="black" stroke="black" points="1273.75,-280.95 1270.25,-270.95 1266.75,-280.95 1273.75,-280.95"/>
</g>
<!-- 15 -->
<g id="node15" class="node">
<title>15</title>
<polygon fill="none" stroke="black" points="1514.25,-269 1396.25,-269 1396.25,-228 1514.25,-228 1514.25,-269"/>
<text text-anchor="middle" x="1455.25" y="-251.7" font-family="Times New Roman,serif" font-size="14.00">NONTERMINAL</text>
<text text-anchor="middle" x="1455.25" y="-235.2" font-family="Times New Roman,serif" font-size="14.00">type: RuleElement</text>
</g>
<!-- 8&#45;&gt;15 -->
<g id="edge14" class="edge">
<title>8&#45;&gt;15</title>
<path fill="none" stroke="black" d="M1314.56,-312.99C1340.44,-301.31 1373.3,-286.49 1400.75,-274.1"/>
<polygon fill="black" stroke="black" points="1401.92,-277.41 1409.6,-270.1 1399.05,-271.03 1401.92,-277.41"/>
</g>
<!-- 16 -->
<g id="node16" class="node">
<title>16</title>
<polygon fill="none" stroke="black" points="1724.25,-269 1606.25,-269 1606.25,-228 1724.25,-228 1724.25,-269"/>
<text text-anchor="middle" x="1665.25" y="-251.7" font-family="Times New Roman,serif" font-size="14.00">NONTERMINAL</text>
<text text-anchor="middle" x="1665.25" y="-235.2" font-family="Times New Roman,serif" font-size="14.00">type: RuleElement</text>
</g>
<!-- 8&#45;&gt;16 -->
<g id="edge15" class="edge">
<title>8&#45;&gt;16</title>
<path fill="none" stroke="black" d="M1328.53,-320.67C1399.41,-305.69 1518.95,-280.42 1594.88,-264.37"/>
<polygon fill="black" stroke="black" points="1595.22,-267.88 1604.28,-262.39 1593.77,-261.03 1595.22,-267.88"/>
</g>
<!-- 17 -->
<g id="node17" class="node">
<title>17</title>
<polygon fill="none" stroke="black" points="258.12,-192 142.38,-192 142.38,-151 258.12,-151 258.12,-192"/>
<text text-anchor="middle" x="200.25" y="-174.7" font-family="Times New Roman,serif" font-size="14.00">NONTERMINAL</text>
<text text-anchor="middle" x="200.25" y="-158.2" font-family="Times New Roman,serif" font-size="14.00">type: Element</text>
</g>
<!-- 9&#45;&gt;17 -->
<g id="edge16" class="edge">
<title>9&#45;&gt;17</title>
<path fill="none" stroke="black" d="M237.85,-227.79C232.45,-219.85 226.1,-210.51 220.17,-201.8"/>
<polygon fill="black" stroke="black" points="223.11,-199.89 214.59,-193.59 217.32,-203.82 223.11,-199.89"/>
</g>
<!-- 18 -->
<g id="node18" class="node">
<title>18</title>
<polygon fill="none" stroke="black" points="431.12,-192 315.38,-192 315.38,-151 431.12,-151 431.12,-192"/>
<text text-anchor="middle" x="373.25" y="-174.7" font-family="Times New Roman,serif" font-size="14.00">NONTERMINAL</text>
<text text-anchor="middle" x="373.25" y="-158.2" font-family="Times New Roman,serif" font-size="14.00">type: Element</text>
</g>
<!-- 10&#45;&gt;18 -->
<g id="edge17" class="edge">
<title>10&#45;&gt;18</title>
<path fill="none" stroke="black" d="M402,-227.79C397.96,-220.02 393.23,-210.91 388.78,-202.36"/>
<polygon fill="black" stroke="black" points="391.98,-200.93 384.26,-193.68 385.77,-204.16 391.98,-200.93"/>
</g>
<!-- 19 -->
<g id="node19" class="node">
<title>19</title>
<polygon fill="none" stroke="black" points="636.12,-192 520.38,-192 520.38,-151 636.12,-151 636.12,-192"/>
<text text-anchor="middle" x="578.25" y="-174.7" font-family="Times New Roman,serif" font-size="14.00">NONTERMINAL</text>
<text text-anchor="middle" x="578.25" y="-158.2" font-family="Times New Roman,serif" font-size="14.00">type: Element</text>
</g>
<!-- 11&#45;&gt;19 -->
<g id="edge18" class="edge">
<title>11&#45;&gt;19</title>
<path fill="none" stroke="black" d="M578.25,-227.79C578.25,-220.45 578.25,-211.91 578.25,-203.78"/>
<polygon fill="black" stroke="black" points="581.75,-203.85 578.25,-193.85 574.75,-203.85 581.75,-203.85"/>
</g>
<!-- 20 -->
<g id="node20" class="node">
<title>20</title>
<polygon fill="none" stroke="black" points="817.12,-192 701.38,-192 701.38,-151 817.12,-151 817.12,-192"/>
<text text-anchor="middle" x="759.25" y="-174.7" font-family="Times New Roman,serif" font-size="14.00">NONTERMINAL</text>
<text text-anchor="middle" x="759.25" y="-158.2" font-family="Times New Roman,serif" font-size="14.00">type: Element</text>
</g>
<!-- 12&#45;&gt;20 -->
<g id="edge19" class="edge">
<title>12&#45;&gt;20</title>
<path fill="none" stroke="black" d="M743.03,-227.79C745.24,-220.28 747.81,-211.51 750.24,-203.21"/>
<polygon fill="black" stroke="black" points="753.55,-204.37 753.01,-193.79 746.83,-202.4 753.55,-204.37"/>
</g>
<!-- 21 -->
<g id="node21" class="node">
<title>21</title>
<polygon fill="none" stroke="black" points="1115.12,-192 999.38,-192 999.38,-151 1115.12,-151 1115.12,-192"/>
<text text-anchor="middle" x="1057.25" y="-174.7" font-family="Times New Roman,serif" font-size="14.00">NONTERMINAL</text>
<text text-anchor="middle" x="1057.25" y="-158.2" font-family="Times New Roman,serif" font-size="14.00">type: Element</text>
</g>
<!-- 13&#45;&gt;21 -->
<g id="edge20" class="edge">
<title>13&#45;&gt;21</title>
<path fill="none" stroke="black" d="M1076.42,-227.79C1073.81,-220.28 1070.77,-211.51 1067.9,-203.21"/>
<polygon fill="black" stroke="black" points="1071.2,-202.07 1064.62,-193.76 1064.59,-204.36 1071.2,-202.07"/>
</g>
<!-- 22 -->
<g id="node22" class="node">
<title>22</title>
<polygon fill="none" stroke="black" points="1328.12,-192 1212.38,-192 1212.38,-151 1328.12,-151 1328.12,-192"/>
<text text-anchor="middle" x="1270.25" y="-174.7" font-family="Times New Roman,serif" font-size="14.00">NONTERMINAL</text>
<text text-anchor="middle" x="1270.25" y="-158.2" font-family="Times New Roman,serif" font-size="14.00">type: Element</text>
</g>
<!-- 14&#45;&gt;22 -->
<g id="edge21" class="edge">
<title>14&#45;&gt;22</title>
<path fill="none" stroke="black" d="M1270.25,-227.79C1270.25,-220.45 1270.25,-211.91 1270.25,-203.78"/>
<polygon fill="black" stroke="black" points="1273.75,-203.85 1270.25,-193.85 1266.75,-203.85 1273.75,-203.85"/>
</g>
<!-- 23 -->
<g id="node23" class="node">
<title>23</title>
<polygon fill="none" stroke="black" points="1538.12,-192 1422.38,-192 1422.38,-151 1538.12,-151 1538.12,-192"/>
<text text-anchor="middle" x="1480.25" y="-174.7" font-family="Times New Roman,serif" font-size="14.00">NONTERMINAL</text>
<text text-anchor="middle" x="1480.25" y="-158.2" font-family="Times New Roman,serif" font-size="14.00">type: Element</text>
</g>
<!-- 15&#45;&gt;23 -->
<g id="edge22" class="edge">
<title>15&#45;&gt;23</title>
<path fill="none" stroke="black" d="M1461.82,-227.79C1464.32,-220.28 1467.25,-211.51 1470.01,-203.21"/>
<polygon fill="black" stroke="black" points="1473.32,-204.36 1473.16,-193.77 1466.68,-202.15 1473.32,-204.36"/>
</g>
<!-- 24 -->
<g id="node24" class="node">
<title>24</title>
<polygon fill="none" stroke="black" points="1760.12,-192 1644.38,-192 1644.38,-151 1760.12,-151 1760.12,-192"/>
<text text-anchor="middle" x="1702.25" y="-174.7" font-family="Times New Roman,serif" font-size="14.00">NONTERMINAL</text>
<text text-anchor="middle" x="1702.25" y="-158.2" font-family="Times New Roman,serif" font-size="14.00">type: Element</text>
</g>
<!-- 16&#45;&gt;24 -->
<g id="edge23" class="edge">
<title>16&#45;&gt;24</title>
<path fill="none" stroke="black" d="M1674.97,-227.79C1678.77,-220.1 1683.2,-211.11 1687.38,-202.65"/>
<polygon fill="black" stroke="black" points="1690.51,-204.21 1691.8,-193.69 1684.23,-201.11 1690.51,-204.21"/>
</g>
<!-- 25 -->
<g id="node25" class="node">
<title>25</title>
<polygon fill="none" stroke="black" points="105.25,-115 0,-57.5 105.25,0 210.5,-57.5 105.25,-115"/>
<text text-anchor="middle" x="105.25" y="-68.95" font-family="Times New Roman,serif" font-size="14.00">TERMINAL</text>
<text text-anchor="middle" x="105.25" y="-52.45" font-family="Times New Roman,serif" font-size="14.00">type: key_name</text>
<text text-anchor="middle" x="105.25" y="-35.95" font-family="Times New Roman,serif" font-size="14.00">string: &#39;ARRAY&#39;</text>
</g>
<!-- 17&#45;&gt;25 -->
<g id="edge24" class="edge">
<title>17&#45;&gt;25</title>
<path fill="none" stroke="black" d="M183.48,-150.73C172.88,-138.23 158.69,-121.5 145.31,-105.72"/>
<polygon fill="black" stroke="black" points="148.1,-103.61 138.96,-98.24 142.76,-108.13 148.1,-103.61"/>
</g>
<!-- 26 -->
<g id="node26" class="node">
<title>26</title>
<polygon fill="none" stroke="black" points="343.25,-115 229,-57.5 343.25,0 457.5,-57.5 343.25,-115"/>
<text text-anchor="middle" x="343.25" y="-68.95" font-family="Times New Roman,serif" font-size="14.00">TERMINAL</text>
<text text-anchor="middle" x="343.25" y="-52.45" font-family="Times New Roman,serif" font-size="14.00">type: name</text>
<text text-anchor="middle" x="343.25" y="-35.95" font-family="Times New Roman,serif" font-size="14.00">string: Expression</text>
</g>
<!-- 18&#45;&gt;26 -->
<g id="edge25" class="edge">
<title>18&#45;&gt;26</title>
<path fill="none" stroke="black" d="M367.96,-150.73C365.56,-141.79 362.58,-130.68 359.54,-119.3"/>
<polygon fill="black" stroke="black" points="362.97,-118.59 357,-109.84 356.21,-120.4 362.97,-118.59"/>
</g>
<!-- 27 -->
<g id="node27" class="node">
<title>27</title>
<polygon fill="none" stroke="black" points="578.25,-115 475.25,-57.5 578.25,0 681.25,-57.5 578.25,-115"/>
<text text-anchor="middle" x="578.25" y="-68.95" font-family="Times New Roman,serif" font-size="14.00">TERMINAL</text>
<text text-anchor="middle" x="578.25" y="-52.45" font-family="Times New Roman,serif" font-size="14.00">type: key_name</text>
<text text-anchor="middle" x="578.25" y="-35.95" font-family="Times New Roman,serif" font-size="14.00">string: &#39;OF&#39;</text>
</g>
<!-- 19&#45;&gt;27 -->
<g id="edge26" class="edge">
<title>19&#45;&gt;27</title>
<path fill="none" stroke="black" d="M578.25,-150.73C578.25,-143.67 578.25,-135.26 578.25,-126.43"/>
<polygon fill="black" stroke="black" points="581.75,-126.61 578.25,-116.61 574.75,-126.61 581.75,-126.61"/>
</g>
<!-- 28 -->
<g id="node28" class="node">
<title>28</title>
<polygon fill="none" stroke="black" points="804.25,-115 699.75,-57.5 804.25,0 908.75,-57.5 804.25,-115"/>
<text text-anchor="middle" x="804.25" y="-68.95" font-family="Times New Roman,serif" font-size="14.00">TERMINAL</text>
<text text-anchor="middle" x="804.25" y="-52.45" font-family="Times New Roman,serif" font-size="14.00">type: name</text>
<text text-anchor="middle" x="804.25" y="-35.95" font-family="Times New Roman,serif" font-size="14.00">string: Identifier</text>
</g>
<!-- 20&#45;&gt;28 -->
<g id="edge27" class="edge">
<title>20&#45;&gt;28</title>
<path fill="none" stroke="black" d="M767.19,-150.73C771.17,-140.82 776.22,-128.26 781.3,-115.62"/>
<polygon fill="black" stroke="black" points="784.51,-117.03 784.99,-106.45 778.01,-114.42 784.51,-117.03"/>
</g>
<!-- 29 -->
<g id="node29" class="node">
<title>29</title>
<polygon fill="none" stroke="black" points="1032.25,-115 927,-57.5 1032.25,0 1137.5,-57.5 1032.25,-115"/>
<text text-anchor="middle" x="1032.25" y="-68.95" font-family="Times New Roman,serif" font-size="14.00">TERMINAL</text>
<text text-anchor="middle" x="1032.25" y="-52.45" font-family="Times New Roman,serif" font-size="14.00">type: key_name</text>
<text text-anchor="middle" x="1032.25" y="-35.95" font-family="Times New Roman,serif" font-size="14.00">string: &#39;ARRAY&#39;</text>
</g>
<!-- 21&#45;&gt;29 -->
<g id="edge28" class="edge">
<title>21&#45;&gt;29</title>
<path fill="none" stroke="black" d="M1052.84,-150.73C1050.9,-142.07 1048.52,-131.37 1046.06,-120.37"/>
<polygon fill="black" stroke="black" points="1049.52,-119.81 1043.93,-110.81 1042.69,-121.33 1049.52,-119.81"/>
</g>
<!-- 30 -->
<g id="node30" class="node">
<title>30</title>
<polygon fill="none" stroke="black" points="1270.25,-115 1156,-57.5 1270.25,0 1384.5,-57.5 1270.25,-115"/>
<text text-anchor="middle" x="1270.25" y="-68.95" font-family="Times New Roman,serif" font-size="14.00">TERMINAL</text>
<text text-anchor="middle" x="1270.25" y="-52.45" font-family="Times New Roman,serif" font-size="14.00">type: name</text>
<text text-anchor="middle" x="1270.25" y="-35.95" font-family="Times New Roman,serif" font-size="14.00">string: Expression</text>
</g>
<!-- 22&#45;&gt;30 -->
<g id="edge29" class="edge">
<title>22&#45;&gt;30</title>
<path fill="none" stroke="black" d="M1270.25,-150.73C1270.25,-143.67 1270.25,-135.26 1270.25,-126.43"/>
<polygon fill="black" stroke="black" points="1273.75,-126.61 1270.25,-116.61 1266.75,-126.61 1273.75,-126.61"/>
</g>
<!-- 31 -->
<g id="node31" class="node">
<title>31</title>
<polygon fill="none" stroke="black" points="1505.25,-115 1402.25,-57.5 1505.25,0 1608.25,-57.5 1505.25,-115"/>
<text text-anchor="middle" x="1505.25" y="-68.95" font-family="Times New Roman,serif" font-size="14.00">TERMINAL</text>
<text text-anchor="middle" x="1505.25" y="-52.45" font-family="Times New Roman,serif" font-size="14.00">type: key_name</text>
<text text-anchor="middle" x="1505.25" y="-35.95" font-family="Times New Roman,serif" font-size="14.00">string: &#39;OF&#39;</text>
</g>
<!-- 23&#45;&gt;31 -->
<g id="edge30" class="edge">
<title>23&#45;&gt;31</title>
<path fill="none" stroke="black" d="M1484.66,-150.73C1486.62,-141.97 1489.04,-131.14 1491.52,-120.01"/>
<polygon fill="black" stroke="black" points="1494.92,-120.85 1493.68,-110.33 1488.09,-119.33 1494.92,-120.85"/>
</g>
<!-- 32 -->
<g id="node32" class="node">
<title>32</title>
<polygon fill="none" stroke="black" points="1740.25,-115 1626,-57.5 1740.25,0 1854.5,-57.5 1740.25,-115"/>
<text text-anchor="middle" x="1740.25" y="-68.95" font-family="Times New Roman,serif" font-size="14.00">TERMINAL</text>
<text text-anchor="middle" x="1740.25" y="-52.45" font-family="Times New Roman,serif" font-size="14.00">type: name</text>
<text text-anchor="middle" x="1740.25" y="-35.95" font-family="Times New Roman,serif" font-size="14.00">string: Expression</text>
</g>
<!-- 24&#45;&gt;32 -->
<g id="edge31" class="edge">
<title>24&#45;&gt;32</title>
<path fill="none" stroke="black" d="M1708.96,-150.73C1712.15,-141.31 1716.16,-129.49 1720.24,-117.49"/>
<polygon fill="black" stroke="black" points="1723.43,-118.97 1723.33,-108.38 1716.8,-116.72 1723.43,-118.97"/>
</g>
</g>
</svg>
