<?xml version="1.0" encoding="UTF-8" standalone="no"?>
<!DOCTYPE svg PUBLIC "-//W3C//DTD SVG 1.1//EN"
 "http://www.w3.org/Graphics/SVG/1.1/DTD/svg11.dtd">
<!-- Generated by graphviz version 12.2.0 (20241103.1931)
 -->
<!-- Title: ast_Program Pages: 1 -->
<svg width="566pt" height="907pt"
 viewBox="0.00 0.00 565.63 906.98" xmlns="http://www.w3.org/2000/svg" xmlns:xlink="http://www.w3.org/1999/xlink">
<g id="graph0" class="graph" transform="scale(1 1) rotate(0) translate(4 902.98)">
<title>ast_Program</title>
<polygon fill="white" stroke="none" points="-4,4 -4,-902.98 561.63,-902.98 561.63,4 -4,4"/>
<!-- 1 -->
<g id="node1" class="node">
<title>1</title>
<polygon fill="none" stroke="black" points="390.38,-898.98 274.62,-898.98 274.62,-857.98 390.38,-857.98 390.38,-898.98"/>
<text text-anchor="middle" x="332.5" y="-881.68" font-family="Times New Roman,serif" font-size="14.00">NONTERMINAL</text>
<text text-anchor="middle" x="332.5" y="-865.18" font-family="Times New Roman,serif" font-size="14.00">type: Rule</text>
</g>
<!-- 2 -->
<g id="node2" class="node">
<title>2</title>
<polygon fill="none" stroke="black" points="101.5,-821.98 0,-764.48 101.5,-706.98 203,-764.48 101.5,-821.98"/>
<text text-anchor="middle" x="101.5" y="-775.93" font-family="Times New Roman,serif" font-size="14.00">TERMINAL</text>
<text text-anchor="middle" x="101.5" y="-759.43" font-family="Times New Roman,serif" font-size="14.00">type: name</text>
<text text-anchor="middle" x="101.5" y="-742.93" font-family="Times New Roman,serif" font-size="14.00">string: Program</text>
</g>
<!-- 1&#45;&gt;2 -->
<g id="edge1" class="edge">
<title>1&#45;&gt;2</title>
<path fill="none" stroke="black" d="M288.43,-857.58C265.66,-847.18 237.48,-834.11 212.5,-821.98 196.78,-814.35 179.93,-805.91 164.22,-797.93"/>
<polygon fill="black" stroke="black" points="165.94,-794.87 155.44,-793.45 162.76,-801.11 165.94,-794.87"/>
</g>
<!-- 3 -->
<g id="node3" class="node">
<title>3</title>
<ellipse fill="none" stroke="black" cx="270.5" cy="-764.48" rx="49.5" ry="28.99"/>
<text text-anchor="middle" x="270.5" y="-767.68" font-family="Times New Roman,serif" font-size="14.00">KEY</text>
<text text-anchor="middle" x="270.5" y="-751.18" font-family="Times New Roman,serif" font-size="14.00">string: ::=</text>
</g>
<!-- 1&#45;&gt;3 -->
<g id="edge2" class="edge">
<title>1&#45;&gt;3</title>
<path fill="none" stroke="black" d="M321.56,-857.72C313.05,-842.35 301.01,-820.61 290.76,-802.09"/>
<polygon fill="black" stroke="black" points="293.93,-800.57 286.02,-793.52 287.8,-803.96 293.93,-800.57"/>
</g>
<!-- 4 -->
<g id="node4" class="node">
<title>4</title>
<polygon fill="none" stroke="black" points="453.38,-784.98 337.62,-784.98 337.62,-743.98 453.38,-743.98 453.38,-784.98"/>
<text text-anchor="middle" x="395.5" y="-767.68" font-family="Times New Roman,serif" font-size="14.00">NONTERMINAL</text>
<text text-anchor="middle" x="395.5" y="-751.18" font-family="Times New Roman,serif" font-size="14.00">type: Alternative</text>
</g>
<!-- 1&#45;&gt;4 -->
<g id="edge3" class="edge">
<title>1&#45;&gt;4</title>
<path fill="none" stroke="black" d="M343.62,-857.72C353.32,-840.47 367.54,-815.19 378.64,-795.45"/>
<polygon fill="black" stroke="black" points="381.69,-797.18 383.54,-786.75 375.59,-793.75 381.69,-797.18"/>
</g>
<!-- 5 -->
<g id="node5" class="node">
<title>5</title>
<ellipse fill="none" stroke="black" cx="512.5" cy="-764.48" rx="41.01" ry="28.99"/>
<text text-anchor="middle" x="512.5" y="-767.68" font-family="Times New Roman,serif" font-size="14.00">KEY</text>
<text text-anchor="middle" x="512.5" y="-751.18" font-family="Times New Roman,serif" font-size="14.00">string: ;</text>
</g>
<!-- 1&#45;&gt;5 -->
<g id="edge4" class="edge">
<title>1&#45;&gt;5</title>
<path fill="none" stroke="black" d="M390.73,-858.95C414.26,-849.9 440.91,-837.56 462.5,-821.98 471.24,-815.68 479.52,-807.59 486.74,-799.52"/>
<polygon fill="black" stroke="black" points="489.33,-801.89 493.15,-792.01 484,-797.35 489.33,-801.89"/>
</g>
<!-- 6 -->
<g id="node6" class="node">
<title>6</title>
<polygon fill="none" stroke="black" points="453.38,-670.98 337.62,-670.98 337.62,-629.98 453.38,-629.98 453.38,-670.98"/>
<text text-anchor="middle" x="395.5" y="-653.68" font-family="Times New Roman,serif" font-size="14.00">NONTERMINAL</text>
<text text-anchor="middle" x="395.5" y="-637.18" font-family="Times New Roman,serif" font-size="14.00">type: Sequence</text>
</g>
<!-- 4&#45;&gt;6 -->
<g id="edge5" class="edge">
<title>4&#45;&gt;6</title>
<path fill="none" stroke="black" d="M395.5,-743.72C395.5,-726.87 395.5,-702.35 395.5,-682.82"/>
<polygon fill="black" stroke="black" points="399,-682.94 395.5,-672.94 392,-682.94 399,-682.94"/>
</g>
<!-- 7 -->
<g id="node7" class="node">
<title>7</title>
<polygon fill="none" stroke="black" points="454.5,-593.98 336.5,-593.98 336.5,-552.98 454.5,-552.98 454.5,-593.98"/>
<text text-anchor="middle" x="395.5" y="-576.68" font-family="Times New Roman,serif" font-size="14.00">NONTERMINAL</text>
<text text-anchor="middle" x="395.5" y="-560.18" font-family="Times New Roman,serif" font-size="14.00">type: RuleElement</text>
</g>
<!-- 6&#45;&gt;7 -->
<g id="edge6" class="edge">
<title>6&#45;&gt;7</title>
<path fill="none" stroke="black" d="M395.5,-629.78C395.5,-622.43 395.5,-613.89 395.5,-605.76"/>
<polygon fill="black" stroke="black" points="399,-605.83 395.5,-595.83 392,-605.83 399,-605.83"/>
</g>
<!-- 8 -->
<g id="node8" class="node">
<title>8</title>
<polygon fill="none" stroke="black" points="453.38,-516.98 337.62,-516.98 337.62,-475.98 453.38,-475.98 453.38,-516.98"/>
<text text-anchor="middle" x="395.5" y="-499.68" font-family="Times New Roman,serif" font-size="14.00">NONTERMINAL</text>
<text text-anchor="middle" x="395.5" y="-483.18" font-family="Times New Roman,serif" font-size="14.00">type: Iteration</text>
</g>
<!-- 7&#45;&gt;8 -->
<g id="edge7" class="edge">
<title>7&#45;&gt;8</title>
<path fill="none" stroke="black" d="M395.5,-552.78C395.5,-545.43 395.5,-536.89 395.5,-528.76"/>
<polygon fill="black" stroke="black" points="399,-528.83 395.5,-518.83 392,-528.83 399,-528.83"/>
</g>
<!-- 9 -->
<g id="node9" class="node">
<title>9</title>
<ellipse fill="none" stroke="black" cx="276.5" cy="-410.99" rx="43.13" ry="28.99"/>
<text text-anchor="middle" x="276.5" y="-414.19" font-family="Times New Roman,serif" font-size="14.00">KEY</text>
<text text-anchor="middle" x="276.5" y="-397.69" font-family="Times New Roman,serif" font-size="14.00">string: {</text>
</g>
<!-- 8&#45;&gt;9 -->
<g id="edge8" class="edge">
<title>8&#45;&gt;9</title>
<path fill="none" stroke="black" d="M367,-475.48C351.45,-464.58 331.98,-450.92 315.09,-439.07"/>
<polygon fill="black" stroke="black" points="317.45,-436.45 307.25,-433.57 313.43,-442.18 317.45,-436.45"/>
</g>
<!-- 10 -->
<g id="node10" class="node">
<title>10</title>
<polygon fill="none" stroke="black" points="453.38,-431.49 337.62,-431.49 337.62,-390.49 453.38,-390.49 453.38,-431.49"/>
<text text-anchor="middle" x="395.5" y="-414.19" font-family="Times New Roman,serif" font-size="14.00">NONTERMINAL</text>
<text text-anchor="middle" x="395.5" y="-397.69" font-family="Times New Roman,serif" font-size="14.00">type: Alternative</text>
</g>
<!-- 8&#45;&gt;10 -->
<g id="edge9" class="edge">
<title>8&#45;&gt;10</title>
<path fill="none" stroke="black" d="M395.5,-475.7C395.5,-465.99 395.5,-454.08 395.5,-443.19"/>
<polygon fill="black" stroke="black" points="399,-443.44 395.5,-433.44 392,-443.44 399,-443.44"/>
</g>
<!-- 11 -->
<g id="node11" class="node">
<title>11</title>
<ellipse fill="none" stroke="black" cx="514.5" cy="-410.99" rx="43.13" ry="28.99"/>
<text text-anchor="middle" x="514.5" y="-414.19" font-family="Times New Roman,serif" font-size="14.00">KEY</text>
<text text-anchor="middle" x="514.5" y="-397.69" font-family="Times New Roman,serif" font-size="14.00">string: }</text>
</g>
<!-- 8&#45;&gt;11 -->
<g id="edge10" class="edge">
<title>8&#45;&gt;11</title>
<path fill="none" stroke="black" d="M424,-475.48C439.55,-464.58 459.02,-450.92 475.91,-439.07"/>
<polygon fill="black" stroke="black" points="477.57,-442.18 483.75,-433.57 473.55,-436.45 477.57,-442.18"/>
</g>
<!-- 12 -->
<g id="node12" class="node">
<title>12</title>
<polygon fill="none" stroke="black" points="453.38,-346 337.62,-346 337.62,-305 453.38,-305 453.38,-346"/>
<text text-anchor="middle" x="395.5" y="-328.7" font-family="Times New Roman,serif" font-size="14.00">NONTERMINAL</text>
<text text-anchor="middle" x="395.5" y="-312.2" font-family="Times New Roman,serif" font-size="14.00">type: Sequence</text>
</g>
<!-- 10&#45;&gt;12 -->
<g id="edge11" class="edge">
<title>10&#45;&gt;12</title>
<path fill="none" stroke="black" d="M395.5,-390.21C395.5,-380.5 395.5,-368.59 395.5,-357.7"/>
<polygon fill="black" stroke="black" points="399,-357.95 395.5,-347.95 392,-357.95 399,-357.95"/>
</g>
<!-- 13 -->
<g id="node13" class="node">
<title>13</title>
<polygon fill="none" stroke="black" points="454.5,-269 336.5,-269 336.5,-228 454.5,-228 454.5,-269"/>
<text text-anchor="middle" x="395.5" y="-251.7" font-family="Times New Roman,serif" font-size="14.00">NONTERMINAL</text>
<text text-anchor="middle" x="395.5" y="-235.2" font-family="Times New Roman,serif" font-size="14.00">type: RuleElement</text>
</g>
<!-- 12&#45;&gt;13 -->
<g id="edge12" class="edge">
<title>12&#45;&gt;13</title>
<path fill="none" stroke="black" d="M395.5,-304.79C395.5,-297.45 395.5,-288.91 395.5,-280.78"/>
<polygon fill="black" stroke="black" points="399,-280.85 395.5,-270.85 392,-280.85 399,-280.85"/>
</g>
<!-- 14 -->
<g id="node14" class="node">
<title>14</title>
<polygon fill="none" stroke="black" points="453.38,-192 337.62,-192 337.62,-151 453.38,-151 453.38,-192"/>
<text text-anchor="middle" x="395.5" y="-174.7" font-family="Times New Roman,serif" font-size="14.00">NONTERMINAL</text>
<text text-anchor="middle" x="395.5" y="-158.2" font-family="Times New Roman,serif" font-size="14.00">type: Element</text>
</g>
<!-- 13&#45;&gt;14 -->
<g id="edge13" class="edge">
<title>13&#45;&gt;14</title>
<path fill="none" stroke="black" d="M395.5,-227.79C395.5,-220.45 395.5,-211.91 395.5,-203.78"/>
<polygon fill="black" stroke="black" points="399,-203.85 395.5,-193.85 392,-203.85 399,-203.85"/>
</g>
<!-- 15 -->
<g id="node15" class="node">
<title>15</title>
<polygon fill="none" stroke="black" points="395.5,-115 309,-57.5 395.5,0 482,-57.5 395.5,-115"/>
<text text-anchor="middle" x="395.5" y="-68.95" font-family="Times New Roman,serif" font-size="14.00">TERMINAL</text>
<text text-anchor="middle" x="395.5" y="-52.45" font-family="Times New Roman,serif" font-size="14.00">type: name</text>
<text text-anchor="middle" x="395.5" y="-35.95" font-family="Times New Roman,serif" font-size="14.00">string: Block</text>
</g>
<!-- 14&#45;&gt;15 -->
<g id="edge14" class="edge">
<title>14&#45;&gt;15</title>
<path fill="none" stroke="black" d="M395.5,-150.73C395.5,-143.84 395.5,-135.65 395.5,-127.05"/>
<polygon fill="black" stroke="black" points="399,-127.09 395.5,-117.09 392,-127.09 399,-127.09"/>
</g>
</g>
</svg>
